<svg width="50" height="50" viewBox="0 0 50 50" fill="none" xmlns="http://www.w3.org/2000/svg">
<circle cx="25" cy="25" r="25" fill="#BA68C8" fill-opacity="0.3"/>
<g clip-path="url(#clip0_475_1469)">
<path d="M21.56 24.8998C21.8409 25.181 21.9987 25.5623 21.9987 25.9598C21.9987 26.3573 21.8409 26.7385 21.56 27.0198L20.586 27.9958H29C29.3978 27.9958 29.7794 28.1538 30.0607 28.4351C30.342 28.7164 30.5 29.0979 30.5 29.4958C30.5 29.8936 30.342 30.2751 30.0607 30.5564C29.7794 30.8377 29.3978 30.9958 29 30.9958H20.586L21.561 31.9698C21.8424 32.2512 22.0005 32.6328 22.0005 33.0308C22.0005 33.4287 21.8424 33.8104 21.561 34.0918C21.2796 34.3732 20.898 34.5313 20.5 34.5313C20.1021 34.5313 19.7204 34.3732 19.439 34.0918L15.904 30.5558C15.6228 30.2745 15.4648 29.893 15.4648 29.4953C15.4648 29.0975 15.6228 28.7161 15.904 28.4348L19.439 24.8988C19.5783 24.7594 19.7437 24.6488 19.9258 24.5734C20.1078 24.4979 20.303 24.4591 20.5 24.4591C20.6971 24.4591 20.8922 24.4979 21.0743 24.5734C21.2563 24.6488 21.4217 24.7594 21.561 24.8988L21.56 24.8998ZM28.44 15.8998C28.7024 15.6372 29.0528 15.4812 29.4235 15.462C29.7942 15.4428 30.1589 15.5617 30.447 15.7958L30.561 15.8988L34.096 19.4348C34.3585 19.6973 34.5143 20.0478 34.5333 20.4185C34.5523 20.7892 34.4332 21.1538 34.199 21.4418L34.096 21.5558L30.561 25.0918C30.2898 25.367 29.9228 25.527 29.5365 25.5383C29.1502 25.5496 28.7745 25.4114 28.4876 25.1525C28.2007 24.8936 28.0249 24.534 27.9966 24.1486C27.9684 23.7632 28.09 23.3817 28.336 23.0838L28.439 22.9698L29.414 21.9958H21C20.6129 21.9985 20.2397 21.8513 19.9585 21.5852C19.6774 21.3191 19.51 20.9546 19.4914 20.5679C19.4728 20.1812 19.6044 19.8023 19.8588 19.5104C20.1131 19.2185 20.4704 19.0363 20.856 19.0018L21 18.9958H29.414L28.439 18.0208C28.2996 17.8815 28.1891 17.7161 28.1136 17.534C28.0382 17.352 27.9993 17.1568 27.9993 16.9598C27.9993 16.7627 28.0382 16.5676 28.1136 16.3855C28.1891 16.2035 28.2996 16.0381 28.439 15.8988L28.44 15.8998Z" fill="#360040"/>
</g>
<defs>
<clipPath id="clip0_475_1469">
<rect width="24" height="24" fill="white" transform="translate(13 13)"/>
</clipPath>
</defs>
</svg>
