<svg width="116" height="49" viewBox="0 0 116 49" fill="none" xmlns="http://www.w3.org/2000/svg">
<path fill-rule="evenodd" clip-rule="evenodd" d="M115.692 25.7236C115.692 17.4971 111.718 11.0059 104.122 11.0059C96.4936 11.0059 91.8782 17.4971 91.8782 25.6593C91.8782 35.3319 97.3269 40.2164 105.147 40.2164C108.962 40.2164 111.846 39.3488 114.026 38.1277V31.7007C111.846 32.7933 109.346 33.4681 106.173 33.4681C103.064 33.4681 100.308 32.3755 99.9551 28.5836H115.628C115.628 28.1659 115.692 26.4948 115.692 25.7236ZM99.8589 22.6708C99.8589 19.0396 102.07 17.5292 104.09 17.5292C106.045 17.5292 108.128 19.0396 108.128 22.6708H99.8589Z" fill="#555555"/>
<path fill-rule="evenodd" clip-rule="evenodd" d="M79.5063 11.0059C76.3653 11.0059 74.3461 12.4841 73.2243 13.5124L72.8076 11.52H65.7563V48.9892L73.7692 47.2861L73.8012 38.1919C74.9551 39.0274 76.6538 40.2164 79.4743 40.2164C85.2115 40.2164 90.4358 35.589 90.4358 25.4023C90.4038 16.0832 85.1153 11.0059 79.5063 11.0059ZM77.5833 33.1468C75.6922 33.1468 74.5704 32.4719 73.8012 31.6364L73.7692 19.7144C74.6025 18.7825 75.7563 18.1398 77.5833 18.1398C80.4999 18.1398 82.5192 21.4175 82.5192 25.6272C82.5192 29.9333 80.532 33.1468 77.5833 33.1468Z" fill="#555555"/>
<path fill-rule="evenodd" clip-rule="evenodd" d="M54.7307 9.10973L62.7756 7.37444V0.851074L54.7307 2.55422V9.10973Z" fill="#555555"/>
<path d="M62.7756 11.5518H54.7307V39.6697H62.7756V11.5518Z" fill="#555555"/>
<path fill-rule="evenodd" clip-rule="evenodd" d="M46.109 13.9299L45.5962 11.5519H38.6731V39.6699H46.6859V20.6139C48.5769 18.1395 51.7821 18.5894 52.7757 18.9429V11.5519C51.75 11.1663 48 10.4593 46.109 13.9299Z" fill="#555555"/>
<path fill-rule="evenodd" clip-rule="evenodd" d="M30.0833 4.57861L22.2628 6.24962L22.2307 31.9896C22.2307 36.7456 25.7884 40.2483 30.532 40.2483C33.1602 40.2483 35.0833 39.7663 36.141 39.1878V32.6645C35.1153 33.0822 30.0512 34.5604 30.0512 29.8045V18.3966H36.141V11.5519H30.0512L30.0833 4.57861Z" fill="#555555"/>
<path fill-rule="evenodd" clip-rule="evenodd" d="M8.41659 19.7144C8.41659 18.4611 9.44223 17.9791 11.141 17.9791C13.5768 17.9791 16.6538 18.7182 19.0897 20.0357V12.4841C16.4294 11.4236 13.8012 11.0059 11.141 11.0059C4.63454 11.0059 0.307617 14.4122 0.307617 20.1C0.307617 28.9692 12.4871 27.5553 12.4871 31.3793C12.4871 32.8575 11.2051 33.3396 9.41018 33.3396C6.74993 33.3396 3.35249 32.247 0.660181 30.7688V38.4169C3.64095 39.7023 6.65377 40.2486 9.41018 40.2486C16.0768 40.2486 20.6602 36.9387 20.6602 31.1865C20.6281 21.6104 8.41659 23.3135 8.41659 19.7144Z" fill="#555555"/>
</svg>
