<svg width="150" height="38" viewBox="0 0 150 38" fill="none" xmlns="http://www.w3.org/2000/svg">
<path fill-rule="evenodd" clip-rule="evenodd" d="M30.8623 23.864C36.233 25.688 37.5189 25.764 37.5189 25.764V6.08C37.5189 2.736 34.7958 0 31.5431 0H5.97579C2.72315 0 0 2.736 0 6.08V31.92C0 35.264 2.72315 38 5.97579 38H31.4675C34.7958 38 37.4433 35.264 37.4433 31.92V31.692C37.4433 31.692 27.6853 27.588 22.7685 25.156C19.4402 29.26 15.2042 31.768 10.8169 31.768C3.32829 31.768 0.75643 25.156 4.31165 20.748C5.06808 19.76 6.42965 18.924 8.47201 18.392C11.649 17.632 16.7171 18.924 21.4826 20.444C22.3147 18.848 23.0711 17.1 23.6006 15.2H8.92587V13.68H16.4902V11.02H7.33737V9.5H16.4902V5.7C16.4902 5.7 16.4902 5.016 17.171 5.016H20.8775V9.5H29.9546V11.02H20.8775V13.68H28.2905C27.6097 16.644 26.475 19.304 25.1891 21.66C27.3828 22.572 29.3495 23.332 30.8623 23.864Z" fill="#555555"/>
<path fill-rule="evenodd" clip-rule="evenodd" d="M9.07719 20.672C8.16948 20.748 6.35405 21.204 5.44633 22.04C2.5719 24.624 4.31169 29.26 10.1362 29.26C13.5401 29.26 16.9441 27.056 19.5916 23.56C15.8094 21.66 12.5568 20.292 9.07719 20.672Z" fill="#555555"/>
<path fill-rule="evenodd" clip-rule="evenodd" d="M81.3918 5.54779C81.3918 7.52379 82.8291 8.81579 84.7958 8.81579C86.7625 8.81579 88.1997 7.52379 88.1997 5.54779C88.1997 3.64779 86.7625 2.27979 84.7958 2.27979C82.8291 2.27979 81.3918 3.64779 81.3918 5.54779Z" fill="#555555"/>
<path fill-rule="evenodd" clip-rule="evenodd" d="M71.8608 30.7042H77.8366V3.11621H71.8608V30.7042Z" fill="#555555"/>
<path fill-rule="evenodd" clip-rule="evenodd" d="M52.7988 21.1278L56.354 8.81583H56.5053L59.8336 21.1278H52.7988ZM61.4221 4.02783H53.4796L44.5537 30.7038H50.0756L51.5885 25.4598H61.0439L62.4811 30.7038H69.5159L61.4221 4.02783Z" fill="#555555"/>
<path fill-rule="evenodd" clip-rule="evenodd" d="M81.8457 30.7041H87.8215V10.4121H81.8457V30.7041Z" fill="#555555"/>
<path fill-rule="evenodd" clip-rule="evenodd" d="M149.924 10.4878H144.327L140.847 22.7998H140.696L136.611 10.4878H129.955L137.973 30.8558L134.644 37.0878V37.2398H139.864L149.924 10.4878Z" fill="#555555"/>
<path fill-rule="evenodd" clip-rule="evenodd" d="M98.8653 27.2082C98.1845 27.2082 97.5794 27.1322 96.823 26.9042V15.9602C98.0333 15.1242 99.0922 14.6682 100.378 14.6682C102.572 14.6682 104.387 16.4162 104.387 20.2162C104.312 25.0802 101.74 27.2082 98.8653 27.2082ZM102.647 10.0322C100.454 10.0322 98.7897 10.8682 96.823 12.4642V10.4882H90.8472V37.1642H96.823V30.5522C97.9576 30.8562 99.0166 31.0082 100.303 31.0082C105.598 31.0082 110.363 27.0562 110.363 20.0642C110.363 13.7562 106.883 10.0322 102.647 10.0322Z" fill="#555555"/>
<path fill-rule="evenodd" clip-rule="evenodd" d="M122.844 25.7642C121.256 26.6002 120.348 26.9802 119.289 26.9802C117.852 26.9802 116.944 26.0682 116.944 24.5482C116.944 24.0162 117.02 23.4082 117.473 22.9522C118.154 22.2682 119.591 21.7362 122.768 20.9762L122.844 25.7642ZM128.744 25.6122V17.1762C128.744 12.5402 126.021 10.0322 121.256 10.0322C118.23 10.0322 116.112 10.5642 112.254 11.7042L113.313 16.3402C116.793 14.7442 118.381 14.0602 119.97 14.0602C121.936 14.0602 122.768 15.4282 122.768 17.6322V17.7842C115.961 19.0762 113.843 19.7602 112.557 21.1282C111.573 22.1162 111.195 23.4842 111.195 25.1562C111.195 29.0322 114.221 31.1602 117.02 31.1602C119.138 31.1602 120.802 30.4002 123.147 28.6522L123.525 30.7802H129.501L128.744 25.6122Z" fill="#555555"/>
</svg>
