<svg width="200" height="29" viewBox="0 0 200 29" fill="none" xmlns="http://www.w3.org/2000/svg">
<path d="M21.7571 3.61182H1.13425C0.507823 3.61182 0 4.11953 0 4.74584C0 5.37214 0.507823 5.87986 1.13425 5.87986H21.7571C22.3835 5.87986 22.8913 5.37214 22.8913 4.74584C22.8913 4.11953 22.3835 3.61182 21.7571 3.61182Z" fill="#555555"/>
<path d="M63.6316 21.6426L62.7139 19.3849H54.9288L54.0111 21.6838C53.787 22.3299 53.4784 22.9435 53.0934 23.5086C52.9374 23.6774 52.7447 23.808 52.5301 23.8902C52.3155 23.9725 52.0848 24.0042 51.856 23.9828C51.3651 23.9972 50.8879 23.8197 50.5258 23.488C50.3564 23.3506 50.2188 23.178 50.1226 22.9822C50.0265 22.7864 49.9741 22.572 49.969 22.3539C49.9732 22.0942 50.0184 21.8367 50.103 21.591C50.1958 21.323 50.3299 20.9622 50.5361 20.4983L55.465 8.81785L55.9702 7.61167C56.1343 7.19718 56.3453 6.80285 56.5992 6.43641C56.829 6.12097 57.1291 5.86332 57.4757 5.68383C57.8795 5.48516 58.325 5.38618 58.7749 5.39517C59.242 5.37945 59.7059 5.47857 60.1257 5.68383C60.4702 5.8619 60.7699 6.11568 61.0022 6.4261C61.2241 6.73055 61.4109 7.05909 61.559 7.40548C61.7137 7.756 61.9096 8.21991 62.1365 8.79723L67.1375 20.3952C67.4493 20.9966 67.6485 21.6499 67.7252 22.323C67.7183 22.5422 67.6651 22.7575 67.5691 22.9547C67.4732 23.1519 67.3366 23.3266 67.1684 23.4673C66.807 23.8091 66.3253 23.9944 65.8279 23.9828C65.5584 23.9904 65.2907 23.9376 65.0443 23.8282C64.8349 23.731 64.6487 23.5904 64.4978 23.4158C64.308 23.1677 64.1487 22.8977 64.0234 22.6117C63.8481 22.2508 63.7038 21.9209 63.58 21.6529L63.6316 21.6426ZM55.9496 16.6014H61.6724L58.7749 9.24053L55.9496 16.6014Z" fill="#555555"/>
<path d="M70.365 21.952V7.43649C70.3254 6.88951 70.495 6.34789 70.8393 5.92103C71.009 5.73839 71.2175 5.59629 71.4496 5.50527C71.6817 5.41425 71.9313 5.37665 72.1798 5.39526C72.4203 5.38686 72.6598 5.42833 72.8834 5.51704C73.107 5.60575 73.3098 5.73979 73.4791 5.91072C73.6593 6.11908 73.796 6.36145 73.881 6.62351C73.966 6.88557 73.9977 7.16201 73.974 7.43649V21.952C73.9963 22.2271 73.963 22.504 73.8762 22.7661C73.7894 23.0282 73.6509 23.2702 73.4688 23.4777C73.3007 23.6474 73.0996 23.7807 72.8779 23.8693C72.6561 23.958 72.4185 24.0002 72.1798 23.9932C71.9431 24.0017 71.7072 23.9592 71.4884 23.8685C71.2695 23.7778 71.0728 23.641 70.9115 23.4674C70.5383 23.0531 70.3422 22.5091 70.365 21.952Z" fill="#555555"/>
<path d="M81.1714 12.2713V21.9517C81.1923 22.2252 81.1583 22.5002 81.0716 22.7604C80.9848 23.0206 80.847 23.2609 80.6662 23.4672C80.4985 23.6373 80.2974 23.771 80.0756 23.8597C79.8538 23.9484 79.616 23.9902 79.3773 23.9827C79.1405 23.9912 78.9047 23.9487 78.6858 23.8579C78.4669 23.7672 78.2702 23.6304 78.109 23.4569C77.7569 23.0373 77.5797 22.4984 77.614 21.9517V12.3744C77.5747 11.8303 77.7527 11.2928 78.109 10.8796C78.2795 10.7166 78.4823 10.5912 78.7043 10.5113C78.9263 10.4314 79.1626 10.3988 79.3979 10.4156C79.6358 10.408 79.8727 10.4488 80.0943 10.5356C80.3159 10.6225 80.5175 10.7535 80.6868 10.9208C80.8623 11.1076 80.9977 11.3284 81.0846 11.5695C81.1715 11.8107 81.2081 12.0671 81.1921 12.3229L81.1714 12.2713ZM79.3979 8.81771C78.937 8.81581 78.4916 8.65155 78.1399 8.35379C77.9634 8.20613 77.8238 8.0192 77.7325 7.80796C77.6412 7.59672 77.6006 7.36704 77.614 7.1373C77.6083 6.91506 77.6537 6.69447 77.7467 6.49251C77.8396 6.29056 77.9777 6.11261 78.1502 5.97235C78.5018 5.68618 78.9447 5.53613 79.3979 5.54967C79.8421 5.54249 80.2753 5.68807 80.6249 5.96204C80.8038 6.10597 80.9458 6.29048 81.039 6.50026C81.1323 6.71004 81.1741 6.93903 81.1611 7.16823C81.1714 7.3911 81.1314 7.61343 81.0439 7.81868C80.9564 8.02394 80.8238 8.20684 80.6559 8.35379C80.308 8.65804 79.86 8.82323 79.3979 8.81771Z" fill="#555555"/>
<path d="M87.5128 5.69387H92.5654C93.7023 5.67371 94.8375 5.7879 95.9476 6.03408C96.8902 6.26298 97.7683 6.70369 98.5151 7.32274C100.509 8.92411 101.505 11.3605 101.505 14.632C101.518 15.6401 101.418 16.6463 101.206 17.632C101.022 18.4787 100.709 19.2922 100.278 20.0444C99.852 20.7682 99.3084 21.4162 98.6698 21.9619C98.164 22.3873 97.5975 22.7347 96.989 22.9928C96.3596 23.2634 95.6975 23.4505 95.0195 23.5495C94.2339 23.6592 93.4412 23.7109 92.6479 23.7042H87.5953C87.0461 23.7372 86.4972 23.6345 85.9971 23.4052C85.8312 23.3177 85.6846 23.1977 85.566 23.0525C85.4473 22.9073 85.359 22.7398 85.3062 22.5599C85.1838 22.0994 85.1282 21.6237 85.1412 21.1475V7.93098C85.0988 7.67744 85.1074 7.41797 85.1668 7.16784C85.2261 6.91771 85.3349 6.68197 85.4867 6.47448C85.6385 6.267 85.8302 6.09196 86.0507 5.95967C86.2712 5.82739 86.5159 5.74052 86.7704 5.70418C87.0194 5.66046 87.2741 5.66046 87.5231 5.70418L87.5128 5.69387ZM89.0183 8.58047V20.797H91.9571C92.5964 20.797 93.1119 20.797 93.4728 20.797C93.8591 20.758 94.2397 20.675 94.6071 20.5495C94.982 20.4287 95.3315 20.24 95.6382 19.9928C96.9375 18.9619 97.5871 17.1853 97.5871 14.6629C97.6785 13.2793 97.3821 11.8977 96.7312 10.6733C96.2733 9.8769 95.5397 9.27554 94.669 8.98253C93.6797 8.7242 92.6597 8.60279 91.6374 8.62171H89.008L89.0183 8.58047Z" fill="#555555"/>
<path d="M108.198 19.158V21.9518C108.22 22.227 108.187 22.5038 108.1 22.7659C108.013 23.028 107.874 23.27 107.692 23.4775C107.524 23.6472 107.323 23.7805 107.101 23.8691C106.88 23.9578 106.642 24 106.403 23.993C106.168 24.0009 105.933 23.959 105.714 23.8702C105.496 23.7814 105.298 23.6476 105.135 23.4775C104.956 23.2704 104.82 23.0298 104.735 22.7696C104.65 22.5094 104.618 22.2349 104.64 21.9621V12.6837C104.64 11.1786 105.218 10.426 106.372 10.426C106.612 10.4034 106.854 10.4394 107.077 10.531C107.299 10.6226 107.497 10.767 107.651 10.9518C107.946 11.4164 108.097 11.9582 108.084 12.5085C108.427 11.9173 108.87 11.3905 109.394 10.9518C109.915 10.5788 110.548 10.3934 111.188 10.426C111.944 10.4283 112.69 10.6084 113.364 10.9518C113.653 11.0597 113.905 11.2499 114.088 11.499C114.272 11.748 114.378 12.0451 114.395 12.3538C114.402 12.5488 114.365 12.7429 114.286 12.9215C114.208 13.1001 114.09 13.2585 113.941 13.3848C113.681 13.6373 113.334 13.7812 112.972 13.7868C112.649 13.7442 112.331 13.6682 112.023 13.56C111.593 13.421 111.145 13.3446 110.693 13.3332C110.236 13.3152 109.786 13.4494 109.414 13.7147C109.054 14.0154 108.785 14.4121 108.641 14.859C108.45 15.4233 108.325 16.008 108.27 16.6013C108.222 17.2885 108.198 18.1408 108.198 19.158Z" fill="#555555"/>
<path d="M128.707 17.1787C128.718 18.1226 128.55 19.06 128.212 19.9416C127.893 20.7592 127.401 21.4978 126.768 22.1065C126.125 22.7234 125.359 23.1977 124.52 23.4983C123.578 23.8334 122.582 23.9975 121.582 23.9828C120.587 23.9969 119.598 23.8292 118.664 23.4879C117.831 23.191 117.071 22.7189 116.436 22.1036C115.801 21.4883 115.305 20.744 114.982 19.9209C114.326 18.1339 114.326 16.1719 114.982 14.3849C115.295 13.5693 115.781 12.8308 116.405 12.2199C117.05 11.6077 117.816 11.1371 118.653 10.8385C120.551 10.1873 122.612 10.1873 124.51 10.8385C125.345 11.1342 126.107 11.6057 126.743 12.2211C127.38 12.8365 127.878 13.5814 128.202 14.4055C128.538 15.2873 128.706 16.2245 128.697 17.1684L128.707 17.1787ZM125.119 17.1787C125.188 16.0366 124.848 14.9073 124.16 13.9931C123.845 13.6204 123.449 13.3245 123.002 13.128C122.555 12.9315 122.069 12.8395 121.582 12.8591C120.93 12.8439 120.289 13.0195 119.736 13.3642C119.183 13.7296 118.755 14.2546 118.509 14.8694C117.939 16.3526 117.939 17.9944 118.509 19.4776C118.741 20.1036 119.165 20.6401 119.721 21.0104C120.277 21.3808 120.935 21.5659 121.602 21.5395C122.091 21.5594 122.578 21.4665 123.025 21.268C123.472 21.0696 123.867 20.7709 124.18 20.3952C124.873 19.4721 125.21 18.3301 125.129 17.1787H125.119Z" fill="#555555"/>
<path d="M134.811 12.2505V12.6526C135.38 11.953 136.081 11.3716 136.874 10.9413C137.637 10.5672 138.478 10.38 139.328 10.3949C140.391 10.3844 141.438 10.6584 142.359 11.1887C143.308 11.7305 144.078 12.5364 144.576 13.5083C145.136 14.6344 145.412 15.8801 145.38 17.1371C145.39 18.1018 145.233 19.0608 144.916 19.9722C144.642 20.7763 144.207 21.5163 143.638 22.1474C143.106 22.7289 142.455 23.1895 141.73 23.498C140.98 23.8161 140.173 23.9775 139.359 23.9722C138.467 24.0022 137.584 23.8035 136.791 23.3949C136.038 22.9724 135.367 22.4171 134.811 21.7557V26.7866C134.811 28.2574 134.241 28.9928 133.1 28.9928C132.847 29.0269 132.591 28.9922 132.356 28.8924C132.122 28.7926 131.919 28.6313 131.769 28.4258C131.521 27.9093 131.407 27.3383 131.439 26.766V12.333C131.398 11.8194 131.557 11.3097 131.883 10.9103C132.04 10.7496 132.23 10.6241 132.44 10.5424C132.65 10.4606 132.875 10.4244 133.1 10.4361C133.328 10.4273 133.556 10.4658 133.769 10.5492C133.982 10.6326 134.175 10.759 134.337 10.9206C134.505 11.1116 134.633 11.3337 134.714 11.5743C134.795 11.815 134.829 12.0693 134.811 12.3227V12.2505ZM141.792 17.1165C141.813 16.3348 141.666 15.5576 141.359 14.8382C141.111 14.2475 140.7 13.7396 140.173 13.3742C139.673 13.0396 139.084 12.8635 138.482 12.8691C138.014 12.8626 137.55 12.9568 137.121 13.1454C136.692 13.3339 136.309 13.6124 135.997 13.9619C135.259 14.8613 134.891 16.0073 134.966 17.1681C134.907 18.2921 135.276 19.3968 135.997 20.2608C136.306 20.6176 136.69 20.9022 137.121 21.0946C137.552 21.287 138.02 21.3824 138.492 21.3742C139.074 21.3757 139.644 21.2073 140.132 20.8897C140.667 20.5306 141.09 20.0264 141.349 19.4361C141.662 18.7074 141.813 17.9196 141.792 17.1268V17.1165Z" fill="#555555"/>
<path d="M159.713 19.6117C159.739 20.4799 159.474 21.3318 158.96 22.0323C158.447 22.7327 157.714 23.2414 156.878 23.4777C155.778 23.8411 154.623 24.012 153.465 23.9829C152.343 24.0088 151.226 23.8198 150.175 23.4262C149.378 23.156 148.666 22.6793 148.113 22.0447C147.713 21.5817 147.484 20.9961 147.463 20.3849C147.462 20.2074 147.5 20.0317 147.573 19.8698C147.646 19.7079 147.752 19.5637 147.886 19.4468C148.166 19.1868 148.536 19.0462 148.917 19.055C149.224 19.0361 149.528 19.1275 149.773 19.3128C150.005 19.5193 150.2 19.7633 150.351 20.0344C150.679 20.6315 151.175 21.119 151.779 21.4361C152.382 21.7532 153.065 21.886 153.743 21.8179C154.358 21.8449 154.968 21.6907 155.496 21.3746C155.691 21.278 155.858 21.132 155.979 20.9511C156.1 20.7703 156.172 20.5608 156.187 20.3437C156.202 20.0837 156.143 19.8247 156.017 19.5967C155.891 19.3687 155.703 19.1809 155.475 19.055C154.733 18.6954 153.946 18.4354 153.135 18.2818C152.113 18.0603 151.11 17.7605 150.134 17.3849C149.432 17.1138 148.801 16.6873 148.288 16.1375C147.827 15.615 147.58 14.9374 147.597 14.2406C147.603 13.5531 147.826 12.8851 148.237 12.3334C148.722 11.6938 149.375 11.2013 150.124 10.9107C151.081 10.5304 152.105 10.348 153.135 10.3746C153.971 10.3639 154.805 10.4539 155.62 10.6426C156.269 10.7866 156.891 11.03 157.465 11.3643C157.908 11.626 158.291 11.9771 158.589 12.3952C158.82 12.6919 158.957 13.051 158.981 13.4262C158.986 13.6032 158.951 13.7791 158.88 13.9412C158.808 14.1033 158.702 14.2478 158.569 14.3643C158.241 14.6299 157.825 14.7624 157.404 14.7354C157.067 14.7475 156.737 14.6458 156.465 14.4468C156.141 14.1817 155.844 13.8847 155.578 13.5602C155.289 13.2009 154.916 12.9188 154.491 12.7389C154.067 12.559 153.604 12.487 153.145 12.5292C152.584 12.5081 152.028 12.64 151.536 12.9107C151.352 12.9996 151.196 13.1367 151.083 13.3072C150.971 13.4778 150.906 13.6756 150.897 13.8798C150.896 14.0513 150.938 14.2203 151.019 14.3716C151.1 14.5228 151.218 14.6514 151.361 14.7457C151.748 15.0034 152.178 15.1918 152.629 15.3024C153.159 15.4468 153.891 15.6255 154.826 15.8385C155.762 16.0327 156.673 16.3373 157.538 16.7457C158.156 17.0336 158.7 17.4605 159.126 17.9932C159.498 18.4514 159.705 19.0215 159.713 19.6117Z" fill="#555555"/>
<path d="M166.21 7.43649V12.3953C166.605 11.9554 167.052 11.5643 167.54 11.2303C167.976 10.9388 168.457 10.7195 168.963 10.5808C169.517 10.4513 170.085 10.3959 170.654 10.4159C171.489 10.3992 172.317 10.583 173.067 10.952C173.757 11.3031 174.33 11.8476 174.716 12.519C174.975 12.9273 175.15 13.3828 175.232 13.8592C175.325 14.4248 175.37 14.9973 175.366 15.5705V21.9932C175.403 22.5433 175.226 23.0864 174.871 23.5087C174.703 23.6811 174.5 23.8162 174.277 23.905C174.053 23.9938 173.813 24.0344 173.572 24.0241C172.396 24.0241 171.809 23.3368 171.809 21.9623V16.2922C171.859 15.4375 171.685 14.5845 171.303 13.8179C171.089 13.5114 170.796 13.2689 170.454 13.1164C170.113 12.9638 169.736 12.907 169.365 12.952C168.755 12.9479 168.159 13.1275 167.653 13.4674C167.142 13.8075 166.743 14.292 166.509 14.8592C166.27 15.7246 166.173 16.6226 166.22 17.519V21.952C166.259 22.4989 166.09 23.0406 165.746 23.4674C165.576 23.645 165.371 23.7839 165.143 23.8746C164.915 23.9654 164.671 24.0058 164.426 23.9932C163.25 23.9932 162.662 23.3059 162.662 21.9313V7.43649C162.62 6.88773 162.786 6.3432 163.126 5.91072C163.292 5.73552 163.495 5.59863 163.719 5.50961C163.944 5.42058 164.185 5.38156 164.426 5.39525C164.67 5.38198 164.914 5.42111 165.141 5.51002C165.369 5.59894 165.575 5.73556 165.746 5.91072C166.089 6.34175 166.255 6.8874 166.21 7.43649Z" fill="#555555"/>
<path d="M182.45 12.2713V21.9517C182.471 22.2252 182.437 22.5001 182.35 22.7603C182.263 23.0206 182.126 23.2608 181.945 23.4672C181.777 23.6373 181.576 23.7709 181.354 23.8596C181.132 23.9483 180.895 23.9902 180.656 23.9826C180.419 23.9912 180.183 23.9486 179.964 23.8579C179.746 23.7672 179.549 23.6304 179.388 23.4568C179.035 23.0372 178.858 22.4983 178.893 21.9517V12.3744C178.853 11.8302 179.031 11.2927 179.388 10.8795C179.556 10.7192 179.755 10.5953 179.973 10.5155C180.192 10.4357 180.424 10.4017 180.656 10.4156C180.894 10.4079 181.131 10.4487 181.352 10.5356C181.574 10.6224 181.775 10.7535 181.945 10.9208C182.12 11.1076 182.256 11.3283 182.343 11.5695C182.429 11.8106 182.466 12.067 182.45 12.3228V12.2713ZM180.687 8.81767C180.222 8.8182 179.773 8.65379 179.418 8.35375C179.242 8.20609 179.102 8.01915 179.011 7.80791C178.92 7.59667 178.879 7.36699 178.893 7.13725C178.89 6.92103 178.936 6.70702 179.027 6.51084C179.118 6.31466 179.252 6.14125 179.418 6.00323C179.767 5.69983 180.214 5.53477 180.676 5.53932C181.121 5.53214 181.554 5.67772 181.903 5.95169C182.082 6.09562 182.224 6.28013 182.318 6.48991C182.411 6.69968 182.453 6.92868 182.44 7.15787C182.45 7.38327 182.409 7.60813 182.32 7.81535C182.231 8.02257 182.095 8.2067 181.924 8.35375C181.582 8.65327 181.142 8.81814 180.687 8.81767Z" fill="#555555"/>
<path d="M189.431 12.251V12.653C190 11.9537 190.701 11.3723 191.493 10.9417C192.256 10.5681 193.098 10.3808 193.947 10.3953C195.011 10.3848 196.057 10.6589 196.979 11.1891C197.927 11.7309 198.698 12.5369 199.196 13.5087C199.755 14.6348 200.032 15.8805 200 17.1376C200.009 18.1022 199.852 19.0613 199.536 19.9726C199.261 20.7768 198.827 21.5168 198.257 22.1479C197.726 22.7294 197.075 23.1899 196.35 23.4984C195.6 23.8166 194.793 23.978 193.978 23.9726C193.087 24.0032 192.203 23.8044 191.411 23.3953C190.657 22.9729 189.986 22.4175 189.431 21.7561V26.7871C189.431 28.2579 188.86 28.9933 187.719 28.9933C187.467 29.0273 187.21 28.9926 186.976 28.8928C186.742 28.793 186.539 28.6318 186.389 28.4262C186.141 27.9097 186.027 27.3387 186.059 26.7665V12.3335C186.018 11.8198 186.177 11.3102 186.502 10.9108C186.66 10.75 186.85 10.6246 187.06 10.5428C187.27 10.4611 187.494 10.4248 187.719 10.4366C187.948 10.4278 188.176 10.4663 188.389 10.5496C188.601 10.633 188.795 10.7595 188.957 10.9211C189.124 11.112 189.252 11.3342 189.334 11.5748C189.415 11.8154 189.448 12.0697 189.431 12.3232V12.251ZM196.412 17.117C196.433 16.3352 196.285 15.558 195.979 14.8386C195.731 14.2479 195.319 13.7401 194.793 13.3747C194.293 13.04 193.703 12.864 193.102 12.8695C192.633 12.8624 192.169 12.9563 191.74 13.1449C191.311 13.3334 190.928 13.6123 190.617 13.9623C189.879 14.8617 189.51 16.0077 189.586 17.1685C189.527 18.2925 189.895 19.3972 190.617 20.2613C190.926 20.6181 191.31 20.9027 191.741 21.0951C192.172 21.2874 192.64 21.3829 193.112 21.3747C193.694 21.3761 194.264 21.2078 194.752 20.8902C195.264 20.5322 195.667 20.0399 195.917 19.4675C196.252 18.7333 196.421 17.9343 196.412 17.1273V17.117Z" fill="#555555"/>
<path d="M13.0336 11.3539L11.8478 15.4776L14.1575 16.0652L15.4671 11.3539L15.962 9.65284L16.3745 8.25078L16.8694 6.54974L17.2819 5.14768L17.7768 3.44665L18.0758 2.41572H27.1293L26.3353 4.87964H29.5834L30.3258 2.41572H38.9152L35.0587 16.0343L37.3685 16.6116L42.0808 0.106445H16.3023L15.333 3.43634L14.8381 5.13737L14.4359 6.54974L13.9307 8.25078L13.5182 9.65284L13.0336 11.3539ZM36.3167 17.5394L36.0899 17.3333C35.6735 17.072 35.208 16.8987 34.722 16.8243C34.2361 16.7498 33.7401 16.7757 33.2645 16.9003C32.302 17.1484 31.4362 17.68 30.7795 18.426C30.648 18.5708 30.5241 18.7222 30.4083 18.8796C29.7356 19.7937 29.3741 20.8995 29.3771 22.0343C29.3689 22.5657 29.4761 23.0927 29.6916 23.5786C29.907 24.0646 30.2254 24.4979 30.6248 24.8487L30.8929 25.0446C31.3093 25.3059 31.7748 25.4791 32.2607 25.5536C32.7467 25.628 33.2427 25.6022 33.7182 25.4776C34.6761 25.231 35.538 24.7031 36.193 23.9621C37.096 22.9759 37.6028 21.6909 37.616 20.3539C37.6245 19.8064 37.5104 19.2639 37.282 18.7662C37.0536 18.2685 36.7168 17.8282 36.2961 17.4776L36.3167 17.5394ZM34.6256 22.3023L34.3988 22.5807C34.0682 22.965 33.6301 23.2415 33.1408 23.3745C32.9936 23.4176 32.8393 23.4307 32.6869 23.4129C32.5346 23.3952 32.3874 23.3471 32.254 23.2714L32.1715 23.2095C32.0083 23.0577 31.8803 22.872 31.7966 22.6653C31.7128 22.4587 31.6754 22.2363 31.6869 22.0137C31.6899 21.3433 31.9106 20.692 32.3159 20.158L32.5427 19.8796C32.8733 19.4953 33.3115 19.2188 33.8007 19.0858C33.9494 19.0413 34.1057 19.0275 34.2599 19.0452C34.4141 19.0629 34.5631 19.1118 34.6978 19.1889L34.7803 19.2508C34.9436 19.4026 35.0716 19.5884 35.1553 19.795C35.239 20.0016 35.2765 20.224 35.265 20.4467C35.2546 21.1111 35.0304 21.7546 34.6256 22.2817V22.3023ZM15.1474 17.5188L14.869 17.3229C14.4526 17.0617 13.9871 16.8884 13.5012 16.814C13.0152 16.7395 12.5192 16.7654 12.0437 16.89C11.0811 17.1381 10.2153 17.6696 9.55862 18.4157C9.42384 18.5604 9.29651 18.7118 9.1771 18.8693C8.50648 19.7805 8.14515 20.8824 8.14596 22.0137C8.14229 22.5534 8.25774 23.0873 8.4841 23.5774C8.71045 24.0674 9.04214 24.5015 9.45551 24.8487L9.7236 25.0446C10.14 25.3059 10.6055 25.4791 11.0914 25.5536C11.5774 25.628 12.0734 25.6022 12.5489 25.4776C13.5102 25.2323 14.3759 24.7044 15.034 23.9621C15.1659 23.8142 15.2898 23.6593 15.4052 23.4982C16.0765 22.5873 16.4379 21.4853 16.4363 20.3539C16.4449 19.8064 16.3308 19.2639 16.1024 18.7662C15.874 18.2685 15.5371 17.8282 15.1165 17.4776L15.1474 17.5188ZM13.4048 22.2817L13.1882 22.5497C12.8573 22.9336 12.4192 23.21 11.9302 23.3436C11.7815 23.3881 11.6253 23.4019 11.4711 23.3842C11.3169 23.3665 11.1679 23.3176 11.0332 23.2405L10.9507 23.1786C10.7868 23.0272 10.6585 22.8415 10.5747 22.6348C10.4909 22.4281 10.4538 22.2054 10.466 21.9827C10.469 21.3124 10.6897 20.6611 11.095 20.1271L11.3116 19.8487C11.6421 19.4644 12.0803 19.1879 12.5696 19.0549C12.7183 19.0104 12.8745 18.9965 13.0287 19.0143C13.1829 19.032 13.3319 19.0809 13.4666 19.158L13.5491 19.2198C13.7124 19.3717 13.8404 19.5574 13.9241 19.764C14.0078 19.9707 14.0453 20.1931 14.0338 20.4157C14.0308 21.0861 13.8101 21.7373 13.4048 22.2714V22.2817ZM16.9622 21.9415H28.1295L28.6141 20.5188H17.4778L16.9622 21.9415ZM17.6943 19.4879H28.8719L29.439 18.2508H18.148L17.6943 19.4879Z" fill="#555555"/>
<path d="M21.1694 7.07568H4.37208C3.8026 7.07568 3.34094 7.53725 3.34094 8.10661V8.13754C3.34094 8.7069 3.8026 9.16847 4.37208 9.16847H21.1694C21.7388 9.16847 22.2005 8.7069 22.2005 8.13754V8.10661C22.2005 7.53725 21.7388 7.07568 21.1694 7.07568Z" fill="#555555"/>
<path d="M7.21803 10.4155H20.4888C20.7623 10.4155 21.0246 10.5241 21.2179 10.7175C21.4113 10.9108 21.5199 11.173 21.5199 11.4465C21.5199 11.7199 21.4113 11.9821 21.2179 12.1754C21.0246 12.3688 20.7623 12.4774 20.4888 12.4774H7.21803C6.94455 12.4774 6.68228 12.3688 6.4889 12.1754C6.29553 11.9821 6.18689 11.7199 6.18689 11.4465C6.18689 11.173 6.29553 10.9108 6.4889 10.7175C6.68228 10.5241 6.94455 10.4155 7.21803 10.4155Z" fill="#555555"/>
</svg>
