<svg width="100" height="34" viewBox="0 0 100 34" fill="none" xmlns="http://www.w3.org/2000/svg">
<g clip-path="url(#clip0_264_1711)">
<path d="M65.1186 0.83252C58.0253 0.83252 51.6864 4.51269 51.6864 11.3121C51.6864 19.1097 62.9286 19.6483 62.9286 23.5656C62.9286 25.215 61.0403 26.6915 57.815 26.6915C53.2377 26.6915 49.8166 24.6284 49.8166 24.6284L48.3527 31.4897C48.3527 31.4897 52.2938 33.2324 57.5261 33.2324C65.2813 33.2324 71.3838 29.3716 71.3838 22.4559C71.3838 14.2163 60.0947 13.6937 60.0947 10.0578C60.0947 8.76574 61.6449 7.35001 64.8609 7.35001C68.4896 7.35001 71.4501 8.85044 71.4501 8.85044L72.8827 2.22354C72.8827 2.22354 69.6614 0.83252 65.1186 0.83252ZM0.221806 1.33266L0.0500488 2.33295C0.0500488 2.33295 3.03421 2.87963 5.72193 3.97014C9.18259 5.22062 9.42911 5.94859 10.0119 8.20963L16.363 32.7167H24.8767L37.9927 1.33266H29.4985L21.0707 22.6708L17.6317 4.58359C17.3163 2.51353 15.7188 1.33266 13.7633 1.33266H0.221806ZM41.4083 1.33266L34.7449 32.7167H42.8448L49.4848 1.33266H41.4083ZM86.5843 1.33266C84.6311 1.33266 83.5962 2.37938 82.8368 4.20849L70.97 32.7167H79.4641L81.1076 27.9653H91.4559L92.4552 32.7167H99.9501L93.4116 1.33266H86.5843ZM87.689 9.81165L90.2068 21.5885H83.4614L87.689 9.81165Z" fill="#555555"/>
</g>
<defs>
<clipPath id="clip0_264_1711">
<rect width="100" height="32.5" fill="white" transform="translate(0 0.782715)"/>
</clipPath>
</defs>
</svg>
