<svg width="200" height="32" viewBox="0 0 200 32" fill="none" xmlns="http://www.w3.org/2000/svg">
<path d="M64.7104 7.73975H61.1978V25.6909H64.7104V7.73975Z" fill="#555555"/>
<path d="M78.3244 19.3246C78.3244 21.7931 76.71 22.9191 74.5719 22.9191C72.4337 22.9191 70.9938 21.8148 70.9938 19.4545V13.0449H67.4812V20.2557C67.4812 23.8503 69.7502 25.9507 73.5246 25.9507C75.9027 25.9507 77.2118 25.0845 78.1063 24.1101H78.3026L78.6081 25.7125H81.837V13.0449H78.3244V19.3246Z" fill="#555555"/>
<path d="M112.796 23.2006C110.221 23.2006 108.781 22.0312 108.541 20.3422H119.69C119.734 19.9958 119.777 19.6276 119.756 19.2812C119.734 14.7338 116.265 12.8066 112.556 12.8066C108.258 12.8066 105.007 15.3618 105.007 19.4761C105.007 23.3954 108.105 25.9506 112.774 25.9506C116.679 25.9506 119.276 24.24 119.799 21.5982H116.33C115.938 22.6376 114.694 23.2006 112.796 23.2006ZM112.578 15.5567C114.825 15.5567 116.112 16.5528 116.33 17.9386H108.629C108.956 16.5961 110.265 15.5567 112.578 15.5567Z" fill="#555555"/>
<path d="M125.755 14.8639H125.537L125.21 13.0449H122.025V25.6909H125.537V20.2557C125.537 17.8088 126.955 16.4446 129.617 16.4446C130.097 16.4446 130.577 16.4879 131.057 16.5745V13.0449H130.577C128.199 13.0449 126.759 13.543 125.755 14.8639Z" fill="#555555"/>
<path d="M148.293 21.7498H148.096L145.086 13.8461H141.464L138.519 21.7282H138.279L135.486 13.0449H131.995L136.293 25.6909H140.111L143.166 17.6356H143.384L146.395 25.6909H150.234L154.532 13.0449H151.042L148.293 21.7498Z" fill="#555555"/>
<path d="M168.518 22.0096V17.7871C168.518 14.3441 165.594 12.8066 161.95 12.8066C158.089 12.8066 155.667 14.6256 155.34 17.354H158.852C159.114 16.163 160.118 15.5134 161.95 15.5134C163.783 15.5134 165.005 16.2063 165.005 17.5922V17.917L159.267 18.3501C156.627 18.545 154.685 19.7143 154.685 22.2045C154.685 24.7596 156.911 25.9723 160.161 25.9723C162.801 25.9723 164.394 25.236 165.376 24.1533H165.55C166.096 25.3876 167.23 25.7341 168.43 25.7341H169.914V23.1573H169.587C168.867 23.1139 168.518 22.7675 168.518 22.0096ZM165.005 20.667C165.005 22.6592 162.605 23.3305 160.554 23.3305C159.158 23.3305 158.242 22.984 158.242 22.0096C158.242 21.1434 159.027 20.732 160.205 20.6237L165.027 20.2773L165.005 20.667Z" fill="#555555"/>
<path d="M181.521 13.0449L177.419 22.2046H177.201L173.034 13.0449H169.238L175.172 25.6909H179.383L185.295 13.0449H181.521Z" fill="#555555"/>
<path d="M196.531 21.5982C196.095 22.6376 194.851 23.2006 192.975 23.2006C190.4 23.2006 188.96 22.0312 188.72 20.3422H199.869C199.913 19.9958 199.956 19.6276 199.935 19.2812C199.913 14.7338 196.444 12.8066 192.735 12.8066C188.437 12.8066 185.208 15.3618 185.208 19.4761C185.208 23.3954 188.306 25.9506 192.975 25.9506C196.88 25.9506 199.476 24.24 200 21.5982H196.531ZM192.735 15.5567C194.982 15.5567 196.269 16.5528 196.487 17.9386H188.786C189.113 16.5961 190.4 15.5567 192.735 15.5567Z" fill="#555555"/>
<path d="M55.5036 12.1139C55.5036 11.0095 56.289 10.5331 57.3144 10.5331C57.7944 10.5331 58.2525 10.5981 58.7107 10.728L59.2998 8.19448C58.4489 7.89132 57.5544 7.73975 56.6599 7.73975C54.0636 7.73975 51.9691 9.10395 51.9691 11.9406V13.045H48.9365V15.8167H51.9691V25.6909H55.5036V15.8167H59.4743V13.045H55.5036V12.1139Z" fill="#555555"/>
<path d="M89.6259 9.49365H86.3533L86.1788 13.0666H83.408V15.8383H86.1133V22.0746C86.1133 24.1967 87.2042 25.9723 90.4768 25.9723C91.3277 25.9723 92.1785 25.8857 93.0076 25.6908V23.0274C92.5276 23.1357 92.0476 23.2006 91.5458 23.2006C89.8005 23.2006 89.6259 22.2045 89.6259 21.4467V15.8166H93.1167V13.0449H89.6259V9.49365Z" fill="#555555"/>
<path d="M100.665 9.49365H97.4146L97.24 13.0666H94.4692V15.8383H97.1746V22.0746C97.1746 24.1967 98.2655 25.9723 101.538 25.9723C102.389 25.9723 103.218 25.8641 104.047 25.6908V23.0274C103.567 23.1357 103.087 23.2006 102.585 23.2006C100.84 23.2006 100.665 22.2045 100.665 21.4467V15.8166H104.156V13.0449H100.644V9.49365H100.665Z" fill="#555555"/>
<path d="M0 7.2633C0 5.22783 0.589069 3.49551 1.85448 2.26123L4.03622 4.42663C1.61449 6.83022 3.73077 14.3009 10.6469 21.1652C17.563 28.0295 25.09 30.1299 27.5117 27.7263L29.6935 29.8917C25.5918 33.9627 16.2758 31.061 8.46515 23.3306C3.05443 17.9387 0 11.854 0 7.2633Z" fill="#555555"/>
<path d="M13.7669 31.7543C11.716 31.7543 9.97064 31.1696 8.72705 29.9137L10.9088 27.7483C13.3305 30.1519 20.8575 28.0515 27.7736 21.1871C34.6897 14.3228 36.806 6.8522 34.3843 4.4486L36.566 2.2832C40.6677 6.35415 37.7442 15.6004 29.9554 23.3525C24.5228 28.7227 18.3703 31.7543 13.7669 31.7543Z" fill="#555555"/>
<path d="M30.6534 20.2557C29.3226 16.4662 26.6172 12.4169 23.0391 8.86565C15.2285 1.11352 5.9125 -1.76647 1.81083 2.28283C1.5272 2.58599 1.78901 3.30057 2.37808 3.88523C2.96715 4.46989 3.70894 4.72973 3.99257 4.44823C6.4143 2.04464 13.9413 4.14508 20.8574 11.0094C24.13 14.2575 26.5736 17.8954 27.7517 21.2517C28.7771 24.1967 28.6899 26.5786 27.4899 27.7696C27.2063 28.0511 27.4463 28.7657 28.0571 29.372C28.668 29.9783 29.388 30.2165 29.6716 29.935C31.7661 27.8346 32.1152 24.3916 30.6534 20.2557Z" fill="#555555"/>
<path d="M36.5441 2.28304C34.4497 0.204258 30.9807 -0.142206 26.8136 1.28696C22.9955 2.60785 18.9157 5.29295 15.3376 8.8442C7.527 16.5963 4.62528 25.8426 8.72695 29.9135C9.01058 30.195 9.75237 29.9569 10.3414 29.3505C10.9305 28.7442 11.1923 28.0296 10.9087 27.7481C8.48696 25.3445 10.6032 17.8739 17.5194 11.0096C20.792 7.7615 24.4573 5.33626 27.8172 4.16694C30.7843 3.1492 33.1842 3.23582 34.3842 4.42679C34.6678 4.70829 35.3878 4.4701 35.9987 3.86378C36.6096 3.25747 36.8496 2.5862 36.5441 2.28304Z" fill="#555555"/>
</svg>
