<svg width="150" height="21" viewBox="0 0 150 21" fill="none" xmlns="http://www.w3.org/2000/svg">
<path d="M22.4052 15.6924C24.4012 12.8129 27.8942 8.51887 27.7445 5.68985C27.5948 1.95151 23.8024 0.739073 20.01 0.789592C17.3653 0.84011 14.7206 1.59788 12.9741 2.25462C6.78643 4.52793 3.14372 8.21576 1.04791 12.2572C-1.1976 16.2987 0.0998039 20.138 5.73853 20.2391C9.58084 20.0875 12.1258 19.1277 14.5709 17.8647C14.7206 17.8142 14.6208 17.6121 14.4711 17.6121C12.2256 18.2183 6.93613 19.2792 4.49102 17.9658C4.14172 17.7637 3.79242 17.5616 3.64272 16.8544C3.49302 15.4399 5.68863 13.9243 6.93613 13.4696L6.68663 10.9943C7.68463 11.3984 8.78244 11.6005 9.88024 11.6005C11.9761 11.6005 13.8224 10.8427 15.1697 9.57975C15.2695 9.78182 15.3194 10.0344 15.3693 10.287H15.9681C15.9681 9.63027 15.5689 9.12508 15.5689 9.12508C14.9202 8.26628 14.022 8.26628 14.022 8.26628C14.022 8.26628 14.4711 8.46835 14.8703 8.97353C11.6766 11.8025 7.73453 10.388 7.73453 10.388L9.38124 8.56938L8.68264 7.15488C12.4252 5.79089 15.6188 4.73001 20.8583 3.77016L19.5609 2.7598L20.1597 2.35565C23.4531 3.26498 25.6487 3.97223 25.7485 5.68985C25.7485 5.99296 25.6487 6.29607 25.5489 6.70021C24.8004 8.56938 22.3553 11.7015 21.3573 13.015C20.7086 13.8738 20.0599 14.7326 19.6108 15.5409C19.1617 16.3492 18.9122 17.1069 18.9621 17.8647C18.9122 22.1082 26.4471 18.572 29.8403 16.2481C29.9401 16.1976 29.8902 15.9956 29.7405 16.0461C20.1597 19.2287 22.4052 15.6924 22.4052 15.6924Z" fill="#555555"/>
<path d="M107.086 13.9243C107.086 15.7934 106.138 16.7028 104.291 16.7028C103.094 16.7028 102.495 16.2481 102.495 15.3893C102.495 14.581 103.144 14.0758 104.391 13.8737C104.84 13.7727 105.739 13.7727 107.086 13.7727V13.9243ZM112.325 11.3478C112.325 8.11467 109.93 6.59912 105.19 6.49809C100.25 6.39705 98.2037 7.71052 97.7546 10.4385H102.844C103.094 9.52918 103.693 9.07451 104.89 9.07451C106.088 9.12503 106.986 9.73125 107.036 11.3478C104.291 11.3983 102.246 11.5499 100.898 11.9035C98.2037 12.5603 96.9062 14.0253 96.9062 16.046C96.9062 17.41 97.5051 18.3699 98.7027 19.0266C99.6009 19.4812 100.749 19.7844 102.146 19.7338C104.491 19.6328 106.138 18.9761 107.186 17.6121V19.4812H112.325V11.3478Z" fill="#555555"/>
<path d="M144.761 14.0251C144.761 15.8943 143.813 16.8036 141.966 16.8036C140.769 16.8036 140.17 16.3489 140.17 15.4901C140.17 14.6818 140.819 14.1767 142.066 13.9746C142.515 13.8735 143.413 13.8735 144.761 13.8735V14.0251ZM150 11.4992C150 8.26604 147.605 6.75049 142.864 6.64946C137.924 6.54842 135.878 7.86189 135.429 10.5899H140.519C140.769 9.68054 141.367 9.22588 142.565 9.22588C143.763 9.2764 144.661 9.88262 144.711 11.4992C141.966 11.5497 139.92 11.7013 138.573 12.0549C135.878 12.7116 134.581 14.1767 134.581 16.1974C134.581 17.5614 135.18 18.5212 136.377 19.178C137.276 19.6326 138.423 19.9357 139.821 19.8852C142.166 19.7842 143.813 19.1274 144.86 17.7634V19.6326H150V11.4992Z" fill="#555555"/>
<path d="M43.2636 12.4088L46.1578 5.8414L48.9023 12.4088H43.2636ZM43.2636 1.54736L34.3813 19.5823H40.1698L41.567 16.3492H50.4492L51.7466 19.5823H58.1338L49.6508 1.54736H43.2636Z" fill="#555555"/>
<path d="M65.4194 1.54736H59.8306V19.5823H65.4194V1.54736Z" fill="#555555"/>
<path d="M74.551 1.54736H68.9622V5.13415H74.551V1.54736Z" fill="#555555"/>
<path d="M74.551 7.10449H68.9622V19.5825H74.551V7.10449Z" fill="#555555"/>
<path d="M88.6229 15.2883C87.575 16.7028 86.3275 17.0564 84.7806 16.2481C84.6808 16.1976 84.6309 16.1471 84.5311 16.0966C84.0321 15.6419 83.7327 15.0862 83.6329 14.4295C83.4333 13.4696 83.4832 12.5098 83.7327 11.55C83.9323 10.8932 84.2816 10.388 84.7806 10.0344C85.3794 9.68078 86.0281 9.52923 86.7267 9.63027C87.6748 9.78182 88.3734 10.3375 88.7726 11.2468C89.0221 11.8531 89.1219 12.5098 89.1219 13.1665C89.1219 13.9243 88.9722 14.6316 88.6229 15.2883ZM78.044 19.5318H83.4832V17.309V17.2585C84.9303 19.1277 86.7766 19.8854 88.9722 19.8349C90.2197 19.7844 91.3674 19.3297 92.3654 18.6225C93.7626 17.5111 94.5111 15.9956 94.6109 14.1769C94.7606 12.2572 94.3115 10.5396 93.2636 9.02405C92.2157 7.71058 90.9183 6.9528 89.2716 6.80125C87.0261 6.49814 85.08 7.25591 83.4832 8.97353V1.54736H77.9941L78.044 19.5318Z" fill="#555555"/>
<path d="M126.198 15.3386C125.15 16.7531 123.902 17.1067 122.356 16.2984C122.256 16.2479 122.206 16.1974 122.106 16.1469C121.607 15.6922 121.308 15.1365 121.208 14.4798C121.008 13.5199 121.058 12.5601 121.308 11.6002C121.507 10.9435 121.857 10.4383 122.356 10.0847C122.954 9.73108 123.603 9.57952 124.302 9.68056C125.25 9.83211 125.948 10.3878 126.348 11.2971C126.597 11.9034 126.697 12.5601 126.697 13.2168C126.697 13.9746 126.547 14.6819 126.198 15.3386ZM115.619 19.5821H121.058V17.3593V17.3088C122.505 19.178 124.352 19.9357 126.547 19.8852C127.795 19.8347 128.942 19.38 129.94 18.6728C131.338 17.5614 132.086 16.0458 132.186 14.2272C132.336 12.3075 131.886 10.5899 130.839 9.07434C129.791 7.76087 128.493 7.0031 126.847 6.85154C124.601 6.54843 122.655 7.30621 121.058 9.02382V1.59766H115.569L115.619 19.5821Z" fill="#555555"/>
</svg>
