<svg width="150" height="43" viewBox="0 0 150 43" fill="none" xmlns="http://www.w3.org/2000/svg">
<g clip-path="url(#clip0_264_1742)">
<path d="M32.3552 8.32077C32.3262 8.10937 32.1415 7.99209 31.9882 7.97932C31.8361 7.96656 28.8561 7.92128 28.8561 7.92128C28.8561 7.92128 26.3638 5.50101 26.1176 5.2548C25.8714 5.0086 25.3906 5.08292 25.2036 5.13867C25.2013 5.13983 24.7356 5.28384 23.9517 5.52656C23.8205 5.10151 23.6277 4.57889 23.3524 4.05396C22.4652 2.36071 21.1656 1.46531 19.5954 1.463C19.5931 1.463 19.592 1.463 19.5897 1.463C19.4805 1.463 19.3725 1.47345 19.2633 1.48273C19.2169 1.42699 19.1704 1.37241 19.1217 1.31898C18.4376 0.587334 17.5608 0.230799 16.5098 0.262156C14.482 0.320223 12.4625 1.78469 10.825 4.38611C9.67291 6.2164 8.79607 8.51591 8.54756 10.2962C6.21904 11.0174 4.59082 11.5214 4.55482 11.5331C3.37953 11.9023 3.34237 11.9383 3.18907 13.0463C3.07526 13.8836 0 37.6635 0 37.6635L25.7715 42.1207L36.9414 39.3439C36.9414 39.3439 32.3842 8.53216 32.3552 8.32077ZM22.6614 5.92606C22.068 6.10956 21.3932 6.3186 20.6616 6.54507C20.6465 5.51843 20.5245 4.08997 20.0461 2.85545C21.5849 3.14695 22.342 4.88782 22.6614 5.92606ZM19.3132 6.96315C17.9626 7.38121 16.4888 7.83763 15.0105 8.29523C15.4262 6.70301 16.2148 5.11776 17.1834 4.07835C17.5434 3.69163 18.0474 3.26076 18.6443 3.01455C19.2052 4.1852 19.3272 5.84244 19.3132 6.96315ZM16.5504 1.61164C17.0265 1.60119 17.4272 1.70572 17.7698 1.93102C17.2217 2.21555 16.6921 2.62434 16.195 3.1574C14.9071 4.53941 13.9199 6.68443 13.5262 8.75395C12.2987 9.1337 11.0978 9.50653 9.99223 9.84798C10.6903 6.59036 13.4205 1.70223 16.5504 1.61164Z" fill="#555555"/>
<path d="M31.9894 7.98031C31.8373 7.96754 28.8573 7.92226 28.8573 7.92226C28.8573 7.92226 26.365 5.50199 26.1188 5.25578C26.0271 5.16403 25.9028 5.11642 25.7727 5.09668L25.7739 42.1194L36.9426 39.3438C36.9426 39.3438 32.3855 8.53315 32.3564 8.32175C32.3274 8.11035 32.1416 7.99307 31.9894 7.98031Z" fill="#555555"/>
<path d="M19.5815 13.7233L18.2843 18.5766C18.2843 18.5766 16.8372 17.9181 15.1219 18.0261C12.6064 18.1852 12.5797 19.7716 12.6053 20.17C12.7423 22.3405 18.4526 22.8144 18.7732 27.8988C19.0252 31.8984 16.6514 34.6346 13.2312 34.8506C9.12583 35.1096 6.86584 32.6881 6.86584 32.6881L7.73571 28.9881C7.73571 28.9881 10.0108 30.7046 11.8318 30.5896C13.021 30.5141 13.446 29.5467 13.4031 28.8627C13.2242 26.0313 8.57418 26.1985 8.28039 21.5461C8.03299 17.6313 10.6043 13.6641 16.2774 13.3064C18.4631 13.1659 19.5815 13.7233 19.5815 13.7233Z" fill="#555555"/>
<path d="M51.6504 23.8862C50.3661 23.1893 49.706 22.6019 49.706 21.7944C49.706 20.7669 50.6229 20.1069 52.0547 20.1069C53.7215 20.1069 55.2097 20.8038 55.2097 20.8038L56.3834 17.2076C56.3834 17.2076 55.3041 16.3633 52.1273 16.3633C47.7063 16.3633 44.6423 18.8951 44.6423 22.4544C44.6423 24.4725 46.073 26.0137 47.9816 27.1137C49.5228 27.9938 50.0734 28.6181 50.0734 29.535C50.0734 30.4888 49.3029 31.2594 47.8722 31.2594C45.7401 31.2594 43.7266 30.1582 43.7266 30.1582L42.4791 33.7544C42.4791 33.7544 44.3394 35.0019 47.469 35.0019C52.019 35.0019 55.2846 32.7637 55.2846 28.7275C55.2834 26.5643 53.6328 25.0231 51.6504 23.8862Z" fill="#555555"/>
<path d="M69.7765 16.3274C67.5382 16.3274 65.777 17.3918 64.4201 19.0056L64.3463 18.9687L66.2907 8.80566H61.227L56.3108 34.6723H61.3744L63.062 25.8305C63.722 22.4912 65.4464 20.4374 67.0613 20.4374C68.1982 20.4374 68.6394 21.2079 68.6394 22.3092C68.6394 23.0061 68.5657 23.8504 68.4194 24.5473L66.5118 34.6735H71.5758L73.5565 24.2167C73.7769 23.1155 73.9241 21.7955 73.9241 20.9142C73.9221 18.0518 72.4179 16.3274 69.7765 16.3274Z" fill="#555555"/>
<path d="M85.3696 16.3276C79.2782 16.3276 75.2435 21.8314 75.2435 27.9582C75.2435 31.8838 77.6645 35.0388 82.2147 35.0388C88.1952 35.0388 92.2312 29.6826 92.2312 23.4083C92.2312 19.7764 90.1026 16.3276 85.3696 16.3276ZM82.8747 31.1512C81.15 31.1512 80.4161 29.6837 80.4161 27.8488C80.4161 24.9506 81.921 20.2176 84.6726 20.2176C86.4705 20.2176 87.0566 21.7588 87.0566 23.2631C87.0566 26.3813 85.5538 31.1512 82.8747 31.1512Z" fill="#555555"/>
<path d="M105.183 16.3276C101.765 16.3276 99.8254 19.3364 99.8254 19.3364H99.7528L100.047 16.6214H95.5703C95.3505 18.4563 94.9459 21.2439 94.5433 23.3357L91.0208 41.8637H96.0845L97.4777 34.3788H97.5887C97.5887 34.3788 98.6275 35.0388 100.561 35.0388C106.504 35.0388 110.393 28.9488 110.393 22.784C110.393 19.3733 108.888 16.3276 105.183 16.3276ZM100.34 31.2238C99.0252 31.2238 98.2473 30.49 98.2473 30.49L99.0915 25.757C99.6789 22.602 101.33 20.5101 103.091 20.5101C104.632 20.5101 105.109 21.9408 105.109 23.2989C105.109 26.5644 103.164 31.2238 100.34 31.2238Z" fill="#555555"/>
<path d="M117.621 9.0625C116.007 9.0625 114.723 10.3468 114.723 11.9975C114.723 13.5019 115.676 14.5293 117.107 14.5293H117.181C118.759 14.5293 120.116 13.465 120.153 11.5944C120.153 10.1268 119.162 9.0625 117.621 9.0625Z" fill="#555555"/>
<path d="M110.54 34.6725H115.603L119.053 16.7319H113.952L110.54 34.6725Z" fill="#555555"/>
<path d="M131.931 16.695H128.408L128.591 15.8506C128.885 14.1263 129.913 12.585 131.6 12.585C132.501 12.585 133.214 12.8419 133.214 12.8419L134.205 8.87948C134.205 8.87948 133.324 8.43945 131.452 8.43945C129.654 8.43945 127.858 8.95315 126.499 10.1269C124.775 11.5945 123.968 13.722 123.564 15.8506L123.419 16.695H121.069L120.336 20.5112H122.685L120.006 34.6735H125.07L127.748 20.5112H131.234L131.931 16.695Z" fill="#555555"/>
<path d="M144.112 16.7317C144.112 16.7317 140.946 24.7061 139.525 29.0591H139.451C139.355 27.6572 138.204 16.7317 138.204 16.7317H132.883L135.93 33.2047C136.004 33.571 135.967 33.7922 135.82 34.049C135.232 35.1859 134.242 36.2871 133.067 37.0946C132.114 37.7914 131.05 38.2315 130.206 38.5252L131.6 42.8183C132.628 42.5983 134.755 41.754 136.553 40.0664C138.865 37.902 140.992 34.5627 143.194 30.0128L149.394 16.7305H144.112V16.7317Z" fill="#555555"/>
</g>
<defs>
<clipPath id="clip0_264_1742">
<rect width="150" height="42.5581" fill="white" transform="translate(0 0.260254)"/>
</clipPath>
</defs>
</svg>
