<svg width="100" height="67" viewBox="0 0 100 67" fill="none" xmlns="http://www.w3.org/2000/svg">
<path d="M28.978 0.0265379C31.6947 0.0265379 34.4114 0.28567 36.9987 0.803939C39.1979 1.32221 41.2678 2.22918 43.2083 3.52485C44.89 4.82052 46.3131 6.5049 47.2186 8.44841C48.2536 10.9102 48.771 13.5015 48.6416 16.0929C48.771 18.9434 47.9948 21.7938 46.5718 24.2556C45.0194 26.5878 42.8202 28.4018 40.3622 29.5679C43.8551 30.4748 46.8305 32.6775 48.771 35.528C50.7115 38.6376 51.6171 42.2654 51.6171 45.8933C51.6171 48.8734 51.0996 51.7239 49.8059 54.3152C48.6416 56.6474 46.9599 58.5909 45.0194 60.2753C42.9495 61.8301 40.4916 62.9962 38.0336 63.6441C35.4463 64.4215 32.7296 64.6806 30.0129 64.6806H0V-0.103027H28.978V0.0265379ZM27.1669 26.1991C29.2367 26.3287 31.436 25.6809 33.1177 24.3852C34.7995 22.9599 35.705 20.7573 35.4463 18.4251C35.4463 17.1294 35.1876 15.8337 34.6701 14.6676C34.1527 13.7607 33.5058 12.9833 32.6003 12.465C31.6947 11.9467 30.6598 11.4285 29.6248 11.2989C28.4605 11.0397 27.2962 11.0398 26.1319 11.0398H13.4541V26.1991H27.1669ZM27.9431 53.9265C29.2367 53.9265 30.5304 53.7969 31.6947 53.5378C32.859 53.2787 33.8939 52.7604 34.9288 52.1126C35.8344 51.4647 36.6106 50.5578 37.1281 49.5212C37.7749 48.2255 38.0336 46.8003 37.9043 45.3751C38.163 42.6542 37.1281 40.0628 35.1876 38.2489C33.1177 36.6941 30.6598 36.0462 28.0724 36.1758H13.4541V54.0561H27.9431V53.9265Z" fill="#555555"/>
<path d="M70.7633 53.6676C72.9626 55.6111 75.8086 56.6476 78.6547 56.5181C80.9833 56.5181 83.1825 55.8702 84.9936 54.5746C86.546 53.538 87.5809 52.1128 88.2278 50.4284H98.9651C97.8008 55.2224 94.9548 59.4981 91.0738 62.4782C87.3222 65.0695 82.7944 66.2356 78.1372 66.106C74.903 66.106 71.6689 65.5878 68.5641 64.2921C65.8474 63.126 63.3895 61.4416 61.449 59.239C59.5085 56.9068 57.9561 54.3154 56.9212 51.4649C55.7569 48.2258 55.2394 44.857 55.3688 41.4883C55.3688 38.1195 55.8862 34.8803 57.0505 31.6412C60.1553 22.5715 68.6935 16.4818 78.2666 16.6114C81.7594 16.4818 85.123 17.3888 88.2278 18.9436C90.9444 20.4984 93.4024 22.5715 95.2135 25.1628C97.0247 27.8837 98.4477 30.8638 99.0945 34.1029C99.8707 37.4717 100.129 41.0996 100 44.5979H67.9173C67.5292 47.8371 68.5641 51.0762 70.7633 53.6676ZM84.7349 28.9203C82.9237 27.1063 80.4658 26.1993 77.8785 26.3289C76.1967 26.3289 74.5149 26.588 73.0919 27.3654C71.9276 28.0133 70.8927 28.9202 69.9871 29.9568C69.2109 30.9933 68.6935 32.0299 68.3054 33.3255C68.0466 34.3621 67.7879 35.3986 67.7879 36.4352H87.7103C87.4516 33.7142 86.4166 31.1229 84.7349 28.9203Z" fill="#555555"/>
<path d="M90.0387 4.30273H65.2004V10.6515H90.0387V4.30273Z" fill="#555555"/>
</svg>
