<svg width="200" height="36" viewBox="0 0 200 36" fill="none" xmlns="http://www.w3.org/2000/svg">
<g clip-path="url(#clip0_264_1641)">
<path d="M28.439 3.81299H1.63933C0.784021 3.81299 -1.32248e-05 4.51965 -1.32248e-05 5.43832V8.40632C-1.32248e-05 9.32499 0.784021 10.1023 1.63933 10.1023H28.439C29.3656 10.1023 30.0784 9.32499 30.1497 8.40632V5.50899C30.1497 4.51965 29.3656 3.81299 28.439 3.81299ZM28.439 20.4903H1.63933C1.21168 20.4903 0.784021 20.7023 0.427642 20.985C0.142538 21.2677 -0.0712891 21.6917 -0.0712891 22.1863V25.1543C-0.0712891 26.073 0.712745 26.8503 1.56806 26.8503H28.3678C29.2944 26.8503 30.0071 26.1437 30.0784 25.1543V22.1863C30.1497 21.197 29.3656 20.4903 28.439 20.4903ZM16.7498 28.7583H1.63933C1.21168 28.7583 0.784021 28.8997 0.498918 29.253C0.213814 29.5357 -1.32248e-05 29.9597 -1.32248e-05 30.4543V33.4223C-1.32248e-05 34.341 0.784021 35.1183 1.63933 35.1183H16.6785C17.6051 35.1183 18.3179 34.341 18.3179 33.4223V30.3837C18.3892 29.5357 17.6764 28.7583 16.7498 28.7583ZM30.1497 12.1517H1.63933C1.21168 12.1517 0.784021 12.293 0.498918 12.6463C0.213814 12.929 -1.32248e-05 13.353 -1.32248e-05 13.8477V16.8157C-1.32248e-05 17.7343 0.784021 18.5117 1.63933 18.5117H30.0784C31.005 18.5117 31.7177 17.7343 31.7177 16.8157V13.8477C31.789 12.8583 31.0763 12.1517 30.1497 12.1517Z" fill="#555555"/>
<path d="M61.2972 10.5262C60.4419 9.67823 59.5153 9.04223 58.3749 8.54756C57.3057 8.0529 56.0941 7.8409 54.8824 7.8409C53.742 7.8409 52.6015 8.0529 51.5324 8.54756C50.8196 8.9009 50.1782 9.3249 49.6792 9.89023V9.39557C49.6792 9.1129 49.5367 8.9009 49.3941 8.6889C49.1803 8.4769 48.9665 8.33556 48.6814 8.33556H44.9037C44.6186 8.33556 44.3335 8.4769 44.191 8.6889C43.9772 8.9009 43.9059 9.1129 43.9059 9.39557V34.1289C43.9059 34.4116 44.0484 34.6236 44.191 34.8356C44.4048 35.0476 44.6186 35.1182 44.9037 35.1182H48.6814C48.9665 35.1182 49.1803 35.0476 49.3941 34.8356C49.608 34.6236 49.6792 34.4116 49.6792 34.1289V25.6489C50.2494 26.2142 50.8909 26.7089 51.675 26.9209C52.6728 27.2742 53.742 27.4862 54.7398 27.4862C55.9515 27.4862 57.1632 27.2742 58.2323 26.7796C59.3727 26.3556 60.3706 25.6489 61.1546 24.8009C62.0099 23.8822 62.7227 22.8222 63.1504 21.6916C63.6493 20.4196 63.9344 19.0062 63.8631 17.6636C63.8631 16.2502 63.6493 14.9076 63.1504 13.5649C62.8653 12.5049 62.1525 11.4449 61.2972 10.5262ZM57.9472 19.5009C57.7334 19.9956 57.4483 20.4902 57.0919 20.9142C56.3079 21.7622 55.2387 22.1862 54.0983 22.1862C53.5281 22.1862 52.9579 22.0449 52.459 21.8329C51.9601 21.6209 51.4611 21.2676 51.1047 20.9142C50.7484 20.4902 50.392 19.9956 50.1782 19.5009C49.7505 18.3702 49.7505 17.1689 50.1782 16.0382C50.392 15.5436 50.6771 15.0489 51.1047 14.6249C51.5324 14.2009 51.9601 13.9182 52.459 13.6356C52.9579 13.4236 53.5281 13.2822 54.0983 13.2822C54.6685 13.2822 55.2387 13.4236 55.809 13.6356C56.3079 13.8476 56.7355 14.2009 57.1632 14.5542C57.5196 14.9782 57.8047 15.4022 58.0185 15.9676C58.3749 17.0982 58.3749 18.3702 57.9472 19.5009ZM84.4618 8.40623H80.6842C80.3991 8.40623 80.1853 8.54756 79.9715 8.6889C79.7576 8.9009 79.6864 9.18357 79.6864 9.46623V9.89023C79.1874 9.3249 78.6172 8.9009 77.9757 8.61823C76.9779 8.12357 75.8375 7.91157 74.697 7.91157C72.2737 7.91157 69.9216 8.9009 68.2109 10.5969C67.3556 11.5156 66.6429 12.5756 66.1439 13.7062C65.5737 14.9782 65.3599 16.3916 65.3599 17.8049C65.3599 19.2182 65.5737 20.6316 66.1439 21.9036C66.6429 23.0342 67.3556 24.0942 68.2109 25.0129C69.9216 26.7089 72.2024 27.6982 74.6258 27.6982C75.7662 27.6982 76.9066 27.4862 77.9045 26.9916C78.5459 26.6382 79.1874 26.2142 79.6151 25.7196V26.2142C79.6151 26.4969 79.7576 26.7089 79.9002 26.9209C80.114 27.0622 80.3278 27.2036 80.6129 27.2036H84.3906C84.6757 27.2036 84.8895 27.0622 85.1033 26.9209C85.3171 26.7089 85.3884 26.4969 85.3884 26.2142V9.46623C85.3884 9.18357 85.3171 8.97157 85.1033 8.75957C84.9608 8.4769 84.7469 8.40623 84.4618 8.40623ZM79.33 19.4302C79.1161 19.9249 78.831 20.4196 78.4747 20.8436C78.1183 21.1969 77.6194 21.5502 77.1204 21.8329C76.0513 22.3276 74.8396 22.3276 73.7705 21.8329C73.2715 21.6209 72.7726 21.2676 72.4162 20.8436C72.0598 20.4196 71.7035 19.9249 71.5609 19.4302C71.1333 18.2996 71.1333 17.0982 71.5609 15.9676C71.7747 15.4729 72.0598 14.9782 72.4162 14.5542C72.7726 14.1302 73.2715 13.8476 73.7705 13.5649C74.8396 13.0702 76.0513 13.0702 77.1204 13.5649C77.6194 13.7769 78.047 14.1302 78.4747 14.4836C78.831 14.9076 79.1161 15.3316 79.33 15.8969C79.8289 17.0982 79.8289 18.3702 79.33 19.4302ZM122.024 17.2396C121.454 16.7449 120.884 16.3916 120.171 16.1089C119.458 15.8262 118.746 15.6142 117.961 15.4729L115.11 14.9076C114.398 14.7662 113.827 14.5542 113.542 14.3422C113.329 14.2009 113.186 13.9182 113.186 13.6356C113.186 13.3529 113.329 13.0702 113.756 12.8582C114.255 12.5756 114.825 12.4342 115.324 12.5049C116.037 12.5049 116.821 12.6462 117.463 12.9289C118.104 13.2116 118.746 13.5649 119.316 13.9182C120.171 14.4129 120.884 14.3422 121.383 13.7769L122.737 12.2222C123.022 11.9396 123.165 11.5862 123.165 11.2329C123.165 10.8796 122.951 10.4556 122.666 10.2436C122.095 9.7489 121.169 9.18357 119.886 8.6889C118.674 8.19423 117.106 7.91157 115.253 7.91157C114.113 7.91157 113.043 8.0529 111.974 8.40623C111.048 8.6889 110.192 9.1129 109.48 9.67823C108.767 10.1729 108.268 10.8796 107.84 11.6569C107.484 12.4342 107.27 13.2116 107.27 14.0596C107.27 15.6142 107.769 16.8862 108.696 17.8049C109.622 18.7236 110.834 19.3596 112.402 19.6422L115.396 20.2782C116.037 20.4196 116.679 20.5609 117.32 20.8436C117.676 20.9849 117.89 21.2676 117.89 21.6916C117.89 22.0449 117.748 22.3276 117.32 22.6102C116.964 22.8929 116.322 23.0342 115.538 23.0342C114.754 23.0342 113.899 22.8929 113.186 22.5396C112.473 22.1862 111.832 21.7622 111.262 21.2676C110.976 21.0556 110.691 20.9142 110.406 20.7729C110.05 20.7022 109.622 20.7729 109.195 21.1262L107.555 22.3982C107.128 22.7516 106.842 23.3169 106.985 23.8116C107.056 24.3769 107.555 24.8716 108.339 25.5076C110.406 26.9209 112.901 27.6276 115.396 27.5569C116.536 27.5569 117.748 27.4156 118.817 27.0622C119.815 26.7796 120.67 26.3556 121.454 25.7196C122.167 25.1542 122.808 24.4476 123.165 23.6702C123.592 22.8929 123.735 22.0449 123.735 21.1262C123.735 20.3489 123.592 19.5716 123.236 18.7942C122.951 18.2996 122.523 17.7342 122.024 17.2396ZM138.418 21.7622C138.275 21.4796 137.919 21.2676 137.562 21.1969C137.206 21.1969 136.85 21.3382 136.564 21.4796C136.137 21.7622 135.567 21.9742 134.996 21.9742C134.854 21.9742 134.64 21.9742 134.426 21.9036C134.212 21.9036 134.07 21.7622 133.927 21.6209C133.785 21.4796 133.642 21.2676 133.5 21.0556C133.357 20.7729 133.286 20.4196 133.357 20.0662V13.2822H138.275C138.56 13.2822 138.845 13.1409 139.059 12.9289C139.273 12.7169 139.416 12.5049 139.416 12.2222V9.3249C139.416 9.04223 139.273 8.75957 139.059 8.61823C138.845 8.40623 138.631 8.33556 138.346 8.33556H133.428V3.74223C133.428 3.45956 133.357 3.1769 133.143 3.03557C132.929 2.82357 132.716 2.7529 132.43 2.7529H128.653C128.368 2.7529 128.083 2.82357 127.94 3.03557C127.726 3.24757 127.655 3.53023 127.655 3.74223V8.40623H125.517C125.232 8.40623 124.947 8.54757 124.804 8.75957C124.59 8.97157 124.519 9.18357 124.519 9.46623V12.3636C124.519 12.6462 124.59 12.8582 124.804 13.0702C124.947 13.2822 125.232 13.4236 125.517 13.4236H127.655V21.4796C127.655 22.4689 127.798 23.3876 128.225 24.2356C128.582 24.9422 129.081 25.5782 129.651 26.0729C130.221 26.5676 130.934 26.9209 131.718 27.1329C132.502 27.3449 133.286 27.4862 134.07 27.4862C135.139 27.4862 136.137 27.3449 137.135 26.9916C138.061 26.7089 138.917 26.1436 139.558 25.5076C139.986 25.0836 140.057 24.3769 139.701 23.8822L138.418 21.7622ZM159.088 8.40623H155.31C155.025 8.40623 154.811 8.54756 154.597 8.6889C154.383 8.9009 154.312 9.18357 154.312 9.46623V9.89023C153.813 9.3249 153.243 8.9009 152.602 8.61823C151.604 8.12357 150.463 7.91157 149.323 7.91157C146.899 7.91157 144.619 8.9009 142.908 10.5969C142.053 11.5156 141.34 12.5756 140.841 13.7062C140.271 14.9782 140.057 16.3916 140.057 17.7342C140.057 19.1476 140.271 20.4902 140.841 21.8329C141.34 22.9636 142.053 24.0236 142.908 24.9422C144.619 26.6382 146.899 27.6276 149.323 27.6276C150.463 27.6276 151.604 27.4156 152.602 26.9209C153.243 26.5676 153.884 26.1436 154.312 25.6489V26.1436C154.312 26.4262 154.383 26.6382 154.597 26.8502C154.811 27.0622 155.025 27.1329 155.31 27.1329H159.088C159.658 27.1329 160.085 26.7089 160.085 26.1436V9.46623C160.085 9.18357 160.014 8.97157 159.8 8.75957C159.587 8.4769 159.373 8.40623 159.088 8.40623ZM153.956 19.4302C153.742 19.9249 153.457 20.4196 153.1 20.8436C152.673 21.1969 152.245 21.5502 151.746 21.8329C151.247 22.0449 150.606 22.1862 150.036 22.1862C149.465 22.1862 148.895 22.0449 148.396 21.8329C147.897 21.6209 147.398 21.2676 147.042 20.8436C146.686 20.4196 146.329 19.9249 146.187 19.4302C145.759 18.2996 145.759 17.0982 146.187 15.9676C146.401 15.4729 146.686 14.9782 147.042 14.5542C147.47 14.1302 147.897 13.8476 148.396 13.5649C148.895 13.3529 149.465 13.2116 150.036 13.2116C150.606 13.2116 151.176 13.3529 151.746 13.5649C152.245 13.7769 152.673 14.1302 153.1 14.4836C153.457 14.9076 153.813 15.3316 153.956 15.8969C154.455 17.0982 154.455 18.3702 153.956 19.4302ZM179.758 21.4796L177.619 19.8542C177.192 19.5009 176.835 19.4302 176.479 19.5716C176.194 19.7129 175.909 19.9249 175.695 20.1369C175.196 20.7022 174.697 21.1969 174.056 21.6209C173.414 21.9742 172.701 22.1862 171.917 22.1156C171.062 22.1156 170.278 21.9036 169.565 21.4089C168.852 20.9142 168.354 20.2076 168.068 19.4302C167.855 18.8649 167.783 18.2996 167.783 17.7342C167.783 17.1689 167.855 16.5329 168.068 15.9676C168.282 15.4729 168.567 14.9782 168.924 14.5542C169.351 14.1302 169.779 13.8476 170.278 13.6356C170.777 13.4236 171.418 13.2822 171.989 13.2822C172.701 13.2822 173.485 13.4236 174.056 13.7769C174.697 14.2009 175.196 14.6956 175.695 15.2609C175.909 15.4729 176.194 15.6849 176.479 15.8262C176.835 15.9676 177.192 15.8969 177.619 15.5436L179.758 13.9182C180.043 13.7062 180.257 13.4942 180.328 13.2116C180.47 12.8582 180.399 12.5049 180.257 12.2222C179.401 10.9502 178.261 9.89023 176.907 9.1129C175.481 8.33557 173.77 7.91157 171.846 7.91157C170.492 7.91157 169.138 8.19423 167.926 8.6889C166.714 9.18357 165.645 9.89023 164.718 10.8089C163.792 11.7276 163.079 12.7876 162.58 13.9182C161.582 16.3916 161.582 19.2182 162.58 21.6916C163.079 22.8929 163.792 23.9529 164.718 24.8009C166.643 26.6382 169.138 27.6276 171.846 27.6276C173.77 27.6276 175.481 27.2036 176.907 26.4262C178.261 25.6489 179.401 24.5889 180.257 23.3169C180.47 23.0342 180.47 22.6809 180.328 22.3276C180.185 21.9742 179.971 21.6916 179.758 21.4796ZM199.786 25.3662L193.87 16.6742L198.931 10.0316C199.145 9.7489 199.216 9.3249 199.145 8.97157C199.073 8.6889 198.788 8.40623 198.218 8.40623H194.227C194.013 8.40623 193.799 8.4769 193.585 8.54756C193.3 8.6889 193.157 8.83023 193.015 9.1129L188.952 14.7662H187.954V1.41023C187.954 1.12757 187.883 0.915565 187.669 0.703565C187.455 0.491565 187.242 0.420898 186.956 0.420898H183.179C182.894 0.420898 182.68 0.491565 182.466 0.703565C182.252 0.915565 182.181 1.12757 182.181 1.41023V26.0022C182.181 26.2849 182.324 26.5676 182.466 26.7089C182.68 26.9209 182.894 26.9916 183.179 26.9916H186.956C187.242 26.9916 187.455 26.8502 187.669 26.7089C187.883 26.4969 187.954 26.2849 187.954 26.0022V19.5009H189.023L193.443 26.2849C193.728 26.7796 194.227 27.0622 194.726 27.0622H198.931C199.572 27.0622 199.857 26.7796 199.929 26.4969C200.071 26.1436 200 25.7196 199.786 25.3662ZM105.845 8.40623H101.639C101.354 8.40623 100.998 8.4769 100.784 8.75957C100.57 8.97157 100.428 9.18357 100.428 9.46623L97.2915 20.9142H96.5074L93.1575 9.39557C93.0862 9.18357 93.0149 8.9009 92.8011 8.6889C92.5873 8.4769 92.3022 8.33556 92.0171 8.33556H87.6692C87.099 8.33556 86.7427 8.54756 86.6001 8.9009C86.4576 9.25423 86.4576 9.60756 86.6001 9.89023L91.9458 26.0729C92.0171 26.2849 92.1596 26.5676 92.3735 26.7089C92.5873 26.9209 92.8724 26.9916 93.1575 26.9916H95.4383L95.2245 27.4862L94.7256 28.9702C94.583 29.3942 94.2979 29.8182 93.8702 30.1716C93.5139 30.4542 93.0862 30.5956 92.5873 30.5956C92.2309 30.5956 91.8032 30.5249 91.4469 30.3836C91.0905 30.2422 90.7341 30.0302 90.449 29.8182C90.1639 29.6062 89.8075 29.5356 89.5224 29.5356H89.4511C89.0235 29.5356 88.6671 29.7476 88.5246 30.1009L87.1703 32.0796C86.6001 32.9276 86.9565 33.4929 87.3129 33.7756C88.0256 34.4116 88.8809 34.9062 89.8075 35.2596C90.8054 35.6129 91.8745 35.7542 93.0149 35.7542C94.9394 35.7542 96.5787 35.2596 97.7904 34.1996C99.0734 33.0689 100 31.5849 100.499 29.9596L106.7 9.9609C106.842 9.60756 106.842 9.25423 106.7 8.9009C106.7 8.61823 106.415 8.40623 105.845 8.40623Z" fill="#555555"/>
</g>
<defs>
<clipPath id="clip0_264_1641">
<rect width="200" height="35.3333" fill="white" transform="translate(0 0.420898)"/>
</clipPath>
</defs>
</svg>
