<svg width="150" height="40" viewBox="0 0 150 40" fill="none" xmlns="http://www.w3.org/2000/svg">
<path d="M130.859 9.64273L127.658 29.7054C127.646 29.7791 127.65 29.8545 127.671 29.9263C127.691 29.9982 127.727 30.0647 127.775 30.1213C127.824 30.1779 127.885 30.2231 127.953 30.2538C128.021 30.2846 128.095 30.3 128.17 30.2992H131.958C132.092 30.3003 132.222 30.2537 132.324 30.1677C132.426 30.0817 132.494 29.962 132.515 29.8304L135.716 9.76769C135.728 9.69402 135.724 9.61862 135.704 9.54679C135.684 9.47496 135.648 9.40842 135.599 9.35185C135.55 9.29528 135.489 9.25004 135.421 9.21931C135.353 9.18857 135.279 9.17309 135.204 9.17394H131.416C131.282 9.17129 131.151 9.2174 131.049 9.30367C130.946 9.38993 130.879 9.51045 130.859 9.64273ZM126.814 15.4975H123.219C123.086 15.4962 122.956 15.5427 122.854 15.6286C122.752 15.7145 122.684 15.834 122.663 15.9655L122.544 16.7041C122.544 16.7041 119.753 13.6844 114.81 15.7251C111.974 16.8935 110.613 19.3076 110.034 21.0761C110.034 21.0761 108.195 26.4509 112.353 29.4094C112.353 29.4094 116.208 32.2548 120.55 29.2343L120.475 29.7054C120.457 29.8161 120.477 29.9294 120.53 30.0281C120.583 30.1267 120.668 30.2051 120.77 30.2514C120.838 30.2833 120.912 30.2992 120.987 30.2992H124.584C124.718 30.3018 124.848 30.2557 124.951 30.1695C125.053 30.0832 125.121 29.9627 125.141 29.8304L127.328 16.0913C127.341 16.0177 127.336 15.9423 127.316 15.8706C127.295 15.7989 127.259 15.7326 127.21 15.6766C127.161 15.6195 127.1 15.5738 127.032 15.5428C126.963 15.5117 126.889 15.4967 126.814 15.4975ZM121.525 23.0906C121.384 24.0505 120.898 24.9264 120.156 25.5539C119.412 26.1838 118.464 26.5238 117.487 26.5114C117.105 26.5159 116.723 26.4605 116.358 26.3475C114.806 25.854 113.92 24.3784 114.175 22.7786C114.316 21.8191 114.803 20.9439 115.545 20.3168C116.289 19.6866 117.236 19.3455 118.212 19.3561C118.595 19.3522 118.976 19.408 119.342 19.5217C120.903 20.012 121.785 21.49 121.529 23.0914H121.525V23.0906ZM102.331 23.4702C104.28 23.4702 106.166 22.7794 107.647 21.5234C109.124 20.2717 110.103 18.5325 110.404 16.6221C111.033 12.6481 107.899 9.17951 103.454 9.17951H96.2952C96.1615 9.17823 96.0319 9.22485 95.9298 9.31089C95.8278 9.39693 95.7601 9.51666 95.739 9.6483L92.5372 29.711C92.5198 29.8217 92.5393 29.935 92.5926 30.0336C92.6459 30.1322 92.7301 30.2107 92.8324 30.257C92.901 30.2889 92.9744 30.3048 93.0494 30.3048H96.8401C96.9737 30.306 97.1034 30.2594 97.2054 30.1734C97.3075 30.0874 97.3752 29.9676 97.3962 29.836L98.3361 23.9446C98.3559 23.8122 98.4233 23.6915 98.5258 23.605C98.6283 23.5186 98.7589 23.4724 98.893 23.475L102.331 23.4702ZM105.502 16.4415C105.268 17.9107 104.121 18.9924 101.926 18.9924H99.1196L99.9718 13.6494H102.728C104.997 13.6534 105.736 14.9786 105.502 16.4454V16.4415Z" fill="#555555"/>
<path d="M88.2184 15.8381L83.8827 23.0849L81.6822 15.8914C81.6478 15.7766 81.5768 15.6761 81.4801 15.605C81.3834 15.5339 81.2661 15.4962 81.146 15.4974H77.2333C77.132 15.496 77.0337 15.5312 76.9565 15.5965C76.8792 15.6617 76.8282 15.7526 76.8128 15.8524C76.8033 15.9186 76.8101 15.9861 76.8327 16.049L80.7758 28.166L77.2093 33.876C77.179 33.923 77.1587 33.9756 77.1495 34.0308C77.1404 34.0859 77.1426 34.1423 77.156 34.1965C77.1695 34.2508 77.1939 34.3017 77.2277 34.3462C77.2616 34.3907 77.3042 34.4279 77.3529 34.4554C77.4182 34.4928 77.4923 34.512 77.5676 34.5111H81.7819C81.9022 34.5115 82.0205 34.481 82.1255 34.4224C82.2305 34.3638 82.3185 34.2793 82.3811 34.1768L93.395 16.1357C93.4349 16.0729 93.4568 16.0004 93.4583 15.926C93.4599 15.8517 93.441 15.7783 93.4037 15.7139C93.3665 15.6493 93.3126 15.5958 93.2477 15.5589C93.1827 15.5221 93.109 15.5034 93.0343 15.5046H88.8216C88.7007 15.5035 88.5816 15.5336 88.4759 15.592C88.3702 15.6505 88.2815 15.7352 88.2184 15.8381ZM75.0152 15.4974H71.4176C71.2837 15.4961 71.1539 15.5428 71.0517 15.629C70.9495 15.7152 70.8817 15.8351 70.8606 15.967L70.7442 16.7048C70.7442 16.7048 67.95 13.6851 63.0072 15.7258C60.1724 16.8942 58.8104 19.3083 58.2335 21.0768C58.2335 21.0768 56.3936 26.4516 60.5505 29.4101C60.5505 29.4101 64.4067 32.2555 68.7479 29.235L68.6729 29.7061C68.6552 29.8169 68.6746 29.9303 68.7279 30.0289C68.7813 30.1276 68.8657 30.206 68.9681 30.2521C69.0359 30.284 69.1101 30.2999 69.1851 30.2999H72.7819C72.9155 30.3008 73.0449 30.2541 73.1469 30.1681C73.2489 30.0821 73.3167 29.9626 73.338 29.8311L75.5266 16.092C75.5444 15.9811 75.5252 15.8675 75.4718 15.7687C75.4185 15.6699 75.334 15.5913 75.2314 15.5452C75.1633 15.5139 75.0901 15.4976 75.0152 15.4974ZM69.7253 23.0921C69.5837 24.0508 69.097 24.9254 68.3561 25.5522C67.6118 26.182 66.6648 26.5228 65.6888 26.5121C65.3065 26.5164 64.9259 26.461 64.5606 26.3482C63.0096 25.8547 62.1247 24.3791 62.3793 22.7785C62.521 21.8169 63.0099 20.9401 63.754 20.3127C64.501 19.6826 65.4511 19.3431 66.4293 19.3568C66.8122 19.3528 67.1944 19.4086 67.5599 19.5224C69.1053 20.0127 69.9854 21.4899 69.7301 23.0921H69.7253ZM50.5325 23.4709C52.4784 23.4699 54.3606 22.7791 55.8431 21.5217C57.3195 20.27 58.2968 18.5315 58.5974 16.622C59.2277 12.6488 56.092 9.1802 51.6495 9.1802H44.4894C44.3558 9.17887 44.2261 9.22535 44.1239 9.31122C44.0218 9.39708 43.9538 9.51664 43.9325 9.6482L40.741 29.7053C40.7231 29.8162 40.7424 29.9298 40.7957 30.0286C40.8491 30.1274 40.9336 30.206 41.0362 30.2521C41.104 30.2832 41.1782 30.2999 41.2532 30.2999H45.0415C45.1753 30.3012 45.3052 30.2545 45.4074 30.1683C45.5096 30.0821 45.5774 29.9622 45.5984 29.8303L46.5367 23.9389C46.5566 23.8066 46.6242 23.6861 46.7266 23.5999C46.8291 23.5136 46.9596 23.4675 47.0936 23.4701L50.5325 23.4709ZM53.7032 16.4414C53.4694 17.9106 52.3229 18.9923 50.1279 18.9923H47.3218L48.1724 13.6493H50.9282C53.1982 13.6533 53.9362 14.9793 53.7032 16.4453V16.4414Z" fill="#555555"/>
<path d="M26.0418 10.211C26.1272 5.7809 22.4641 2.38232 17.4272 2.38232H7.00855C6.76576 2.38221 6.53091 2.46859 6.3463 2.62589C6.1617 2.78319 6.03947 3.00109 6.00163 3.24032L1.82717 29.2613C1.80849 29.3792 1.81565 29.4998 1.84816 29.6146C1.88067 29.7295 1.93775 29.836 2.01547 29.9268C2.0932 30.0176 2.18972 30.0905 2.29839 30.1405C2.40707 30.1904 2.52531 30.2164 2.64498 30.2164H8.81732L7.8527 36.2415C7.83402 36.3594 7.84118 36.48 7.87369 36.5948C7.9062 36.7097 7.96328 36.8162 8.04101 36.907C8.11873 36.9978 8.21525 37.0707 8.32393 37.1207C8.4326 37.1707 8.55084 37.1966 8.67052 37.1966H13.6987C13.9413 37.1966 14.1575 37.1098 14.3426 36.953C14.5261 36.7954 14.5564 36.5782 14.5947 36.3386L16.0708 27.6758C16.1083 27.437 16.2304 27.1266 16.4147 26.969C16.599 26.8114 16.7601 26.7255 17.0035 26.7255H20.0801C25.0133 26.7255 29.1982 23.2274 29.9633 18.3628C30.5051 14.9101 29.021 11.7686 26.0418 10.211Z" fill="#555555"/>
<path d="M10.153 20.6203L8.61546 30.3448L7.65004 36.4447C7.63148 36.5626 7.63875 36.6832 7.67137 36.798C7.70398 36.9129 7.76115 37.0193 7.83895 37.11C7.91675 37.2007 8.01333 37.2735 8.12203 37.3234C8.23074 37.3733 8.34899 37.3991 8.46865 37.399H13.7905C14.033 37.3989 14.2676 37.3124 14.4519 37.1551C14.6362 36.9978 14.7581 36.7801 14.7958 36.541L16.1984 27.6753C16.2363 27.4362 16.3584 27.2184 16.5428 27.0611C16.7272 26.9038 16.9619 26.8174 17.2046 26.8173H20.337C25.2703 26.8173 29.4551 23.2277 30.221 18.363C30.7636 14.9103 29.021 11.7681 26.0418 10.2104C26.0338 10.5782 26.0019 10.9451 25.9453 11.3088C25.1801 16.1719 20.9937 19.7623 16.062 19.7623H11.1591C10.9164 19.7625 10.6817 19.8492 10.4973 20.0066C10.3128 20.164 10.1908 20.3811 10.153 20.6203Z" fill="#555555"/>
<path d="M8.61462 30.3446H2.42313C2.30348 30.3446 2.18526 30.3187 2.07662 30.2687C1.96798 30.2187 1.8715 30.1458 1.79383 30.055C1.71617 29.9642 1.65916 29.8577 1.62676 29.7428C1.59435 29.6279 1.5873 29.5074 1.60611 29.3895L5.78058 2.98251C5.81839 2.74341 5.94051 2.52562 6.12495 2.36834C6.30939 2.21105 6.54404 2.12459 6.7867 2.12451H17.4271C22.4641 2.12451 26.1271 5.78096 26.0417 10.2102C24.7883 9.55441 23.3154 9.17953 21.7021 9.17953H12.8314C12.5886 9.17942 12.3537 9.26579 12.1691 9.4231C11.9845 9.5804 11.8623 9.7983 11.8245 10.0375L10.1537 20.6201L8.61382 30.3446H8.61462Z" fill="#ADADAD"/>
</svg>
