<svg width="150" height="71" viewBox="0 0 150 71" fill="none" xmlns="http://www.w3.org/2000/svg">
<path fill-rule="evenodd" clip-rule="evenodd" d="M138.332 66.4037L138.385 66.3506V68.2099C137.694 68.8473 137.323 69.0599 136.685 69.0599C135.941 69.0599 135.41 68.7942 135.41 67.9442C135.41 66.6693 136.791 66.3506 137.535 66.3506C137.641 66.3506 138.066 66.4037 138.332 66.4037ZM60.4537 66.4037C60.5069 66.4568 60.56 66.4568 60.6131 66.3506V68.1568C60.0287 68.8473 59.3913 69.0599 58.8601 69.0599C58.1695 69.0599 57.6382 68.8473 57.6382 67.9974C57.6382 66.7225 58.9132 66.3506 59.71 66.3506C59.8163 66.3506 60.1881 66.3506 60.4537 66.4037ZM53.654 66.8818C53.654 68.6349 52.3259 68.8474 51.1572 68.8474C51.0509 68.8474 50.5198 68.8473 50.2541 68.7942V65.0225C50.5728 65.0756 51.1041 65.0225 51.2634 65.0225C52.5916 65.0225 53.654 65.2881 53.654 66.8818ZM41.2763 64.385V68.4224C40.9044 68.8473 40.267 69.0067 39.9482 69.0067C38.142 69.0067 37.6639 67.7317 37.6639 66.4037C37.6639 65.1818 38.3014 63.6944 39.8951 63.6944C40.3201 63.6944 40.9044 63.8007 41.2763 64.385ZM32.6704 63.7475C33.0954 63.8007 33.9454 64.7037 33.9454 65.1818V65.4475H30.0142V65.2881C30.3329 64.1725 31.0767 63.6944 32.0329 63.6944C32.1392 63.6944 32.4579 63.6944 32.6704 63.7475ZM92.9117 66.2974C92.9117 67.3599 92.593 69.0067 90.9462 69.0067C89.2463 69.0067 89.0869 67.3068 89.0869 66.3506C89.0869 65.3943 89.3525 63.6413 90.9993 63.6413C92.6461 63.6413 92.9117 65.2881 92.9117 66.2974ZM125.423 62.6851V70.0161H124.148V63.7475H123.139V62.6851H125.423ZM21.4085 62.6851V70.0161H20.0805V63.7475H19.0711V62.6851H21.4085ZM109.221 66.8287H106.405L107.893 62.632L109.221 66.8287ZM138.598 62.8976C139.288 63.1632 139.766 64.4913 139.766 65.0756V68.5286C139.82 68.8473 139.926 69.2192 140.351 69.4848V70.1223H139.713C139.288 70.0161 138.651 69.6441 138.545 69.2192C138.173 69.8567 136.792 70.1754 136.207 70.1754C134.879 70.1754 134.082 69.0598 134.082 67.9442C134.082 65.9787 136.207 65.2881 137.482 65.2881C137.588 65.2881 138.067 65.3943 138.385 65.4475C138.438 65.3943 138.438 65.2881 138.438 65.1818C138.438 64.0132 137.535 63.6944 136.792 63.6944C136.26 63.6944 135.463 63.8538 135.038 64.3319C134.826 64.0132 134.454 63.4288 134.454 63.2694C134.454 63.1632 134.932 62.8976 135.145 62.8445C135.357 62.7382 135.676 62.632 136.048 62.5789C136.207 62.5257 136.632 62.5257 136.738 62.5257C137.323 62.5257 138.066 62.6851 138.598 62.8976ZM133.02 63.2694C132.86 63.5351 132.648 63.8538 132.435 64.1725C131.692 63.7475 131.32 63.6413 130.682 63.6413C128.823 63.6413 128.398 65.235 128.398 66.4037C128.398 67.9442 129.142 69.0599 130.735 69.0599C131.267 69.0599 132.064 68.7411 132.542 68.3692L133.073 69.4317C132.648 69.8036 131.16 70.1754 130.47 70.1754C129.089 70.1754 127.548 69.3254 127.07 67.3599C127.07 67.2536 127.017 67.0412 127.017 66.9349V65.9256C127.229 63.4288 129.036 62.5257 130.735 62.5257C131.426 62.5257 132.382 62.8445 133.02 63.2694ZM122.555 62.632L122.076 63.9069C121.811 63.8007 121.28 63.6413 121.173 63.6413C120.323 63.6413 119.473 64.5975 119.473 65.3412V70.0161H118.145V62.6851H119.473C119.473 63.0038 119.473 63.3757 119.527 63.6944C119.952 62.7913 120.908 62.5257 121.545 62.5257C121.705 62.5257 122.236 62.5789 122.555 62.632ZM100.19 62.7382C100.03 63.1632 99.871 63.5351 99.7117 63.9069C99.4461 63.8007 98.9148 63.6413 98.8086 63.6413C97.9586 63.6413 97.1087 64.5975 97.1087 65.3412V70.0161H95.7806V62.6851H97.1087C97.1087 63.0038 97.1087 63.3757 97.1618 63.6944C97.5868 62.7913 98.543 62.5257 99.1805 62.5257C99.4992 62.5257 100.19 62.7382 100.19 62.7382ZM94.2931 66.2974C94.2931 68.1568 93.4963 70.1754 90.9995 70.1754C88.5558 70.1754 87.6528 68.1568 87.6528 66.2974C87.6528 64.3319 88.7683 62.5257 90.9995 62.5257C93.5494 62.5257 94.2931 64.4913 94.2931 66.2974ZM68.0505 62.5789C68.9536 62.5789 69.8036 63.9069 69.8036 64.7037V70.0161H68.5286V65.1818C68.4755 64.0663 67.838 63.6413 67.0411 63.6413C66.8818 63.6413 66.7756 63.5882 66.7224 63.6413C66.4037 63.6944 65.2881 64.1726 65.2881 64.5975V70.0161H64.0131V62.6851H64.9162C65.0225 62.9507 65.1819 63.2694 65.2881 63.5351C65.8194 62.7913 66.6693 62.5257 67.413 62.5257C67.5193 62.5257 67.838 62.5789 68.0505 62.5789ZM61.6757 63.96C61.7288 64.2256 61.9414 64.6507 61.9414 64.81V68.263C62.0476 68.5817 61.9945 69.1661 62.5257 69.4848V70.1223H61.9414C61.5695 70.0692 60.8789 69.7504 60.7726 69.2192C60.4539 69.8567 58.9133 70.1754 58.3821 70.1754C57.1071 70.1754 56.2572 69.0599 56.2572 67.9443C56.2572 65.9787 58.3821 65.2881 59.657 65.2881C59.7633 65.2881 60.2945 65.3943 60.6132 65.4475C60.6664 65.3943 60.6664 65.3943 60.6664 65.235C60.6664 64.1725 59.9227 63.6944 59.0195 63.6944C58.3821 63.6944 57.8509 63.8007 57.2665 64.3319C57.0009 64.1726 56.7353 63.5351 56.629 63.2694C57.1603 62.8445 58.2228 62.5257 58.9665 62.5257C59.7102 62.5257 61.3039 62.7382 61.6757 63.96ZM35.2736 65.66C35.2736 65.7663 35.2736 66.1912 35.2205 66.4568H29.9082V66.8818C30.0144 68.3692 31.13 69.0599 32.2456 69.0599C32.83 69.0599 33.3612 68.9005 34.0518 68.4224C34.2643 68.6879 34.4237 69.0067 34.6361 69.3254C34.2643 69.8036 32.6175 70.1754 31.98 70.1754C29.6426 70.1754 28.527 68.263 28.527 66.4037C28.527 64.4381 29.7488 62.5257 31.98 62.5257C33.9456 62.5257 35.2736 63.6413 35.2736 65.66ZM16.3619 62.7382C16.5212 62.7913 16.9462 63.2164 17.1056 63.4288C17.1587 63.4288 17.5837 64.4913 17.5837 64.7038V70.0161H16.3087V65.1818C16.0963 63.9601 15.6712 63.6413 14.8213 63.6413C14.237 63.6413 13.6526 63.8538 13.0683 64.5975V70.0161H11.7933V62.6851H12.6964C12.8026 62.9507 12.962 63.2694 13.0683 63.5351C13.5995 62.7913 14.4495 62.5257 15.1932 62.5257C15.2995 62.5257 15.99 62.5789 16.3619 62.7382ZM53.1229 62.4195C53.1229 63.8007 51.9542 63.96 51.0511 63.96H50.2543V61.0914H51.1042C51.9011 61.0914 53.1229 61.0914 53.1229 62.4195ZM25.2334 62.6851H27.2521V63.6944H25.2334V67.838C25.499 68.7943 25.8709 69.0599 26.5084 69.0599C26.6677 69.0599 27.2521 68.9005 27.5709 68.7943C27.6239 69.1661 27.7302 69.5911 27.7833 69.9629C27.199 70.0692 26.1365 70.1754 25.9772 70.1754C24.8616 70.1754 23.9053 69.113 23.9053 68.1037V63.6944H23.0554V62.6851H23.9053V61.1446C24.3303 60.9852 24.8084 60.7727 25.2334 60.6665L25.2334 62.6851ZM4.1436 59.9758V66.7755C4.35607 68.3692 5.20603 68.9536 6.26849 68.9536C7.17163 68.9536 8.02155 68.5286 8.44656 67.3068V59.9758H9.82775V67.4662C9.50899 69.6973 7.64972 70.1754 6.26849 70.1754C5.15291 70.1754 3.66552 69.8567 3.02803 68.4224C2.92173 68.1036 2.81552 67.5724 2.81552 67.4662V59.9758H4.1436ZM125.636 60.6664C125.636 61.1976 125.317 61.5164 124.839 61.5164C124.307 61.5164 124.042 61.0383 124.042 60.7195C124.042 60.1883 124.307 59.9227 124.839 59.9227C125.317 59.9227 125.636 60.1883 125.636 60.6664ZM21.6211 60.6664C21.6211 61.1976 21.143 61.5164 20.7711 61.5164C20.2399 61.5164 19.9743 61.0383 19.9743 60.7195C19.9743 60.1883 20.3993 59.9227 20.7711 59.9227C21.2493 59.9227 21.6211 60.1883 21.6211 60.6664ZM54.5573 62.3132C54.5573 63.057 54.1855 63.8007 53.123 64.3319L53.0699 64.4381C54.6105 64.7569 55.1948 65.9256 55.1948 67.0943C55.1948 67.2005 55.0886 67.6787 55.0354 67.9443C54.8761 69.113 53.0168 70.0161 52.1137 70.0161H48.8201V59.8696H51.3169C52.7512 59.8696 54.5573 60.2946 54.5573 62.3132ZM108.105 59.8164L111.93 70.0161H110.389C110.177 69.3254 109.911 68.5817 109.646 67.8911H106.033C105.715 68.5817 105.449 69.3254 105.237 70.0161H103.696C105.024 66.6162 106.405 63.2163 107.733 59.8164H108.105ZM117.189 59.8696C117.136 59.9758 116.817 60.8258 116.764 60.8258C116.605 60.8258 116.233 60.7195 116.074 60.7195C115.117 60.7195 114.692 61.5695 114.692 62.3132C114.692 62.4195 114.746 62.5257 114.746 62.6851H116.233V63.7475H114.746V70.0161H113.471V63.7475H112.408V62.6851H113.471C113.417 60.932 114.321 59.6571 115.967 59.6571C116.074 59.6571 116.764 59.7633 117.189 59.8696ZM87.281 59.8696L86.9622 60.8258C86.7498 60.7726 86.3779 60.7195 86.2186 60.7195C85.6342 60.7195 84.8374 61.3039 84.8374 61.9414V62.6851H86.3779V63.7475H84.8374V70.0161H83.5624V63.7475H82.4999V62.6851H83.5624C83.5624 60.8789 84.4655 59.6571 86.0592 59.6571C86.2186 59.6571 86.9092 59.7633 87.281 59.8696ZM72.991 59.6571V65.9787L75.7533 62.6851H77.2938L75.0096 65.4475L77.8251 70.0161H76.3908L74.1065 66.3506C73.7878 66.7225 73.3628 67.1474 72.991 67.5193V70.0161H71.6629V59.6571L72.991 59.6571ZM42.6046 59.6571V70.0161H41.3296C41.3296 69.8567 41.3296 69.6973 41.2766 69.538C40.6391 70.0161 40.0016 70.1223 39.3641 70.1223C37.0267 70.1223 36.2298 68.1568 36.2298 66.51C36.2298 64.8631 37.3454 62.5257 39.6297 62.5257C40.0016 62.5257 40.9047 62.6851 41.3296 63.0039V59.6571L42.6046 59.6571ZM49.245 34.5831C52.3793 35.2736 53.7604 37.0267 53.7604 39.4704C53.7604 39.5766 53.7073 40.5859 53.548 41.1171C53.3886 41.6484 53.0964 42.1176 52.5918 42.764C51.0224 44.7738 48.0231 46.3763 46.1639 46.3763H40.8516C41.7015 42.4983 42.4452 38.5141 43.2952 34.6894C43.2952 34.5831 43.3484 34.53 43.4546 34.4769L47.492 34.3707C47.5982 34.3707 48.6606 34.4768 49.245 34.5831ZM84.4654 39.0453H74.8502L81.8624 28.3146L84.4654 39.0453ZM54.6635 25.0741C54.6635 25.1803 54.451 26.1897 54.3979 26.7209C54.2917 27.8365 53.2823 29.4833 51.7949 30.3864C51.2636 30.7052 49.0856 31.9801 48.7669 31.9801H44.0389C44.1983 31.1301 44.3577 30.227 44.517 29.377C44.6233 28.8458 44.7827 28.2615 44.8358 27.7302C44.942 27.199 45.1014 26.6146 45.1545 26.0834C45.2608 25.5522 45.4202 24.9679 45.4732 24.4366C45.5795 23.9054 45.6238 23.6132 45.7389 22.7898C45.854 21.8424 45.7831 21.807 46.3232 21.8336L50.3074 21.7274C52.0074 21.7274 54.6635 22.6304 54.6635 25.0741ZM86.2185 17.5306L94.187 50.3074H87.0154L85.7405 43.8795H71.8754L67.6255 50.3074H61.6758L83.8811 17.5306H86.2185ZM54.5042 17.5306C59.2852 18.0619 61.5164 20.293 61.5164 24.0117C61.5164 27.9959 58.754 30.9707 53.9198 32.5644C53.9729 32.6176 54.0791 32.6176 54.1323 32.6176C57.6915 33.1488 60.2414 35.2205 60.2414 38.461C60.2414 43.614 57.0541 48.395 50.148 49.9356C49.8293 49.9887 47.7044 50.4137 46.9607 50.4137H33.4143L40.2672 17.5306L54.5042 17.5306ZM11.3152 17.5306C10.7839 20.3462 10.1996 23.0023 9.66831 25.6584C9.24337 27.624 8.81835 29.6958 8.44652 31.7145C7.91529 34.6894 7.06529 37.558 7.06529 40.5328C7.06529 43.7734 8.1278 46.6951 12.3245 46.6951C16.3618 46.6951 20.3461 44.0389 21.621 38.6204C23.2678 31.6082 24.649 24.5428 26.1365 17.5306H32.1925V17.69C30.4925 25.3928 28.8988 33.0956 27.1458 40.7453C26.2162 43.1624 25.8044 43.5475 25.074 44.5171C21.8866 48.9262 17.6368 50.3606 13.9713 50.7856C13.5464 50.8387 12.8026 50.9449 12.6432 50.9449H9.40278C8.76529 50.8918 8.0747 50.7856 7.49036 50.6793C6.90598 50.5731 6.26849 50.4137 5.68415 50.2543C1.59369 49.245 0 45.3139 0 42.3921V41.1172C0.0531071 40.7453 0.053107 40.3203 0.106254 39.8954C1.6468 32.4582 3.18739 24.9679 4.72794 17.5307L11.3152 17.5306ZM121.439 50.0949C120.589 50.2012 118.942 50.4137 118.783 50.4137H105.555L114.48 8.49971C119.154 17.6369 123.829 26.8803 128.451 36.1236C129.248 38.1422 129.991 40.3202 129.991 42.392C129.991 47.0137 126.751 49.2449 121.439 50.0949ZM140.457 41.914C137.747 36.6548 135.038 31.3426 132.382 26.0835C130.895 23.1617 129.407 20.1337 127.92 17.2651C127.442 16.2557 126.91 15.3526 126.485 14.3964C126.007 13.334 124.945 10.0935 124.945 8.55291V7.43729C124.998 6.90606 125.051 6.26857 125.21 5.79049C126.804 0.743833 132.701 0.265704 136.207 5.12507e-05L149.434 0L140.457 41.914Z" fill="url(#paint0_linear_264_1701)"/>
<defs>
<linearGradient id="paint0_linear_264_1701" x1="7471.72" y1="0" x2="7471.72" y2="7017.54" gradientUnits="userSpaceOnUse">
<stop stop-color="#555555"/>
<stop offset="1" stop-color="#555555"/>
</linearGradient>
</defs>
</svg>
