<svg width="70" height="70" viewBox="0 0 70 70" fill="none" xmlns="http://www.w3.org/2000/svg">
<path d="M1.65647 62.768C0.829741 62.768 0 62.4995 0 60.3874C0 58.2754 1.10733 57.9404 1.94914 57.9404C2.31876 57.9399 2.68377 58.0224 3.01724 58.1818V58.8124C2.67784 58.6717 2.31625 58.592 1.94914 58.5771C1.40905 58.5771 0.763362 58.8456 0.763362 60.3542C0.763362 61.8628 1.25216 62.1374 1.69569 62.1374C1.93741 62.1282 2.17778 62.0969 2.41379 62.0439V60.4689H1.72888L1.69569 59.8504H3.17716V62.5055C2.68458 62.6619 2.17295 62.7502 1.65647 62.768Z" fill="#555555"/>
<path d="M6.39958 62.7018L6.30002 62.2794C6.01667 62.5635 5.64101 62.7369 5.24096 62.7682C4.67071 62.7682 4.24829 62.5117 4.24829 61.7302V59.1475H5.01165V61.6095C5.01165 61.9897 5.14743 62.1164 5.44915 62.1164C5.74104 62.0869 6.02047 61.983 6.26079 61.8147V59.1535H7.02415V62.7078L6.39958 62.7018Z" fill="#555555"/>
<path d="M9.97799 62.7017L9.89049 62.3336C9.65873 62.6119 9.31426 62.7714 8.95213 62.7681C8.51765 62.7681 7.92627 62.5992 7.92627 61.6427C7.92627 60.6862 8.71075 60.5022 9.27498 60.5022H9.87843V60.1733C9.87843 59.7509 9.65515 59.7117 9.27498 59.7117C8.92267 59.7315 8.5741 59.7943 8.23705 59.8987V59.2742C8.61359 59.1526 9.00607 59.0875 9.4017 59.0811C10.0745 59.0811 10.6297 59.2561 10.6297 60.2336V62.7017H9.97799ZM9.87239 60.9367H9.51636C8.97325 60.9367 8.69265 61.0694 8.69265 61.5914C8.69265 62.1134 8.91291 62.1707 9.18748 62.1707C9.43919 62.1521 9.67873 62.055 9.87239 61.8931V60.9367Z" fill="#555555"/>
<path d="M12.9953 59.8293C12.8048 59.8305 12.6222 59.905 12.4854 60.0375V62.7048H11.719V59.1474H12.3224L12.425 59.5638C12.5495 59.2805 12.8248 59.093 13.1341 59.0811C13.2498 59.0826 13.365 59.0958 13.478 59.1203V59.8927C13.3198 59.8549 13.158 59.8337 12.9953 59.8293Z" fill="#555555"/>
<path d="M15.8283 62.7017L15.7408 62.3336C15.5091 62.6119 15.1646 62.7714 14.8025 62.7681C14.368 62.7681 13.7766 62.5992 13.7766 61.6427C13.7766 60.6862 14.5611 60.5022 15.1253 60.5022H15.7288V60.1733C15.7288 59.7509 15.5055 59.7117 15.1253 59.7117C14.773 59.7311 14.4244 59.794 14.0874 59.8987V59.2742C14.4639 59.1526 14.8564 59.0875 15.252 59.0811C15.9219 59.0811 16.4801 59.2561 16.4801 60.2336V62.7017H15.8283ZM15.7227 60.9367H15.3667C14.8236 60.9367 14.543 61.0694 14.543 61.5914C14.543 62.1134 14.7632 62.1707 15.0378 62.1707C15.2895 62.1521 15.5291 62.055 15.7227 61.8931V60.9367Z" fill="#555555"/>
<path d="M19.7358 62.7017V60.1522C19.7358 59.7841 19.5276 59.7388 19.247 59.7388C18.924 59.7578 18.6117 59.8619 18.3419 60.0405V62.6957H17.5906V59.1474H18.194L18.3298 59.5578C18.6557 59.2762 19.0647 59.1088 19.4945 59.0811C20.0979 59.0811 20.4932 59.3285 20.4932 60.1401V62.7017H19.7358Z" fill="#555555"/>
<path d="M22.5237 62.768C22.0259 62.768 21.6367 62.6081 21.6367 61.8417V59.6904H21.0332V59.1473H21.6367L21.6849 58.3507L22.403 58.0762V59.1473H23.2056L23.1272 59.6904H22.403V61.8507C22.403 62.1102 22.5147 62.1525 22.7048 62.1525C22.9091 62.1302 23.111 62.0898 23.3082 62.0318V62.6352C23.0548 62.7183 22.7904 62.7631 22.5237 62.768Z" fill="#555555"/>
<path d="M25.2362 63.1694C25.016 63.9086 24.5935 64.0414 24.1711 64.0414C23.9369 64.0328 23.7047 63.9943 23.4802 63.9267V63.3233C23.6876 63.3721 23.8984 63.4054 24.1108 63.4228C24.3582 63.4228 24.506 63.2418 24.6056 62.8194L24.6539 62.6263L23.3052 59.1323H24.1862L24.9767 61.8147L25.6134 59.1323H26.4491L25.2362 63.1694Z" fill="#555555"/>
<path d="M31.147 58.6919H30.097V62.7018H29.3306V58.6919H28.1931V58.019H31.2345L31.147 58.6919Z" fill="#555555"/>
<path d="M32.6768 59.8293C32.4864 59.8305 32.3037 59.905 32.1669 60.0375V62.7048H31.4036V59.1474H32.007L32.1096 59.5638C32.2341 59.2805 32.5094 59.093 32.8186 59.0811C32.9343 59.0826 33.0496 59.0958 33.1626 59.1203V59.8927C33.0033 59.8547 32.8405 59.8334 32.6768 59.8293Z" fill="#555555"/>
<path d="M35.8781 62.7018L35.7785 62.2794C35.4952 62.5635 35.1195 62.7369 34.7195 62.7682C34.1492 62.7682 33.7268 62.5117 33.7268 61.7302V59.1475H34.4902V61.6095C34.4902 61.9897 34.6259 62.1164 34.9277 62.1164C35.2196 62.0869 35.499 61.983 35.7393 61.8147V59.1535H36.5087V62.7078L35.8781 62.7018Z" fill="#555555"/>
<path d="M38.2586 62.7681C37.9515 62.7567 37.6471 62.705 37.3535 62.6142V61.9716C37.6326 62.0574 37.9197 62.115 38.2104 62.1436C38.5392 62.1436 38.8138 62.0832 38.8138 61.7151C38.8138 61.4134 38.6117 61.341 38.3431 61.2323L38.0414 61.1056C37.6018 60.9838 37.2972 60.5842 37.2961 60.128C37.2961 59.3677 37.8664 59.0811 38.5483 59.0811C38.8456 59.0827 39.1404 59.1347 39.4203 59.2349V59.8384C39.1522 59.758 38.8759 59.7084 38.5966 59.6905C38.2496 59.6905 38.0263 59.7871 38.0263 60.0737C38.0263 60.3604 38.2677 60.4418 38.497 60.5293L38.838 60.6561C39.2864 60.7836 39.5869 61.2043 39.5621 61.6698C39.5711 62.6203 38.8802 62.7681 38.2586 62.7681Z" fill="#555555"/>
<path d="M41.3361 62.768C40.8383 62.768 40.4521 62.6081 40.4521 61.8417V59.6904H39.8486V59.1473H40.4521L40.4973 58.3507L41.2154 58.0762V59.1473H42.018L41.9396 59.6904H41.2154V61.8507C41.2154 62.1102 41.3301 62.1525 41.5172 62.1525C41.7215 62.1302 41.9234 62.0898 42.1206 62.0318V62.6352C41.8672 62.7183 41.6028 62.7631 41.3361 62.768Z" fill="#555555"/>
<path d="M45.5602 62.7018H44.5947V58.019H45.5934C46.7068 58.019 47.3706 58.191 47.3706 59.2259C47.4034 59.7342 47.0439 60.1839 46.5408 60.2639C47.0085 60.3453 47.5064 60.5656 47.5064 61.3621C47.5003 62.5811 46.7671 62.7018 45.5602 62.7018ZM45.6025 58.5923H45.3611V60.0074H45.6296C46.3055 60.0074 46.6072 59.8988 46.6072 59.2561C46.6012 58.6708 46.2663 58.5923 45.5964 58.5923H45.6025ZM45.6296 60.5686H45.3611V62.1165H45.6417C46.3508 62.1165 46.74 62.044 46.74 61.3471C46.74 60.6501 46.3327 60.5686 45.6236 60.5686H45.6296Z" fill="#555555"/>
<path d="M50.1526 62.7017L50.0651 62.3336C49.8333 62.6119 49.4888 62.7714 49.1267 62.7681C48.6922 62.7681 48.1008 62.5992 48.1008 61.6427C48.1008 60.6862 48.8853 60.5022 49.4495 60.5022H50.053V60.1733C50.053 59.7509 49.8327 59.7117 49.4495 59.7117C49.0972 59.7311 48.7486 59.794 48.4116 59.8987V59.2742C48.7881 59.1526 49.1806 59.0875 49.5763 59.0811C50.2461 59.0811 50.8043 59.2561 50.8043 60.2336V62.7017H50.1526ZM50.0439 60.9367H49.6909C49.1478 60.9367 48.8642 61.0694 48.8642 61.5914C48.8642 62.1134 49.0875 62.1707 49.362 62.1707C49.6132 62.1535 49.8522 62.0562 50.0439 61.8931V60.9367Z" fill="#555555"/>
<path d="M54.0599 62.7017V60.1522C54.0599 59.7841 53.8517 59.7388 53.5711 59.7388C53.2481 59.7578 52.9358 59.8619 52.6659 60.0405V62.6957H51.9026V59.1474H52.506L52.6418 59.5578C52.9677 59.2762 53.3767 59.1088 53.8065 59.0811C54.4099 59.0811 54.8052 59.3285 54.8052 60.1401V62.7017H54.0599Z" fill="#555555"/>
<path d="M55.9275 62.7016V57.874H56.6909V62.7016H55.9275ZM57.8977 62.768L56.8055 60.6559L57.7318 59.1473H58.637L57.5779 60.6559L58.7697 62.7137L57.8977 62.768Z" fill="#555555"/>
<path d="M63.3198 62.7018H61.2078V58.019H61.9711V62.032H63.3922L63.3198 62.7018Z" fill="#555555"/>
<path d="M64.8708 62.768C64.376 62.768 63.9867 62.6081 63.9867 61.8417V59.6904H63.3833V59.1473H63.9867L64.035 58.3507L64.7501 58.0762V59.1473H65.5557L65.4742 59.6904H64.7501V61.8507C64.7501 62.1102 64.8648 62.1525 65.0518 62.1525C65.2562 62.1302 65.4581 62.0898 65.6553 62.0318V62.6352C65.402 62.7187 65.1375 62.7634 64.8708 62.768Z" fill="#555555"/>
<path d="M68.3738 62.7016L68.2802 62.3667C68.0285 62.6257 67.6819 62.7706 67.3207 62.768C66.7927 62.768 65.9932 62.5326 65.9932 60.9245C65.9932 59.3163 67.007 59.0809 67.4565 59.0809C67.7374 59.0714 68.0091 59.181 68.2048 59.3826V57.874H68.9712V62.7016H68.3738ZM68.2048 59.9046C68.0248 59.7698 67.808 59.693 67.5833 59.6844C67.1789 59.6844 66.7565 59.8051 66.7565 60.9245C66.7565 62.0921 67.1397 62.1796 67.5139 62.1796C67.768 62.1589 68.0094 62.0598 68.2048 61.896V59.9046Z" fill="#555555"/>
<path d="M57.913 68.9656L57.7531 68.4164C57.7113 68.2455 57.6272 68.0878 57.5087 67.9578L57.2583 67.9789V68.9656H56.863V66.5518H57.4484C57.9432 66.5518 58.3294 66.6513 58.3294 67.2397C58.36 67.5421 58.1609 67.82 57.8648 67.8884C57.9865 67.9884 58.0749 68.1231 58.1182 68.2746L58.3626 68.9686L57.913 68.9656ZM57.4061 66.8776H57.2583V67.6893C57.7109 67.6651 57.9342 67.5957 57.9342 67.2397C57.9342 66.8837 57.7622 66.8776 57.4061 66.8776Z" fill="#555555"/>
<path d="M59.4396 68.9988C59.0715 68.9988 58.6189 68.8781 58.6189 67.7587C58.6189 66.6393 59.159 66.5156 59.4758 66.5156C59.6192 66.5157 59.7614 66.5423 59.8952 66.5941V66.9169C59.7655 66.8737 59.6305 66.8483 59.4939 66.8415C59.2525 66.8415 59.0142 66.9712 59.0142 67.7467C59.0142 68.4587 59.2042 68.6518 59.4577 68.6518C59.6065 68.6445 59.7537 68.6171 59.8952 68.5704V68.9023C59.7499 68.9602 59.5958 68.9928 59.4396 68.9988Z" fill="#555555"/>
<path d="M61.4068 68.9653V67.4325L60.9573 67.6196V67.2817L61.4943 67.0312H61.7961V68.9653H61.4068Z" fill="#555555"/>
<path d="M63.1992 69.2582C62.9289 69.3761 62.6371 69.4367 62.3423 69.4362V69.1194C62.5637 69.12 62.7831 69.0769 62.9879 68.9927C63.1689 68.916 63.2815 68.7332 63.2685 68.5371C63.2685 68.2354 63.1358 68.178 62.9276 68.178C62.783 68.1831 62.6428 68.2291 62.5233 68.3108L62.3181 68.2474L62.3543 67.0405H63.5914L63.5552 67.3905H62.7194L62.6953 67.9548C62.8026 67.8998 62.9217 67.8719 63.0423 67.8733C63.2165 67.868 63.3846 67.9382 63.5031 68.0661C63.6217 68.1939 63.6792 68.3667 63.6608 68.5401C63.6676 68.8512 63.485 69.1353 63.1992 69.2582Z" fill="#555555"/>
<path d="M64.6143 68.4646L64.394 68.6245H65.1966L65.1634 68.9655H63.9656V68.6094L64.3397 68.2866C64.6022 68.0573 64.8285 67.9064 64.8285 67.6228C64.8285 67.4086 64.7078 67.3211 64.4845 67.3211C64.3117 67.3299 64.141 67.3634 63.9776 67.4206V67.1008C64.1509 67.0331 64.3348 66.9963 64.5207 66.9922C64.919 66.9922 65.2238 67.1551 65.2238 67.5956C65.2238 68.0362 64.91 68.2504 64.6143 68.4646Z" fill="#555555"/>
<path d="M66.3794 69.2796C66.0968 69.3852 65.797 69.4374 65.4954 69.4335V69.1317C65.7175 69.1332 65.9384 69.0996 66.1501 69.0322C66.3273 68.97 66.441 68.797 66.4277 68.6097C66.4277 68.3291 66.2135 68.2628 65.9721 68.2628H65.7307V67.961H65.9751C66.1773 67.961 66.3734 67.8856 66.3734 67.608C66.3734 67.3968 66.2316 67.3063 66.0264 67.3063C65.8468 67.3124 65.6685 67.3397 65.4954 67.3878V67.086C65.673 67.0339 65.8565 67.0045 66.0415 66.9985C66.3975 66.9985 66.7656 67.1072 66.7656 67.5748C66.7688 67.8272 66.591 68.0457 66.3432 68.0938C66.6172 68.1084 66.8299 68.3384 66.8229 68.6128C66.8349 68.9076 66.656 69.1767 66.3794 69.2796Z" fill="#555555"/>
<path d="M67.7822 68.4646L67.562 68.6245H68.3676L68.3314 68.9655H67.1426V68.6094L67.5137 68.2866C67.7762 68.0573 68.0055 67.9064 68.0055 67.6228C68.0055 67.4086 67.8848 67.3211 67.6585 67.3211C67.4857 67.3302 67.3151 67.3637 67.1516 67.4206V67.1008C67.3259 67.0329 67.5108 66.9961 67.6977 66.9922C68.093 66.9922 68.3978 67.1551 68.3978 67.5956C68.3978 68.0362 68.0809 68.2504 67.7822 68.4646Z" fill="#555555"/>
<path d="M69.0525 68.9653V67.4325L68.606 67.6196V67.2817L69.14 67.0312H69.4417V68.9653H69.0525Z" fill="#555555"/>
<path d="M69.7254 0.691406H17.8711V52.5487H69.7254V0.691406Z" fill="#555555"/>
<path d="M60.5198 8.0625H47.5547V21.0276H60.5198V8.0625Z" fill="white"/>
<path d="M31.2948 42.6702C29.1827 42.6702 26.9319 42.0818 26.9319 36.9525C26.9319 31.8232 29.6474 30.918 31.9315 30.918C32.8606 30.9053 33.7796 31.1121 34.6138 31.5215V33.3499C33.7522 33.0301 32.8486 32.838 31.9315 32.7797C30.7728 32.7797 29.2159 33.4012 29.2159 36.8137C29.2159 40.4344 30.4228 40.8689 31.2586 40.8689C31.7801 40.8544 32.2997 40.7989 32.8125 40.7029V37.2301H31.2586L31.0957 35.4801H35.0996V42.0818C33.8598 42.4311 32.5822 42.6286 31.2948 42.6702Z" fill="white"/>
<path d="M43.9913 33.0301H41.4749V42.5072H39.1848V33.0301H36.4089V31.0688H44.2538L43.9913 33.0301Z" fill="white"/>
<path d="M48.8793 42.6701C46.9664 42.6701 44.8271 42.0667 44.8271 36.7865C44.8271 31.5063 47.5215 30.9059 49.0905 30.9059C49.8154 30.8909 50.5353 31.0297 51.2026 31.3132V33.1598C50.5594 32.9364 49.888 32.8044 49.2082 32.7675C48.0978 32.7675 47.1172 33.4374 47.1172 36.7865C47.1172 39.7796 47.8203 40.7904 49.0453 40.7904C49.7808 40.7642 50.5081 40.6269 51.2026 40.383V42.2296C50.4691 42.5426 49.6765 42.6929 48.8793 42.6701Z" fill="white"/>
<path d="M56.507 42.6705C54.7419 42.6705 52.4216 42.3114 52.4216 36.7869C52.4216 31.2623 54.8897 30.9062 56.507 30.9062C58.1242 30.9062 60.5923 31.2985 60.5923 36.7869C60.5923 42.3597 58.2328 42.6705 56.507 42.6705ZM56.507 32.5386C55.3634 32.5386 54.6966 33.2899 54.6966 36.7869C54.6966 40.3351 55.5294 41.0381 56.507 41.0381C57.4846 41.0381 58.3022 40.3834 58.3022 36.7869C58.3022 33.3562 57.6294 32.5386 56.507 32.5386Z" fill="white"/>
</svg>
