<svg width="150" height="38" viewBox="0 0 150 38" fill="none" xmlns="http://www.w3.org/2000/svg">
<g clip-path="url(#clip0_264_1621)">
<path d="M147.892 34.9079C147.984 34.9088 148.075 34.8909 148.16 34.8553C148.245 34.8196 148.322 34.767 148.385 34.7008C148.449 34.6345 148.498 34.556 148.53 34.47C148.562 34.3841 148.575 34.2926 148.57 34.2011C148.57 33.6999 148.266 33.4604 147.641 33.4604H146.632V36.0846H147.011V34.9407H147.478L147.488 34.9546L148.212 36.0846H148.618L147.839 34.9151L147.892 34.9079ZM147.453 34.645H147.012V33.7579H147.57C147.858 33.7579 148.187 33.8046 148.187 34.1794C148.187 34.6105 147.855 34.645 147.45 34.645" fill="#555555"/>
<path d="M0 6.21484H5.60347V26.4863H15.9771V31.6221H0V6.21484Z" fill="#555555"/>
<path d="M18.4545 14.3956H23.8376V31.613H18.4545V14.3956ZM21.146 5.83594C21.7636 5.83605 22.3673 6.01804 22.8808 6.35889C23.3942 6.69975 23.7944 7.18416 24.0307 7.75088C24.2669 8.3176 24.3287 8.94118 24.2081 9.54276C24.0876 10.1443 23.7901 10.6969 23.3534 11.1306C22.9166 11.5643 22.3602 11.8596 21.7545 11.9792C21.1487 12.0989 20.5209 12.0374 19.9503 11.8026C19.3797 11.5679 18.8921 11.1704 18.5489 10.6604C18.2058 10.1503 18.0227 9.55074 18.0227 8.93736C18.0227 8.53003 18.1035 8.12669 18.2605 7.75037C18.4174 7.37405 18.6475 7.03213 18.9375 6.74413C19.2276 6.45612 19.5719 6.22769 19.9508 6.07186C20.3298 5.91603 20.7359 5.83586 21.146 5.83594Z" fill="#555555"/>
<path d="M46.3557 6.21094H51.7388V21.395L57.8396 14.3875H64.4396L57.3743 22.3585L64.291 31.6199H57.5251L51.8106 23.1092H51.7399V31.6188H46.3568L46.3557 6.21094Z" fill="#555555"/>
<path d="M26.8225 14.3971H31.992V16.75H32.0654C32.5818 15.8715 33.3287 15.1487 34.2264 14.6588C35.1241 14.169 36.139 13.9305 37.1625 13.9688C42.6213 13.9688 43.6262 17.5358 43.6262 22.1699V31.6117H38.2431V23.2408C38.2431 21.2426 38.2061 18.6742 35.4394 18.6742C32.6413 18.6742 32.2095 20.85 32.2095 23.0955V31.6095H26.8264L26.8225 14.3971Z" fill="#555555"/>
<path d="M75.7761 21.0015C75.7864 20.5678 75.708 20.1365 75.5455 19.7337C75.383 19.331 75.1399 18.9652 74.8309 18.6585C74.5219 18.3518 74.1534 18.1106 73.7478 17.9496C73.3422 17.7885 72.9079 17.7108 72.4711 17.7213C71.5306 17.6632 70.6047 17.9745 69.8931 18.5881C69.1815 19.2017 68.7412 20.0685 68.6671 21.0015H75.7761ZM80.3361 28.6312C79.4415 29.7085 78.317 30.5748 77.0438 31.1673C75.7706 31.7597 74.3807 32.0635 72.9747 32.0567C67.5916 32.0567 63.2817 28.4881 63.2817 22.9619C63.2817 17.4357 67.591 13.8687 72.9747 13.8687C78.0062 13.8687 81.1615 17.4329 81.1615 22.9619V24.6381H68.6671C68.8226 25.5888 69.3189 26.4516 70.0644 27.0676C70.8099 27.6836 71.7545 28.0113 72.724 27.9902C73.4902 27.9855 74.2431 27.7905 74.914 27.423C75.585 27.0555 76.1528 26.5272 76.5657 25.8862L80.3361 28.6312Z" fill="#555555"/>
<path d="M92.3818 18.5572C89.6902 18.5572 88.0753 20.3421 88.0753 22.9429C88.0753 25.5437 89.6897 27.3302 92.3818 27.3302C95.0739 27.3302 96.6922 25.5481 96.6922 22.9429C96.6922 20.3377 95.0767 18.5572 92.3818 18.5572ZM101.648 31.6095H96.6922V29.3262H96.6187C95.997 30.1567 95.1906 30.8335 94.2623 31.3037C93.3341 31.7739 92.309 32.025 91.267 32.0372C86.0948 32.0372 82.6877 28.3299 82.6877 23.0871C82.6877 18.2721 85.7028 13.8508 90.6592 13.8508C92.887 13.8508 94.9679 14.4562 96.1886 16.1341H96.2593V6.20947H101.647L101.648 31.6095Z" fill="#555555"/>
<path d="M137.989 31.6198H132.606V23.2472C132.606 21.2507 132.57 18.6806 129.806 18.6806C127.002 18.6806 126.574 20.8559 126.574 23.1019V31.6192H121.19V14.4018H126.358V16.7548H126.431C126.948 15.8766 127.695 15.1541 128.593 14.6643C129.491 14.1746 130.506 13.9358 131.529 13.9736C136.985 13.9736 137.991 17.5378 137.991 22.1746L137.989 31.6198ZM115.116 12.0483C114.499 12.0485 113.895 11.8666 113.381 11.5258C112.867 11.185 112.467 10.7005 112.23 10.1336C111.994 9.56674 111.932 8.94294 112.052 8.34108C112.172 7.73923 112.47 7.18636 112.907 6.75238C113.343 6.3184 113.9 6.02282 114.506 5.903C115.112 5.78318 115.74 5.8445 116.311 6.07923C116.882 6.31395 117.37 6.71152 117.713 7.22167C118.056 7.73182 118.24 8.33163 118.24 8.94525C118.24 9.35268 118.159 9.75614 118.002 10.1326C117.845 10.509 117.615 10.8511 117.325 11.1392C117.035 11.4274 116.691 11.656 116.312 11.812C115.933 11.9679 115.527 12.0483 115.116 12.0483ZM117.808 31.6198H112.419V14.4018H117.808V31.6198ZM140.673 0.878435H109.714C109.012 0.870559 108.335 1.14007 107.832 1.62774C107.329 2.11541 107.042 2.78134 107.033 3.4792V34.3536C107.042 35.0518 107.329 35.7182 107.831 36.2064C108.334 36.6946 109.011 36.9646 109.714 36.9572H140.673C141.377 36.966 142.056 36.6967 142.561 36.2085C143.066 35.7204 143.355 35.0532 143.364 34.3536V3.47697C143.354 2.77772 143.065 2.11104 142.56 1.62338C142.056 1.13572 141.377 0.866984 140.673 0.876206" fill="#555555"/>
<path d="M147.499 32.2915C146.844 32.2978 146.218 32.5613 145.758 33.0246C145.298 33.4879 145.042 34.1132 145.045 34.7637C145.048 35.4141 145.311 36.0369 145.775 36.4958C146.239 36.9546 146.868 37.2122 147.523 37.2122C148.177 37.2122 148.806 36.9546 149.27 36.4958C149.734 36.0369 149.997 35.4141 150 34.7637C150.003 34.1132 149.747 33.4879 149.287 33.0246C148.827 32.5613 148.201 32.2978 147.546 32.2915H147.499ZM147.499 36.9305C147.069 36.9376 146.647 36.8181 146.286 36.5869C145.925 36.3558 145.641 36.0235 145.47 35.6321C145.299 35.2406 145.248 34.8076 145.325 34.3878C145.402 33.9679 145.602 33.5801 145.901 33.2734C146.2 32.9667 146.583 32.7549 147.003 32.6647C147.423 32.5745 147.861 32.61 148.26 32.7667C148.66 32.9234 149.004 33.1943 149.248 33.5451C149.493 33.8959 149.627 34.3108 149.635 34.7374C149.635 34.7497 149.635 34.7614 149.635 34.7736C149.647 35.3333 149.434 35.8749 149.044 36.2791C148.654 36.6834 148.119 36.9173 147.555 36.9294H147.499" fill="#555555"/>
</g>
<defs>
<clipPath id="clip0_264_1621">
<rect width="150" height="36.3806" fill="white" transform="translate(0 0.875977)"/>
</clipPath>
</defs>
</svg>
