<svg width="150" height="42" viewBox="0 0 150 42" fill="none" xmlns="http://www.w3.org/2000/svg">
<path d="M42.3227 33.5531C35.8299 33.5531 32.0388 30.826 31.8645 25.7237H39.0544C39.3159 27.3951 40.0567 28.3188 42.2791 28.3188C44.1964 28.3188 45.0679 27.571 45.0679 26.4274C45.0679 25.3278 43.9785 24.7999 40.8411 24.3601C34.7405 23.5684 32.1695 21.7649 32.1695 16.9705C32.1695 11.8682 36.6578 9.405 41.9305 9.405C47.5517 9.405 51.4735 11.3404 51.9964 16.8385H44.9372C44.6322 15.2991 43.8043 14.5513 42.0177 14.5513C40.3181 14.5513 39.4466 15.2991 39.4466 16.3548C39.4466 17.4544 40.4925 17.8942 43.2813 18.2461C49.5998 19.0378 52.6501 20.7093 52.6501 25.6357C52.6501 31.0899 48.6411 33.5531 42.3227 33.5531ZM69.153 40.6704V29.4289C68.0155 31.6245 65.478 33.5128 62.0217 33.5128C56.7279 33.5128 52.3966 29.6924 52.3966 21.7443V21.393C52.3966 13.5767 56.6841 9.405 62.1092 9.405C65.6967 9.405 67.8404 10.942 69.153 13.2693V10.0198H76.9843V40.6704H69.153ZM64.6043 27.4525C67.4037 27.4525 69.1263 25.4704 69.1263 21.5501V21.1978C69.1263 17.3216 67.5329 15.2514 64.6905 15.2514C61.8049 15.2514 60.2545 17.2335 60.2545 21.2418V21.5942C60.2545 25.4704 61.9341 27.4525 64.6043 27.4525ZM86.4653 33.2989C82.0428 33.2989 78.7587 30.5888 78.7587 24.8189V9.91341H86.5969V23.5513C86.5969 26.1303 87.6042 27.3979 89.8366 27.3979C92.2014 27.3979 93.7341 25.9991 93.7341 23.0705V9.91341H101.572V32.7743H93.7341V29.2337C92.5081 31.5941 90.2748 33.2989 86.4653 33.2989ZM110.046 33.5531C105.95 33.5531 102.333 31.5297 102.333 26.6474C102.333 21.2372 106.865 19.1258 114.448 19.1258H116.628V18.598C116.628 16.3987 116.105 14.9472 113.62 14.9472C111.485 14.9472 110.701 16.2228 110.527 17.6743H103.204C103.553 12.1321 107.868 9.405 114.1 9.405C120.376 9.405 124.385 12.0002 124.385 18.1141V33.0252H116.802V30.3422C115.713 32.0136 113.708 33.5531 110.046 33.5531ZM112.896 27.9609C115.122 27.9609 116.781 26.7091 116.781 24.7668V23.3855H114.73C111.587 23.3855 110.19 23.9898 110.19 25.8458C110.19 27.1408 111.064 27.9609 112.896 27.9609ZM135.024 33.5531C129.731 33.5531 125.399 29.7372 125.399 21.7985V21.4477C125.399 13.6405 129.687 9.4738 135.112 9.4738C138.7 9.4738 140.843 11.0089 142.156 13.3335V0H149.987V33.0267H142.156V29.2986C141.018 31.6671 138.481 33.5531 135.024 33.5531ZM137.607 27.4525C140.407 27.4525 142.13 25.4704 142.13 21.5501V21.1978C142.13 17.3216 140.536 15.2514 137.693 15.2514C134.808 15.2514 133.257 17.2335 133.257 21.2418V21.5942C133.257 25.4704 134.937 27.4525 137.607 27.4525Z" fill="url(#paint0_linear_264_1811)"/>
<path fill-rule="evenodd" clip-rule="evenodd" d="M17.7882 3.34131C15.6707 4.36878 12.2946 6.21429 10.0891 7.89653C4.70475 12.0022 0 16.454 0 22.0352C0 27.9423 4.61779 32.7748 11.7464 33.6592C13.1609 33.8341 11.9628 35.1845 11.9628 35.1845C11.9628 35.1845 12.8985 34.8828 13.5363 34.6659C13.7213 34.6028 14.0278 35.2406 14.0278 35.2406C14.0278 35.2406 14.602 34.5795 14.6619 34.6245C15.3521 35.1478 16.2752 35.2406 16.2752 35.2406C16.2752 35.2406 15.0574 33.8388 16.5742 33.6364C23.6042 32.6953 28.1462 27.894 28.1462 22.0352C28.1462 16.155 24.6168 12.0494 17.7692 7.63463C16.8849 7.06469 16.7847 5.4551 17.7882 3.34131ZM15.1046 9.2596C18.7404 12.5483 20.5585 16.6576 20.5585 20.767C20.5585 24.8758 18.7404 28.9851 15.1046 32.2738C20.2414 26.0024 21.3198 16.2033 15.1046 9.2596ZM13.0141 9.25851C9.37818 12.5472 7.56023 16.6565 7.56023 20.7659C7.56023 24.8753 9.37818 28.9841 13.0141 32.2727C7.87677 26.0014 6.79893 16.2022 13.0141 9.25851ZM14.0596 31.8809C14.3347 28.1014 14.4726 24.3218 14.4726 20.5416C14.4726 16.762 14.3347 12.9825 14.0596 9.20287C13.2575 16.762 13.2575 24.3218 14.0596 31.8809ZM18.5925 10.4912C22.6287 13.8572 24.9593 17.7349 25.1475 21.4785C25.3353 25.2214 23.3806 28.8303 18.8459 31.6583C26.8373 24.7146 25.0611 17.043 18.5925 10.4912ZM9.52609 10.4907C5.48992 13.8561 3.15928 17.7338 2.97107 21.4774C2.78287 25.2204 4.7376 28.8292 9.27218 31.6572C1.28143 24.7135 3.05697 17.042 9.52609 10.4907Z" fill="url(#paint1_linear_264_1811)"/>
<defs>
<linearGradient id="paint0_linear_264_1811" x1="31.8645" y1="20.3355" x2="149.987" y2="20.3355" gradientUnits="userSpaceOnUse">
<stop stop-color="#555555"/>
<stop offset="1" stop-color="#555555"/>
</linearGradient>
<linearGradient id="paint1_linear_264_1811" x1="0" y1="22.3501" x2="139.987" y2="22.3501" gradientUnits="userSpaceOnUse">
<stop stop-color="#555555"/>
<stop offset="1" stop-color="#9B0063"/>
</linearGradient>
</defs>
</svg>
