<svg width="150" height="47" viewBox="0 0 150 47" fill="none" xmlns="http://www.w3.org/2000/svg">
<g clip-path="url(#clip0_264_1778)">
<path fill-rule="evenodd" clip-rule="evenodd" d="M93.057 36.273C84.3403 42.6904 71.7059 46.1143 60.8279 46.1143C45.5752 46.1143 31.8439 40.4795 21.4556 31.1078C20.6394 30.3708 21.3707 29.3665 22.3501 29.9404C33.5611 36.4556 47.423 40.3752 61.742 40.3752C71.399 40.3752 82.0224 38.3795 91.7903 34.2382C93.266 33.6121 94.5 35.2034 93.057 36.273Z" fill="#555555"/>
<path fill-rule="evenodd" clip-rule="evenodd" d="M96.6808 32.1318C95.5708 30.71 89.3156 31.46 86.508 31.7926C85.6526 31.897 85.522 31.1535 86.2925 30.6187C91.2745 27.1165 99.4493 28.1274 100.403 29.3013C101.356 30.4818 100.154 38.6665 95.4729 42.5731C94.7546 43.1731 94.069 42.8535 94.389 42.0578C95.4402 39.4361 97.7973 33.56 96.6808 32.1318Z" fill="#555555"/>
<path fill-rule="evenodd" clip-rule="evenodd" d="M86.7039 5.89461V2.49026C86.7039 1.97505 87.0956 1.62939 87.5657 1.62939H102.825C103.315 1.62939 103.706 1.98157 103.706 2.49026V5.40548C103.7 5.89461 103.289 6.53374 102.557 7.54461L94.6501 18.8207C97.5884 18.749 100.69 19.1859 103.354 20.6859C103.955 21.025 104.118 21.5207 104.163 22.0098V25.6424C104.163 26.1381 103.615 26.7185 103.04 26.4185C98.3458 23.9598 92.1102 23.6924 86.9193 26.4446C86.3904 26.7316 85.8354 26.1576 85.8354 25.662V22.212C85.8354 21.6576 85.842 20.712 86.397 19.8707L95.5577 6.74896H87.5853C87.0956 6.74896 86.7039 6.40331 86.7039 5.89461Z" fill="#555555"/>
<path fill-rule="evenodd" clip-rule="evenodd" d="M31.0407 27.1363H26.3983C25.9543 27.1037 25.6017 26.7711 25.5691 26.3472V2.5494C25.5691 2.07331 25.9674 1.69505 26.4636 1.69505H30.7926C31.2431 1.7146 31.6023 2.06026 31.6349 2.4907V5.60157H31.7198C32.8494 2.59504 34.9714 1.19287 37.8313 1.19287C40.7369 1.19287 42.5521 2.59504 43.858 5.60157C44.981 2.59504 47.534 1.19287 50.2698 1.19287C52.2156 1.19287 54.3442 1.99504 55.6435 3.79504C57.1126 5.79722 56.8123 8.70591 56.8123 11.2559L56.8058 26.2755C56.8058 26.7515 56.4075 27.1363 55.9112 27.1363H51.2754C50.8118 27.1037 50.4396 26.732 50.4396 26.2755V13.6624C50.4396 12.6581 50.531 10.1537 50.309 9.20156C49.9629 7.60374 48.9248 7.15374 47.5797 7.15374C46.4567 7.15374 45.2814 7.90374 44.8047 9.10374C44.3281 10.3037 44.3738 12.3124 44.3738 13.6624V26.2755C44.3738 26.7515 43.9755 27.1363 43.4792 27.1363H38.8434C38.3733 27.1037 38.0076 26.732 38.0076 26.2755L38.0011 13.6624C38.0011 11.0081 38.4385 7.10156 35.1412 7.10156C31.8047 7.10156 31.9353 10.9103 31.9353 13.6624V26.2755C31.9353 26.7515 31.537 27.1363 31.0407 27.1363Z" fill="#555555"/>
<path fill-rule="evenodd" clip-rule="evenodd" d="M116.844 1.19287C123.732 1.19287 127.461 7.10156 127.461 14.6146C127.461 21.8733 123.341 27.632 116.844 27.632C110.079 27.632 106.397 21.7233 106.397 14.3603C106.397 6.95156 110.125 1.19287 116.844 1.19287ZM116.883 6.05157C113.462 6.05157 113.246 10.7081 113.246 13.6103C113.246 16.5189 113.2 22.7276 116.844 22.7276C120.441 22.7276 120.611 17.719 120.611 14.6668C120.611 12.6581 120.526 10.2581 119.919 8.35373C119.397 6.69722 118.359 6.05157 116.883 6.05157Z" fill="#555555"/>
<path fill-rule="evenodd" clip-rule="evenodd" d="M136.393 27.1363H131.77C131.306 27.1037 130.934 26.732 130.934 26.2755L130.928 2.47113C130.967 2.03417 131.352 1.69505 131.822 1.69505H136.125C136.53 1.7146 136.863 1.98852 136.954 2.36026V5.99939H137.039C138.339 2.74504 140.16 1.19287 143.366 1.19287C145.449 1.19287 147.48 1.94287 148.786 3.99722C150 5.90156 150 9.10374 150 11.4059V26.3863C149.948 26.8037 149.563 27.1363 149.106 27.1363H144.45C144.026 27.1037 143.673 26.7907 143.627 26.3863V13.4603C143.627 10.8581 143.928 7.04939 140.722 7.04939C139.592 7.04939 138.554 7.80591 138.038 8.95373C137.385 10.4081 137.3 11.8559 137.3 13.4603V26.2755C137.294 26.7515 136.889 27.1363 136.393 27.1363Z" fill="#555555"/>
<path fill-rule="evenodd" clip-rule="evenodd" d="M74.5397 15.7687C74.5397 17.5752 74.5854 19.0817 73.6713 20.6861C72.9335 21.9904 71.7582 22.7926 70.4588 22.7926C68.6763 22.7926 67.6316 21.4361 67.6316 19.4339C67.6316 15.4817 71.1771 14.7643 74.5397 14.7643V15.7687ZM79.2213 27.0709C78.9144 27.3448 78.4704 27.3643 78.1243 27.1817C76.5834 25.9035 76.3026 25.31 75.4603 24.0904C72.9139 26.6861 71.1052 27.4622 67.8079 27.4622C63.8968 27.4622 60.8606 25.0556 60.8606 20.2361C60.8606 16.473 62.8978 13.91 65.8099 12.6578C68.3302 11.5491 71.8496 11.3535 74.5397 11.047V10.447C74.5397 9.34478 74.6246 8.04044 73.9716 7.08827C73.4101 6.23392 72.3262 5.88174 71.3664 5.88174C69.5969 5.88174 68.0234 6.78826 67.6381 8.66652C67.5598 9.08392 67.2529 9.49479 66.8285 9.51435L62.3297 9.03174C61.951 8.94696 61.5266 8.64044 61.6376 8.06001C62.6692 2.60784 67.6055 0.964355 72.0193 0.964355C74.2785 0.964355 77.2298 1.56436 79.0123 3.27305C81.2715 5.37957 81.056 8.19044 81.056 11.2491V18.4752C81.056 20.647 81.9571 21.5991 82.8059 22.773C83.0997 23.1904 83.165 23.6926 82.7863 24.0056C81.8396 24.7948 80.155 26.2622 79.2278 27.0839L79.2213 27.0709Z" fill="#555555"/>
<path fill-rule="evenodd" clip-rule="evenodd" d="M13.6791 15.7687C13.6791 17.5752 13.7248 19.0817 12.8107 20.6861C12.0729 21.9904 10.9041 22.7926 9.59822 22.7926C7.81569 22.7926 6.77752 21.4361 6.77752 19.4339C6.77752 15.4817 10.323 14.7643 13.6791 14.7643V15.7687ZM18.3607 27.0709C18.0538 27.3448 17.6098 27.3643 17.2637 27.1817C15.7228 25.9035 15.4486 25.31 14.5997 24.0904C12.0533 26.6861 10.2512 27.4622 6.94728 27.4622C3.0427 27.4622 0 25.0556 0 20.2361C0 16.473 2.0437 13.91 4.94929 12.6578C7.46964 11.5491 10.989 11.3535 13.6791 11.047V10.447C13.6791 9.34478 13.764 8.04044 13.1176 7.08827C12.5495 6.23392 11.4656 5.88174 10.5123 5.88174C8.74287 5.88174 7.16275 6.78826 6.77752 8.66652C6.69917 9.08392 6.39228 9.49479 5.9744 9.51435L1.46912 9.03174C1.09041 8.94696 0.672527 8.64044 0.776998 8.06001C1.81517 2.60784 6.74487 0.964355 11.1588 0.964355C13.4179 0.964355 16.3692 1.56436 18.1517 3.27305C20.4109 5.37957 20.1954 8.19044 20.1954 11.2491V18.4752C20.1954 20.647 21.0965 21.5991 21.9453 22.773C22.2457 23.1904 22.311 23.6926 21.9323 24.0056C20.9855 24.7948 19.3009 26.2622 18.3737 27.0839L18.3607 27.0709Z" fill="#555555"/>
</g>
<defs>
<clipPath id="clip0_264_1778">
<rect width="150" height="45.15" fill="white" transform="translate(0 0.964355)"/>
</clipPath>
</defs>
</svg>
