<svg width="150" height="45" viewBox="0 0 150 45" fill="none" xmlns="http://www.w3.org/2000/svg">
<g clip-path="url(#clip0_264_1618)">
<path d="M95.8008 10.1859C89.209 10.1859 83.9355 15.4659 83.9355 22.0659C83.9355 28.6659 89.209 33.9459 95.8008 33.9459C102.393 33.9459 107.666 28.6659 107.666 22.0659C107.666 15.4659 102.393 10.1859 95.8008 10.1859ZM95.8008 29.1059C91.9922 29.1059 88.7695 26.0259 88.7695 22.0659C88.7695 18.1059 91.8457 15.0259 95.8008 15.0259C99.6094 15.0259 102.832 18.1059 102.832 21.9193C102.832 25.8793 99.7559 29.1059 95.8008 29.1059ZM122.168 15.9059C118.799 15.9059 116.016 18.6926 116.016 22.0659V33.3593H110.889V10.9193H116.016V14.4393C117.48 12.2393 119.971 10.9193 122.607 10.9193H124.219V15.9059H122.168ZM70.6055 10.9193L74.4141 26.4659L78.6621 10.9193H83.6426L77.1973 33.3593H72.0703L68.1152 17.6659L64.1602 33.3593H59.0332L52.5879 10.9193H57.5684L61.8164 26.4659L65.7715 10.9193H70.6055ZM139.16 21.1859C142.969 19.1326 145.166 15.1726 145.166 10.7726H140.186C140.186 14.5859 137.109 17.5193 133.447 17.5193H132.715V0.065918H127.588V33.3593H132.715V22.7993H133.301C133.887 22.7993 134.473 23.0926 134.766 23.5326L141.943 33.3593H148.096L139.16 21.1859Z" fill="#555555"/>
<path d="M40.4297 10.1858C34.8633 10.1858 30.6152 13.8525 28.8574 19.7192C26.2207 15.7592 24.3164 11.3592 22.998 6.8125H16.9922V22.3592C16.9922 25.4392 14.502 27.9325 11.4258 27.9325C8.34961 27.9325 5.85938 25.4392 5.85938 22.3592V6.95917H0V22.5058C0 28.8125 5.12695 34.0925 11.5723 34.0925C18.0176 34.0925 23.1445 28.9592 23.1445 22.5058V19.8658C24.3164 22.3592 25.7813 24.7058 27.3926 26.9058L23.7305 44.0658H29.8828L32.5195 31.5992C34.8633 33.2125 37.6465 34.0925 40.5762 34.0925C47.168 34.0925 52.4414 28.8125 52.4414 22.2125C52.2949 15.6125 47.0215 10.1858 40.4297 10.1858ZM40.4297 28.0792C37.9395 27.9325 35.5957 27.0525 33.6914 25.4392L34.1309 23.0925V22.9458C34.5703 20.4525 36.0352 16.1992 40.2832 16.1992C43.5059 16.0525 46.1426 18.6925 46.2891 21.9192C46.4355 25.1458 43.7988 27.7858 40.5762 27.9325L40.4297 28.0792Z" fill="#555555"/>
</g>
<defs>
<clipPath id="clip0_264_1618">
<rect width="150" height="44" fill="white" transform="translate(0 0.065918)"/>
</clipPath>
</defs>
</svg>
