<svg width="150" height="41" viewBox="0 0 150 41" fill="none" xmlns="http://www.w3.org/2000/svg">
<g clip-path="url(#clip0_264_1826)">
<path fill-rule="evenodd" clip-rule="evenodd" d="M49.4182 21.426L49.9263 18.5383C49.9263 18.5383 46.0161 17.2598 42.835 19.6184V31.169H46.2149V21.7786C47.5625 20.6985 49.4182 21.426 49.4182 21.426Z" fill="#555555"/>
<path fill-rule="evenodd" clip-rule="evenodd" d="M20.2798 15.2315L23.6598 14.5923V18.3396H26.9955V21.3374H23.6598V25.8122C23.6598 26.5837 23.7923 27.1788 24.0353 27.6197C24.2783 28.0826 24.7864 28.303 25.5375 28.303C25.9131 28.303 26.2665 28.259 26.6642 28.1928C27.0397 28.1267 27.3932 28.0165 27.7246 27.8842L28.2106 30.7057C27.7908 30.8821 27.349 31.0364 26.8409 31.1686C26.3328 31.3009 25.7363 31.367 25.0073 31.367C24.0795 31.367 23.3284 31.2348 22.7098 30.9702C22.1134 30.7057 21.6274 30.331 21.2518 29.846C20.8983 29.3831 20.6332 28.788 20.5007 28.1047C20.3461 27.4213 20.2798 26.6719 20.2798 25.8563V15.2315Z" fill="#555555"/>
<path fill-rule="evenodd" clip-rule="evenodd" d="M54.941 28.5677C55.5596 28.5677 56.0014 28.5016 56.2665 28.3694C56.5316 28.2371 56.642 27.9946 56.642 27.6199C56.642 27.3333 56.4874 27.0688 56.1339 26.8484C55.8026 26.628 55.2945 26.3855 54.6096 26.0989C54.0795 25.8785 53.5934 25.6801 53.1737 25.4376C52.754 25.2172 52.3784 24.9527 52.0691 24.622C51.7599 24.3134 51.539 23.9387 51.3622 23.4978C51.1855 23.057 51.1192 22.55 51.1192 21.9328C51.1192 20.7425 51.539 19.7946 52.3563 19.0892C53.1958 18.4059 54.3225 18.0532 55.7805 18.0532C56.5095 18.0532 57.1943 18.1194 57.8792 18.2516C58.5419 18.3839 59.0721 18.5382 59.4697 18.6925L58.8733 21.4919C58.4756 21.3376 58.0559 21.2274 57.592 21.1172C57.1281 21.007 56.62 20.9409 56.0456 20.9409C54.9852 20.9409 54.455 21.2495 54.455 21.8887C54.455 22.043 54.4771 22.1532 54.5213 22.2855C54.5655 22.3957 54.6538 22.5059 54.7864 22.6161C54.9189 22.7263 55.1177 22.8366 55.3387 22.9468C55.5817 23.079 55.8689 23.2113 56.2444 23.3435C56.9734 23.6301 57.592 23.9167 58.078 24.2032C58.564 24.4898 58.9395 24.7984 59.2267 25.129C59.5139 25.4597 59.7127 25.8124 59.8232 26.2312C59.9336 26.628 59.9999 27.0909 59.9999 27.6419C59.9999 28.8984 59.5581 29.8462 58.6744 30.4855C57.7908 31.1247 56.5316 31.4554 54.9189 31.4554C53.8585 31.4554 52.9749 31.3672 52.2901 31.1688C51.5831 30.9704 51.0971 30.8161 50.832 30.6839L51.4064 27.7521C51.9808 27.9946 52.5772 28.171 53.1737 28.3253C53.7481 28.5016 54.3445 28.5677 54.941 28.5677Z" fill="#555555"/>
<path fill-rule="evenodd" clip-rule="evenodd" d="M70.405 23.8504C70.0958 25.0848 69.7865 26.2972 69.433 27.5095C69.1016 28.7219 68.7261 29.9343 68.3505 31.1687H65.7217C65.4566 30.4853 65.1473 29.6918 64.838 28.7439C64.5067 27.7961 64.1974 26.7821 63.8439 25.68C63.5125 24.5778 63.1591 23.4095 62.8056 22.1751C62.4522 20.9407 62.0987 19.7063 61.7673 18.4278H65.324C65.4345 19.0009 65.567 19.6402 65.7217 20.3235C65.8763 21.0068 66.0089 21.7122 66.1856 22.4396C66.3402 23.1671 66.517 23.8945 66.6937 24.6219C66.8704 25.3493 67.0472 26.0547 67.2239 26.738C67.4227 26.0326 67.6215 25.3052 67.7983 24.5558C67.975 23.8063 68.1738 23.0789 68.3505 22.3735C68.5273 21.6461 68.704 20.9628 68.8586 20.2794C69.0133 19.6181 69.1458 18.9789 69.2784 18.4058H71.7305C71.8631 18.9789 71.9956 19.6181 72.1502 20.2794C72.3049 20.9407 72.4595 21.6461 72.6363 22.3735C72.7909 23.1009 72.9676 23.8283 73.1444 24.5558C73.3211 25.3052 73.5199 26.0326 73.7187 26.738C73.8955 26.0547 74.0943 25.3493 74.271 24.6219C74.4477 23.8945 74.6245 23.1671 74.7791 22.4396C74.9338 21.7122 75.0884 21.0068 75.243 20.3235C75.3977 19.6402 75.5302 19.0009 75.6407 18.4278H79.1532C78.8218 19.6843 78.4684 20.9407 78.1149 22.1751C77.7614 23.4095 77.408 24.5778 77.0766 25.68C76.7452 26.7821 76.4139 27.8181 76.0825 28.7439C75.7511 29.6697 75.4639 30.4853 75.1768 31.1687H72.5479C72.1723 29.9343 71.7968 28.7219 71.4433 27.5095C71.0457 26.2972 70.7143 25.0848 70.405 23.8504Z" fill="#555555"/>
<path fill-rule="evenodd" clip-rule="evenodd" d="M81.5168 31.1686H84.8968V18.4277H81.5168V31.1686Z" fill="#555555"/>
<path fill-rule="evenodd" clip-rule="evenodd" d="M87.5922 15.254L90.9721 14.6147V18.4282H94.3079V21.426H90.9721V25.9008C90.9721 26.6502 91.1047 27.2674 91.3477 27.7083C91.5907 28.1712 92.0988 28.3916 92.8499 28.3916C93.2254 28.3916 93.601 28.3696 93.9765 28.2814C94.3742 28.2153 94.7056 28.1051 95.0369 27.9728L95.5008 30.7943C95.0811 30.9707 94.6393 31.125 94.1312 31.2572C93.6231 31.3895 93.0266 31.4556 92.2976 31.4556C91.3698 31.4556 90.6187 31.3233 90.0001 31.0588C89.4036 30.7943 88.9176 30.4196 88.5421 29.9346C88.1886 29.4717 87.9235 28.8766 87.791 28.2153C87.6363 27.5319 87.5701 26.7825 87.5701 25.9669V15.254H87.5922Z" fill="#555555"/>
<path fill-rule="evenodd" clip-rule="evenodd" d="M96.6936 24.7982C96.6936 23.8724 96.8262 23.0128 97.1133 22.1972C97.4005 21.3816 97.7982 20.6762 98.3284 20.059C98.8586 19.4418 99.4992 18.9789 100.25 18.6262C101.001 18.2735 101.863 18.0972 102.835 18.0972C103.476 18.0972 104.05 18.1633 104.58 18.2735C105.11 18.4058 105.618 18.5601 106.127 18.8025L105.42 21.6902C105.11 21.5579 104.757 21.4477 104.381 21.3595C104.006 21.2714 103.586 21.2052 103.1 21.2052C102.106 21.2052 101.355 21.5359 100.869 22.1972C100.383 22.8585 100.14 23.7402 100.14 24.8203C100.14 25.9665 100.361 26.8482 100.825 27.4875C101.289 28.1267 102.084 28.4353 103.233 28.4353C103.652 28.4353 104.072 28.3913 104.558 28.3031C105.022 28.2149 105.464 28.1047 105.861 27.9063L106.325 30.8601C105.928 31.0364 105.442 31.1907 104.845 31.323C104.249 31.4552 103.608 31.5214 102.901 31.5214C101.819 31.5214 100.869 31.345 100.096 30.9923C99.3004 30.6396 98.6597 30.1767 98.1516 29.5816C97.6435 28.9864 97.268 28.281 97.0471 27.4654C96.8041 26.6278 96.6936 25.7461 96.6936 24.7982Z" fill="#555555"/>
<path fill-rule="evenodd" clip-rule="evenodd" d="M108.512 31.1686V15.2315L111.892 14.5923V18.4719C112.113 18.3837 112.401 18.3176 112.776 18.2514C113.13 18.1853 113.483 18.1412 113.814 18.1412C114.786 18.1412 115.582 18.2735 116.222 18.56C116.863 18.8466 117.371 19.2434 117.769 19.7503C118.166 20.2573 118.431 20.8745 118.586 21.5799C118.741 22.2853 118.829 23.0788 118.829 23.9606V31.1466H115.449V24.4014C115.449 23.2331 115.317 22.4176 115.029 21.9326C114.742 21.4477 114.234 21.2052 113.483 21.2052C113.174 21.2052 112.887 21.2272 112.621 21.2934C112.356 21.3595 112.113 21.4036 111.915 21.4697V31.1466H108.512V31.1686Z" fill="#555555"/>
<path fill-rule="evenodd" clip-rule="evenodd" d="M6.64941 31.1689V19.6184C6.64941 19.6184 8.35044 18.1636 12.0618 18.1636C15.4418 18.1636 17.2974 19.9711 17.2974 23.9388V31.1469H13.9175V23.9388C13.9175 21.4039 12.7245 21.2276 11.7304 21.2276C10.7142 21.2276 10.0294 21.7566 10.0294 21.7566V31.1469H6.64941V31.1689Z" fill="#555555"/>
<path fill-rule="evenodd" clip-rule="evenodd" d="M0.287109 31.169V15.2319L3.66708 14.6147V31.169H0.287109Z" fill="#555555"/>
<path fill-rule="evenodd" clip-rule="evenodd" d="M40.184 25.7019H32.5846C32.5846 25.7019 32.7613 28.4132 36.1413 28.4132C37.8423 28.4132 39.5213 27.8842 39.5213 27.8842L39.8526 30.7718C39.8526 30.7718 38.1737 31.4772 35.8099 31.4772C32.4299 31.4772 29.3813 29.6697 29.3813 24.6218C29.3813 20.6541 31.7451 18.1191 35.1251 18.1191C40.184 18.1412 40.5375 23.5417 40.184 25.7019ZM34.9484 20.6541C32.7613 20.6541 32.5846 23.189 32.5846 23.189H37.3121C37.3121 23.189 37.1575 20.6541 34.9484 20.6541Z" fill="#555555"/>
<path fill-rule="evenodd" clip-rule="evenodd" d="M117.614 46.3787H151.083V6.5249H117.614V46.3787Z" fill="#555555"/>
<path fill-rule="evenodd" clip-rule="evenodd" d="M135.155 15.4963H155.456V-5.37842H135.155V15.4963Z" fill="#555555"/>
</g>
<defs>
<clipPath id="clip0_264_1826">
<rect width="150" height="41" fill="white"/>
</clipPath>
</defs>
</svg>
