<svg width="150" height="38" viewBox="0 0 150 38" fill="none" xmlns="http://www.w3.org/2000/svg">
<path d="M54.6248 28.1524C51.9438 28.759 46.5149 29.6351 47.1181 25.6588C47.5872 22.6934 52.2789 22.6934 55.295 23.0978L54.6248 28.1524ZM44.7722 17.167C48.6596 16.2908 55.7642 13.932 55.6972 19.8628C52.2789 19.9302 49.732 19.4584 46.5149 20.6041C38.2709 23.6369 40.7508 35.2963 55.295 31.7917C59.7856 30.7134 58.9813 30.4438 59.6516 25.9957C60.4559 20.8063 62.2655 14.269 55.0939 12.5167C53.0832 12.0449 47.9894 12.3145 46.0457 12.9885L44.7722 17.167ZM111.997 20.4019L103.217 20.4693C103.82 15.0103 112.869 13.3254 111.997 20.4019ZM113.807 27.5458C111.26 28.0176 109.249 29.0285 106.367 28.5568C103.82 28.085 102.346 26.7371 102.547 23.7717H116.22C116.622 19.6606 117.359 13.5276 110.523 12.4493C98.1234 10.5622 93.4318 26.4001 101.341 31.1178C104.491 33.0049 111.863 32.4657 112.668 31.1852C112.936 30.8482 113.673 28.1524 113.807 27.5458ZM133.713 27.3437L132.641 31.0504C137.266 33.7462 150.737 32.4657 147.855 24.4457C147.319 22.963 146.18 22.0868 144.839 21.2781C143.968 20.7389 141.488 19.5932 140.952 18.9866C139.343 17.0322 142.091 14.4038 148.593 17.0322C148.995 16.493 149.062 16.0212 149.33 15.2799C149.598 14.5386 149.732 14.1342 149.933 13.3928C146.448 12.5841 143.097 11.6406 139.343 13.0559C136.528 14.1342 131.703 19.1888 139.611 23.5021C140.818 24.1761 142.896 24.9174 142.829 26.4675C142.762 28.2198 140.55 28.5568 138.74 28.4894C136.394 28.4894 135.657 27.8828 133.713 27.3437ZM133.177 13.3254C129.692 12.6515 126.073 11.5058 122.386 13.1233C120.845 13.7972 119.839 14.5386 119.169 16.0886C116.22 23.0304 126.609 23.4347 126.14 26.6023C125.871 28.2198 123.727 28.5568 121.917 28.4894C119.839 28.422 118.901 27.9502 117.158 27.3437C116.622 28.0176 116.086 29.9721 116.019 31.0504C118.432 32.4657 124.129 32.6679 126.944 31.7243C129.692 30.7808 132.842 27.8828 131.032 24.0413C129.692 21.2781 124.799 20.1998 124.062 18.6497C123.056 16.6278 125.469 15.9539 127.011 15.8865C129.156 15.8191 130.295 16.4256 132.038 17.0322L133.177 13.3254ZM80.4291 13.3928C76.6087 12.3819 72.8553 11.708 68.9679 13.3254C62.1315 16.0886 60.1208 26.1979 65.6838 30.5112C68.4318 32.6005 72.7213 32.6005 76.7427 31.9265L78.1502 27.6806C75.4693 28.2872 72.9894 29.0285 70.4425 27.4784C66.421 24.9848 67.3594 18.4475 72.0511 16.6952C75.1342 15.5495 76.6087 16.493 79.2226 17.0996L80.4291 13.3928ZM95.7106 27.748C92.8956 28.2872 90.7508 29.0285 88.1368 27.6132C84.3165 25.524 84.6516 18.7845 89.6114 16.7626C92.6945 15.4821 94.169 16.6952 96.783 17.0996L98.0564 13.4602C94.035 12.3819 89.4773 11.6406 85.724 13.7298C77.6811 18.1779 76.6087 34.0158 92.6275 32.1961C94.3701 31.9939 94.3031 32.1961 94.7722 30.7134C95.1073 29.7025 95.5095 28.759 95.7106 27.748Z" fill="#555555"/>
<path d="M15.0134 3.55328L31.6354 20.1999L17.2922 34.6225L2.94906 20.1999L9.85255 13.056H7.03753L0 20.1999L17.2922 37.5879L34.5174 20.1999L15.0804 0.587891L15.0134 3.55328Z" fill="#555555"/>
<path d="M15.0805 13.1234L12.0644 13.056L5.16089 20.1999L17.2923 32.3985L29.4236 20.1999L15.0805 5.70996L15.0134 8.54056L26.6086 20.1999L17.2923 29.5679L8.04293 20.1999L15.0805 13.1234Z" fill="#555555"/>
<path d="M17.2252 16.0215L21.4477 20.2001L17.2252 24.3786L13.0026 20.2001L17.2252 16.0215ZM24.3297 20.2001L17.2252 13.0562L10.1206 20.2001L17.2252 27.3439L24.3297 20.2001Z" fill="#555555"/>
</svg>
