<svg width="150" height="37" viewBox="0 0 150 37" fill="none" xmlns="http://www.w3.org/2000/svg">
<g clip-path="url(#clip0_264_1631)">
<path d="M28.4485 0.065918L31.7605 4.68213L48.518 0.065918M11.0375 36.0083L20.1025 27.2007L14.6465 21.382M27.076 0.065918L22.231 4.40784L30.38 4.70996M8.24101 0.065918L9.98101 3.61031L19.571 4.20411M13.375 18.4443L20.46 5.30922L-0.11499 4.20411M14.2 19.2771L20.8925 26.4216L28.275 19.2299L30.566 5.83494L21.5695 5.37879" fill="#555555"/>
<path d="M42.6099 16.9118H40.7749L39.1679 26.9919C39.1259 27.2563 38.8744 27.4719 38.6079 27.4719H34.9379C34.6719 27.4719 34.4894 27.2563 34.5314 26.9919L36.7844 12.8551C37.3544 9.27986 39.1704 8.4873 41.6579 8.4873C42.4304 8.4873 43.2399 8.55985 43.8729 8.67961C44.1549 8.7278 44.3454 8.89576 44.3029 9.15961L43.9394 11.4404C43.8974 11.7037 43.6494 11.896 43.3594 11.896H42.3459C41.7424 11.896 41.5349 12.1356 41.4209 12.8561L41.3174 13.5035H43.1524C43.4184 13.5035 43.6009 13.7192 43.5589 13.984L43.1689 16.4318C43.1259 16.6961 42.8739 16.9118 42.6089 16.9118H42.6099ZM51.7699 17.0797H51.4324C50.3939 17.0797 49.3809 17.2238 48.5674 17.6313L47.0834 26.9432C47.0414 27.2081 46.8059 27.4714 46.5159 27.4714H42.8939C42.6039 27.4714 42.4049 27.2081 42.4469 26.9437L44.5119 13.9845C44.5544 13.7197 44.7334 13.5035 45.0719 13.5035H48.5489C48.8869 13.5035 49.0129 13.6238 48.9554 13.984L48.8639 14.5594C50.1304 13.4315 51.0189 13.3112 52.2989 13.3112C52.7089 13.3112 52.7659 13.4071 52.7049 13.7917L52.2379 16.7195C52.1929 17.0077 52.0839 17.0797 51.7699 17.0797ZM63.9029 21.7839H56.3929L56.3859 21.8316C56.1829 23.1037 56.5884 23.8952 58.3509 23.8952C59.6309 23.8952 62.0159 23.776 62.9694 23.7029C63.3594 23.6781 63.4924 23.7501 63.4344 24.1104L63.0909 26.2709C63.0299 26.655 62.9059 26.8225 62.5009 26.9432C60.8749 27.4481 59.1709 27.6876 57.1424 27.6876C53.8824 27.6876 51.1359 25.9832 51.8664 21.3998L52.1189 19.8157C52.7914 15.592 55.6214 13.2879 59.5819 13.2879C63.8079 13.2879 65.3389 15.9513 64.7234 19.8152L64.4934 21.2562C64.4434 21.5672 64.1909 21.7829 63.9014 21.7829L63.9029 21.7839ZM60.3839 19.1677C60.6139 17.7277 60.1714 16.8636 58.9639 16.8636C57.8049 16.8636 57.0399 17.7282 56.8104 19.1677L56.7994 19.2398H60.3729L60.3839 19.1677ZM77.2689 21.7839H69.7589L69.7519 21.8316C69.5489 23.1037 69.9544 23.8952 71.7169 23.8952C72.9969 23.8952 75.3819 23.776 76.3354 23.7029C76.7254 23.6781 76.8594 23.7501 76.8019 24.1104L76.4579 26.2709C76.3969 26.655 76.2729 26.8225 75.8679 26.9432C74.2419 27.4481 72.5379 27.6876 70.5094 27.6876C67.2494 27.6876 64.5029 25.9832 65.2334 21.3998L65.4859 19.8157C66.1594 15.592 68.9894 13.2879 72.9499 13.2879C77.1759 13.2879 78.7069 15.9513 78.0914 19.8152L77.8624 21.2562C77.8124 21.5672 77.5599 21.7829 77.2704 21.7829L77.2689 21.7839ZM73.7489 19.1677C73.9789 17.7277 73.5369 16.8636 72.3299 16.8636C71.1709 16.8636 70.4049 17.7282 70.1759 19.1677L70.1644 19.2398H73.7374L73.7489 19.1677ZM82.1699 27.4719H78.5239C78.2579 27.4719 78.0349 27.2086 78.0769 26.9442L80.8729 9.39962C80.9149 9.13626 81.2149 8.92011 81.4804 8.92011H85.1269C85.3929 8.92011 85.5754 9.13526 85.5334 9.39912L82.7374 26.9437C82.6954 27.2071 82.4359 27.4714 82.1704 27.4714L82.1699 27.4719ZM95.0034 27.4719H91.6469C91.3819 27.4719 91.1984 27.2563 91.2404 26.9919L91.3214 26.4881C90.2964 27.1599 89.0054 27.6876 87.6774 27.6876C85.7699 27.6876 83.7164 26.6317 84.2324 23.3919L84.2784 23.1037C84.7374 20.2236 87.0994 19.1916 91.1319 19.1916H92.1704L92.2814 18.4959C92.4689 17.3202 92.1164 17.1046 90.9094 17.1046C89.5569 17.1046 87.3644 17.2238 86.6804 17.2725C86.2664 17.2964 86.1804 17.0802 86.2254 16.792L86.5969 14.4645C86.6544 14.1048 86.8669 13.985 87.1719 13.8881C88.0069 13.6486 90.1369 13.3117 91.6829 13.3117C95.1844 13.3117 97.5449 14.5604 96.9179 18.4964L95.5639 26.9924C95.5214 27.2568 95.2689 27.4724 95.0039 27.4724L95.0034 27.4719ZM91.9169 21.688H90.7339C89.5264 21.688 88.9824 22.0721 88.8219 23.0793L88.7834 23.3198C88.6534 24.1362 89.1704 24.3762 89.8464 24.3762C90.4264 24.3762 91.1049 24.2073 91.5464 24.0165L91.9164 21.688H91.9169ZM108.949 27.4719H105.327C105.037 27.4719 104.838 27.2086 104.88 26.9442L106.176 18.8079C106.379 17.5359 106.034 17.1284 104.946 17.1284C104.391 17.1284 103.656 17.3436 103.055 17.6323L101.572 26.9442C101.53 27.2086 101.294 27.4719 101.004 27.4719H97.3824C97.0924 27.4719 96.8934 27.2086 96.9354 26.9442L98.9999 13.984C99.0424 13.7197 99.2939 13.5035 99.5599 13.5035H102.916C103.182 13.5035 103.365 13.7192 103.323 13.984L103.235 14.5356C104.667 13.5756 106.062 13.3112 107.415 13.3112C111.205 13.3112 111.268 15.9513 110.813 18.807L109.516 26.9437C109.474 27.2086 109.238 27.4719 108.949 27.4719ZM119.661 27.304C118.81 27.4958 117.716 27.6876 116.292 27.6876C112.597 27.6876 110.896 25.3357 111.523 21.3998L111.81 19.6C112.434 15.6879 114.893 13.2879 118.588 13.2879C120.013 13.2879 121.185 13.503 121.835 13.6705C122.137 13.743 122.287 13.8633 122.237 14.1753L121.805 16.8874C121.759 17.1756 121.58 17.3913 121.225 17.3431C120.415 17.272 119.658 17.1756 118.475 17.1756C117.437 17.1756 116.73 17.8241 116.447 19.6005L116.16 21.3993C115.877 23.1757 116.381 23.7993 117.42 23.7993C118.602 23.7993 119.383 23.7516 120.22 23.6552C120.59 23.608 120.704 23.7993 120.655 24.1114L120.226 26.7996C120.176 27.1127 119.987 27.2319 119.661 27.3045L119.661 27.304ZM133.835 21.7839H126.325L126.317 21.8316C126.114 23.1037 126.52 23.8952 128.282 23.8952C129.562 23.8952 131.947 23.776 132.901 23.7029C133.291 23.6781 133.424 23.7501 133.367 24.1104L133.022 26.2709C132.962 26.655 132.838 26.8225 132.432 26.9432C130.807 27.4481 129.102 27.6876 127.074 27.6876C123.814 27.6876 121.067 25.9832 121.798 21.3998L122.05 19.8157C122.723 15.592 125.553 13.2879 129.514 13.2879C133.739 13.2879 135.271 15.9513 134.655 19.8152L134.425 21.2562C134.375 21.5672 134.123 21.7829 133.833 21.7829L133.835 21.7839ZM130.315 19.1677C130.545 17.7277 130.103 16.8636 128.895 16.8636C127.736 16.8636 126.971 17.7282 126.741 19.1677L126.73 19.2398H130.303L130.315 19.1677ZM141.428 13.5035L139.278 26.9437C139.236 27.2086 139.001 27.4719 138.711 27.4719H135.089C134.799 27.4719 134.6 27.2086 134.642 26.9442L136.069 18.0527L141.429 13.5045L141.428 13.5035Z" fill="#555555"/>
<path d="M142.663 13.5034L141.921 18.1147L149.886 13.5034" fill="#555555"/>
</g>
<defs>
<clipPath id="clip0_264_1631">
<rect width="150" height="36" fill="white" transform="translate(0 0.065918)"/>
</clipPath>
</defs>
</svg>
