<svg width="173" height="32" viewBox="0 0 173 32" fill="none" xmlns="http://www.w3.org/2000/svg">
<path d="M75.3511 21.1066V14.8196C75.3511 12.4516 73.8454 10.8589 71.4195 10.8379C70.7284 10.7928 70.0378 10.9343 69.4199 11.2476C68.8019 11.5609 68.2791 12.0346 67.906 12.6193C67.566 12.052 67.0796 11.5872 66.498 11.2737C65.9165 10.9602 65.2614 10.8097 64.6016 10.8379C64.0266 10.809 63.4539 10.931 62.9404 11.192C62.4269 11.453 61.9903 11.8439 61.6739 12.3259V11.0894H59.4988V21.1066H61.6947V15.553C61.6947 13.8137 62.6568 12.8918 64.1416 12.8918C65.5845 12.8918 66.3166 13.8347 66.3166 15.5322V21.1066H68.5125V15.553C68.5125 13.8137 69.5164 12.8918 70.9594 12.8918C72.4441 12.8918 73.1552 13.8347 73.1552 15.5322V21.1066H75.3511ZM107.851 11.0894H104.295V8.05087H102.099V11.0894H100.071V13.0803H102.099V17.6487C102.099 19.975 102.999 21.3581 105.571 21.3581C106.532 21.3609 107.474 21.0922 108.29 20.5827L107.662 18.7175C107.079 19.0662 106.417 19.2609 105.738 19.2834C104.651 19.2834 104.295 18.6127 104.295 17.6069V13.0803H107.851V11.0894ZM126.401 10.8379C125.87 10.8223 125.346 10.9503 124.882 11.2085C124.418 11.4667 124.033 11.8454 123.766 12.3049V11.0894H121.612V21.1066H123.786V15.4902C123.786 13.8347 124.498 12.9126 125.92 12.9126C126.385 12.9062 126.847 12.9917 127.279 13.1642L127.948 11.1104C127.452 10.9322 126.928 10.8401 126.401 10.8379ZM98.3559 11.8859C97.1248 11.1523 95.7092 10.7885 94.2777 10.8379C91.7471 10.8379 90.116 12.0534 90.116 14.0442C90.116 15.6789 91.329 16.6848 93.5665 16.9992L94.5914 17.1458C95.7834 17.3134 96.3481 17.6277 96.3481 18.1936C96.3481 18.969 95.5533 19.4091 94.0686 19.4091C92.8742 19.4435 91.703 19.0744 90.7432 18.3613L89.7186 20.0586C90.9854 20.9453 92.503 21.4009 94.0477 21.3581C96.9336 21.3581 98.6067 19.9958 98.6067 18.0888C98.6067 16.3284 97.2893 15.4063 95.1142 15.092L94.0896 14.9453C93.1484 14.8196 92.3956 14.6311 92.3956 13.9606C92.3956 13.227 93.1064 12.787 94.2987 12.787C95.3933 12.8035 96.4658 13.0992 97.4147 13.6462L98.3559 11.8859ZM156.621 10.8379C156.09 10.8223 155.566 10.9503 155.102 11.2085C154.638 11.4666 154.252 11.8454 153.986 12.3049V11.0894H151.831V21.1066H154.006V15.4902C154.006 13.8347 154.717 12.9126 156.14 12.9126C156.605 12.9062 157.067 12.9917 157.499 13.1642L158.168 11.1104C157.672 10.9322 157.148 10.8401 156.621 10.8379ZM128.597 16.0979C128.597 19.1367 130.709 21.3581 133.93 21.3581C135.235 21.4238 136.518 20.9976 137.527 20.1634L136.481 18.4031C135.729 18.9775 134.812 19.2935 133.867 19.3042C132.131 19.2834 130.855 18.0259 130.855 16.0979C130.855 14.1701 132.131 12.9126 133.867 12.8918C134.812 12.9025 135.729 13.2185 136.481 13.7929L137.527 12.0325C136.518 11.1984 135.235 10.7722 133.93 10.8379C130.709 10.8379 128.597 13.0593 128.597 16.0979ZM148.966 16.0979V11.0894H146.791V12.3049C146.42 11.8255 145.94 11.4422 145.39 11.1869C144.841 10.9317 144.238 10.812 143.633 10.8379C140.831 10.8379 138.635 13.0385 138.635 16.0979C138.635 19.1575 140.831 21.3581 143.633 21.3581C144.238 21.384 144.841 21.2643 145.39 21.0091C145.94 20.7539 146.42 20.3705 146.791 19.8911V21.1066H148.966V16.0979ZM140.873 16.0979C140.873 14.3376 142.023 12.8918 143.905 12.8918C145.704 12.8918 146.917 14.2747 146.917 16.0979C146.917 17.9211 145.704 19.3042 143.905 19.3042C142.023 19.3042 140.873 17.8582 140.873 16.0979ZM114.627 10.8379C111.699 10.8379 109.649 12.9755 109.649 16.0979C109.649 19.2834 111.782 21.3581 114.773 21.3581C116.265 21.4105 117.724 20.9107 118.872 19.954L117.805 18.3403C116.979 19.0035 115.957 19.3722 114.898 19.3881C113.497 19.3881 112.221 18.7385 111.908 16.9361H119.332C119.353 16.6638 119.374 16.3915 119.374 16.0979C119.353 12.9755 117.429 10.8379 114.627 10.8379ZM114.585 12.787C115.986 12.787 116.885 13.667 117.115 15.2178H111.929C112.159 13.7719 113.037 12.787 114.585 12.787ZM169.148 16.0979V7.06592H166.973V12.3049C166.601 11.8255 166.121 11.4422 165.572 11.187C165.022 10.9317 164.42 10.8121 163.815 10.8379C161.012 10.8379 158.816 13.0385 158.816 16.0979C158.816 19.1575 161.012 21.3581 163.815 21.3581C164.42 21.384 165.022 21.2643 165.572 21.0091C166.121 20.7538 166.601 20.3705 166.973 19.8911V21.1066H169.148V16.0979ZM171.69 20.1822C171.776 20.1816 171.861 20.1986 171.941 20.232C172.017 20.264 172.087 20.3103 172.146 20.3683C172.205 20.4263 172.252 20.4951 172.284 20.571C172.318 20.6489 172.335 20.7327 172.335 20.8175C172.335 20.9023 172.318 20.9862 172.284 21.0641C172.252 21.1396 172.205 21.208 172.146 21.2658C172.087 21.3239 172.017 21.3704 171.941 21.4029C171.861 21.437 171.776 21.4542 171.69 21.4536C171.563 21.4549 171.438 21.4187 171.331 21.3494C171.225 21.2801 171.141 21.1809 171.09 21.0641C171.057 20.9862 171.04 20.9023 171.04 20.8175C171.04 20.7328 171.057 20.6489 171.09 20.571C171.156 20.4171 171.279 20.2953 171.434 20.232C171.515 20.1985 171.602 20.1815 171.69 20.1822ZM171.69 21.3134C171.755 21.3139 171.821 21.3006 171.881 21.2745C171.939 21.2492 171.992 21.2132 172.036 21.1684C172.129 21.0751 172.18 20.9491 172.18 20.8178C172.18 20.6865 172.129 20.5605 172.036 20.4672C171.992 20.4225 171.939 20.3869 171.881 20.3621C171.82 20.3364 171.755 20.3234 171.69 20.3239C171.623 20.3234 171.556 20.3364 171.494 20.3621C171.42 20.3939 171.354 20.4434 171.304 20.5064C171.253 20.5694 171.218 20.6439 171.202 20.7234C171.187 20.8029 171.191 20.8851 171.214 20.9626C171.238 21.0402 171.28 21.1109 171.337 21.1684C171.382 21.2136 171.436 21.2496 171.494 21.2745C171.556 21.3006 171.623 21.3138 171.69 21.3134ZM171.727 20.5203C171.789 20.5162 171.851 20.5341 171.902 20.571C171.922 20.5876 171.938 20.6087 171.949 20.6326C171.96 20.6565 171.964 20.6826 171.963 20.7088C171.964 20.7312 171.96 20.7535 171.952 20.7743C171.943 20.7951 171.931 20.8139 171.914 20.8295C171.876 20.8638 171.827 20.8844 171.775 20.8879L171.968 21.1107H171.817L171.638 20.8894H171.581V21.1107H171.455V20.5203H171.727ZM171.581 20.6309V20.7883H171.725C171.753 20.7897 171.781 20.7829 171.805 20.7687C171.815 20.7622 171.822 20.7533 171.828 20.7427C171.833 20.7322 171.835 20.7205 171.834 20.7088C171.835 20.6973 171.832 20.6859 171.827 20.6756C171.822 20.6653 171.814 20.6566 171.805 20.6503C171.781 20.6363 171.753 20.6295 171.725 20.6309H171.581ZM161.054 16.0979C161.054 14.3376 162.205 12.8918 164.087 12.8918C165.885 12.8918 167.098 14.2747 167.098 16.0979C167.098 17.9211 165.885 19.3042 164.087 19.3042C162.205 19.3042 161.054 17.8582 161.054 16.0979ZM87.6064 16.0979V11.0894H85.4313V12.3049C85.0601 11.8255 84.5797 11.4421 84.0302 11.1869C83.4808 10.9317 82.8784 10.812 82.2734 10.8379C79.471 10.8379 77.2752 13.0385 77.2752 16.0979C77.2752 19.1575 79.471 21.3581 82.2734 21.3581C82.8784 21.384 83.4808 21.2643 84.0302 21.0091C84.5797 20.7539 85.0601 20.3705 85.4313 19.8911V21.1066H87.6064V16.0979ZM79.513 16.0979C79.513 14.3376 80.6632 12.8918 82.5454 12.8918C84.3439 12.8918 85.5568 14.2747 85.5568 16.0979C85.5568 17.9211 84.3439 19.3042 82.5454 19.3042C80.6632 19.3042 79.513 17.8582 79.513 16.0979Z" fill="#555555"/>
<path d="M31.7485 4.19092H18.5959V27.8749H31.7485V4.19092Z" fill="#555555"/>
<path d="M19.431 16.033C19.4289 13.7521 19.9447 11.5006 20.9394 9.44892C21.9341 7.39727 23.3815 5.59927 25.1722 4.19104C22.9547 2.44449 20.2916 1.35834 17.4872 1.05673C14.6829 0.755116 11.8504 1.2502 9.31355 2.48542C6.77671 3.72064 4.63786 5.64615 3.14148 8.04185C1.64511 10.4375 0.851562 13.2068 0.851562 16.033C0.851562 18.8593 1.64511 21.6285 3.14148 24.0242C4.63786 26.4199 6.77671 28.3454 9.31355 29.5807C11.8504 30.8159 14.6829 31.311 17.4872 31.0093C20.2916 30.7077 22.9547 29.6216 25.1722 27.875C23.3815 26.4668 21.9341 24.6688 20.9394 22.6171C19.9448 20.5655 19.4289 18.314 19.431 16.033Z" fill="#A6A4A4"/>
<path d="M49.492 16.033C49.4921 18.8593 48.6986 21.6285 47.2023 24.0242C45.706 26.4199 43.5673 28.3454 41.0305 29.5806C38.4937 30.8159 35.6612 31.311 32.8569 31.0094C30.0526 30.7078 27.3895 29.6216 25.1721 27.875C26.9612 26.4654 28.4075 24.6671 29.402 22.6158C30.3965 20.5644 30.9132 18.3136 30.9132 16.033C30.9132 13.7525 30.3965 11.5016 29.402 9.45032C28.4075 7.399 26.9612 5.60071 25.1721 4.19105C27.3895 2.4445 30.0526 1.35833 32.8569 1.05672C35.6612 0.755116 38.4937 1.25022 41.0305 2.48546C43.5673 3.72069 45.706 5.64621 47.2023 8.04191C48.6986 10.4376 49.4921 13.2068 49.492 16.033Z" fill="#555555"/>
<path d="M48.0579 25.3664V24.8815H48.253V24.7827H47.7561V24.8815H47.9513V25.3664H48.0579ZM49.0226 25.3664V24.7817H48.8703L48.6951 25.1839L48.5199 24.7817H48.3675V25.3664H48.475V24.9254L48.6393 25.3056H48.7509L48.9152 24.9244V25.3664H49.0226Z" fill="#555555"/>
</svg>
