<svg width="70" height="87" viewBox="0 0 70 87" fill="none" xmlns="http://www.w3.org/2000/svg">
<g clip-path="url(#clip0_264_1730)">
<path d="M17.5985 84.182C15.8589 83.6025 14.1194 82.4433 12.9597 80.1251C11.8 78.9659 10.6403 77.2272 8.9008 74.909C6.58142 71.4316 4.26204 66.7951 2.52251 62.1585C0.782971 56.9424 0.203125 51.7264 0.203125 46.5103C0.203125 40.7146 1.36281 36.0781 3.6822 32.0211C5.42173 28.5437 8.32096 26.2255 11.2202 23.9072C14.1194 22.1685 17.5985 21.0094 21.0776 21.0094C22.2372 21.0094 23.3969 21.0094 25.1365 21.5889C26.2962 21.5889 27.4558 22.1685 29.1954 22.7481C30.9349 23.3276 32.0946 23.9072 32.6745 23.9072C33.8341 24.4868 34.9938 24.4868 35.5737 24.4868C36.1535 24.4868 36.7334 24.4868 37.8931 23.9072C38.4729 23.9072 39.6326 23.3276 40.7923 22.7481C41.952 22.1685 43.1117 21.5889 44.2714 21.5889C45.431 21.5889 46.5907 21.0094 47.7504 21.0094C48.9101 21.0094 50.6497 20.4298 51.8093 21.0094C54.1287 21.0094 56.4481 21.5889 58.7675 22.7481C62.2466 23.9072 65.1458 26.805 67.4652 29.7029C66.8853 29.7029 65.7256 30.2824 65.1458 31.4416C63.4062 33.1803 61.6667 34.919 60.507 36.6576C59.3473 39.5555 58.1876 42.4533 58.1876 45.9307C58.1876 49.9877 59.3473 53.465 61.0869 56.3629C62.2466 58.6811 64.5659 60.4198 66.3055 61.579C68.045 62.1585 69.2047 62.7381 69.7845 63.3177C69.7845 64.4768 69.2047 66.2155 68.6249 66.7951C67.4652 70.2724 65.7256 72.5907 63.9861 75.4885C62.2466 77.8068 61.0869 79.5455 60.507 80.1251C58.7675 81.8638 57.6078 83.6025 55.8683 84.182C54.7086 85.3411 52.969 85.9207 50.6497 85.9207C49.49 85.9207 48.3303 85.9207 47.1706 85.3412C46.5907 85.3412 45.431 84.7616 44.2714 84.182C42.5318 83.6025 41.952 83.0229 40.7923 83.0229C39.6326 82.4433 37.8931 82.4433 36.7334 82.4433C35.5737 82.4433 33.8341 82.4433 32.6745 83.0229C31.5148 83.0229 30.3551 83.6025 29.1954 84.182C27.4558 84.7616 26.876 85.3412 26.2962 85.3412C25.1365 85.9207 23.9768 85.9207 22.8171 85.9207C21.0776 85.9207 19.338 85.3411 17.5985 84.182ZM41.952 18.1115C39.6326 19.2707 37.3132 19.8502 34.9938 19.8502C34.414 17.532 34.9938 15.2137 36.1535 12.3159C37.3132 9.99763 37.8931 8.25894 39.6326 6.52024C41.3721 4.78154 43.1117 3.04285 45.431 1.88372C47.7504 0.724586 50.0698 0.14502 52.3892 0.14502C52.3892 2.46328 51.8093 4.78154 51.2295 7.67937C50.6497 9.99763 48.9101 11.7363 47.7504 13.475C46.0109 15.7933 44.2714 16.9524 41.952 18.1115Z" fill="#555555"/>
</g>
<defs>
<clipPath id="clip0_264_1730">
<rect width="70.1613" height="86.3553" fill="white" transform="translate(0.203125 0.14502)"/>
</clipPath>
</defs>
</svg>
