<svg width="112" height="35" viewBox="0 0 112 35" fill="none" xmlns="http://www.w3.org/2000/svg">
<path d="M102.457 16.6113H98.5734C96.0612 16.6113 94.6893 18.4833 94.6893 21.7459V33.4056H87.1884V16.6113H84.0527C81.5405 16.6113 80.1686 18.4833 80.1686 21.7459V33.4056H72.6499V10.3357H80.1686V13.8479C81.4157 11.0845 83.0549 10.3357 85.5493 10.3357H94.6893V13.8479C95.9365 11.0845 97.5756 10.3357 100.07 10.3357H102.582L102.457 16.6113ZM70.9038 23.6178H55.3675C55.7417 26.2564 57.363 27.6292 59.9999 27.6292C61.9954 27.6292 63.3851 26.7556 63.884 25.3828L70.5118 27.2548C68.8905 31.2662 64.8817 33.6374 59.9999 33.6374C51.8576 33.6374 48.0983 27.2548 48.0983 21.728C48.0983 16.3439 51.3587 9.94351 59.501 9.94351C68.1422 9.94351 71.0285 16.4508 71.0285 21.3536C71.0285 22.4947 71.0285 23.1186 70.9038 23.6178ZM63.7771 19.2321C63.6524 17.2353 62.1558 15.4703 59.6436 15.4703C57.2739 15.4703 55.8842 16.4687 55.3853 19.2321H63.7771ZM35.092 33.3878H41.5951L49.8621 10.4605H42.3434L38.3346 23.8674L34.3258 10.3357H26.8071L35.092 33.3878ZM4.55389 33.3878H11.9479V16.6113H19.0924V33.4056H26.4864V10.3357H11.9657V8.96295C11.9657 7.46537 13.0882 6.44915 14.7273 6.44915H19.1103V0.191406H13.6048C8.22416 0.191406 4.58952 3.57879 4.58952 8.46375V10.3357H0.331299V16.5935H4.58952V33.3878H4.55389Z" fill="#555555"/>
<path d="M107.09 34.0119C109.602 34.0119 111.722 31.8725 111.722 29.3766C111.722 26.8628 109.602 24.7412 107.09 24.7412C104.578 24.7412 102.457 26.8806 102.457 29.3766C102.457 31.8904 104.595 34.0119 107.09 34.0119Z" fill="#555555"/>
</svg>
