<svg width="24" height="24" viewBox="0 0 24 24" fill="none" xmlns="http://www.w3.org/2000/svg">
<path d="M4.19844 4.7998C3.72105 4.7998 3.26321 4.98945 2.92565 5.32701C2.58808 5.66458 2.39844 6.12242 2.39844 6.5998V17.3998C2.39844 17.8772 2.58808 18.335 2.92565 18.6726C3.26321 19.0102 3.72105 19.1998 4.19844 19.1998H19.7984C20.2758 19.1998 20.7337 19.0102 21.0712 18.6726C21.4088 18.335 21.5984 17.8772 21.5984 17.3998V6.5998C21.5984 6.12242 21.4088 5.66458 21.0712 5.32701C20.7337 4.98945 20.2758 4.7998 19.7984 4.7998H4.19844ZM7.79844 11.9998C7.32105 11.9998 6.86321 11.8102 6.52564 11.4726C6.18808 11.135 5.99844 10.6772 5.99844 10.1998C5.99844 9.72241 6.18808 9.26458 6.52564 8.92701C6.86321 8.58945 7.32105 8.3998 7.79844 8.3998C8.27583 8.3998 8.73366 8.58945 9.07123 8.92701C9.40879 9.26458 9.59844 9.72241 9.59844 10.1998C9.59844 10.6772 9.40879 11.135 9.07123 11.4726C8.73366 11.8102 8.27583 11.9998 7.79844 11.9998ZM5.93724 12.8998H9.65844C9.96037 12.9001 10.2498 13.0202 10.4633 13.2337C10.6768 13.4472 10.7969 13.7367 10.7972 14.0386C10.7972 15.055 10.1048 15.9406 9.11844 16.1878L9.04764 16.2058C8.22684 16.4098 7.36764 16.4098 6.54684 16.2058L6.47484 16.1878C5.99583 16.0677 5.57069 15.791 5.26696 15.4016C4.96323 15.0122 4.79832 14.5324 4.79844 14.0386C4.79875 13.7367 4.91884 13.4472 5.13233 13.2337C5.34583 13.0202 5.63531 12.9001 5.93724 12.8998ZM13.1984 10.1998C13.1984 10.0407 13.2617 9.88806 13.3742 9.77554C13.4867 9.66302 13.6393 9.5998 13.7984 9.5998H17.3984C17.5576 9.5998 17.7102 9.66302 17.8227 9.77554C17.9352 9.88806 17.9984 10.0407 17.9984 10.1998C17.9984 10.3589 17.9352 10.5115 17.8227 10.6241C17.7102 10.7366 17.5576 10.7998 17.3984 10.7998H13.7984C13.6393 10.7998 13.4867 10.7366 13.3742 10.6241C13.2617 10.5115 13.1984 10.3589 13.1984 10.1998ZM13.7984 13.1998H17.3984C17.5576 13.1998 17.7102 13.263 17.8227 13.3755C17.9352 13.4881 17.9984 13.6407 17.9984 13.7998C17.9984 13.9589 17.9352 14.1115 17.8227 14.2241C17.7102 14.3366 17.5576 14.3998 17.3984 14.3998H13.7984C13.6393 14.3998 13.4867 14.3366 13.3742 14.2241C13.2617 14.1115 13.1984 13.9589 13.1984 13.7998C13.1984 13.6407 13.2617 13.4881 13.3742 13.3755C13.4867 13.263 13.6393 13.1998 13.7984 13.1998Z" fill="#8B4E96"/>
</svg>
