<svg width="19" height="19" viewBox="0 0 19 19" fill="none" xmlns="http://www.w3.org/2000/svg">
<path d="M8.3125 12.4687C8.46208 12.4683 8.60633 12.5243 8.7164 12.6255C8.82648 12.7268 8.89428 12.8659 8.90625 13.015V18.4537C8.89428 18.6028 8.82648 18.7419 8.7164 18.8432C8.60633 18.9445 8.46208 19.0005 8.3125 19H0.59375C0.444172 19.0005 0.299924 18.9445 0.189845 18.8432C0.0797653 18.7419 0.0119655 18.6028 0 18.4537V13.015C0.0119655 12.8659 0.0797653 12.7268 0.189845 12.6255C0.299924 12.5243 0.444172 12.4683 0.59375 12.4687H8.3125ZM18.4062 7.71875C18.5637 7.71875 18.7147 7.78131 18.8261 7.89265C18.9374 8.004 19 8.15503 19 8.3125V18.4062C19 18.5637 18.9374 18.7147 18.8261 18.8261C18.7147 18.9374 18.5637 19 18.4062 19H10.6875C10.53 19 10.379 18.9374 10.2677 18.8261C10.1563 18.7147 10.0938 18.5637 10.0938 18.4062V8.3125C10.0938 8.15503 10.1563 8.004 10.2677 7.89265C10.379 7.78131 10.53 7.71875 10.6875 7.71875H18.4062ZM7.71875 13.5553H1.1875V17.9134H7.71875V13.5553ZM17.8125 8.90625H11.2812V17.8125H17.8125V8.90625ZM8.3125 3.05252e-06C8.46997 3.05252e-06 8.62099 0.0625587 8.73234 0.173908C8.84369 0.285258 8.90625 0.436281 8.90625 0.593753V10.6875C8.90625 10.845 8.84369 10.996 8.73234 11.1073C8.62099 11.2187 8.46997 11.2812 8.3125 11.2812H0.59375C0.436278 11.2812 0.285255 11.2187 0.173905 11.1073C0.0625556 10.996 0 10.845 0 10.6875V0.593753C0 0.436281 0.0625556 0.285258 0.173905 0.173908C0.285255 0.0625587 0.436278 3.05252e-06 0.59375 3.05252e-06H8.3125ZM7.71875 1.1875H1.1875V10.0937H7.71875V1.1875ZM18.4062 3.05252e-06C18.5558 -0.000476306 18.7001 0.0555178 18.8102 0.156791C18.9202 0.258064 18.988 0.397154 19 0.546253V5.985C18.988 6.1341 18.9202 6.27319 18.8102 6.37446C18.7001 6.47574 18.5558 6.53173 18.4062 6.53125H10.6875C10.5379 6.53173 10.3937 6.47574 10.2836 6.37446C10.1735 6.27319 10.1057 6.1341 10.0938 5.985V0.546253C10.1057 0.397154 10.1735 0.258064 10.2836 0.156791C10.3937 0.0555178 10.5379 -0.000476306 10.6875 3.05252e-06H18.4062ZM17.8125 1.08657H11.2812V5.44469H17.8125V1.08657Z" fill="white"/>
</svg>
