<svg width="52" height="52" viewBox="0 0 52 52" fill="none" xmlns="http://www.w3.org/2000/svg">
<circle cx="26" cy="26" r="26" fill="#FFA000"/>
<path d="M25.8224 10.4004C23.8063 10.4004 21.8351 10.7267 19.9622 11.3702L20.4508 12.5889C22.1665 11.9994 23.9741 11.7004 25.8224 11.7004C34.3383 11.7004 41.2663 18.1152 41.2663 26.0004C41.2663 33.8855 34.3383 40.3004 25.8224 40.3004C17.3066 40.3004 10.3786 33.8855 10.3786 26.0004C10.3786 21.7136 12.4586 17.6836 15.9945 14.9777V19.5004H17.3985V13.0004H10.3786V14.3004H14.679C11.0757 17.2449 8.97461 21.4946 8.97461 26.0004C8.97461 34.6018 16.533 41.6004 25.8224 41.6004C35.1119 41.6004 42.6703 34.6018 42.6703 26.0004C42.6703 17.3989 35.1119 10.4004 25.8224 10.4004Z" fill="white"/>
<path d="M21.6071 31.2H20.2031V32.5H31.435V31.2H30.031V28.9809L26.8117 26L30.031 23.0191V20.8H31.435V19.5H20.2031V20.8H21.6071V23.0191L24.8264 26L21.6071 28.9809V31.2ZM23.0111 22.4809V20.8H28.627V22.4809L25.8191 25.0809L23.0111 22.4809ZM25.8191 26.9191L28.627 29.5191V31.2H23.0111V29.5191L25.8191 26.9191Z" fill="white"/>
</svg>
