<svg width="52" height="52" viewBox="0 0 52 52" fill="none" xmlns="http://www.w3.org/2000/svg">
<circle cx="26" cy="26" r="26" fill="#FF6264"/>
<path d="M37.9971 31.4922V32.3491C37.9971 34.7755 35.7978 36.7578 33.1063 36.7578H15.0588C12.3673 36.7578 10.168 34.7755 10.168 32.3491V15.0375C10.168 14.6306 10.5342 14.3008 10.9856 14.3008H29.7595C31.6211 14.3008 33.141 15.671 33.141 17.3493V18.9248C35.8178 18.9417 37.9971 20.9182 37.9971 23.3332V25.212H40.2381C40.6894 25.212 41.0557 25.5418 41.0557 25.9487V30.7551C41.0557 31.1624 40.6894 31.4922 40.2381 31.4922H37.9971ZM36.3623 25.212V23.3332C36.3623 21.7205 34.8956 20.3982 33.1063 20.3982H13.5499C12.7405 20.2869 12.5488 20.2615 11.8027 19.9574V32.3491C11.8027 33.9618 13.2699 35.2844 15.0588 35.2844H33.1063C34.8956 35.2844 36.3623 33.9618 36.3623 32.3491V31.4922H32.0589C31.6076 31.4922 31.2418 31.1624 31.2418 30.7551V25.9487C31.2418 25.5418 31.6076 25.212 32.0589 25.212H36.3623ZM39.4209 26.6854C37.2392 26.6854 35.0579 26.6854 32.8761 26.6854V30.0184C35.0579 30.0184 37.2392 30.0184 39.4209 30.0184V26.6854ZM11.8027 17.3493C11.8027 18.2327 12.6064 18.9001 13.5499 18.9244H31.5067V17.3493C31.5067 16.4847 30.7185 15.7742 29.7595 15.7742H11.8027V17.3493Z" fill="white"/>
</svg>
