<svg width="30" height="20" viewBox="0 0 30 20" fill="none" xmlns="http://www.w3.org/2000/svg">
<g clip-path="url(#clip0_497_2047)">
<path d="M30 0H0V20H30V0Z" fill="white"/>
<path d="M30 0H0V6H30V0Z" fill="black"/>
<path d="M30 14H0V20H30V14Z" fill="#006600"/>
<path d="M11.4276 15.9375L11.6441 16.0625L17.4832 5.94888C17.8247 5.85737 18.0122 5.53261 18.1997 5.20785C18.3247 4.99135 18.8247 4.12532 19.0414 3C18.1752 3.75032 17.6752 4.61635 17.5502 4.83285C17.3627 5.15761 17.1752 5.48237 17.2667 5.82388L11.4276 15.9375Z" fill="black" stroke="black" stroke-width="0.125"/>
<path d="M11.4276 15.9375L11.6441 16.0625L17.4832 5.94888C17.8247 5.85737 18.0122 5.53261 18.1997 5.20785C18.3247 4.99135 18.8247 4.12532 19.0414 3C18.1752 3.75032 17.6752 4.61635 17.5502 4.83285C17.3627 5.15761 17.1752 5.48237 17.2667 5.82388L11.4276 15.9375Z" fill="white"/>
<path d="M18.5724 15.9375L18.3559 16.0625L12.5168 5.94888C12.1753 5.85737 11.9878 5.53261 11.8003 5.20785C11.6753 4.99135 11.1753 4.12532 10.9586 3C11.8248 3.75032 12.3248 4.61635 12.4498 4.83285C12.6373 5.15761 12.8248 5.48237 12.7333 5.82388L18.5724 15.9375Z" fill="black" stroke="black" stroke-width="0.125"/>
<path d="M18.5724 15.9375L18.3559 16.0625L12.5168 5.94888C12.1753 5.85737 11.9878 5.53261 11.8003 5.20785C11.6753 4.99135 11.1753 4.12532 10.9586 3C11.8248 3.75032 12.3248 4.61635 12.4498 4.83285C12.6373 5.15761 12.8248 5.48237 12.7333 5.82388L18.5724 15.9375Z" fill="white"/>
<path d="M0 7V13H12.625C13 14 14.25 16 15 16C15.75 16 17 14 17.375 13H30V7H17.375C17 6 15.75 4 15 4C14.25 4 13 6 12.625 7H0Z" fill="#BB0000"/>
<path d="M17.375 13C17.75 12 18 11 18 10C18 9 17.75 8 17.375 7C17 8 16.75 9 16.75 10C16.75 11 17 12 17.375 13Z" fill="black"/>
<path d="M12.625 13C12.25 12 12 11 12 10C12 9 12.25 8 12.625 7C13 8 13.25 9 13.25 10C13.25 11 13 12 12.625 13Z" fill="black"/>
<path d="M14.9999 10.75C15.276 10.75 15.4999 10.4142 15.4999 10C15.4999 9.58579 15.276 9.25 14.9999 9.25C14.7237 9.25 14.4999 9.58579 14.4999 10C14.4999 10.4142 14.7237 10.75 14.9999 10.75Z" fill="white"/>
<path d="M15.1249 10.7314C15.1249 10.7314 15.6249 11.7314 15.6249 13.3564C15.6249 14.9814 15.1249 15.9814 15.1249 15.9814V10.7314Z" fill="white"/>
<path d="M14.875 9.26904C14.875 9.26904 14.375 8.26904 14.375 6.64404C14.375 5.01904 14.875 4.01904 14.875 4.01904V9.26904Z" fill="white"/>
<path d="M14.875 10.7314C14.875 10.7314 14.375 11.7314 14.375 13.3564C14.375 14.9814 14.875 15.9814 14.875 15.9814V10.7314Z" fill="white"/>
<path d="M15.1249 9.26904C15.1249 9.26904 15.6249 8.26904 15.6249 6.64404C15.6249 5.01904 15.1249 4.01904 15.1249 4.01904V9.26904Z" fill="white"/>
</g>
<defs>
<clipPath id="clip0_497_2047">
<rect width="30" height="20" fill="white"/>
</clipPath>
</defs>
</svg>
