<svg width="32" height="22" viewBox="0 0 32 22" fill="none" xmlns="http://www.w3.org/2000/svg">
<path d="M29.0681 0.706543H2.35323C1.05354 0.706543 0 1.76008 0 3.05977V18.9398C0 20.2394 1.05354 21.293 2.35323 21.293H29.0681C30.3678 21.293 31.4214 20.2395 31.4214 18.9398V3.05977C31.4214 1.76008 30.3678 0.706543 29.0681 0.706543Z" fill="#F5F5F5"/>
<path d="M0.129395 2.29013H31.2919C30.973 1.36854 30.0981 0.706543 29.0681 0.706543H2.35319C1.32316 0.706543 0.448334 1.36854 0.129395 2.29013Z" fill="#FF4B55"/>
<path d="M31.4214 7.04102H0V8.62454H31.4214V7.04102Z" fill="#FF4B55"/>
<path d="M31.4214 3.87354H0V5.45706H31.4214V3.87354Z" fill="#FF4B55"/>
<path d="M0 11.2498C0 11.549 0.242595 11.7916 0.541773 11.7916H31.4214V10.208H0V11.2498Z" fill="#FF4B55"/>
<path d="M31.4214 16.5425H0V18.1261H31.4214V16.5425Z" fill="#FF4B55"/>
<path d="M31.2919 19.7095H0.129395C0.448334 20.6311 1.32322 21.2931 2.35319 21.2931H29.0681C30.0981 21.2931 30.973 20.6311 31.2919 19.7095Z" fill="#FF4B55"/>
<path d="M31.4214 13.3755H0V14.959H31.4214V13.3755Z" fill="#FF4B55"/>
<path d="M0.541773 11.7916H14.0855C14.3847 11.7916 14.6273 11.549 14.6273 11.2498V1.24832C14.6273 0.949076 14.3847 0.706543 14.0855 0.706543H2.35323C1.05354 0.706604 0 1.76014 0 3.05983V11.2498C0 11.5491 0.242595 11.7916 0.541773 11.7916Z" fill="#41479B"/>
<path d="M1.52137 1.94997L1.64129 2.30959L2.02037 2.31248C2.06947 2.31291 2.08978 2.3755 2.05032 2.40466L1.74537 2.62982L1.85976 2.99123C1.87462 3.03799 1.82129 3.07678 1.78133 3.04818L1.47295 2.8278L1.16457 3.04824C1.12461 3.07684 1.07141 3.03805 1.08614 2.99129L1.20053 2.62988L0.895582 2.40472C0.856121 2.3755 0.876435 2.31291 0.925531 2.31254L1.30461 2.30966L1.42453 1.95003C1.43999 1.90339 1.50578 1.90339 1.52137 1.94997Z" fill="#F5F5F5"/>
<path d="M1.52137 3.83127L1.64129 4.1909L2.02037 4.19378C2.06947 4.19421 2.08978 4.25675 2.05032 4.28596L1.74537 4.51119L1.85976 4.87259C1.87462 4.91936 1.82129 4.95814 1.78133 4.92954L1.47295 4.70916L1.16457 4.9296C1.12461 4.95814 1.07141 4.91942 1.08614 4.87265L1.20053 4.51125L0.895582 4.28602C0.856121 4.25681 0.876435 4.19427 0.925531 4.19384L1.30461 4.19096L1.42453 3.83133C1.43999 3.78475 1.50578 3.78475 1.52137 3.83127Z" fill="#F5F5F5"/>
<path d="M1.52137 5.71266L1.64129 6.07229L2.02037 6.07517C2.06947 6.0756 2.08978 6.13814 2.05032 6.16735L1.74537 6.39258L1.85976 6.75399C1.87462 6.80075 1.82129 6.83954 1.78133 6.81094L1.47295 6.59056L1.16457 6.811C1.12461 6.83954 1.07141 6.80087 1.08614 6.75405L1.20053 6.39264L0.895582 6.16741C0.856121 6.1382 0.876435 6.07566 0.925531 6.07523L1.30461 6.07235L1.42453 5.71272C1.43999 5.66608 1.50578 5.66608 1.52137 5.71266Z" fill="#F5F5F5"/>
<path d="M1.52137 7.59401L1.64129 7.95364L2.02037 7.95652C2.06947 7.95695 2.08978 8.01955 2.05032 8.0487L1.74537 8.27393L1.85976 8.63533C1.87462 8.6821 1.82129 8.72088 1.78133 8.69228L1.47295 8.4719L1.16457 8.69235C1.12461 8.72088 1.07141 8.68216 1.08614 8.63539L1.20053 8.27399L0.895582 8.04876C0.856121 8.01967 0.876435 7.95701 0.925531 7.95658L1.30461 7.9537L1.42453 7.59407C1.43999 7.54743 1.50578 7.54743 1.52137 7.59401Z" fill="#F5F5F5"/>
<path d="M1.52137 9.47482L1.64129 9.83445L2.02037 9.83733C2.06947 9.83776 2.08978 9.9003 2.05032 9.92951L1.74537 10.1547L1.85976 10.5161C1.87462 10.5629 1.82129 10.6017 1.78133 10.5731L1.47295 10.3527L1.16457 10.5732C1.12461 10.6017 1.07141 10.563 1.08614 10.5162L1.20053 10.1548L0.895582 9.92957C0.856121 9.90036 0.876435 9.83782 0.925531 9.8374L1.30461 9.83451L1.42453 9.47488C1.43999 9.4283 1.50578 9.4283 1.52137 9.47482Z" fill="#F5F5F5"/>
<path d="M2.98145 2.87229L3.10137 3.23192L3.48045 3.2348C3.52955 3.23523 3.54986 3.29783 3.5104 3.32698L3.20545 3.55221L3.31985 3.91361C3.3347 3.96038 3.28137 3.99916 3.24142 3.97057L2.93303 3.75013L2.62465 3.97057C2.5847 3.9991 2.53149 3.96038 2.54622 3.91361L2.66061 3.55221L2.35567 3.32698C2.3162 3.29777 2.33652 3.23523 2.38561 3.2348L2.7647 3.23192L2.88461 2.87229C2.90008 2.82577 2.96593 2.82577 2.98145 2.87229Z" fill="#F5F5F5"/>
<path d="M2.98145 4.75368L3.10137 5.11331L3.48045 5.1162C3.52955 5.11663 3.54986 5.17922 3.5104 5.20837L3.20545 5.4336L3.31985 5.79501C3.3347 5.84177 3.28137 5.88056 3.24142 5.85196L2.93303 5.63152L2.62465 5.85196C2.5847 5.8805 2.53149 5.84183 2.54622 5.79501L2.66061 5.4336L2.35567 5.20837C2.3162 5.17929 2.33652 5.11663 2.38561 5.1162L2.7647 5.11331L2.88461 4.75368C2.90008 4.70711 2.96593 4.70711 2.98145 4.75368Z" fill="#F5F5F5"/>
<path d="M2.98145 6.63503L3.10137 6.99466L3.48045 6.99754C3.52955 6.99797 3.54986 7.06051 3.5104 7.08972L3.20545 7.31495L3.31985 7.67636C3.3347 7.72312 3.28137 7.76191 3.24142 7.73331L2.93303 7.51287L2.62465 7.73331C2.5847 7.76184 2.53149 7.72312 2.54622 7.67636L2.66061 7.31495L2.35567 7.08972C2.3162 7.06051 2.33652 6.99797 2.38561 6.99754L2.7647 6.99466L2.88461 6.63503C2.90008 6.58845 2.96593 6.58845 2.98145 6.63503Z" fill="#F5F5F5"/>
<path d="M2.98145 8.51633L3.10137 8.87596L3.48045 8.87885C3.52955 8.87928 3.54986 8.94181 3.5104 8.97102L3.20545 9.19625L3.31985 9.55766C3.3347 9.60442 3.28137 9.64321 3.24142 9.61461L2.93303 9.39417L2.62465 9.61461C2.5847 9.64321 2.53149 9.60442 2.54622 9.55766L2.66061 9.19625L2.35567 8.97102C2.3162 8.94181 2.33652 8.87928 2.38561 8.87885L2.7647 8.87596L2.88461 8.51633C2.90008 8.46982 2.96593 8.46982 2.98145 8.51633Z" fill="#F5F5F5"/>
<path d="M4.44166 1.94997L4.56158 2.3096L4.94066 2.31249C4.98975 2.31292 5.01007 2.37551 4.97061 2.40466L4.66566 2.62983L4.78005 2.99124C4.7949 3.038 4.74157 3.07679 4.70162 3.04819L4.39324 2.82775L4.08485 3.04819C4.0449 3.07679 3.99169 3.038 4.00642 2.99124L4.12082 2.62983L3.81587 2.40466C3.77641 2.37545 3.79672 2.31285 3.84582 2.31249L4.2249 2.3096L4.34482 1.94997C4.36028 1.90339 4.42613 1.90339 4.44166 1.94997Z" fill="#F5F5F5"/>
<path d="M4.44166 3.83128L4.56158 4.1909L4.94066 4.19379C4.98975 4.19422 5.01007 4.25675 4.97061 4.28597L4.66566 4.51119L4.78005 4.8726C4.7949 4.91936 4.74157 4.95815 4.70162 4.92955L4.39324 4.70911L4.08485 4.92955C4.0449 4.95809 3.99169 4.91936 4.00642 4.8726L4.12082 4.51119L3.81587 4.28597C3.77641 4.25675 3.79672 4.19422 3.84582 4.19379L4.2249 4.1909L4.34482 3.83128C4.36028 3.78476 4.42613 3.78476 4.44166 3.83128Z" fill="#F5F5F5"/>
<path d="M4.44166 5.71267L4.56158 6.0723L4.94066 6.07518C4.98975 6.07561 5.01007 6.13815 4.97061 6.16736L4.66566 6.39259L4.78005 6.75399C4.7949 6.80076 4.74157 6.83954 4.70162 6.81095L4.39324 6.5905L4.08485 6.81095C4.0449 6.83948 3.99169 6.80082 4.00642 6.75399L4.12082 6.39259L3.81587 6.16736C3.77641 6.13815 3.79672 6.07561 3.84582 6.07518L4.2249 6.0723L4.34482 5.71267C4.36028 5.66609 4.42613 5.66609 4.44166 5.71267Z" fill="#F5F5F5"/>
<path d="M4.44166 7.59402L4.56158 7.95364L4.94066 7.95653C4.98975 7.95696 5.01007 8.01956 4.97061 8.04871L4.66566 8.27393L4.78005 8.63534C4.7949 8.6821 4.74157 8.72089 4.70162 8.69229L4.39324 8.47185L4.08485 8.69229C4.0449 8.72083 3.99169 8.6821 4.00642 8.63534L4.12082 8.27393L3.81587 8.04871C3.77641 8.01962 3.79672 7.95696 3.84582 7.95653L4.2249 7.95364L4.34482 7.59402C4.36028 7.54744 4.42613 7.54744 4.44166 7.59402Z" fill="#F5F5F5"/>
<path d="M4.44166 9.47483L4.56158 9.83446L4.94066 9.83734C4.98975 9.83777 5.01007 9.90031 4.97061 9.92952L4.66566 10.1547L4.78005 10.5162C4.7949 10.5629 4.74157 10.6017 4.70162 10.5731L4.39324 10.3527L4.08485 10.5731C4.0449 10.6016 3.99169 10.5629 4.00642 10.5162L4.12082 10.1547L3.81587 9.92952C3.77641 9.90031 3.79672 9.83777 3.84582 9.83734L4.2249 9.83446L4.34482 9.47483C4.36028 9.42831 4.42613 9.42831 4.44166 9.47483Z" fill="#F5F5F5"/>
<path d="M5.90186 2.87229L6.02178 3.23192L6.40086 3.2348C6.44996 3.23523 6.47027 3.29783 6.43081 3.32698L6.12586 3.55221L6.24026 3.91361C6.25511 3.96038 6.20178 3.99916 6.16183 3.97057L5.85344 3.75013L5.54506 3.97057C5.50511 3.9991 5.4519 3.96038 5.46663 3.91361L5.58102 3.55221L5.27608 3.32698C5.23661 3.29777 5.25693 3.23523 5.30602 3.2348L5.68511 3.23192L5.80502 2.87229C5.82043 2.82577 5.88634 2.82577 5.90186 2.87229Z" fill="#F5F5F5"/>
<path d="M5.90186 4.75368L6.02178 5.11331L6.40086 5.1162C6.44996 5.11663 6.47027 5.17922 6.43081 5.20837L6.12586 5.4336L6.24026 5.79501C6.25511 5.84177 6.20178 5.88056 6.16183 5.85196L5.85344 5.63152L5.54506 5.85196C5.50511 5.8805 5.4519 5.84183 5.46663 5.79501L5.58102 5.4336L5.27608 5.20837C5.23661 5.17929 5.25693 5.11663 5.30602 5.1162L5.68511 5.11331L5.80502 4.75368C5.82043 4.70711 5.88634 4.70711 5.90186 4.75368Z" fill="#F5F5F5"/>
<path d="M5.90186 6.63503L6.02178 6.99466L6.40086 6.99754C6.44996 6.99797 6.47027 7.06051 6.43081 7.08972L6.12586 7.31495L6.24026 7.67636C6.25511 7.72312 6.20178 7.76191 6.16183 7.73331L5.85344 7.51287L5.54506 7.73331C5.50511 7.76184 5.4519 7.72312 5.46663 7.67636L5.58102 7.31495L5.27608 7.08972C5.23661 7.06051 5.25693 6.99797 5.30602 6.99754L5.68511 6.99466L5.80502 6.63503C5.82043 6.58845 5.88634 6.58845 5.90186 6.63503Z" fill="#F5F5F5"/>
<path d="M5.90186 8.51633L6.02178 8.87596L6.40086 8.87885C6.44996 8.87928 6.47027 8.94181 6.43081 8.97102L6.12586 9.19625L6.24026 9.55766C6.25511 9.60442 6.20178 9.64321 6.16183 9.61461L5.85344 9.39417L5.54506 9.61461C5.50511 9.64321 5.4519 9.60442 5.46663 9.55766L5.58102 9.19625L5.27608 8.97102C5.23661 8.94181 5.25693 8.87928 5.30602 8.87885L5.68511 8.87596L5.80502 8.51633C5.82043 8.46982 5.88634 8.46982 5.90186 8.51633Z" fill="#F5F5F5"/>
<path d="M7.36201 1.94997L7.48193 2.30959L7.86101 2.31248C7.9101 2.31291 7.93042 2.3755 7.89096 2.40466L7.58601 2.62982L7.7004 2.99123C7.71525 3.03799 7.66192 3.07678 7.62197 3.04818L7.31353 2.8278L7.00514 3.04824C6.96519 3.07684 6.91198 3.03805 6.92671 2.99129L7.04111 2.62988L6.73616 2.40472C6.6967 2.3755 6.71701 2.31291 6.76611 2.31254L7.14519 2.30966L7.26511 1.95003C7.28063 1.90339 7.34648 1.90339 7.36201 1.94997Z" fill="#F5F5F5"/>
<path d="M7.36201 3.83128L7.48193 4.1909L7.86101 4.19379C7.9101 4.19422 7.93042 4.25675 7.89096 4.28597L7.58601 4.51119L7.7004 4.8726C7.71525 4.91936 7.66192 4.95815 7.62197 4.92955L7.31353 4.70911L7.00514 4.92955C6.96519 4.95809 6.91198 4.91936 6.92671 4.8726L7.04111 4.51119L6.73616 4.28597C6.6967 4.25675 6.71701 4.19422 6.76611 4.19379L7.14519 4.1909L7.26511 3.83128C7.28063 3.78476 7.34648 3.78476 7.36201 3.83128Z" fill="#F5F5F5"/>
<path d="M7.36201 5.71268L7.48193 6.0723L7.86101 6.07519C7.9101 6.07562 7.93042 6.13815 7.89096 6.16737L7.58601 6.39259L7.7004 6.754C7.71525 6.80076 7.66192 6.83955 7.62197 6.81095L7.31353 6.59045L7.00514 6.81089C6.96519 6.83943 6.91198 6.8007 6.92671 6.75394L7.04111 6.39253L6.73616 6.1673C6.6967 6.13809 6.71701 6.07556 6.76611 6.07513L7.14519 6.07224L7.26511 5.71262C7.28063 5.6661 7.34648 5.6661 7.36201 5.71268Z" fill="#F5F5F5"/>
<path d="M7.36201 7.59402L7.48193 7.95364L7.86101 7.95653C7.9101 7.95696 7.93042 8.01956 7.89096 8.04871L7.58601 8.27393L7.7004 8.63534C7.71525 8.6821 7.66192 8.72089 7.62197 8.69229L7.31353 8.47185L7.00514 8.69229C6.96519 8.72083 6.91198 8.6821 6.92671 8.63534L7.04111 8.27393L6.73616 8.04871C6.6967 8.01962 6.71701 7.95696 6.76611 7.95653L7.14519 7.95364L7.26511 7.59402C7.28063 7.54744 7.34648 7.54744 7.36201 7.59402Z" fill="#F5F5F5"/>
<path d="M7.36201 9.47483L7.48193 9.83446L7.86101 9.83734C7.9101 9.83777 7.93042 9.90031 7.89096 9.92952L7.58601 10.1547L7.7004 10.5162C7.71525 10.5629 7.66192 10.6017 7.62197 10.5731L7.31353 10.3527L7.00514 10.5731C6.96519 10.6016 6.91198 10.5629 6.92671 10.5162L7.04111 10.1547L6.73616 9.92952C6.6967 9.90031 6.71701 9.83777 6.76611 9.83734L7.14519 9.83446L7.26511 9.47483C7.28063 9.42831 7.34648 9.42831 7.36201 9.47483Z" fill="#F5F5F5"/>
<path d="M8.82227 2.87229L8.94219 3.23192L9.32127 3.2348C9.37037 3.23523 9.39068 3.29783 9.35122 3.32698L9.04627 3.55221L9.16067 3.91361C9.17552 3.96038 9.12219 3.99916 9.08224 3.97057L8.77385 3.75013L8.46547 3.97057C8.42552 3.9991 8.37231 3.96038 8.38704 3.91361L8.50143 3.55221L8.19649 3.32698C8.15702 3.29777 8.17734 3.23523 8.22643 3.2348L8.60552 3.23192L8.72543 2.87229C8.74096 2.82577 8.80675 2.82577 8.82227 2.87229Z" fill="#F5F5F5"/>
<path d="M8.82227 4.75368L8.94219 5.11331L9.32127 5.1162C9.37037 5.11663 9.39068 5.17922 9.35122 5.20837L9.04627 5.4336L9.16067 5.79501C9.17552 5.84177 9.12219 5.88056 9.08224 5.85196L8.77385 5.63152L8.46547 5.85196C8.42552 5.8805 8.37231 5.84183 8.38704 5.79501L8.50143 5.4336L8.19649 5.20837C8.15702 5.17929 8.17734 5.11663 8.22643 5.1162L8.60552 5.11331L8.72543 4.75368C8.74096 4.70711 8.80675 4.70711 8.82227 4.75368Z" fill="#F5F5F5"/>
<path d="M8.82227 6.63503L8.94219 6.99466L9.32127 6.99754C9.37037 6.99797 9.39068 7.06051 9.35122 7.08972L9.04627 7.31495L9.16067 7.67636C9.17552 7.72312 9.12219 7.76191 9.08224 7.73331L8.77385 7.51287L8.46547 7.73331C8.42552 7.76184 8.37231 7.72312 8.38704 7.67636L8.50143 7.31495L8.19649 7.08972C8.15702 7.06051 8.17734 6.99797 8.22643 6.99754L8.60552 6.99466L8.72543 6.63503C8.74096 6.58845 8.80675 6.58845 8.82227 6.63503Z" fill="#F5F5F5"/>
<path d="M8.82227 8.51633L8.94219 8.87596L9.32127 8.87885C9.37037 8.87928 9.39068 8.94181 9.35122 8.97102L9.04627 9.19625L9.16067 9.55766C9.17552 9.60442 9.12219 9.64321 9.08224 9.61461L8.77385 9.39417L8.46547 9.61461C8.42552 9.64321 8.37231 9.60442 8.38704 9.55766L8.50143 9.19625L8.19649 8.97102C8.15702 8.94181 8.17734 8.87928 8.22643 8.87885L8.60552 8.87596L8.72543 8.51633C8.74096 8.46982 8.80675 8.46982 8.82227 8.51633Z" fill="#F5F5F5"/>
<path d="M10.2825 1.94997L10.4024 2.3096L10.7815 2.31249C10.8306 2.31292 10.8509 2.37551 10.8114 2.40466L10.5065 2.62983L10.6209 2.99124C10.6357 3.038 10.5824 3.07679 10.5424 3.04819L10.2341 2.82775L9.92567 3.04819C9.88572 3.07679 9.83252 3.038 9.84724 2.99124L9.96164 2.62983L9.65669 2.40466C9.61723 2.37545 9.63754 2.31285 9.68664 2.31249L10.0657 2.3096L10.1856 1.94997C10.201 1.90339 10.267 1.90339 10.2825 1.94997Z" fill="#F5F5F5"/>
<path d="M10.2825 3.83128L10.4024 4.1909L10.7815 4.19379C10.8306 4.19422 10.8509 4.25675 10.8114 4.28597L10.5065 4.51119L10.6209 4.8726C10.6357 4.91936 10.5824 4.95815 10.5424 4.92955L10.2341 4.70911L9.92567 4.92955C9.88572 4.95809 9.83252 4.91936 9.84724 4.8726L9.96164 4.51119L9.65669 4.28597C9.61723 4.25675 9.63754 4.19422 9.68664 4.19379L10.0657 4.1909L10.1856 3.83128C10.201 3.78476 10.267 3.78476 10.2825 3.83128Z" fill="#F5F5F5"/>
<path d="M10.2825 5.71267L10.4024 6.0723L10.7815 6.07518C10.8306 6.07561 10.8509 6.13815 10.8114 6.16736L10.5065 6.39259L10.6209 6.75399C10.6357 6.80076 10.5824 6.83954 10.5424 6.81095L10.2341 6.5905L9.92567 6.81095C9.88572 6.83948 9.83252 6.80082 9.84724 6.75399L9.96164 6.39259L9.65669 6.16736C9.61723 6.13815 9.63754 6.07561 9.68664 6.07518L10.0657 6.0723L10.1856 5.71267C10.201 5.66609 10.267 5.66609 10.2825 5.71267Z" fill="#F5F5F5"/>
<path d="M10.2825 7.59402L10.4024 7.95364L10.7815 7.95653C10.8306 7.95696 10.8509 8.01956 10.8114 8.04871L10.5065 8.27393L10.6209 8.63534C10.6357 8.6821 10.5824 8.72089 10.5424 8.69229L10.2341 8.47185L9.92567 8.69229C9.88572 8.72083 9.83252 8.6821 9.84724 8.63534L9.96164 8.27393L9.65669 8.04871C9.61723 8.01962 9.63754 7.95696 9.68664 7.95653L10.0657 7.95364L10.1856 7.59402C10.201 7.54744 10.267 7.54744 10.2825 7.59402Z" fill="#F5F5F5"/>
<path d="M10.2825 9.47483L10.4024 9.83446L10.7815 9.83734C10.8306 9.83777 10.8509 9.90031 10.8114 9.92952L10.5065 10.1547L10.6209 10.5162C10.6357 10.5629 10.5824 10.6017 10.5424 10.5731L10.2341 10.3527L9.92567 10.5731C9.88572 10.6016 9.83252 10.5629 9.84724 10.5162L9.96164 10.1547L9.65669 9.92952C9.61723 9.90031 9.63754 9.83777 9.68664 9.83734L10.0657 9.83446L10.1856 9.47483C10.201 9.42831 10.267 9.42831 10.2825 9.47483Z" fill="#F5F5F5"/>
<path d="M11.7427 2.87229L11.8626 3.23192L12.2417 3.2348C12.2908 3.23523 12.3111 3.29783 12.2716 3.32698L11.9667 3.55221L12.0811 3.91361C12.0959 3.96038 12.0426 3.99916 12.0026 3.97057L11.6943 3.75013L11.3859 3.97057C11.3459 3.9991 11.2927 3.96038 11.3074 3.91361L11.4218 3.55221L11.1169 3.32698C11.0774 3.29777 11.0977 3.23523 11.1468 3.2348L11.5259 3.23192L11.6458 2.87229C11.6613 2.82577 11.7272 2.82577 11.7427 2.87229Z" fill="#F5F5F5"/>
<path d="M11.7427 4.75368L11.8626 5.11331L12.2417 5.1162C12.2908 5.11663 12.3111 5.17922 12.2716 5.20837L11.9667 5.4336L12.0811 5.79501C12.0959 5.84177 12.0426 5.88056 12.0026 5.85196L11.6943 5.63152L11.3859 5.85196C11.3459 5.8805 11.2927 5.84183 11.3074 5.79501L11.4218 5.4336L11.1169 5.20837C11.0774 5.17929 11.0977 5.11663 11.1468 5.1162L11.5259 5.11331L11.6458 4.75368C11.6613 4.70711 11.7272 4.70711 11.7427 4.75368Z" fill="#F5F5F5"/>
<path d="M11.7427 6.63503L11.8626 6.99466L12.2417 6.99754C12.2908 6.99797 12.3111 7.06051 12.2716 7.08972L11.9667 7.31495L12.0811 7.67636C12.0959 7.72312 12.0426 7.76191 12.0026 7.73331L11.6943 7.51287L11.3859 7.73331C11.3459 7.76184 11.2927 7.72312 11.3074 7.67636L11.4218 7.31495L11.1169 7.08972C11.0774 7.06051 11.0977 6.99797 11.1468 6.99754L11.5259 6.99466L11.6458 6.63503C11.6613 6.58845 11.7272 6.58845 11.7427 6.63503Z" fill="#F5F5F5"/>
<path d="M11.7427 8.51633L11.8626 8.87596L12.2417 8.87885C12.2908 8.87928 12.3111 8.94181 12.2716 8.97102L11.9667 9.19625L12.0811 9.55766C12.0959 9.60442 12.0426 9.64321 12.0026 9.61461L11.6943 9.39417L11.3859 9.61461C11.3459 9.64321 11.2927 9.60442 11.3074 9.55766L11.4218 9.19625L11.1169 8.97102C11.0774 8.94181 11.0977 8.87928 11.1468 8.87885L11.5259 8.87596L11.6458 8.51633C11.6613 8.46982 11.7272 8.46982 11.7427 8.51633Z" fill="#F5F5F5"/>
<path d="M13.2029 1.94997L13.3228 2.3096L13.7019 2.31249C13.751 2.31292 13.7713 2.37551 13.7318 2.40466L13.4269 2.62983L13.5413 2.99124C13.5561 3.038 13.5028 3.07679 13.4629 3.04819L13.1545 2.82775L12.8461 3.04819C12.8061 3.07679 12.7529 3.038 12.7677 2.99124L12.882 2.62983L12.5771 2.40466C12.5376 2.37545 12.558 2.31285 12.607 2.31249L12.9861 2.3096L13.106 1.94997C13.1215 1.90339 13.1873 1.90339 13.2029 1.94997Z" fill="#F5F5F5"/>
<path d="M13.2029 3.83128L13.3228 4.1909L13.7019 4.19379C13.751 4.19422 13.7713 4.25675 13.7318 4.28597L13.4269 4.51119L13.5413 4.8726C13.5561 4.91936 13.5028 4.95815 13.4629 4.92955L13.1545 4.70911L12.8461 4.92955C12.8061 4.95809 12.7529 4.91936 12.7677 4.8726L12.882 4.51119L12.5771 4.28597C12.5376 4.25675 12.558 4.19422 12.607 4.19379L12.9861 4.1909L13.106 3.83128C13.1215 3.78476 13.1873 3.78476 13.2029 3.83128Z" fill="#F5F5F5"/>
<path d="M13.2029 5.71267L13.3228 6.0723L13.7019 6.07518C13.751 6.07561 13.7713 6.13815 13.7318 6.16736L13.4269 6.39259L13.5413 6.75399C13.5561 6.80076 13.5028 6.83954 13.4629 6.81095L13.1545 6.5905L12.8461 6.81095C12.8061 6.83948 12.7529 6.80082 12.7677 6.75399L12.882 6.39259L12.5771 6.16736C12.5376 6.13815 12.558 6.07561 12.607 6.07518L12.9861 6.0723L13.106 5.71267C13.1215 5.66609 13.1873 5.66609 13.2029 5.71267Z" fill="#F5F5F5"/>
<path d="M13.2029 7.59402L13.3228 7.95364L13.7019 7.95653C13.751 7.95696 13.7713 8.01956 13.7318 8.04871L13.4269 8.27393L13.5413 8.63534C13.5561 8.6821 13.5028 8.72089 13.4629 8.69229L13.1545 8.47185L12.8461 8.69229C12.8061 8.72083 12.7529 8.6821 12.7677 8.63534L12.882 8.27393L12.5771 8.04871C12.5376 8.01962 12.558 7.95696 12.607 7.95653L12.9861 7.95364L13.106 7.59402C13.1215 7.54744 13.1873 7.54744 13.2029 7.59402Z" fill="#F5F5F5"/>
<path d="M13.2029 9.47483L13.3228 9.83446L13.7019 9.83734C13.751 9.83777 13.7713 9.90031 13.7318 9.92952L13.4269 10.1547L13.5413 10.5162C13.5561 10.5629 13.5028 10.6017 13.4629 10.5731L13.1545 10.3527L12.8461 10.5731C12.8061 10.6016 12.7529 10.5629 12.7677 10.5162L12.882 10.1547L12.5771 9.92952C12.5376 9.90031 12.558 9.83777 12.607 9.83734L12.9861 9.83446L13.106 9.47483C13.1215 9.42831 13.1873 9.42831 13.2029 9.47483Z" fill="#F5F5F5"/>
</svg>
