<svg width="321" height="357" viewBox="0 0 321 357" fill="none" xmlns="http://www.w3.org/2000/svg">
<path d="M172.781 27.015C173.284 29.4538 173.779 32.0217 172.894 34.3703C172.01 36.7188 169.229 38.6812 166.603 37.9615C164.565 37.4031 163.388 35.5504 161.941 34.138C153.893 26.2831 135.736 30.8308 130.764 21.113C128.735 17.1469 130.114 12.3954 128.73 8.20868C127.857 5.78894 126.119 3.69993 123.791 2.26968C121.462 0.839434 118.674 0.148976 115.864 0.306771C113.301 0.641406 110.807 1.31462 108.46 2.30485C92.7413 7.99629 76.2391 11.7278 59.4074 13.3968C56.2086 13.573 53.0445 14.0935 49.9821 14.9472C43.0708 17.2124 38.3486 23.0052 34.988 28.9163C31.6274 34.8274 29.1464 41.2269 24.6408 46.4785C19.9056 51.9979 13.2702 55.8628 7.08066 60.0433C4.69629 61.4325 2.71091 63.3138 1.28782 65.5323C-0.0540358 68.0229 0.021643 70.9198 0.125801 73.6885L1.39083 107.316C1.55354 111.641 1.75784 116.121 3.89911 119.992C6.57298 124.825 11.8551 127.991 15.5195 132.261C19.2591 136.649 21.2072 142.07 21.0339 147.607C20.9559 149.834 20.7113 152.467 22.629 153.865C23.7955 154.549 25.1606 154.904 26.5508 154.885L76.8652 158.607C85.7159 159.262 95.5244 160.339 101.303 166.435C104.03 169.312 106.221 173.45 110.398 173.759C112.19 173.891 113.933 173.226 115.725 173.098C120.247 172.774 124.218 175.877 126.725 179.294C130.519 184.502 132.241 190.722 131.609 196.933C131.198 200.831 129.861 204.621 129.573 208.528C128.476 223.395 142.416 236.311 142.687 251.209C142.846 259.972 138.244 268.16 133.758 275.929C140.998 285.846 135.07 299.051 137.952 310.643C140.687 321.642 150.83 330.252 153.358 341.291C154.515 346.344 154.582 352.563 159.511 355.166C161.674 356.119 164.071 356.553 166.473 356.426C180.962 356.581 195.285 353.633 208.271 347.823C214.366 345.089 220.682 341.007 221.747 334.931C222.605 330.032 219.857 324.551 222.654 320.283C225.95 315.253 234.395 315.652 239.245 311.785C247.113 305.511 240.978 293.546 244.166 284.509C247.031 276.387 256.896 272.071 261.786 264.781C263.71 261.646 265.091 258.262 265.88 254.748C268.12 246.35 269.515 237.786 270.046 229.16C270.177 223.919 270.604 218.688 271.327 213.487C276.599 183.875 308.979 164.047 319.491 135.6C320.495 132.884 320.967 129.265 318.294 127.728C316.708 127.044 314.91 126.874 313.203 127.246L290.009 129.89C287.128 130.218 284.074 130.525 281.429 129.443C278.783 128.362 276.887 125.336 278.29 123.038C282.23 116.586 274.126 108.434 270.526 101.823C260.831 84.0214 249.285 67.0935 236.045 51.2677C235.198 50.4536 234.667 49.4118 234.534 48.3004L241.116 48.4985C238.894 41.2899 235.227 33.4016 227.481 30.7646C223.116 29.2787 218.282 29.7925 213.625 30.0226C200.285 30.6814 185.984 28.8606 172.781 27.015Z" fill="#F3C5FB" fill-opacity="0.21"/>
<path d="M173.097 27.3116C186.201 29.14 200.389 30.9266 213.637 30.2723C214.207 30.2441 214.778 30.2119 215.35 30.1797C219.475 29.947 223.617 29.7133 227.4 31.0013C234.902 33.5548 238.543 41.1276 240.774 48.2381L234.541 48.0505L234.251 48.0417L234.286 48.3302C234.426 49.4976 234.981 50.5879 235.862 51.4385C249.088 67.2488 260.621 84.1596 270.307 101.943C271.181 103.549 272.319 105.244 273.478 106.97L273.604 107.159C274.81 108.955 276.03 110.786 277.016 112.609C278.993 116.269 279.971 119.806 278.077 122.907C277.317 124.152 277.462 125.58 278.121 126.814C278.778 128.046 279.959 129.112 281.334 129.675C284.049 130.785 287.168 130.465 290.037 130.138L313.231 127.495L313.243 127.493L313.256 127.49C314.909 127.13 316.648 127.294 318.181 127.952C319.415 128.667 319.935 129.861 320.022 131.238C320.11 132.626 319.753 134.172 319.257 135.514C314.524 148.32 305.343 159.377 296.18 170.412C295.202 171.59 294.223 172.768 293.251 173.948C283.186 186.158 273.729 198.565 271.08 213.443L271.079 213.452C270.355 218.661 269.927 223.9 269.796 229.149C269.266 237.757 267.874 246.303 265.638 254.684L265.636 254.693C264.853 258.178 263.484 261.535 261.575 264.646C259.519 267.709 256.577 270.242 253.624 272.784C253.099 273.237 252.573 273.689 252.052 274.145C248.617 277.15 245.387 280.297 243.93 284.426C243.119 286.724 242.904 289.199 242.908 291.701C242.911 293.208 242.993 294.744 243.075 296.26C243.128 297.25 243.181 298.232 243.211 299.191C243.362 304.09 242.921 308.534 239.089 311.589C237.025 313.235 234.296 314.095 231.55 314.96C231.129 315.092 230.709 315.225 230.29 315.36C227.167 316.371 224.147 317.549 222.444 320.146C220.996 322.357 220.993 324.87 221.224 327.393C221.273 327.93 221.333 328.466 221.392 329.001C221.614 331.006 221.833 332.988 221.5 334.888C220.982 337.849 219.18 340.341 216.732 342.441C214.284 344.54 211.206 346.233 208.169 347.595C208.169 347.595 208.169 347.595 208.168 347.595L208.271 347.823C195.285 353.633 180.962 356.581 166.473 356.426L173.097 27.3116ZM173.097 27.3116C173.572 29.6412 173.999 32.1466 173.128 34.4584C172.665 35.6886 171.71 36.8087 170.533 37.5297C169.354 38.2515 167.931 38.5846 166.537 38.2027C165.46 37.9075 164.62 37.2722 163.876 36.5493C163.505 36.1881 163.153 35.8009 162.808 35.4207L162.8 35.4119C162.456 35.0328 162.119 34.6611 161.766 34.3169C159.796 32.3942 157.197 31.2207 154.305 30.396C151.861 29.6993 149.228 29.2566 146.606 28.8159C146.122 28.7346 145.638 28.6533 145.156 28.5705C142.074 28.0409 139.061 27.4491 136.504 26.3737C133.942 25.296 131.819 23.7248 130.541 21.2269C129.499 19.1896 129.337 16.9593 129.255 14.7529C129.247 14.5208 129.239 14.289 129.231 14.0578C129.165 12.0749 129.1 10.1268 128.494 8.29061C127.641 5.92889 125.943 3.8847 123.66 2.48271C121.378 1.08153 118.645 0.40286 115.887 0.555864L173.097 27.3116Z" stroke="#BA68C8" stroke-opacity="0.3" stroke-width="0.5"/>
</svg>
