<svg width="464" height="632" viewBox="0 0 464 632" fill="none" xmlns="http://www.w3.org/2000/svg">
<mask id="path-1-inside-1_264_1042" fill="white">
<path d="M334.819 30.4025C334.301 26.7027 333.254 23.0794 331.705 19.6234C331.507 18.9699 331.161 18.3607 330.689 17.8347C330.216 17.3087 329.628 16.8774 328.961 16.5683C328.069 16.3588 327.135 16.3493 326.239 16.5408L312.261 18.4743C311.091 18.5226 309.971 18.9161 309.072 19.5946C307.252 21.3255 309.044 24.1126 308.989 26.5005C308.926 29.1857 306.287 31.3652 303.425 32.0863C300.504 32.6199 297.491 32.5862 294.586 31.9872L275.041 29.2414C280.797 27.58 285.921 24.489 289.827 20.3212C292.399 17.5666 293.767 12.4238 290.05 11.1194C288.946 10.8454 287.794 10.7618 286.655 10.873C277.8 10.9352 270.832 4.25112 262.543 1.436C257.237 -0.249293 251.478 -0.374682 246.089 1.07776C240.699 2.53021 235.956 5.4861 232.537 9.52274L242.949 9.97657C243.928 9.9277 244.9 10.1619 245.722 10.6452C248.004 12.3401 245.167 15.5956 245.489 18.2495C245.906 21.6976 250.97 22.4338 254.787 22.7825C258.605 23.1311 263.447 25.9351 261.611 28.9808C242.425 34.9555 222.901 17.3016 202.751 19.4747C197.652 20.0247 192.836 21.836 187.857 22.9749C157.441 29.9322 125.997 11.3692 94.926 15.3006C88.0185 16.3652 81.2296 17.9839 74.6398 20.1376C70.411 21.3929 66.0001 22.7495 62.9274 25.6608C59.8548 28.5721 58.6854 33.5509 61.5962 36.5951C53.5731 37.1924 45.4965 36.4984 37.7416 34.5451C39.8387 35.599 41.5832 37.1438 42.7922 39.0175C44.0012 40.8911 44.6299 43.0245 44.6125 45.1935C32.0854 47.0403 19.89 50.4022 8.35442 55.1886C10.5074 58.4255 13.0221 61.454 15.859 64.2267L0 73.4379C5.35791 74.6583 8.12809 81.2635 5.01227 85.3888C10.5678 83.1544 14.0109 77.3741 19.9516 76.2022C23.8436 75.4344 27.8038 76.8738 31.4959 78.226C35.188 79.5782 39.246 80.8893 43.0682 79.8745C46.8903 78.8596 49.7095 74.3791 47.2808 71.5244C63.6176 67.2151 80.5013 64.8302 97.5135 64.4291C98.826 64.2802 100.157 64.5085 101.318 65.0818C103.532 66.4709 102.95 69.4711 102.83 71.9055C102.711 74.3399 104.81 77.5393 107.216 76.4421C104.385 78.6618 106.806 82.8405 109.522 85.1747C112.238 87.5088 115.512 90.7296 113.849 93.7659C113.415 94.5583 112.679 95.1924 112.262 95.992C111.029 98.3524 112.986 101.104 115.295 102.672C117.603 104.239 120.431 105.334 122.035 107.505C123.638 109.675 122.91 113.475 120.043 113.778L111.892 104.422C109.107 107.032 107.198 110.303 106.386 113.855C115.029 120.243 116.329 133.245 109.093 140.93C105.395 144.858 100.137 147.244 95.5472 150.308C90.9576 153.371 86.7108 157.734 86.7224 162.891C86.7423 171.802 85.937 180.08 89.6303 188.342C96.4408 203.575 104.304 218.406 113.173 232.747C115.502 236.513 118.512 240.641 123.23 241.289C117.267 228.166 111.899 214.838 107.127 201.306C110.235 201.317 113.828 201.54 115.65 203.817C117.159 205.702 116.835 208.265 117.303 210.554C117.9 212.771 118.894 214.884 120.247 216.81L148.721 262.665C151.082 266.467 153.789 270.547 158.3 272.087C161.185 273.071 164.522 272.885 167.176 274.302C169.257 275.413 170.659 277.385 172.78 278.431C178.778 281.389 187.119 275.716 192.725 279.248C194.328 280.258 195.347 281.862 196.824 283.018C202.001 287.072 210.494 284.36 216.47 287.384C220.322 289.332 222.318 293.23 224.373 296.761C229.519 305.608 237.845 314.275 248.874 314.98C252.338 315.201 255.877 314.607 259.263 315.304C262.65 316.001 265.983 318.672 265.44 321.774C264.508 327.09 267.413 332.912 266.633 338.248C265.211 347.968 249.961 352.24 248.651 361.973C248.364 364.104 248.813 366.304 248.252 368.39C247.564 370.947 245.44 373.028 244.685 375.569C243.255 380.385 247.072 385.178 251.264 388.417C255.456 391.657 260.457 394.451 262.749 398.986C265.172 403.78 263.982 409.369 264.77 414.591C266.49 425.992 277.381 434.443 288.59 439.892C292.005 441.552 295.672 443.16 297.882 446.04C300.767 449.799 300.479 454.755 301.443 459.247C303.802 470.248 314.046 479.312 314.336 490.514C314.543 498.477 309.647 505.7 306.723 513.213C303.981 520.411 302.989 528.06 303.814 535.636C304.639 543.212 307.262 550.539 311.504 557.115C313.692 560.455 316.308 563.604 317.856 567.224C320.618 573.685 319.722 581.03 322.268 587.563C325.635 596.2 334.885 603.333 334 612.456C338.199 620.341 347.473 624.215 356.798 626.562L373.511 630.768C376.711 631.573 380.055 632.385 383.314 631.801C386.572 631.218 389.682 628.772 389.598 625.77C381.402 624.099 372.944 622.322 366.188 617.807C359.431 613.292 354.803 605.251 357.367 598.018C358.555 594.664 361.084 590.79 358.68 588.019C357.303 586.432 354.786 586.017 353.234 584.57C350.812 582.311 351.644 578.518 353.385 575.794C355.126 573.071 357.642 570.638 358.345 567.557C358.699 565.834 358.462 564.054 357.666 562.455C356.87 560.857 355.552 559.517 353.889 558.615C356.988 557.558 359.806 555.923 362.161 553.817C364.336 551.571 365.341 548.108 363.63 545.555C368.712 546.138 374.711 546.423 378.047 542.909C380.711 540.102 380.528 535.906 379.476 532.333C378.423 528.759 376.644 525.288 376.589 521.59C388.311 522.092 400.06 521.732 411.718 520.513C410.033 515.38 406.202 511.042 401.038 508.42C406.318 507.612 411.128 501.897 412.796 497.297C414.464 492.696 414.039 487.685 413.008 482.934C412.612 481.711 412.558 480.418 412.85 479.172C413.445 477.458 415.306 476.413 417.028 475.519L443.236 461.911C444.8 461.203 446.218 460.257 447.427 459.114C450.173 456.198 449.766 451.796 448.36 448.184C446.954 444.571 444.702 441.174 444.161 437.376C442.541 426.017 455.991 417.867 460.53 407.175C462.311 402.978 462.674 398.417 463.019 393.933C463.389 389.118 463.417 383.524 459.327 380.42C455.406 377.446 449.28 378.109 445.178 375.342C441.416 372.805 440.119 367.878 436.01 365.829C432.278 363.968 427.6 365.151 423.449 364.276C416.142 362.735 411.544 355.121 404.081 354.416C399.87 354.018 395.105 355.879 391.654 353.662C388.613 351.709 388.491 347.783 387.912 344.451C386.898 339.273 384.152 334.5 380.046 330.776C375.94 327.052 370.67 324.554 364.946 323.621C360.604 322.991 355.879 323.23 352.185 321.073C348.445 318.889 346.731 314.8 343.793 311.775C339.059 306.9 331.602 305.168 324.616 303.684L296.203 297.645C291.16 296.573 284.658 296.005 281.952 299.999C281.15 301.52 280.583 303.133 280.266 304.793C279.251 307.796 277.21 310.43 274.436 312.318C271.661 314.206 268.296 315.251 264.824 315.301C262.443 311.629 258.585 308.93 254.055 307.768C251.174 307.042 248.09 306.961 245.342 305.893C243.846 305.233 242.514 304.303 241.429 303.162C240.343 302.02 239.527 300.69 239.03 299.253C238.533 297.816 238.365 296.303 238.538 294.805C238.71 293.308 239.218 291.858 240.032 290.544C241.67 287.907 242.303 284.856 241.832 281.862C241.362 278.868 239.814 276.097 237.429 273.977C232.597 270.055 225.607 269.108 219.128 269.5C217.431 266.152 220.269 262.376 223.326 259.943C226.383 257.511 230.096 255.119 230.762 251.486C231.809 245.772 223.745 241.432 217.621 243.136C211.498 244.84 207.59 250.217 205.007 255.517C203.524 258.558 202.264 261.76 199.926 264.325C197.588 266.889 193.823 268.725 190.261 267.902C185.219 266.737 183.272 261.322 182.156 256.726C180.659 250.561 179.153 244.309 179.467 238.003C179.78 231.697 182.132 225.223 187.275 220.954C195.657 213.997 208.514 214.679 219.825 215.789C217.153 213.067 217.814 208.479 220.673 205.917C222.182 204.704 223.996 203.843 225.957 203.408C227.918 202.972 229.966 202.975 231.925 203.418C235.334 204.059 238.404 205.719 240.643 208.13C243.857 211.673 244.771 216.456 247.201 220.478C249.63 224.5 255.093 227.93 259.565 225.772C263.427 223.909 264.04 219.067 263.079 215.205C262.118 211.344 260.076 207.589 260.424 203.644C261.089 196.115 269.721 191.584 277.338 188.483C284.955 185.383 293.677 181.213 294.884 173.74C294.925 172.277 295.23 170.83 295.788 169.456C296.632 168.242 297.806 167.244 299.198 166.556C321.429 153.274 344.03 139.829 369.439 132.571C370.761 132.194 370.916 132.613 372.263 132.318C374.148 131.332 372.899 128.607 371.091 127.509C369.284 126.411 366.867 125.569 366.409 123.645C366.072 122.23 366.994 120.84 367.233 119.409C367.822 115.893 363.169 112.646 359.555 114.052C357.514 111.609 361.553 108.769 364.819 107.956C374.625 105.516 384.691 104.03 394.846 103.522C396.018 103.353 397.218 103.538 398.262 104.047C399.968 105.115 399.75 107.565 398.541 109.09C397.333 110.614 395.452 111.572 393.946 112.862C392.3 114.311 391.126 116.141 390.553 118.153C389.979 120.164 390.027 122.279 390.692 124.268C395.994 126.706 401.757 129.215 407.629 128.356C413.5 127.498 418.712 121.533 415.952 116.77C413.382 112.334 405.662 111.333 404.335 106.472C402.78 100.78 411.693 95.7172 409.685 90.1423C408.806 87.7003 406.114 86.2631 404.048 84.5001C401.609 82.3385 399.949 79.5604 399.288 76.5307C398.627 73.501 398.994 70.3613 400.342 67.5239C396.978 68.059 393.521 67.8568 390.26 66.9345C387 66.0121 384.032 64.3964 381.605 62.2228C377.123 58.1336 373.548 51.683 367.184 51.866C361.343 52.0338 356.313 58.1938 350.852 56.3145C349.509 55.8522 348.092 54.9112 346.79 55.4625C346.364 55.7129 346.006 56.0477 345.743 56.4416C345.481 56.8355 345.321 57.2782 345.275 57.7362C343.888 63.7347 346.275 70.5692 342.659 75.7526C338.724 81.3931 329.622 82.1752 324.851 87.2616C322.262 90.0226 321.258 93.7431 318.878 96.6541C316.498 99.565 311.446 101.416 308.589 98.879C309.993 96.2697 310.376 93.307 309.676 90.4752C308.977 87.6434 307.235 85.1099 304.736 83.2889C302.084 81.7246 299.225 80.4674 296.227 79.5469C292.876 78.2647 289.689 76.6587 286.721 74.7569C285.233 73.9459 284.025 72.777 283.231 71.3809C282.602 69.6327 282.687 67.7389 283.469 66.0422C284.918 62.2877 287.473 58.9621 290.859 56.4246C294.246 53.8871 298.334 52.2341 302.684 51.6439C306.487 51.1761 310.914 51.3409 313.431 48.721C314.763 47.3347 315.462 45.2388 317.395 44.6758C318.631 44.4512 319.915 44.5942 321.054 45.0833L335.25 49.6008C336.834 50.2473 338.578 50.5079 340.308 50.357C341.165 50.2525 341.948 49.8587 342.498 49.2545C343.047 48.6502 343.324 47.8804 343.272 47.0993C342.819 44.9679 339.191 43.9452 339.521 41.7954C339.706 41.0987 340.12 40.4691 340.709 39.9897C345.833 35.0598 352.098 31.215 359.057 28.7305C366.016 26.246 373.497 25.1832 380.964 25.6183C382.755 28.2788 379.922 31.4293 377.564 33.7006C375.206 35.9718 373.311 40.0299 376.163 41.7781C377.331 42.3173 378.631 42.582 379.942 42.5477C383.438 42.9754 386.834 43.9069 390.003 45.3066C394.909 47.2366 399.72 49.3484 404.438 51.6419C404.021 48.8299 403.623 45.8675 404.802 43.2382C405.981 40.6089 409.332 38.5466 412.258 39.5706C415.079 40.5574 416.525 43.9338 419.53 44.2431C423.538 44.6557 425.12 39.3021 423.445 35.9838C421.771 32.6655 418.457 29.8869 418.18 26.2482C417.993 23.7934 419.027 20.7489 416.858 19.2625C416.086 18.8162 415.21 18.5385 414.299 18.4513L360.143 9.44156C356.927 8.90654 352.281 9.3166 352.138 12.27C352.059 13.9186 353.687 15.5495 352.966 17.0652C352.196 18.683 349.667 18.5351 347.824 19.1073C344.966 19.9951 343.531 23.0639 343.806 25.7853C344.308 28.4894 345.467 31.0594 347.198 33.311C343.675 31.9791 338.341 31.7343 334.819 30.4025Z"/>
</mask>
<path d="M334.819 30.4025C334.301 26.7027 333.254 23.0794 331.705 19.6234C331.507 18.9699 331.161 18.3607 330.689 17.8347C330.216 17.3087 329.628 16.8774 328.961 16.5683C328.069 16.3588 327.135 16.3493 326.239 16.5408L312.261 18.4743C311.091 18.5226 309.971 18.9161 309.072 19.5946C307.252 21.3255 309.044 24.1126 308.989 26.5005C308.926 29.1857 306.287 31.3652 303.425 32.0863C300.504 32.6199 297.491 32.5862 294.586 31.9872L275.041 29.2414C280.797 27.58 285.921 24.489 289.827 20.3212C292.399 17.5666 293.767 12.4238 290.05 11.1194C288.946 10.8454 287.794 10.7618 286.655 10.873C277.8 10.9352 270.832 4.25112 262.543 1.436C257.237 -0.249293 251.478 -0.374682 246.089 1.07776C240.699 2.53021 235.956 5.4861 232.537 9.52274L242.949 9.97657C243.928 9.9277 244.9 10.1619 245.722 10.6452C248.004 12.3401 245.167 15.5956 245.489 18.2495C245.906 21.6976 250.97 22.4338 254.787 22.7825C258.605 23.1311 263.447 25.9351 261.611 28.9808C242.425 34.9555 222.901 17.3016 202.751 19.4747C197.652 20.0247 192.836 21.836 187.857 22.9749C157.441 29.9322 125.997 11.3692 94.926 15.3006C88.0185 16.3652 81.2296 17.9839 74.6398 20.1376C70.411 21.3929 66.0001 22.7495 62.9274 25.6608C59.8548 28.5721 58.6854 33.5509 61.5962 36.5951C53.5731 37.1924 45.4965 36.4984 37.7416 34.5451C39.8387 35.599 41.5832 37.1438 42.7922 39.0175C44.0012 40.8911 44.6299 43.0245 44.6125 45.1935C32.0854 47.0403 19.89 50.4022 8.35442 55.1886C10.5074 58.4255 13.0221 61.454 15.859 64.2267L0 73.4379C5.35791 74.6583 8.12809 81.2635 5.01227 85.3888C10.5678 83.1544 14.0109 77.3741 19.9516 76.2022C23.8436 75.4344 27.8038 76.8738 31.4959 78.226C35.188 79.5782 39.246 80.8893 43.0682 79.8745C46.8903 78.8596 49.7095 74.3791 47.2808 71.5244C63.6176 67.2151 80.5013 64.8302 97.5135 64.4291C98.826 64.2802 100.157 64.5085 101.318 65.0818C103.532 66.4709 102.95 69.4711 102.83 71.9055C102.711 74.3399 104.81 77.5393 107.216 76.4421C104.385 78.6618 106.806 82.8405 109.522 85.1747C112.238 87.5088 115.512 90.7296 113.849 93.7659C113.415 94.5583 112.679 95.1924 112.262 95.992C111.029 98.3524 112.986 101.104 115.295 102.672C117.603 104.239 120.431 105.334 122.035 107.505C123.638 109.675 122.91 113.475 120.043 113.778L111.892 104.422C109.107 107.032 107.198 110.303 106.386 113.855C115.029 120.243 116.329 133.245 109.093 140.93C105.395 144.858 100.137 147.244 95.5472 150.308C90.9576 153.371 86.7108 157.734 86.7224 162.891C86.7423 171.802 85.937 180.08 89.6303 188.342C96.4408 203.575 104.304 218.406 113.173 232.747C115.502 236.513 118.512 240.641 123.23 241.289C117.267 228.166 111.899 214.838 107.127 201.306C110.235 201.317 113.828 201.54 115.65 203.817C117.159 205.702 116.835 208.265 117.303 210.554C117.9 212.771 118.894 214.884 120.247 216.81L148.721 262.665C151.082 266.467 153.789 270.547 158.3 272.087C161.185 273.071 164.522 272.885 167.176 274.302C169.257 275.413 170.659 277.385 172.78 278.431C178.778 281.389 187.119 275.716 192.725 279.248C194.328 280.258 195.347 281.862 196.824 283.018C202.001 287.072 210.494 284.36 216.47 287.384C220.322 289.332 222.318 293.23 224.373 296.761C229.519 305.608 237.845 314.275 248.874 314.98C252.338 315.201 255.877 314.607 259.263 315.304C262.65 316.001 265.983 318.672 265.44 321.774C264.508 327.09 267.413 332.912 266.633 338.248C265.211 347.968 249.961 352.24 248.651 361.973C248.364 364.104 248.813 366.304 248.252 368.39C247.564 370.947 245.44 373.028 244.685 375.569C243.255 380.385 247.072 385.178 251.264 388.417C255.456 391.657 260.457 394.451 262.749 398.986C265.172 403.78 263.982 409.369 264.77 414.591C266.49 425.992 277.381 434.443 288.59 439.892C292.005 441.552 295.672 443.16 297.882 446.04C300.767 449.799 300.479 454.755 301.443 459.247C303.802 470.248 314.046 479.312 314.336 490.514C314.543 498.477 309.647 505.7 306.723 513.213C303.981 520.411 302.989 528.06 303.814 535.636C304.639 543.212 307.262 550.539 311.504 557.115C313.692 560.455 316.308 563.604 317.856 567.224C320.618 573.685 319.722 581.03 322.268 587.563C325.635 596.2 334.885 603.333 334 612.456C338.199 620.341 347.473 624.215 356.798 626.562L373.511 630.768C376.711 631.573 380.055 632.385 383.314 631.801C386.572 631.218 389.682 628.772 389.598 625.77C381.402 624.099 372.944 622.322 366.188 617.807C359.431 613.292 354.803 605.251 357.367 598.018C358.555 594.664 361.084 590.79 358.68 588.019C357.303 586.432 354.786 586.017 353.234 584.57C350.812 582.311 351.644 578.518 353.385 575.794C355.126 573.071 357.642 570.638 358.345 567.557C358.699 565.834 358.462 564.054 357.666 562.455C356.87 560.857 355.552 559.517 353.889 558.615C356.988 557.558 359.806 555.923 362.161 553.817C364.336 551.571 365.341 548.108 363.63 545.555C368.712 546.138 374.711 546.423 378.047 542.909C380.711 540.102 380.528 535.906 379.476 532.333C378.423 528.759 376.644 525.288 376.589 521.59C388.311 522.092 400.06 521.732 411.718 520.513C410.033 515.38 406.202 511.042 401.038 508.42C406.318 507.612 411.128 501.897 412.796 497.297C414.464 492.696 414.039 487.685 413.008 482.934C412.612 481.711 412.558 480.418 412.85 479.172C413.445 477.458 415.306 476.413 417.028 475.519L443.236 461.911C444.8 461.203 446.218 460.257 447.427 459.114C450.173 456.198 449.766 451.796 448.36 448.184C446.954 444.571 444.702 441.174 444.161 437.376C442.541 426.017 455.991 417.867 460.53 407.175C462.311 402.978 462.674 398.417 463.019 393.933C463.389 389.118 463.417 383.524 459.327 380.42C455.406 377.446 449.28 378.109 445.178 375.342C441.416 372.805 440.119 367.878 436.01 365.829C432.278 363.968 427.6 365.151 423.449 364.276C416.142 362.735 411.544 355.121 404.081 354.416C399.87 354.018 395.105 355.879 391.654 353.662C388.613 351.709 388.491 347.783 387.912 344.451C386.898 339.273 384.152 334.5 380.046 330.776C375.94 327.052 370.67 324.554 364.946 323.621C360.604 322.991 355.879 323.23 352.185 321.073C348.445 318.889 346.731 314.8 343.793 311.775C339.059 306.9 331.602 305.168 324.616 303.684L296.203 297.645C291.16 296.573 284.658 296.005 281.952 299.999C281.15 301.52 280.583 303.133 280.266 304.793C279.251 307.796 277.21 310.43 274.436 312.318C271.661 314.206 268.296 315.251 264.824 315.301C262.443 311.629 258.585 308.93 254.055 307.768C251.174 307.042 248.09 306.961 245.342 305.893C243.846 305.233 242.514 304.303 241.429 303.162C240.343 302.02 239.527 300.69 239.03 299.253C238.533 297.816 238.365 296.303 238.538 294.805C238.71 293.308 239.218 291.858 240.032 290.544C241.67 287.907 242.303 284.856 241.832 281.862C241.362 278.868 239.814 276.097 237.429 273.977C232.597 270.055 225.607 269.108 219.128 269.5C217.431 266.152 220.269 262.376 223.326 259.943C226.383 257.511 230.096 255.119 230.762 251.486C231.809 245.772 223.745 241.432 217.621 243.136C211.498 244.84 207.59 250.217 205.007 255.517C203.524 258.558 202.264 261.76 199.926 264.325C197.588 266.889 193.823 268.725 190.261 267.902C185.219 266.737 183.272 261.322 182.156 256.726C180.659 250.561 179.153 244.309 179.467 238.003C179.78 231.697 182.132 225.223 187.275 220.954C195.657 213.997 208.514 214.679 219.825 215.789C217.153 213.067 217.814 208.479 220.673 205.917C222.182 204.704 223.996 203.843 225.957 203.408C227.918 202.972 229.966 202.975 231.925 203.418C235.334 204.059 238.404 205.719 240.643 208.13C243.857 211.673 244.771 216.456 247.201 220.478C249.63 224.5 255.093 227.93 259.565 225.772C263.427 223.909 264.04 219.067 263.079 215.205C262.118 211.344 260.076 207.589 260.424 203.644C261.089 196.115 269.721 191.584 277.338 188.483C284.955 185.383 293.677 181.213 294.884 173.74C294.925 172.277 295.23 170.83 295.788 169.456C296.632 168.242 297.806 167.244 299.198 166.556C321.429 153.274 344.03 139.829 369.439 132.571C370.761 132.194 370.916 132.613 372.263 132.318C374.148 131.332 372.899 128.607 371.091 127.509C369.284 126.411 366.867 125.569 366.409 123.645C366.072 122.23 366.994 120.84 367.233 119.409C367.822 115.893 363.169 112.646 359.555 114.052C357.514 111.609 361.553 108.769 364.819 107.956C374.625 105.516 384.691 104.03 394.846 103.522C396.018 103.353 397.218 103.538 398.262 104.047C399.968 105.115 399.75 107.565 398.541 109.09C397.333 110.614 395.452 111.572 393.946 112.862C392.3 114.311 391.126 116.141 390.553 118.153C389.979 120.164 390.027 122.279 390.692 124.268C395.994 126.706 401.757 129.215 407.629 128.356C413.5 127.498 418.712 121.533 415.952 116.77C413.382 112.334 405.662 111.333 404.335 106.472C402.78 100.78 411.693 95.7172 409.685 90.1423C408.806 87.7003 406.114 86.2631 404.048 84.5001C401.609 82.3385 399.949 79.5604 399.288 76.5307C398.627 73.501 398.994 70.3613 400.342 67.5239C396.978 68.059 393.521 67.8568 390.26 66.9345C387 66.0121 384.032 64.3964 381.605 62.2228C377.123 58.1336 373.548 51.683 367.184 51.866C361.343 52.0338 356.313 58.1938 350.852 56.3145C349.509 55.8522 348.092 54.9112 346.79 55.4625C346.364 55.7129 346.006 56.0477 345.743 56.4416C345.481 56.8355 345.321 57.2782 345.275 57.7362C343.888 63.7347 346.275 70.5692 342.659 75.7526C338.724 81.3931 329.622 82.1752 324.851 87.2616C322.262 90.0226 321.258 93.7431 318.878 96.6541C316.498 99.565 311.446 101.416 308.589 98.879C309.993 96.2697 310.376 93.307 309.676 90.4752C308.977 87.6434 307.235 85.1099 304.736 83.2889C302.084 81.7246 299.225 80.4674 296.227 79.5469C292.876 78.2647 289.689 76.6587 286.721 74.7569C285.233 73.9459 284.025 72.777 283.231 71.3809C282.602 69.6327 282.687 67.7389 283.469 66.0422C284.918 62.2877 287.473 58.9621 290.859 56.4246C294.246 53.8871 298.334 52.2341 302.684 51.6439C306.487 51.1761 310.914 51.3409 313.431 48.721C314.763 47.3347 315.462 45.2388 317.395 44.6758C318.631 44.4512 319.915 44.5942 321.054 45.0833L335.25 49.6008C336.834 50.2473 338.578 50.5079 340.308 50.357C341.165 50.2525 341.948 49.8587 342.498 49.2545C343.047 48.6502 343.324 47.8804 343.272 47.0993C342.819 44.9679 339.191 43.9452 339.521 41.7954C339.706 41.0987 340.12 40.4691 340.709 39.9897C345.833 35.0598 352.098 31.215 359.057 28.7305C366.016 26.246 373.497 25.1832 380.964 25.6183C382.755 28.2788 379.922 31.4293 377.564 33.7006C375.206 35.9718 373.311 40.0299 376.163 41.7781C377.331 42.3173 378.631 42.582 379.942 42.5477C383.438 42.9754 386.834 43.9069 390.003 45.3066C394.909 47.2366 399.72 49.3484 404.438 51.6419C404.021 48.8299 403.623 45.8675 404.802 43.2382C405.981 40.6089 409.332 38.5466 412.258 39.5706C415.079 40.5574 416.525 43.9338 419.53 44.2431C423.538 44.6557 425.12 39.3021 423.445 35.9838C421.771 32.6655 418.457 29.8869 418.18 26.2482C417.993 23.7934 419.027 20.7489 416.858 19.2625C416.086 18.8162 415.21 18.5385 414.299 18.4513L360.143 9.44156C356.927 8.90654 352.281 9.3166 352.138 12.27C352.059 13.9186 353.687 15.5495 352.966 17.0652C352.196 18.683 349.667 18.5351 347.824 19.1073C344.966 19.9951 343.531 23.0639 343.806 25.7853C344.308 28.4894 345.467 31.0594 347.198 33.311C343.675 31.9791 338.341 31.7343 334.819 30.4025Z" stroke="#BA68C8" stroke-opacity="0.3" mask="url(#path-1-inside-1_264_1042)"/>
</svg>
