<svg width="727" height="360" viewBox="0 0 727 360" fill="none" xmlns="http://www.w3.org/2000/svg">
<mask id="path-1-inside-1_264_1044" fill="white">
<path d="M171.635 49.5692C175.126 52.9205 179.038 56.4738 184.088 57.0579C193.009 58.0897 199.423 49.7498 203.506 42.5056C203.658 44.3524 204.6 46.0731 206.132 47.3016C207.665 48.5301 209.667 49.1695 211.714 49.0839C213.916 48.7489 216.017 48.0061 217.887 46.902C235.561 38.1696 255.358 33.5428 275.499 33.4372C275.306 32.0578 275.684 30.6625 276.562 29.5206C277.439 28.3786 278.753 27.5709 280.251 27.2534C284.346 26.5194 288.035 29.7203 290.01 33.0453C291.986 36.3704 293.217 40.2244 296.356 42.7132C299.495 45.2021 305.571 45.0937 306.811 41.4896C308.001 38.0294 304.014 35.0787 300.701 33.0387C297.389 30.9988 293.897 27.2231 296.128 24.2127C313.051 20.8259 330.079 17.4264 347.396 16.7532C350.344 16.846 353.282 16.3885 356.026 15.4092C358.667 14.2376 360.766 11.578 360.055 8.99716C356.276 9.80027 352.319 9.56771 348.686 8.32911C345.054 7.09051 341.912 4.902 339.661 2.04264C363.69 0.250007 389.246 -1.27797 410.541 8.94375C413.096 13.9032 400.072 18.0295 403.557 22.5027C404.668 23.9294 406.895 24.0967 408.825 24.1291C423.623 24.3775 438.506 24.621 453.136 22.6012C458.483 21.8631 463.884 20.8211 469.252 21.4197C478.193 22.4166 485.84 27.8101 494.636 29.5686C498.217 30.2843 502.231 30.3086 505.249 28.426C508.267 26.5433 509.564 22.2566 507.091 19.8092C515.373 12.4707 529.119 14.2895 540.045 17.8028C550.971 21.3162 561.322 26.982 572.886 27.7651C581.179 28.3267 589.586 26.3101 597.78 27.5919C602.93 28.3974 607.722 30.4684 612.755 31.7407C622.273 34.1472 632.342 33.6392 642.224 33.755C667.44 34.0622 692.38 38.5425 715.809 46.9743C718.857 47.8715 721.65 49.3631 723.99 51.3438C726.17 53.4544 727.282 56.7342 725.816 59.3003L701.606 56.1021C703.887 60.1619 709.788 60.8538 714.581 62.2543C719.373 63.6549 724.342 68.4397 721.462 72.1753C716.269 70.6805 711.564 75.3742 708.941 79.6928C706.318 84.0114 703.121 89.1834 697.679 89.4464C692.806 89.682 686.913 85.9307 683.737 89.2801C688.125 94.2849 691.882 99.7162 694.94 105.473C698.078 111.384 700.313 118.831 696.072 124.149C695.404 125.098 694.392 125.808 693.209 126.156C689.745 126.949 687.495 123.118 685.01 120.796C681.88 117.869 677.146 117.041 672.907 115.668C668.668 114.296 664.202 111.596 663.871 107.537C663.664 105.011 665.139 102.663 666.226 100.328C668.052 96.3934 668.851 92.131 668.56 87.8719C668.322 84.4454 667.259 80.8811 664.538 78.487C661.816 76.0929 657.116 75.3334 654.194 77.5261C652.831 78.5493 651.738 80.1858 649.968 80.247C646.839 80.3552 644.437 75.4241 641.92 77.1074C642.215 78.9009 641.804 80.7313 640.758 82.2785C633.247 88.1842 621.708 85.6857 612.025 87.772C607.421 88.9633 603.012 90.7039 598.916 92.9477C597.384 93.54 596.08 94.5295 595.169 95.7911C593.961 97.9147 595.293 100.634 597.424 102.046C599.683 103.299 602.222 104.083 604.857 104.34C616.662 106.361 628.639 109.49 637.959 116.345C647.279 123.2 653.39 134.532 650.441 145.062L627.161 124.952C628.046 133.396 628.548 141.863 628.667 150.353C628.817 152.011 628.565 153.679 627.929 155.239C626.269 158.553 621.771 159.668 617.83 160.4C616.733 160.588 615.694 160.984 614.779 161.562C613.863 162.139 613.094 162.885 612.52 163.75C611.947 164.616 611.582 165.581 611.451 166.583C611.319 167.585 611.423 168.601 611.757 169.563C613.157 173.69 616.649 176.908 619.846 180.114C623.044 183.32 626.19 186.963 626.608 191.263C627.027 195.563 623.439 200.41 618.675 200.111C615.065 199.885 612.386 196.962 610.845 194.001C609.305 191.04 608.389 187.741 606.075 185.224C599.07 177.609 583.338 180.872 577.063 172.752C575.464 174.393 574.355 176.375 573.841 178.512C573.328 180.649 573.427 182.869 574.129 184.961C577.048 183.309 581.044 184.844 583.237 187.245C585.431 189.645 586.465 192.723 588.188 195.419C590.512 199.058 594.211 202.283 594.535 206.474C594.449 208.059 594.479 209.647 594.623 211.229C595.2 213.768 597.574 215.591 599.22 217.714C603.05 222.653 602.861 229.438 600.392 235.042C597.923 240.646 593.488 245.329 589.095 249.869C581.422 257.799 573.592 265.682 564.495 272.267C561.899 274.146 559.129 275.994 557.512 278.621C555.896 281.248 555.813 284.935 558.297 286.934C556.52 287.014 553.332 287.805 551.554 287.885C550.929 281.438 550.793 274.96 551.147 268.497C544.133 265.451 536.58 273.607 537.485 280.594C538.39 287.582 543.98 293.189 547.96 299.234C550.871 303.655 553.034 308.81 552.062 313.879C551.09 318.948 546.085 323.624 540.416 323.177C531.399 322.466 527.627 310.763 518.698 309.423C517.91 309.256 517.084 309.331 516.348 309.634C515.022 310.292 514.792 311.896 514.718 313.261C514.352 319.962 514.036 326.929 516.929 333.107C521.162 342.146 532.097 349.737 529.803 359.33C517.446 354.137 511.022 341.609 508.105 329.575C505.188 317.541 504.702 304.908 499.473 293.532C495.502 298.132 487.157 294.329 483.529 289.502C480.089 284.926 477.972 279.633 474.635 274.995C471.298 270.358 466.187 266.205 460.074 265.95C453.664 265.682 448.106 269.659 443.218 273.416C439.198 276.505 435.071 279.716 432.721 283.987C429.302 290.202 430.197 297.528 430.032 304.467C429.854 311.969 428.095 319.884 422.44 325.376C416.784 330.869 406.345 332.781 400.107 327.832C396.85 325.248 395.274 321.387 393.869 317.681C387.099 299.817 381.46 281.618 376.981 263.174C375.933 267.384 371.844 272.81 367.938 270.33C367.061 269.663 366.351 268.836 365.855 267.903C358.569 256.739 345.076 250.042 331.443 246.027C317.81 242.012 303.466 240.139 289.984 235.726C282.429 233.252 275.213 230.003 268.478 226.041C266.761 228.321 265.758 230.979 265.576 233.733C265.394 236.487 266.04 239.234 267.444 241.683C270.434 246.47 277.202 249.24 282.995 247.567C285.988 246.702 288.516 244.823 291.487 243.896C294.457 242.968 298.444 243.423 299.743 246.01C300.986 248.487 299.107 251.483 300.039 254.068C301.459 258.007 308.029 258.31 310.326 261.894C312.035 264.56 310.629 268.101 308.188 270.252C305.748 272.404 302.491 273.584 299.512 275.082C289.846 279.941 282.972 288.237 274.524 294.691C266.076 301.146 254.157 305.858 244.089 301.718C246.489 290.731 232.014 282.665 229.351 271.728C228.474 268.129 228.928 264.305 227.677 260.797C225.865 255.718 220.881 252.226 216.792 248.377C211.833 243.657 207.969 238.088 205.429 231.997C202.889 225.906 201.724 219.417 202.004 212.912C202.224 208.392 203.143 203.798 202.004 199.393C200.865 194.987 196.83 190.723 191.831 190.922C180.412 191.378 166.026 192.146 160.035 183.346C157.897 180.205 156.966 175.604 160.058 173.198C162.239 171.501 165.458 171.66 168.322 171.915L194.051 174.203C200.068 174.739 206.573 175.18 211.737 172.336C216.901 169.492 219.138 161.942 214.357 158.596C210.863 156.151 204.604 156.284 203.588 152.396C202.742 149.159 206.706 145.486 204.565 142.78C203.03 140.84 199.579 141.378 197.488 142.832C195.397 144.287 193.88 146.414 191.539 147.515C187.434 149.446 182.528 147.608 178.111 146.359C173.694 145.109 167.773 145.003 165.63 148.712C163.234 152.86 167.756 158.295 165.378 162.452C162.234 167.947 151.587 164.819 147.172 169.546C142.105 174.97 150.619 183.058 148.911 189.987C146.729 190.964 144.305 191.412 141.875 191.289C139.444 191.165 137.091 190.474 135.044 189.283C133.031 188.045 131.427 186.337 130.402 184.34C129.377 182.344 128.97 180.134 129.224 177.945C129.647 174.828 131.444 171.646 130.24 168.7C129.266 166.318 126.621 164.901 124.163 163.672L99.1604 151.182C96.8391 155.075 99.7737 159.901 103.444 162.825C107.114 165.749 111.711 167.952 114.122 171.8C115.648 174.466 115.989 177.558 115.078 180.444C114.167 183.331 112.071 185.794 109.219 187.331C108.862 187.554 108.455 187.704 108.027 187.772C107.6 187.839 107.161 187.822 106.741 187.722C106.342 187.51 105.994 187.227 105.718 186.892C105.442 186.556 105.243 186.174 105.134 185.767C100.722 175.561 94.0988 165.498 83.5097 160.167C72.9205 154.835 57.705 155.931 50.7611 164.912C49.1118 167.046 48.0048 169.477 46.5681 171.733C38.9346 183.715 22.5699 189.39 7.28042 189.019C5.78472 189.094 4.29682 188.778 2.99449 188.108C0.523485 186.566 0.634775 183.292 1.01305 180.598L2.61797 169.168C2.94026 166.873 3.40725 164.336 5.41663 162.903C8.24908 160.883 12.3351 162.158 15.9422 162.111C18.675 161.995 21.3024 161.123 23.4682 159.612C25.634 158.1 27.2334 156.024 28.0498 153.663C28.7785 151.279 28.7738 148.761 28.0363 146.379C27.2988 143.997 25.8564 141.843 23.8646 140.147C22.2113 138.743 19.9922 136.98 20.8655 135.087C21.2139 134.564 21.685 134.116 22.2455 133.774C22.8061 133.433 23.4425 133.207 24.1101 133.112C30.5894 131.411 37.4356 130.965 43.8069 128.958C50.1782 126.951 56.3569 122.844 57.8658 116.899C58.3282 115.077 58.5387 112.87 60.3489 111.967C61.2572 111.62 62.2326 111.44 63.2185 111.437C66.6727 110.992 69.8178 109.395 72.0346 106.959C74.2514 104.524 75.3793 101.426 75.1963 98.2759C78.2497 96.347 82.5276 97.7659 85.4816 99.8175C88.4355 101.869 91.0434 104.58 94.6377 105.464C101.336 107.112 107.809 101.75 114.751 101.726C117.67 101.715 120.692 102.648 123.439 101.754C126.223 100.846 127.886 98.3408 130.023 96.4897C132.159 94.6385 135.909 93.5095 137.882 95.5036L136.202 84.2517C139.585 85.0246 143.113 85.1339 146.547 84.5726C149.982 84.0112 153.244 82.7921 156.114 80.997L134.398 74.3635C133.642 74.1928 132.945 73.8556 132.368 73.3819C130.789 71.845 132.357 69.4499 133.641 67.7028C136.712 63.5232 137.228 56.6384 132.177 54.5576C128.73 53.1373 124.773 54.8422 121.464 56.5101L105.615 64.4999C105.111 67.2236 108.795 68.7673 111.078 70.6019C112.459 71.712 113.437 73.1737 113.882 74.7952C114.328 76.4168 114.221 78.1222 113.574 79.6875C112.928 81.2529 111.773 82.6049 110.262 83.566C108.75 84.5272 106.952 85.0525 105.104 85.073C106.148 86.2997 106.873 87.723 107.226 89.2375C107.579 90.7519 107.551 92.3187 107.143 93.8219L96.4789 94.5153C95.282 94.733 94.0385 94.5136 93.02 93.905C91.8795 92.9892 92.0342 91.3844 91.7698 90.0261C91.1318 86.7479 87.5812 84.4502 83.9576 83.8611C80.3339 83.272 76.6269 84.0271 73.0387 84.7728C71.515 85.2684 69.8419 85.2335 68.3452 84.6748C67.4869 84.1708 66.8348 83.4266 66.4883 82.5559C64.9152 79.1075 66.3856 75.0542 68.9121 72.1052C71.4387 69.1562 74.8974 67.0004 78.0037 64.5454C85.432 58.6528 90.8897 50.9997 93.7603 42.4505C99.6309 40.2268 105.709 37.2054 111.579 34.9816C120.63 30.8388 130.779 29.0609 140.887 29.8479L160.768 30.1912C166.654 30.2928 172.699 30.4231 178.142 32.4518C183.585 34.4806 188.367 38.8685 188.743 44.1802C188.856 44.7815 188.799 45.399 188.576 45.9747C188.353 46.5504 187.972 47.0655 187.468 47.4716C186.7 47.8508 185.829 48.0282 184.955 47.9838C179.465 48.1582 177.125 49.3948 171.635 49.5692Z"/>
</mask>
<path d="M171.635 49.5692C175.126 52.9205 179.038 56.4738 184.088 57.0579C193.009 58.0897 199.423 49.7498 203.506 42.5056C203.658 44.3524 204.6 46.0731 206.132 47.3016C207.665 48.5301 209.667 49.1695 211.714 49.0839C213.916 48.7489 216.017 48.0061 217.887 46.902C235.561 38.1696 255.358 33.5428 275.499 33.4372C275.306 32.0578 275.684 30.6625 276.562 29.5206C277.439 28.3786 278.753 27.5709 280.251 27.2534C284.346 26.5194 288.035 29.7203 290.01 33.0453C291.986 36.3704 293.217 40.2244 296.356 42.7132C299.495 45.2021 305.571 45.0937 306.811 41.4896C308.001 38.0294 304.014 35.0787 300.701 33.0387C297.389 30.9988 293.897 27.2231 296.128 24.2127C313.051 20.8259 330.079 17.4264 347.396 16.7532C350.344 16.846 353.282 16.3885 356.026 15.4092C358.667 14.2376 360.766 11.578 360.055 8.99716C356.276 9.80027 352.319 9.56771 348.686 8.32911C345.054 7.09051 341.912 4.902 339.661 2.04264C363.69 0.250007 389.246 -1.27797 410.541 8.94375C413.096 13.9032 400.072 18.0295 403.557 22.5027C404.668 23.9294 406.895 24.0967 408.825 24.1291C423.623 24.3775 438.506 24.621 453.136 22.6012C458.483 21.8631 463.884 20.8211 469.252 21.4197C478.193 22.4166 485.84 27.8101 494.636 29.5686C498.217 30.2843 502.231 30.3086 505.249 28.426C508.267 26.5433 509.564 22.2566 507.091 19.8092C515.373 12.4707 529.119 14.2895 540.045 17.8028C550.971 21.3162 561.322 26.982 572.886 27.7651C581.179 28.3267 589.586 26.3101 597.78 27.5919C602.93 28.3974 607.722 30.4684 612.755 31.7407C622.273 34.1472 632.342 33.6392 642.224 33.755C667.44 34.0622 692.38 38.5425 715.809 46.9743C718.857 47.8715 721.65 49.3631 723.99 51.3438C726.17 53.4544 727.282 56.7342 725.816 59.3003L701.606 56.1021C703.887 60.1619 709.788 60.8538 714.581 62.2543C719.373 63.6549 724.342 68.4397 721.462 72.1753C716.269 70.6805 711.564 75.3742 708.941 79.6928C706.318 84.0114 703.121 89.1834 697.679 89.4464C692.806 89.682 686.913 85.9307 683.737 89.2801C688.125 94.2849 691.882 99.7162 694.94 105.473C698.078 111.384 700.313 118.831 696.072 124.149C695.404 125.098 694.392 125.808 693.209 126.156C689.745 126.949 687.495 123.118 685.01 120.796C681.88 117.869 677.146 117.041 672.907 115.668C668.668 114.296 664.202 111.596 663.871 107.537C663.664 105.011 665.139 102.663 666.226 100.328C668.052 96.3934 668.851 92.131 668.56 87.8719C668.322 84.4454 667.259 80.8811 664.538 78.487C661.816 76.0929 657.116 75.3334 654.194 77.5261C652.831 78.5493 651.738 80.1858 649.968 80.247C646.839 80.3552 644.437 75.4241 641.92 77.1074C642.215 78.9009 641.804 80.7313 640.758 82.2785C633.247 88.1842 621.708 85.6857 612.025 87.772C607.421 88.9633 603.012 90.7039 598.916 92.9477C597.384 93.54 596.08 94.5295 595.169 95.7911C593.961 97.9147 595.293 100.634 597.424 102.046C599.683 103.299 602.222 104.083 604.857 104.34C616.662 106.361 628.639 109.49 637.959 116.345C647.279 123.2 653.39 134.532 650.441 145.062L627.161 124.952C628.046 133.396 628.548 141.863 628.667 150.353C628.817 152.011 628.565 153.679 627.929 155.239C626.269 158.553 621.771 159.668 617.83 160.4C616.733 160.588 615.694 160.984 614.779 161.562C613.863 162.139 613.094 162.885 612.52 163.75C611.947 164.616 611.582 165.581 611.451 166.583C611.319 167.585 611.423 168.601 611.757 169.563C613.157 173.69 616.649 176.908 619.846 180.114C623.044 183.32 626.19 186.963 626.608 191.263C627.027 195.563 623.439 200.41 618.675 200.111C615.065 199.885 612.386 196.962 610.845 194.001C609.305 191.04 608.389 187.741 606.075 185.224C599.07 177.609 583.338 180.872 577.063 172.752C575.464 174.393 574.355 176.375 573.841 178.512C573.328 180.649 573.427 182.869 574.129 184.961C577.048 183.309 581.044 184.844 583.237 187.245C585.431 189.645 586.465 192.723 588.188 195.419C590.512 199.058 594.211 202.283 594.535 206.474C594.449 208.059 594.479 209.647 594.623 211.229C595.2 213.768 597.574 215.591 599.22 217.714C603.05 222.653 602.861 229.438 600.392 235.042C597.923 240.646 593.488 245.329 589.095 249.869C581.422 257.799 573.592 265.682 564.495 272.267C561.899 274.146 559.129 275.994 557.512 278.621C555.896 281.248 555.813 284.935 558.297 286.934C556.52 287.014 553.332 287.805 551.554 287.885C550.929 281.438 550.793 274.96 551.147 268.497C544.133 265.451 536.58 273.607 537.485 280.594C538.39 287.582 543.98 293.189 547.96 299.234C550.871 303.655 553.034 308.81 552.062 313.879C551.09 318.948 546.085 323.624 540.416 323.177C531.399 322.466 527.627 310.763 518.698 309.423C517.91 309.256 517.084 309.331 516.348 309.634C515.022 310.292 514.792 311.896 514.718 313.261C514.352 319.962 514.036 326.929 516.929 333.107C521.162 342.146 532.097 349.737 529.803 359.33C517.446 354.137 511.022 341.609 508.105 329.575C505.188 317.541 504.702 304.908 499.473 293.532C495.502 298.132 487.157 294.329 483.529 289.502C480.089 284.926 477.972 279.633 474.635 274.995C471.298 270.358 466.187 266.205 460.074 265.95C453.664 265.682 448.106 269.659 443.218 273.416C439.198 276.505 435.071 279.716 432.721 283.987C429.302 290.202 430.197 297.528 430.032 304.467C429.854 311.969 428.095 319.884 422.44 325.376C416.784 330.869 406.345 332.781 400.107 327.832C396.85 325.248 395.274 321.387 393.869 317.681C387.099 299.817 381.46 281.618 376.981 263.174C375.933 267.384 371.844 272.81 367.938 270.33C367.061 269.663 366.351 268.836 365.855 267.903C358.569 256.739 345.076 250.042 331.443 246.027C317.81 242.012 303.466 240.139 289.984 235.726C282.429 233.252 275.213 230.003 268.478 226.041C266.761 228.321 265.758 230.979 265.576 233.733C265.394 236.487 266.04 239.234 267.444 241.683C270.434 246.47 277.202 249.24 282.995 247.567C285.988 246.702 288.516 244.823 291.487 243.896C294.457 242.968 298.444 243.423 299.743 246.01C300.986 248.487 299.107 251.483 300.039 254.068C301.459 258.007 308.029 258.31 310.326 261.894C312.035 264.56 310.629 268.101 308.188 270.252C305.748 272.404 302.491 273.584 299.512 275.082C289.846 279.941 282.972 288.237 274.524 294.691C266.076 301.146 254.157 305.858 244.089 301.718C246.489 290.731 232.014 282.665 229.351 271.728C228.474 268.129 228.928 264.305 227.677 260.797C225.865 255.718 220.881 252.226 216.792 248.377C211.833 243.657 207.969 238.088 205.429 231.997C202.889 225.906 201.724 219.417 202.004 212.912C202.224 208.392 203.143 203.798 202.004 199.393C200.865 194.987 196.83 190.723 191.831 190.922C180.412 191.378 166.026 192.146 160.035 183.346C157.897 180.205 156.966 175.604 160.058 173.198C162.239 171.501 165.458 171.66 168.322 171.915L194.051 174.203C200.068 174.739 206.573 175.18 211.737 172.336C216.901 169.492 219.138 161.942 214.357 158.596C210.863 156.151 204.604 156.284 203.588 152.396C202.742 149.159 206.706 145.486 204.565 142.78C203.03 140.84 199.579 141.378 197.488 142.832C195.397 144.287 193.88 146.414 191.539 147.515C187.434 149.446 182.528 147.608 178.111 146.359C173.694 145.109 167.773 145.003 165.63 148.712C163.234 152.86 167.756 158.295 165.378 162.452C162.234 167.947 151.587 164.819 147.172 169.546C142.105 174.97 150.619 183.058 148.911 189.987C146.729 190.964 144.305 191.412 141.875 191.289C139.444 191.165 137.091 190.474 135.044 189.283C133.031 188.045 131.427 186.337 130.402 184.34C129.377 182.344 128.97 180.134 129.224 177.945C129.647 174.828 131.444 171.646 130.24 168.7C129.266 166.318 126.621 164.901 124.163 163.672L99.1604 151.182C96.8391 155.075 99.7737 159.901 103.444 162.825C107.114 165.749 111.711 167.952 114.122 171.8C115.648 174.466 115.989 177.558 115.078 180.444C114.167 183.331 112.071 185.794 109.219 187.331C108.862 187.554 108.455 187.704 108.027 187.772C107.6 187.839 107.161 187.822 106.741 187.722C106.342 187.51 105.994 187.227 105.718 186.892C105.442 186.556 105.243 186.174 105.134 185.767C100.722 175.561 94.0988 165.498 83.5097 160.167C72.9205 154.835 57.705 155.931 50.7611 164.912C49.1118 167.046 48.0048 169.477 46.5681 171.733C38.9346 183.715 22.5699 189.39 7.28042 189.019C5.78472 189.094 4.29682 188.778 2.99449 188.108C0.523485 186.566 0.634775 183.292 1.01305 180.598L2.61797 169.168C2.94026 166.873 3.40725 164.336 5.41663 162.903C8.24908 160.883 12.3351 162.158 15.9422 162.111C18.675 161.995 21.3024 161.123 23.4682 159.612C25.634 158.1 27.2334 156.024 28.0498 153.663C28.7785 151.279 28.7738 148.761 28.0363 146.379C27.2988 143.997 25.8564 141.843 23.8646 140.147C22.2113 138.743 19.9922 136.98 20.8655 135.087C21.2139 134.564 21.685 134.116 22.2455 133.774C22.8061 133.433 23.4425 133.207 24.1101 133.112C30.5894 131.411 37.4356 130.965 43.8069 128.958C50.1782 126.951 56.3569 122.844 57.8658 116.899C58.3282 115.077 58.5387 112.87 60.3489 111.967C61.2572 111.62 62.2326 111.44 63.2185 111.437C66.6727 110.992 69.8178 109.395 72.0346 106.959C74.2514 104.524 75.3793 101.426 75.1963 98.2759C78.2497 96.347 82.5276 97.7659 85.4816 99.8175C88.4355 101.869 91.0434 104.58 94.6377 105.464C101.336 107.112 107.809 101.75 114.751 101.726C117.67 101.715 120.692 102.648 123.439 101.754C126.223 100.846 127.886 98.3408 130.023 96.4897C132.159 94.6385 135.909 93.5095 137.882 95.5036L136.202 84.2517C139.585 85.0246 143.113 85.1339 146.547 84.5726C149.982 84.0112 153.244 82.7921 156.114 80.997L134.398 74.3635C133.642 74.1928 132.945 73.8556 132.368 73.3819C130.789 71.845 132.357 69.4499 133.641 67.7028C136.712 63.5232 137.228 56.6384 132.177 54.5576C128.73 53.1373 124.773 54.8422 121.464 56.5101L105.615 64.4999C105.111 67.2236 108.795 68.7673 111.078 70.6019C112.459 71.712 113.437 73.1737 113.882 74.7952C114.328 76.4168 114.221 78.1222 113.574 79.6875C112.928 81.2529 111.773 82.6049 110.262 83.566C108.75 84.5272 106.952 85.0525 105.104 85.073C106.148 86.2997 106.873 87.723 107.226 89.2375C107.579 90.7519 107.551 92.3187 107.143 93.8219L96.4789 94.5153C95.282 94.733 94.0385 94.5136 93.02 93.905C91.8795 92.9892 92.0342 91.3844 91.7698 90.0261C91.1318 86.7479 87.5812 84.4502 83.9576 83.8611C80.3339 83.272 76.6269 84.0271 73.0387 84.7728C71.515 85.2684 69.8419 85.2335 68.3452 84.6748C67.4869 84.1708 66.8348 83.4266 66.4883 82.5559C64.9152 79.1075 66.3856 75.0542 68.9121 72.1052C71.4387 69.1562 74.8974 67.0004 78.0037 64.5454C85.432 58.6528 90.8897 50.9997 93.7603 42.4505C99.6309 40.2268 105.709 37.2054 111.579 34.9816C120.63 30.8388 130.779 29.0609 140.887 29.8479L160.768 30.1912C166.654 30.2928 172.699 30.4231 178.142 32.4518C183.585 34.4806 188.367 38.8685 188.743 44.1802C188.856 44.7815 188.799 45.399 188.576 45.9747C188.353 46.5504 187.972 47.0655 187.468 47.4716C186.7 47.8508 185.829 48.0282 184.955 47.9838C179.465 48.1582 177.125 49.3948 171.635 49.5692Z" stroke="#BA68C8" stroke-opacity="0.3" mask="url(#path-1-inside-1_264_1044)"/>
</svg>
