<svg width="30" height="30" viewBox="0 0 30 30" fill="none" xmlns="http://www.w3.org/2000/svg">
<circle cx="15" cy="15" r="15" fill="#BA68C8" fill-opacity="0.3"/>
<path fill-rule="evenodd" clip-rule="evenodd" d="M13.0717 11.2268H15.8573V12.6143C16.2585 11.8163 17.2875 11.0993 18.8333 11.0993C21.7965 11.0993 22.5 12.6878 22.5 15.6023V21H19.5V16.266C19.5 14.6062 19.0988 13.6702 18.0773 13.6702C16.6605 13.6702 16.0717 14.679 16.0717 16.2653V21H13.0717V11.2268ZM7.9275 20.8725H10.9275V11.0993H7.9275V20.8725ZM11.3573 7.9125C11.3574 8.16396 11.3075 8.41293 11.2105 8.64494C11.1136 8.87695 10.9715 9.08738 10.7925 9.264C10.4298 9.62447 9.93886 9.82624 9.4275 9.825C8.91704 9.82466 8.42723 9.6234 8.064 9.26475C7.88566 9.08753 7.74404 8.87687 7.64726 8.64482C7.55048 8.41278 7.50043 8.16392 7.5 7.9125C7.5 7.40475 7.7025 6.91875 8.06475 6.56025C8.42766 6.20112 8.91768 5.99978 9.42825 6C9.93975 6 10.4302 6.20175 10.7925 6.56025C11.154 6.91875 11.3573 7.40475 11.3573 7.9125Z" fill="#360040"/>
</svg>
