<svg width="20" height="22" viewBox="0 0 20 22" fill="none" xmlns="http://www.w3.org/2000/svg">
<path fill-rule="evenodd" clip-rule="evenodd" d="M0 3.125C0 1.676 1.176 0.5 2.625 0.5H6.375C6.67337 0.5 6.95952 0.618526 7.1705 0.829505C7.38147 1.04048 7.5 1.32663 7.5 1.625C7.5 1.92337 7.38147 2.20952 7.1705 2.4205C6.95952 2.63147 6.67337 2.75 6.375 2.75H2.625C2.52554 2.75 2.43016 2.78951 2.35984 2.85984C2.28951 2.93016 2.25 3.02554 2.25 3.125V18.875C2.25 19.082 2.418 19.25 2.625 19.25H6.375C6.67337 19.25 6.95952 19.3685 7.1705 19.5795C7.38147 19.7905 7.5 20.0766 7.5 20.375C7.5 20.6734 7.38147 20.9595 7.1705 21.1705C6.95952 21.3815 6.67337 21.5 6.375 21.5H2.625C1.92881 21.5 1.26113 21.2234 0.768845 20.7312C0.276562 20.2389 0 19.5712 0 18.875V3.125ZM15.66 9.875H7.125C6.82663 9.875 6.54048 9.99353 6.3295 10.2045C6.11853 10.4155 6 10.7016 6 11C6 11.2984 6.11853 11.5845 6.3295 11.7955C6.54048 12.0065 6.82663 12.125 7.125 12.125H15.66L12.705 15.08C12.5945 15.183 12.5058 15.3072 12.4443 15.4452C12.3828 15.5832 12.3498 15.7322 12.3471 15.8832C12.3444 16.0343 12.3722 16.1843 12.4288 16.3244C12.4854 16.4645 12.5696 16.5917 12.6764 16.6986C12.7833 16.8054 12.9105 16.8896 13.0506 16.9462C13.1907 17.0028 13.3407 17.0306 13.4918 17.0279C13.6428 17.0252 13.7918 16.9922 13.9298 16.9307C14.0678 16.8692 14.192 16.7805 14.295 16.67L19.17 11.795C19.3807 11.5841 19.499 11.2981 19.499 11C19.499 10.7019 19.3807 10.4159 19.17 10.205L14.295 5.33C14.192 5.21947 14.0678 5.13082 13.9298 5.06933C13.7918 5.00784 13.6428 4.97478 13.4918 4.97211C13.3407 4.96945 13.1907 4.99723 13.0506 5.05382C12.9105 5.1104 12.7833 5.19461 12.6764 5.30144C12.5696 5.40827 12.4854 5.53552 12.4288 5.6756C12.3722 5.81569 12.3444 5.96573 12.3471 6.11678C12.3498 6.26784 12.3828 6.41681 12.4443 6.55481C12.5058 6.69281 12.5945 6.81701 12.705 6.92L15.66 9.875V9.875Z" fill="#8B4E96"/>
</svg>
