<svg width="464" height="558" viewBox="0 0 464 558" fill="none" xmlns="http://www.w3.org/2000/svg">
<path d="M334.819 27.1946C334.301 23.9364 333.254 20.7455 331.705 17.7019C331.507 17.1263 331.161 16.5899 330.689 16.1266C330.216 15.6634 329.628 15.2836 328.961 15.0114C328.069 14.8268 327.135 14.8185 326.239 14.9871L312.261 16.6899C311.091 16.7325 309.971 17.079 309.072 17.6765C307.252 19.2008 309.044 21.6554 308.989 23.7583C308.926 26.123 306.287 28.0425 303.425 28.6775C300.504 29.1475 297.491 29.1177 294.586 28.5903L275.041 26.1721C280.797 24.709 285.921 21.9868 289.827 18.3164C292.399 15.8905 293.767 11.3615 290.05 10.2127C288.946 9.97138 287.794 9.89776 286.655 9.99567C277.8 10.0505 270.832 4.16405 262.543 1.68487C257.237 0.200696 251.478 0.0902705 246.089 1.36939C240.699 2.6485 235.956 5.25166 232.537 8.80658L242.949 9.20625C243.928 9.16321 244.9 9.36945 245.722 9.79513C248.004 11.2877 245.167 14.1547 245.489 16.492C245.906 19.5285 250.97 20.1769 254.787 20.484C258.605 20.791 263.447 23.2604 261.611 25.9426C242.425 31.2043 222.901 15.6571 202.751 17.5709C197.652 18.0553 192.836 19.6504 187.857 20.6534C157.441 26.7805 125.997 10.4327 94.926 13.8949C88.0185 14.8325 81.2296 16.258 74.6398 18.1547C70.411 19.2602 66.0001 20.4549 62.9274 23.0188C59.8548 25.5827 58.6854 29.9674 61.5962 32.6483C53.5731 33.1743 45.4965 32.563 37.7416 30.8429C39.8387 31.771 41.5832 33.1315 42.7922 34.7815C44.0012 36.4316 44.6299 38.3104 44.6125 40.2206C32.0854 41.847 19.89 44.8077 8.35442 49.0229C10.5074 51.8735 13.0221 54.5406 15.859 56.9824L0 65.0944C5.35791 66.1692 8.12809 71.9861 5.01227 75.6191C10.5678 73.6513 14.0109 68.5609 19.9516 67.5288C23.8436 66.8526 27.8038 68.1203 31.4959 69.3111C35.188 70.5019 39.246 71.6566 43.0682 70.7629C46.8903 69.8691 49.7095 65.9232 47.2808 63.4092C63.6176 59.6142 80.5013 57.5139 97.5135 57.1606C98.826 57.0295 100.157 57.2306 101.318 57.7355C103.532 58.9588 102.95 61.601 102.83 63.7449C102.711 65.8888 104.81 68.7064 107.216 67.7401C104.385 69.6949 106.806 73.3749 109.522 75.4305C112.238 77.4862 115.512 80.3226 113.849 82.9965C113.415 83.6944 112.679 84.2528 112.262 84.957C111.029 87.0357 112.986 89.459 115.295 90.8394C117.603 92.2198 120.431 93.1845 122.035 95.096C123.638 97.0075 122.91 100.353 120.043 100.62L111.892 92.3807C109.107 94.6798 107.198 97.5603 106.386 100.688C115.029 106.314 116.329 117.764 109.093 124.533C105.395 127.991 100.137 130.093 95.5472 132.791C90.9576 135.489 86.7108 139.331 86.7224 143.873C86.7423 151.72 85.937 159.011 89.6303 166.286C96.4408 179.702 104.304 192.763 113.173 205.393C115.502 208.709 118.512 212.344 123.23 212.915C117.267 201.358 111.899 189.62 107.127 177.703C110.235 177.713 113.828 177.909 115.65 179.914C117.159 181.575 116.835 183.832 117.304 185.847C117.9 187.8 118.894 189.661 120.247 191.357L148.721 231.74C151.082 235.088 153.789 238.682 158.3 240.037C161.185 240.904 164.522 240.741 167.176 241.989C169.257 242.967 170.659 244.703 172.78 245.625C178.778 248.23 187.119 243.233 192.725 246.344C194.328 247.233 195.347 248.646 196.824 249.664C202.001 253.234 210.494 250.846 216.47 253.509C220.322 255.225 222.318 258.657 224.373 261.768C229.519 269.559 237.845 277.192 248.874 277.812C252.338 278.007 255.877 277.484 259.263 278.097C262.65 278.711 265.983 281.064 265.44 283.795C264.508 288.477 267.413 293.604 266.633 298.303C265.212 306.864 249.961 310.626 248.651 319.197C248.364 321.074 248.813 323.011 248.252 324.848C247.564 327.1 245.44 328.933 244.685 331.171C243.255 335.412 247.072 339.633 251.264 342.486C255.456 345.339 260.457 347.799 262.749 351.793C265.172 356.015 263.982 360.937 264.77 365.536C266.49 375.576 277.381 383.019 288.59 387.818C292.005 389.28 295.672 390.695 297.882 393.232C300.767 396.542 300.479 400.907 301.443 404.863C303.802 414.551 314.046 422.533 314.336 432.399C314.543 439.411 309.647 445.773 306.723 452.389C303.981 458.728 302.989 465.464 303.814 472.136C304.639 478.808 307.262 485.26 311.504 491.052C313.692 493.993 316.308 496.766 317.856 499.955C320.618 505.645 319.722 512.113 322.268 517.866C325.635 525.472 334.885 531.755 334 539.789C338.199 546.732 347.473 550.144 356.798 552.211L373.511 555.915C376.711 556.624 380.055 557.339 383.314 556.825C386.572 556.312 389.682 554.158 389.598 551.514C381.402 550.042 372.944 548.477 366.188 544.501C359.431 540.525 354.803 533.444 357.367 527.073C358.555 524.119 361.084 520.708 358.68 518.268C357.303 516.87 354.786 516.505 353.234 515.23C350.812 513.241 351.644 509.9 353.385 507.502C355.126 505.104 357.642 502.961 358.345 500.248C358.699 498.73 358.462 497.162 357.666 495.755C356.87 494.347 355.552 493.167 353.889 492.373C356.988 491.442 359.806 490.002 362.161 488.147C364.336 486.169 365.341 483.12 363.63 480.871C368.712 481.384 374.711 481.636 378.047 478.541C380.711 476.069 380.528 472.374 379.476 469.227C378.423 466.08 376.644 463.023 376.589 459.766C388.311 460.209 400.06 459.891 411.718 458.818C410.033 454.297 406.202 450.477 401.038 448.168C406.318 447.456 411.128 442.423 412.796 438.372C414.464 434.32 414.039 429.907 413.008 425.723C412.612 424.646 412.558 423.508 412.85 422.41C413.445 420.901 415.306 419.98 417.028 419.193L443.236 407.209C444.8 406.585 446.218 405.752 447.427 404.746C450.173 402.178 449.766 398.301 448.36 395.12C446.954 391.938 444.702 388.947 444.161 385.602C442.541 375.599 455.991 368.421 460.53 359.004C462.311 355.309 462.674 351.292 463.019 347.343C463.389 343.102 463.417 338.176 459.327 335.443C455.406 332.823 449.28 333.408 445.178 330.971C441.416 328.737 440.119 324.397 436.01 322.593C432.278 320.954 427.6 321.996 423.449 321.225C416.142 319.868 411.544 313.163 404.081 312.542C399.87 312.192 395.105 313.831 391.654 311.878C388.613 310.158 388.491 306.7 387.912 303.766C386.898 299.206 384.152 295.003 380.046 291.723C375.94 288.443 370.67 286.244 364.946 285.421C360.604 284.867 355.879 285.078 352.185 283.178C348.445 281.255 346.731 277.653 343.793 274.99C339.058 270.697 331.602 269.171 324.616 267.864L296.203 262.546C291.16 261.602 284.658 261.101 281.952 264.619C281.15 265.958 280.583 267.379 280.266 268.84C279.251 271.485 277.21 273.805 274.436 275.468C271.661 277.131 268.296 278.05 264.824 278.094C262.443 274.861 258.585 272.484 254.055 271.46C251.174 270.821 248.09 270.75 245.342 269.81C243.846 269.228 242.514 268.409 241.429 267.404C240.343 266.398 239.527 265.227 239.03 263.962C238.533 262.696 238.365 261.363 238.538 260.045C238.71 258.726 239.218 257.449 240.032 256.292C241.67 253.97 242.303 251.283 241.832 248.646C241.362 246.009 239.814 243.569 237.429 241.702C232.597 238.248 225.607 237.414 219.128 237.759C217.431 234.811 220.269 231.485 223.326 229.343C226.383 227.201 230.096 225.094 230.762 221.895C231.809 216.863 223.745 213.041 217.621 214.541C211.498 216.042 207.59 220.777 205.007 225.445C203.524 228.123 202.264 230.943 199.926 233.202C197.588 235.46 193.823 237.077 190.261 236.352C185.219 235.326 183.272 230.557 182.156 226.51C180.659 221.08 179.153 215.575 179.467 210.021C179.78 204.468 182.132 198.766 187.275 195.006C195.657 188.88 208.514 189.481 219.825 190.458C217.153 188.061 217.814 184.02 220.673 181.764C222.182 180.696 223.996 179.938 225.957 179.554C227.918 179.171 229.966 179.174 231.925 179.563C235.334 180.128 238.404 181.589 240.643 183.713C243.857 186.833 244.771 191.046 247.201 194.587C249.63 198.129 255.093 201.15 259.565 199.25C263.427 197.609 264.04 193.345 263.079 189.944C262.118 186.543 260.076 183.237 260.424 179.762C261.089 173.132 269.721 169.141 277.338 166.411C284.955 163.68 293.677 160.008 294.884 153.427C294.925 152.138 295.23 150.864 295.788 149.654C296.632 148.585 297.806 147.706 299.198 147.1C321.429 135.403 344.03 123.563 369.439 117.171C370.761 116.839 370.916 117.208 372.263 116.948C374.148 116.08 372.899 113.68 371.091 112.713C369.284 111.746 366.867 111.005 366.409 109.31C366.072 108.064 366.994 106.84 367.233 105.58C367.822 102.483 363.169 99.624 359.555 100.862C357.514 98.7099 361.553 96.2093 364.819 95.4934C374.625 93.3447 384.691 92.0355 394.846 91.588C396.018 91.4397 397.218 91.6023 398.262 92.0507C399.968 92.9914 399.75 95.149 398.541 96.4916C397.333 97.8343 395.452 98.6773 393.946 99.8134C392.3 101.09 391.126 102.702 390.553 104.473C389.979 106.244 390.027 108.107 390.692 109.858C395.994 112.005 401.757 114.216 407.629 113.459C413.5 112.703 418.712 107.45 415.952 103.255C413.382 99.3487 405.662 98.4676 404.334 94.1862C402.78 89.1734 411.693 84.715 409.685 79.8054C408.806 77.6548 406.114 76.3891 404.048 74.8365C401.609 72.9328 399.949 70.4863 399.288 67.8181C398.627 65.1499 398.994 62.3849 400.342 59.8861C396.978 60.3574 393.521 60.1794 390.26 59.3671C387 58.5547 384.032 57.1318 381.605 55.2176C377.123 51.6164 373.548 45.9356 367.184 46.0968C361.343 46.2446 356.313 51.6695 350.852 50.0144C349.509 49.6073 348.092 48.7786 346.79 49.2641C346.364 49.4847 346.006 49.7795 345.743 50.1264C345.481 50.4733 345.321 50.8631 345.275 51.2665C343.888 56.5491 346.275 62.568 342.659 67.1329C338.724 72.1003 329.622 72.789 324.851 77.2684C322.261 79.7 321.258 82.9765 318.878 85.5401C316.498 88.1036 311.446 89.7335 308.589 87.4995C309.993 85.2016 310.376 82.5924 309.676 80.0986C308.977 77.6047 307.235 75.3735 304.736 73.7698C302.084 72.3922 299.225 71.285 296.227 70.4744C292.876 69.3452 289.689 67.9308 286.721 66.256C285.233 65.5418 284.025 64.5124 283.231 63.2829C282.602 61.7433 282.687 60.0754 283.469 58.5813C284.918 55.2748 287.473 52.3461 290.859 50.1114C294.246 47.8767 298.334 46.421 302.684 45.9012C306.487 45.4892 310.914 45.6344 313.431 43.3271C314.763 42.1063 315.462 40.2605 317.395 39.7647C318.631 39.5669 319.915 39.6927 321.054 40.1235L335.25 44.1019C336.834 44.6712 338.578 44.9008 340.308 44.7678C341.165 44.6758 341.948 44.329 342.498 43.7969C343.047 43.2648 343.324 42.5868 343.272 41.8989C342.819 40.0219 339.191 39.1212 339.521 37.2279C339.706 36.6144 340.12 36.0599 340.709 35.6378C345.833 31.2962 352.098 27.9102 359.057 25.7222C366.016 23.5341 373.497 22.5982 380.964 22.9814C382.755 25.3244 379.922 28.099 377.564 30.0991C375.206 32.0993 373.311 35.6731 376.163 37.2128C377.331 37.6876 378.631 37.9207 379.942 37.8905C383.438 38.2672 386.834 39.0875 390.003 40.3201C394.909 42.0199 399.72 43.8796 404.438 45.8994C404.021 43.423 403.623 40.8141 404.802 38.4986C405.981 36.1831 409.332 34.3669 412.258 35.2686C415.079 36.1377 416.525 39.1112 419.53 39.3836C423.538 39.747 425.12 35.0322 423.446 32.1099C421.771 29.1876 418.457 26.7406 418.18 23.5361C417.993 21.3743 419.027 18.6931 416.858 17.384C416.086 16.991 415.21 16.7464 414.299 16.6696L360.143 8.73509C356.927 8.26391 352.281 8.62504 352.138 11.226C352.059 12.6778 353.687 14.1141 352.966 15.449C352.196 16.8737 349.667 16.7434 347.824 17.2473C344.966 18.0292 343.531 20.7318 343.806 23.1284C344.308 25.5098 345.467 27.7731 347.198 29.756C343.675 28.5831 338.341 28.3675 334.819 27.1946Z" stroke="#BA68C8" stroke-opacity="0.3" stroke-width="0.5"/>
</svg>
