<svg width="727" height="318" viewBox="0 0 727 318" fill="none" xmlns="http://www.w3.org/2000/svg">
<path d="M171.635 43.9825C175.126 46.9339 179.038 50.0631 184.088 50.5775C193.009 51.4862 199.423 44.1415 203.506 37.7619C203.658 39.3883 204.6 40.9036 206.132 41.9855C207.665 43.0674 209.667 43.6305 211.714 43.5551C213.916 43.2601 216.017 42.606 217.887 41.6336C235.561 33.9433 255.358 29.8686 275.499 29.7756C275.306 28.5609 275.684 27.3321 276.562 26.3264C277.439 25.3207 278.753 24.6094 280.251 24.3297C284.346 23.6833 288.035 26.5023 290.01 29.4305C291.986 32.3588 293.217 35.7529 296.356 37.9447C299.494 40.1365 305.571 40.0411 306.811 36.8671C308.001 33.8199 304.014 31.2212 300.701 29.4247C297.389 27.6282 293.897 24.3031 296.128 21.6519C313.051 18.6693 330.079 15.6755 347.396 15.0826C350.344 15.1644 353.282 14.7614 356.026 13.899C358.667 12.8672 360.766 10.525 360.055 8.25215C356.276 8.95943 352.319 8.75462 348.686 7.66383C345.054 6.57304 341.912 4.64569 339.661 2.12756C363.69 0.548848 389.246 -0.796787 410.541 8.20512C413.096 12.5728 400.072 16.2066 403.557 20.146C404.668 21.4024 406.895 21.5498 408.825 21.5783C423.623 21.7971 438.506 22.0115 453.136 20.2328C458.483 19.5827 463.884 18.6651 469.252 19.1922C478.193 20.0702 485.84 24.8201 494.636 26.3687C498.217 26.999 502.231 27.0204 505.249 25.3624C508.267 23.7045 509.564 19.9293 507.091 17.774C515.373 11.3112 529.119 12.9129 540.045 16.007C550.971 19.1011 561.322 24.0908 572.886 24.7804C581.179 25.275 589.586 23.4991 597.78 24.6279C602.93 25.3373 607.722 27.1611 612.754 28.2816C622.273 30.4009 632.342 29.9536 642.224 30.0555C667.44 30.326 692.38 34.2717 715.809 41.6973C718.857 42.4874 721.65 43.801 723.99 45.5453C726.17 47.4041 727.282 50.2925 725.816 52.5524L701.606 49.7358C703.887 53.3112 709.788 53.9205 714.581 55.1539C719.373 56.3873 724.342 60.6011 721.462 63.8909C716.269 62.5745 711.564 66.7081 708.941 70.5113C706.318 74.3145 703.121 78.8693 697.679 79.101C692.806 79.3085 686.913 76.0048 683.736 78.9545C688.125 83.3621 691.882 88.1452 694.94 93.2154C698.078 98.4205 700.313 104.979 696.072 109.662C695.404 110.498 694.392 111.123 693.209 111.43C689.745 112.128 687.495 108.754 685.01 106.709C681.88 104.132 677.146 103.402 672.907 102.194C668.668 100.985 664.202 98.6077 663.871 95.0324C663.664 92.808 665.139 90.7402 666.226 88.6843C668.052 85.2189 668.851 81.4652 668.56 77.7143C668.322 74.6967 667.259 71.5578 664.538 69.4494C661.816 67.341 657.116 66.6721 654.194 68.6032C652.831 69.5042 651.738 70.9455 649.968 70.9994C646.839 71.0947 644.437 66.752 641.92 68.2344C642.215 69.8139 641.804 71.4259 640.758 72.7884C633.247 77.9894 621.708 75.7891 612.025 77.6263C607.421 78.6755 603.012 80.2084 598.916 82.1844C597.384 82.7061 596.08 83.5774 595.169 84.6885C593.961 86.5587 595.293 88.9538 597.424 90.1973C599.683 91.3005 602.222 91.9905 604.857 92.2173C616.662 93.9974 628.639 96.753 637.959 102.79C647.279 108.827 653.39 118.806 650.441 128.08L627.161 110.369C628.046 117.805 628.548 125.262 628.667 132.74C628.817 134.199 628.566 135.668 627.929 137.042C626.269 139.961 621.771 140.943 617.83 141.587C616.733 141.753 615.694 142.102 614.778 142.61C613.863 143.119 613.094 143.776 612.52 144.538C611.947 145.3 611.582 146.15 611.451 147.032C611.319 147.915 611.423 148.809 611.757 149.657C613.157 153.291 616.649 156.125 619.846 158.948C623.044 161.772 626.19 164.981 626.608 168.768C627.027 172.554 623.439 176.823 618.675 176.56C615.065 176.36 612.386 173.786 610.845 171.178C609.305 168.57 608.389 165.665 606.075 163.449C599.07 156.742 583.338 159.616 577.063 152.466C575.464 153.91 574.355 155.656 573.841 157.538C573.328 159.42 573.427 161.375 574.129 163.218C577.048 161.763 581.044 163.114 583.237 165.229C585.431 167.343 586.465 170.053 588.188 172.428C590.512 175.632 594.211 178.472 594.535 182.163C594.449 183.559 594.479 184.958 594.623 186.35C595.2 188.587 597.574 190.192 599.22 192.062C603.05 196.412 602.861 202.387 600.392 207.322C597.923 212.257 593.488 216.381 589.095 220.38C581.422 227.363 573.592 234.305 564.495 240.105C561.899 241.76 559.129 243.387 557.512 245.7C555.896 248.014 555.813 251.261 558.297 253.021C556.52 253.092 553.332 253.788 551.554 253.859C550.929 248.181 550.793 242.476 551.147 236.784C544.133 234.102 536.58 241.284 537.485 247.438C538.39 253.592 543.98 258.53 547.96 263.854C550.871 267.747 553.034 272.287 552.062 276.751C551.09 281.215 546.085 285.333 540.416 284.94C531.399 284.313 527.627 274.007 518.698 272.827C517.91 272.68 517.084 272.745 516.348 273.013C515.022 273.592 514.792 275.004 514.718 276.206C514.352 282.108 514.036 288.244 516.929 293.684C521.162 301.644 532.097 308.329 529.803 316.778C517.446 312.205 511.022 301.172 508.105 290.574C505.188 279.976 504.702 268.85 499.473 258.831C495.502 262.883 487.157 259.534 483.529 255.283C480.089 251.253 477.972 246.591 474.635 242.507C471.298 238.423 466.187 234.766 460.074 234.541C453.664 234.306 448.106 237.808 443.218 241.116C439.198 243.837 435.071 246.665 432.721 250.426C429.302 255.899 430.197 262.351 430.032 268.462C429.854 275.069 428.095 282.04 422.44 286.876C416.784 291.713 406.345 293.398 400.107 289.038C396.85 286.763 395.274 283.363 393.869 280.099C387.099 264.367 381.46 248.34 376.981 232.097C375.933 235.804 371.844 240.583 367.938 238.399C367.061 237.812 366.351 237.083 365.855 236.261C358.569 226.429 345.076 220.532 331.443 216.996C317.81 213.46 303.466 211.81 289.984 207.924C282.429 205.746 275.213 202.884 268.478 199.395C266.761 201.403 265.758 203.744 265.576 206.169C265.394 208.594 266.04 211.014 267.444 213.17C270.434 217.387 277.202 219.826 282.995 218.352C285.988 217.591 288.516 215.936 291.487 215.119C294.457 214.302 298.444 214.703 299.743 216.981C300.986 219.162 299.107 221.801 300.039 224.078C301.459 227.546 308.029 227.813 310.326 230.969C312.035 233.317 310.629 236.436 308.188 238.33C305.748 240.225 302.491 241.264 299.512 242.583C289.846 246.863 282.972 254.169 274.524 259.853C266.076 265.537 254.157 269.687 244.089 266.041C246.489 256.365 232.014 249.262 229.351 239.63C228.474 236.46 228.928 233.093 227.677 230.003C225.865 225.53 220.881 222.455 216.792 219.065C211.833 214.909 207.969 210.004 205.429 204.64C202.889 199.276 201.724 193.561 202.004 187.833C202.224 183.852 203.143 179.807 202.004 175.927C200.865 172.047 196.83 168.291 191.831 168.467C180.412 168.869 166.026 169.545 160.035 161.795C157.897 159.029 156.966 154.977 160.058 152.858C162.239 151.363 165.458 151.504 168.322 151.728L194.051 153.743C200.068 154.215 206.573 154.604 211.737 152.099C216.901 149.594 219.138 142.946 214.357 139.999C210.863 137.846 204.604 137.962 203.588 134.539C202.742 131.688 206.706 128.453 204.565 126.07C203.03 124.361 199.579 124.835 197.488 126.116C195.397 127.397 193.88 129.27 191.539 130.24C187.434 131.941 182.528 130.322 178.111 129.222C173.694 128.121 167.773 128.028 165.63 131.294C163.234 134.947 167.756 139.734 165.378 143.394C162.234 148.234 151.587 145.479 147.172 149.641C142.105 154.418 150.619 161.541 148.911 167.643C146.729 168.504 144.305 168.899 141.875 168.79C139.444 168.681 137.091 168.072 135.044 167.023C133.031 165.933 131.427 164.429 130.402 162.671C129.377 160.913 128.97 158.966 129.224 157.038C129.647 154.293 131.444 151.491 130.24 148.897C129.266 146.799 126.621 145.551 124.163 144.469L99.1604 133.469C96.8391 136.897 99.7737 141.148 103.444 143.723C107.114 146.298 111.711 148.238 114.122 151.627C115.648 153.975 115.989 156.698 115.078 159.24C114.167 161.782 112.071 163.951 109.219 165.304C108.862 165.501 108.455 165.633 108.027 165.692C107.6 165.752 107.161 165.737 106.741 165.648C106.342 165.462 105.994 165.213 105.718 164.918C105.442 164.622 105.243 164.285 105.134 163.928C100.722 154.939 94.0988 146.077 83.5097 141.382C72.9205 136.686 57.705 137.652 50.7611 145.561C49.1118 147.44 48.0048 149.581 46.5681 151.568C38.9346 162.12 22.5699 167.117 7.28042 166.791C5.78472 166.857 4.29682 166.578 2.99449 165.989C0.523485 164.63 0.634775 161.747 1.01305 159.375L2.61797 149.309C2.94026 147.288 3.40725 145.053 5.41663 143.792C8.24908 142.013 12.3351 143.135 15.9422 143.094C18.675 142.992 21.3024 142.224 23.4682 140.893C25.634 139.562 27.2334 137.733 28.0498 135.654C28.7785 133.555 28.7738 131.337 28.0363 129.239C27.2988 127.142 25.8564 125.244 23.8646 123.751C22.2113 122.515 19.9922 120.962 20.8655 119.295C21.2139 118.834 21.685 118.44 22.2455 118.139C22.8061 117.839 23.4425 117.64 24.1101 117.556C30.5894 116.058 37.4356 115.665 43.8069 113.897C50.1781 112.13 56.3569 108.513 57.8658 103.278C58.3282 101.673 58.5387 99.7292 60.3489 98.9337C61.2572 98.6284 62.2326 98.4697 63.2185 98.4669C66.6727 98.0757 69.8178 96.6691 72.0346 94.524C74.2514 92.3789 75.3793 89.6508 75.1963 86.8768C78.2497 85.178 82.5276 86.4276 85.4816 88.2344C88.4355 90.0412 91.0434 92.4283 94.6377 93.2071C101.336 94.6587 107.809 89.9367 114.751 89.9148C117.67 89.9056 120.692 90.7274 123.439 89.9394C126.223 89.1406 127.886 86.9339 130.023 85.3037C132.159 83.6735 135.909 82.6791 137.882 84.4353L136.202 74.5262C139.585 75.2068 143.113 75.3031 146.547 74.8088C149.982 74.3144 153.244 73.2407 156.114 71.6599L134.398 65.818C133.642 65.6677 132.945 65.3707 132.368 64.9535C130.789 63.6 132.357 61.4907 133.641 59.9521C136.712 56.2713 137.228 50.2081 132.177 48.3756C128.73 47.1248 124.773 48.6262 121.464 50.0951L105.615 57.1314C105.111 59.5301 108.795 60.8896 111.078 62.5053C112.459 63.4829 113.437 64.7702 113.882 66.1982C114.328 67.6262 114.221 69.1281 113.574 70.5067C112.928 71.8852 111.773 73.0759 110.262 73.9223C108.75 74.7688 106.952 75.2314 105.104 75.2494C106.148 76.3298 106.873 77.5832 107.226 78.917C107.579 80.2507 107.551 81.6305 107.143 82.9543L96.4789 83.565C95.282 83.7567 94.0385 83.5634 93.02 83.0275C91.8795 82.221 92.0342 80.8077 91.7698 79.6115C91.1318 76.7245 87.5812 74.701 83.9576 74.1822C80.3339 73.6633 76.6269 74.3284 73.0387 74.985C71.515 75.4216 69.8419 75.3908 68.3452 74.8988C67.4869 74.4549 66.8348 73.7995 66.4883 73.0328C64.9152 69.9959 66.3856 66.4263 68.9121 63.8292C71.4387 61.2321 74.8974 59.3336 78.0037 57.1715C85.432 51.9822 90.8897 45.2423 93.7603 37.7133C99.6309 35.755 105.709 33.0941 111.579 31.1357C120.63 27.4873 130.779 25.9216 140.887 26.6146L160.768 26.917C166.654 27.0065 172.699 27.1212 178.142 28.9078C183.585 30.6945 188.367 34.5588 188.743 39.2366C188.856 39.7662 188.799 40.31 188.576 40.817C188.353 41.324 187.972 41.7776 187.468 42.1352C186.7 42.4692 185.829 42.6255 184.955 42.5863C179.465 42.7399 177.125 43.8289 171.635 43.9825Z" stroke="#BA68C8" stroke-opacity="0.3" stroke-width="0.5"/>
</svg>
