<svg width="322" height="315" viewBox="0 0 322 315" fill="none" xmlns="http://www.w3.org/2000/svg">
<path d="M173.781 24.0433C174.284 26.191 174.779 28.4525 173.894 30.5208C173.01 32.5891 170.229 34.3172 167.603 33.6835C165.565 33.1917 164.388 31.5601 162.941 30.3162C154.893 23.3987 136.736 27.4037 131.764 18.8456C129.735 15.3528 131.114 11.1683 129.73 7.4812C128.857 5.35023 127.119 3.51051 124.791 2.25094C122.462 0.99137 119.674 0.383308 116.864 0.522273C114.301 0.816974 111.807 1.40985 109.46 2.28191C93.7413 7.29416 77.2391 10.5804 60.4074 12.0502C57.2086 12.2053 54.0445 12.6637 50.9821 13.4156C44.0708 15.4105 39.3486 20.512 35.988 25.7177C32.6274 30.9234 30.1464 36.5592 25.6408 41.1841C20.9056 46.0448 14.2702 49.4485 8.08066 53.1301C5.69629 54.3536 3.71091 56.0104 2.28782 57.9641C0.945964 60.1574 1.02164 62.7087 1.1258 65.147L2.39083 94.7615C2.55354 98.5707 2.75784 102.516 4.89911 105.925C7.57298 110.181 12.8551 112.969 16.5195 116.73C20.2591 120.594 22.2072 125.368 22.0339 130.245C21.9559 132.205 21.7113 134.524 23.629 135.755C24.7955 136.358 26.1606 136.67 27.5508 136.653L77.8652 139.932C86.7159 140.509 96.5244 141.457 102.303 146.826C105.03 149.36 107.221 153.003 111.398 153.275C113.19 153.392 114.933 152.806 116.725 152.693C121.247 152.408 125.218 155.14 127.725 158.15C131.519 162.737 133.241 168.215 132.609 173.684C132.198 177.117 130.861 180.454 130.573 183.895C129.476 196.988 143.416 208.363 143.687 221.483C143.846 229.201 139.244 236.411 134.758 243.253C141.998 251.986 136.07 263.615 138.952 273.825C141.687 283.511 151.83 291.093 154.358 300.815C155.515 305.265 155.582 310.742 160.511 313.034C162.674 313.874 165.071 314.256 167.473 314.144C181.962 314.281 196.285 311.685 209.271 306.568C215.366 304.16 221.682 300.565 222.747 295.214C223.605 290.899 220.857 286.073 223.654 282.314C226.95 277.885 235.395 278.236 240.245 274.83C248.113 269.305 241.978 258.768 245.166 250.809C248.031 243.656 257.896 239.856 262.786 233.435C264.71 230.674 266.091 227.694 266.88 224.6C269.12 217.204 270.515 209.661 271.046 202.065C271.177 197.45 271.604 192.843 272.327 188.262C277.599 162.185 309.979 144.723 320.491 119.671C321.495 117.278 321.967 114.091 319.294 112.738C317.708 112.135 315.91 111.985 314.203 112.313L291.009 114.641C288.128 114.931 285.074 115.201 282.429 114.248C279.783 113.296 277.887 110.631 279.29 108.607C283.23 102.926 275.126 95.7464 271.526 89.9241C261.831 74.2468 250.285 59.339 237.045 45.4018C236.198 44.6848 235.667 43.7674 235.534 42.7885L242.116 42.963C239.894 36.6147 236.227 29.6677 228.481 27.3454C224.116 26.0369 219.282 26.4893 214.625 26.692C201.285 27.2722 186.984 25.6686 173.781 24.0433Z" fill="#F3C5FB" fill-opacity="0.1" stroke="#BA68C8" stroke-opacity="0.3" stroke-width="0.5"/>
</svg>
