<svg width="42" height="42" viewBox="0 0 42 42" fill="none" xmlns="http://www.w3.org/2000/svg">
<path d="M15.7917 15.4271V26.5729C15.7917 27.3715 16.1563 27.9792 16.8855 28.3958C17.6147 28.8125 18.3265 28.7778 19.0209 28.2917L27.6667 22.7708C28.3265 22.3542 28.6563 21.7639 28.6563 21C28.6563 20.2361 28.3265 19.6458 27.6667 19.2292L19.0209 13.7083C18.3265 13.2222 17.6147 13.1875 16.8855 13.6042C16.1563 14.0208 15.7917 14.6285 15.7917 15.4271ZM21.0001 41.8333C18.1181 41.8333 15.4098 41.2861 12.8751 40.1917C10.3404 39.0972 8.1355 37.6132 6.2605 35.7396C4.3855 33.8646 2.90147 31.6597 1.80842 29.125C0.715359 26.5903 0.168137 23.8819 0.166748 21C0.166748 18.118 0.71397 15.4097 1.80842 12.875C2.90286 10.3403 4.38689 8.13541 6.2605 6.26041C8.1355 4.38541 10.3404 2.90138 12.8751 1.80832C15.4098 0.715268 18.1181 0.168045 21.0001 0.166656C23.882 0.166656 26.5904 0.713879 29.1251 1.80832C31.6598 2.90277 33.8647 4.3868 35.7397 6.26041C37.6147 8.13541 39.0994 10.3403 40.1938 12.875C41.2883 15.4097 41.8348 18.118 41.8334 21C41.8334 23.8819 41.2862 26.5903 40.1917 29.125C39.0973 31.6597 37.6133 33.8646 35.7397 35.7396C33.8647 37.6146 31.6598 39.0993 29.1251 40.1937C26.5904 41.2882 23.882 41.8347 21.0001 41.8333Z" fill="#360040"/>
</svg>
