<svg width="24" height="17" viewBox="0 0 24 17" fill="none" xmlns="http://www.w3.org/2000/svg">
<path d="M21.4812 13.0148V13.6635C21.4812 15.5004 19.7836 17.0012 17.706 17.0012H3.77521C1.69765 17.0012 0 15.5004 0 13.6635V0.557722C0 0.249706 0.282731 0 0.631095 0H15.1226C16.5596 0 17.7328 1.03732 17.7328 2.30789V3.50062C19.799 3.51346 21.4812 5.00974 21.4812 6.83803V8.26037H23.2111C23.5594 8.26037 23.8422 8.51008 23.8422 8.8181V12.4568C23.8422 12.7651 23.5594 13.0148 23.2111 13.0148H21.4812ZM20.2194 8.26037V6.83803C20.2194 5.61712 19.0872 4.61607 17.706 4.61607H2.61053C1.98574 4.53181 1.83775 4.51256 1.26188 4.28238V13.6635C1.26188 14.8844 2.39438 15.8857 3.77521 15.8857H17.706C19.0872 15.8857 20.2194 14.8844 20.2194 13.6635V13.0148H16.8976C16.5492 13.0148 16.2668 12.7651 16.2668 12.4568V8.8181C16.2668 8.51008 16.5492 8.26037 16.8976 8.26037H20.2194ZM22.5803 9.37582C20.8962 9.37582 19.2124 9.37582 17.5284 9.37582V11.8991C19.2124 11.8991 20.8962 11.8991 22.5803 11.8991V9.37582ZM1.26188 2.30789C1.26188 2.97666 1.88224 3.48193 2.61053 3.50034H16.4713V2.30789C16.4713 1.65336 15.8629 1.11544 15.1226 1.11544H1.26188V2.30789Z" fill="white"/>
</svg>
