<svg width="49" height="12" viewBox="0 0 49 12" fill="none" xmlns="http://www.w3.org/2000/svg">
<path d="M8.7022 11H7.1062L2.3042 3.734V11H0.708203V1.256H2.3042L7.1062 8.508V1.256H8.7022V11ZM10.588 5.764C10.588 4.14933 10.8587 2.88933 11.4 1.984C11.9507 1.06933 12.8934 0.611999 14.228 0.611999C15.5627 0.611999 16.5007 1.06933 17.042 1.984C17.5927 2.88933 17.868 4.14933 17.868 5.764C17.868 7.39733 17.5927 8.676 17.042 9.6C16.5007 10.5147 15.5627 10.972 14.228 10.972C12.8934 10.972 11.9507 10.5147 11.4 9.6C10.8587 8.676 10.588 7.39733 10.588 5.764ZM16.3 5.764C16.3 5.008 16.2487 4.36867 16.146 3.846C16.0527 3.32333 15.8567 2.89867 15.558 2.572C15.2594 2.236 14.816 2.068 14.228 2.068C13.64 2.068 13.1967 2.236 12.898 2.572C12.5994 2.89867 12.3987 3.32333 12.296 3.846C12.2027 4.36867 12.156 5.008 12.156 5.764C12.156 6.548 12.2027 7.206 12.296 7.738C12.3894 8.27 12.5854 8.69933 12.884 9.026C13.192 9.35267 13.64 9.516 14.228 9.516C14.816 9.516 15.2594 9.35267 15.558 9.026C15.866 8.69933 16.0667 8.27 16.16 7.738C16.2534 7.206 16.3 6.548 16.3 5.764ZM19.5568 5.764C19.5568 4.14933 19.8275 2.88933 20.3688 1.984C20.9195 1.06933 21.8621 0.611999 23.1968 0.611999C24.5315 0.611999 25.4695 1.06933 26.0108 1.984C26.5615 2.88933 26.8368 4.14933 26.8368 5.764C26.8368 7.39733 26.5615 8.676 26.0108 9.6C25.4695 10.5147 24.5315 10.972 23.1968 10.972C21.8621 10.972 20.9195 10.5147 20.3688 9.6C19.8275 8.676 19.5568 7.39733 19.5568 5.764ZM25.2688 5.764C25.2688 5.008 25.2175 4.36867 25.1148 3.846C25.0215 3.32333 24.8255 2.89867 24.5268 2.572C24.2281 2.236 23.7848 2.068 23.1968 2.068C22.6088 2.068 22.1655 2.236 21.8668 2.572C21.5681 2.89867 21.3675 3.32333 21.2648 3.846C21.1715 4.36867 21.1248 5.008 21.1248 5.764C21.1248 6.548 21.1715 7.206 21.2648 7.738C21.3581 8.27 21.5541 8.69933 21.8528 9.026C22.1608 9.35267 22.6088 9.516 23.1968 9.516C23.7848 9.516 24.2281 9.35267 24.5268 9.026C24.8348 8.69933 25.0355 8.27 25.1288 7.738C25.2221 7.206 25.2688 6.548 25.2688 5.764ZM29.3795 11.098C29.0902 11.098 28.8475 11 28.6515 10.804C28.4555 10.608 28.3575 10.3653 28.3575 10.076C28.3575 9.78667 28.4555 9.544 28.6515 9.348C28.8475 9.152 29.0902 9.054 29.3795 9.054C29.6595 9.054 29.8975 9.152 30.0935 9.348C30.2895 9.544 30.3875 9.78667 30.3875 10.076C30.3875 10.3653 30.2895 10.608 30.0935 10.804C29.8975 11 29.6595 11.098 29.3795 11.098ZM31.9025 5.764C31.9025 4.14933 32.1732 2.88933 32.7145 1.984C33.2652 1.06933 34.2078 0.611999 35.5425 0.611999C36.8772 0.611999 37.8152 1.06933 38.3565 1.984C38.9072 2.88933 39.1825 4.14933 39.1825 5.764C39.1825 7.39733 38.9072 8.676 38.3565 9.6C37.8152 10.5147 36.8772 10.972 35.5425 10.972C34.2078 10.972 33.2652 10.5147 32.7145 9.6C32.1732 8.676 31.9025 7.39733 31.9025 5.764ZM37.6145 5.764C37.6145 5.008 37.5632 4.36867 37.4605 3.846C37.3672 3.32333 37.1712 2.89867 36.8725 2.572C36.5738 2.236 36.1305 2.068 35.5425 2.068C34.9545 2.068 34.5112 2.236 34.2125 2.572C33.9138 2.89867 33.7132 3.32333 33.6105 3.846C33.5172 4.36867 33.4705 5.008 33.4705 5.764C33.4705 6.548 33.5172 7.206 33.6105 7.738C33.7038 8.27 33.8998 8.69933 34.1985 9.026C34.5065 9.35267 34.9545 9.516 35.5425 9.516C36.1305 9.516 36.5738 9.35267 36.8725 9.026C37.1805 8.69933 37.3812 8.27 37.4745 7.738C37.5678 7.206 37.6145 6.548 37.6145 5.764ZM40.8713 5.764C40.8713 4.14933 41.1419 2.88933 41.6833 1.984C42.2339 1.06933 43.1766 0.611999 44.5113 0.611999C45.8459 0.611999 46.7839 1.06933 47.3253 1.984C47.8759 2.88933 48.1513 4.14933 48.1513 5.764C48.1513 7.39733 47.8759 8.676 47.3253 9.6C46.7839 10.5147 45.8459 10.972 44.5113 10.972C43.1766 10.972 42.2339 10.5147 41.6833 9.6C41.1419 8.676 40.8713 7.39733 40.8713 5.764ZM46.5833 5.764C46.5833 5.008 46.5319 4.36867 46.4293 3.846C46.3359 3.32333 46.1399 2.89867 45.8413 2.572C45.5426 2.236 45.0993 2.068 44.5113 2.068C43.9233 2.068 43.4799 2.236 43.1813 2.572C42.8826 2.89867 42.6819 3.32333 42.5793 3.846C42.4859 4.36867 42.4393 5.008 42.4393 5.764C42.4393 6.548 42.4859 7.206 42.5793 7.738C42.6726 8.27 42.8686 8.69933 43.1673 9.026C43.4753 9.35267 43.9233 9.516 44.5113 9.516C45.0993 9.516 45.5426 9.35267 45.8413 9.026C46.1493 8.69933 46.3499 8.27 46.4433 7.738C46.5366 7.206 46.5833 6.548 46.5833 5.764Z" fill="#8991A4"/>
</svg>
