<svg width="24" height="24" viewBox="0 0 24 24" fill="none" xmlns="http://www.w3.org/2000/svg">
<circle cx="12" cy="12" r="11" stroke="#8B4E96" stroke-width="2"/>
<path d="M8.33136 18.5828C8.15993 18.4114 8.07422 18.2084 8.07422 17.9739C8.07422 17.7394 8.15993 17.5367 8.33136 17.3657L13.3542 12.3428L8.31422 7.30284C8.15422 7.14284 8.07422 6.94284 8.07422 6.70284C8.07422 6.46284 8.15993 6.25712 8.33136 6.0857C8.50279 5.91427 8.70576 5.82855 8.94028 5.82855C9.17479 5.82855 9.37753 5.91427 9.5485 6.0857L15.3085 11.8628C15.3771 11.9314 15.4258 12.0057 15.4546 12.0857C15.4834 12.1657 15.4975 12.2514 15.4971 12.3428C15.4971 12.4343 15.4827 12.52 15.4539 12.6C15.4251 12.68 15.3766 12.7543 15.3085 12.8228L9.53136 18.6C9.37136 18.76 9.1741 18.84 8.93959 18.84C8.70508 18.84 8.50233 18.7543 8.33136 18.5828Z" fill="#8B4E96"/>
</svg>
