<svg width="20" height="20" viewBox="0 0 20 20" fill="none" xmlns="http://www.w3.org/2000/svg">
<g clip-path="url(#clip0_471_74)">
<path d="M14.5 7C14.5 5.67392 13.9732 4.40215 13.0355 3.46447C12.0979 2.52678 10.8261 2 9.5 2C8.17392 2 6.90215 2.52678 5.96447 3.46447C5.02678 4.40215 4.5 5.67392 4.5 7C4.5 12.8333 2 14.5 2 14.5H17C17 14.5 14.5 12.8333 14.5 7Z" stroke="#360040" stroke-width="1.4" stroke-linecap="round" stroke-linejoin="round"/>
<path d="M10.9417 17.8335C10.7952 18.0861 10.5849 18.2957 10.3319 18.4414C10.0789 18.5872 9.792 18.6639 9.50002 18.6639C9.20803 18.6639 8.92117 18.5872 8.66816 18.4414C8.41515 18.2957 8.20486 18.0861 8.05835 17.8335" stroke="#360040" stroke-width="1.4" stroke-linecap="round" stroke-linejoin="round"/>
<circle cx="19" cy="2" r="5" fill="#BA68C8"/>
</g>
<defs>
<clipPath id="clip0_471_74">
<rect width="20" height="20" fill="white"/>
</clipPath>
</defs>
</svg>
