<svg width="9" height="11" viewBox="0 0 9 11" fill="none" xmlns="http://www.w3.org/2000/svg">
<path d="M0.87125 5.764C0.87125 4.14933 1.14192 2.88933 1.68325 1.984C2.23392 1.06933 3.17658 0.611999 4.51125 0.611999C5.84592 0.611999 6.78392 1.06933 7.32525 1.984C7.87592 2.88933 8.15125 4.14933 8.15125 5.764C8.15125 7.39733 7.87592 8.676 7.32525 9.6C6.78392 10.5147 5.84592 10.972 4.51125 10.972C3.17658 10.972 2.23392 10.5147 1.68325 9.6C1.14192 8.676 0.87125 7.39733 0.87125 5.764ZM6.58325 5.764C6.58325 5.008 6.53192 4.36867 6.42925 3.846C6.33592 3.32333 6.13992 2.89867 5.84125 2.572C5.54258 2.236 5.09925 2.068 4.51125 2.068C3.92325 2.068 3.47992 2.236 3.18125 2.572C2.88258 2.89867 2.68192 3.32333 2.57925 3.846C2.48592 4.36867 2.43925 5.008 2.43925 5.764C2.43925 6.548 2.48592 7.206 2.57925 7.738C2.67258 8.27 2.86858 8.69933 3.16725 9.026C3.47525 9.35267 3.92325 9.516 4.51125 9.516C5.09925 9.516 5.54258 9.35267 5.84125 9.026C6.14925 8.69933 6.34992 8.27 6.44325 7.738C6.53658 7.206 6.58325 6.548 6.58325 5.764Z" fill="#8991A4"/>
</svg>
