<svg width="28" height="29" viewBox="0 0 28 29" fill="none" xmlns="http://www.w3.org/2000/svg">
<path d="M20.0001 5.33333C20.7073 5.33333 21.3856 5.05238 21.8857 4.55228C22.3858 4.05219 22.6667 3.37391 22.6667 2.66667C22.6667 1.95942 22.3858 1.28115 21.8857 0.781048C21.3856 0.280951 20.7073 0 20.0001 0C19.2928 0 18.6146 0.280951 18.1145 0.781048C17.6144 1.28115 17.3334 1.95942 17.3334 2.66667C17.3334 3.37391 17.6144 4.05219 18.1145 4.55228C18.6146 5.05238 19.2928 5.33333 20.0001 5.33333ZM15.2001 23.8667L16.5334 18L19.3334 20.6667V28.6667H22.0001V18.6667L19.2001 16L20.0001 12C20.9136 13.047 22.0407 13.8862 23.3056 14.4611C24.5705 15.0361 25.9439 15.3335 27.3334 15.3333V12.6667C24.9867 12.7067 22.8001 11.48 21.6001 9.46667L20.2667 7.33333C19.7867 6.53333 18.9334 6 18.0001 6C17.6001 6 17.3334 6.13333 16.9334 6.13333L10.0001 9.06667V15.3333H12.6667V10.8L15.0667 9.86667L12.9334 20.6667L6.40008 19.3333L5.86675 22L15.2001 23.8667ZM3.33341 10C2.97979 10 2.64065 9.85952 2.39061 9.60948C2.14056 9.35943 2.00008 9.02029 2.00008 8.66667C2.00008 8.31304 2.14056 7.97391 2.39061 7.72386C2.64065 7.47381 2.97979 7.33333 3.33341 7.33333H7.33341V10H3.33341ZM4.66675 4.66667C4.31313 4.66667 3.97399 4.52619 3.72394 4.27614C3.47389 4.02609 3.33341 3.68696 3.33341 3.33333C3.33341 2.97971 3.47389 2.64057 3.72394 2.39052C3.97399 2.14048 4.31313 2 4.66675 2H11.3334V4.66667H4.66675ZM2.00008 15.3333C1.64646 15.3333 1.30732 15.1929 1.05727 14.9428C0.807224 14.6928 0.666748 14.3536 0.666748 14C0.666748 13.6464 0.807224 13.3072 1.05727 13.0572C1.30732 12.8071 1.64646 12.6667 2.00008 12.6667H7.33341V15.3333H2.00008Z" fill="#360040"/>
</svg>
