<svg width="24" height="25" viewBox="0 0 24 25" fill="none" xmlns="http://www.w3.org/2000/svg">
<path d="M10.1375 0.403339C9.75004 0.408618 9.41694 0.745068 9.35032 1.05655L8.91485 3.46002C7.9817 3.81115 7.12062 4.29583 6.35226 4.90043L4.08276 4.02111C3.73318 3.88542 3.29631 4.03478 3.10296 4.35609L0.866964 8.01574C0.677634 8.33452 0.74814 8.78366 1.02609 9.02905L2.82662 10.6286C2.71152 11.2227 2.63399 11.8344 2.63399 12.4626C2.63399 13.0891 2.71208 13.6955 2.82662 14.2882L1.02609 15.8878C0.744094 16.134 0.673266 16.5891 0.866964 16.9094L3.10296 20.5691C3.29886 20.8875 3.73503 21.0329 4.08276 20.8957L6.35226 20.0248C7.11971 20.6282 7.98315 21.1061 8.91485 21.4568L9.35032 23.8603C9.41619 24.2263 9.76561 24.5199 10.1375 24.5218H14.4253C14.7999 24.5245 15.1545 24.229 15.2208 23.8603L15.6563 21.4568C16.588 21.1061 17.4514 20.6282 18.2189 20.0248L20.4884 20.8957C20.8342 21.0285 21.2645 20.8839 21.4598 20.5691L23.6958 16.9094C23.8915 16.5909 23.8244 16.1362 23.545 15.8878L21.7445 14.2799C21.8568 13.6872 21.9288 13.083 21.9288 12.4626C21.9288 11.8406 21.8573 11.231 21.7445 10.6369L23.545 9.02905C23.8203 8.78149 23.8871 8.33271 23.6958 8.01574L21.4598 4.35609C21.267 4.03845 20.836 3.88981 20.4884 4.02111L18.2189 4.90043C17.4505 4.29583 16.5894 3.81115 15.6563 3.46002L15.2208 1.05655C15.151 0.690794 14.7976 0.400646 14.4253 0.403339H10.1375ZM10.8158 2.01124H13.7553L14.1489 4.16348C14.2026 4.44934 14.4237 4.69728 14.7016 4.78319C15.7735 5.12014 16.7454 5.68269 17.5741 6.40784C17.7942 6.59946 18.1229 6.65649 18.3948 6.5502L20.4381 5.763L21.9706 8.28372L20.3376 9.7409C20.1206 9.93542 20.0234 10.2539 20.0948 10.5365C20.2455 11.1498 20.3209 11.7947 20.3209 12.4626C20.3209 13.1305 20.2455 13.7754 20.0948 14.3887C20.0266 14.6689 20.1235 14.9829 20.3376 15.1759L21.979 16.6415L20.4381 19.1538L18.3948 18.3666C18.1229 18.2603 17.7942 18.3173 17.5741 18.509C16.7454 19.2341 15.7735 19.7967 14.7016 20.1336C14.4237 20.2195 14.2026 20.4675 14.1489 20.7533L13.7553 22.9139H10.8158L10.4223 20.7533C10.3686 20.4675 10.1474 20.2195 9.86954 20.1336C8.79763 19.7967 7.82576 19.2341 6.99708 18.509C6.77693 18.3173 6.44822 18.2603 6.17641 18.3666L4.12465 19.1538L2.59213 16.6415L4.23353 15.1843C4.45057 14.9931 4.55093 14.6787 4.48474 14.3971C4.3315 13.7765 4.24189 13.1293 4.24189 12.4626C4.24189 11.7959 4.3315 11.1487 4.48474 10.5281C4.55415 10.2441 4.45344 9.92519 4.23353 9.7325L2.59213 8.27535L4.13304 5.763L6.17641 6.5502C6.44822 6.65649 6.77693 6.59946 6.99708 6.40784C7.82574 5.68269 8.79763 5.12014 9.86954 4.78319C10.1474 4.69728 10.3686 4.44934 10.4223 4.16348L10.8158 2.01124ZM12.2814 6.56695C9.03485 6.56695 6.38576 9.21607 6.38576 12.4626C6.38576 15.7091 9.03485 18.3582 12.2814 18.3582C15.528 18.3582 18.177 15.7091 18.177 12.4626C18.177 9.21607 15.528 6.56695 12.2814 6.56695ZM12.2814 8.17485C14.659 8.17485 16.5691 10.085 16.5691 12.4626C16.5691 14.8402 14.659 16.7503 12.2814 16.7503C9.90381 16.7503 7.99366 14.8402 7.99366 12.4626C7.99366 10.085 9.90381 8.17485 12.2814 8.17485Z" fill="white"/>
</svg>
