<svg width="90" height="90" viewBox="0 0 90 90" fill="none" xmlns="http://www.w3.org/2000/svg">
<path d="M45 90C20.187 90 0 69.813 0 45C0 20.187 20.187 0 45 0C69.813 0 90 20.187 90 45C90 69.813 69.813 90 45 90ZM45 5.14286C23.0226 5.14286 5.14286 23.0226 5.14286 45C5.14286 66.9774 23.0226 84.8571 45 84.8571C66.9774 84.8571 84.8571 66.9774 84.8571 45C84.8571 23.0226 66.9774 5.14286 45 5.14286Z" fill="#360040"/>
<path d="M40.2323 58.3595C39.585 58.3595 38.9421 58.1159 38.4484 57.6402L26.877 46.4975C25.8536 45.5127 25.8227 43.885 26.8088 42.8622C27.7931 41.8381 29.4208 41.8072 30.4442 42.794L40.4978 52.4748L62.4456 37.2436C63.6137 36.4336 65.2144 36.7235 66.0238 37.8903C66.8331 39.0571 66.5445 40.6591 65.3771 41.4685L41.6981 57.9012C41.2545 58.2085 40.7421 58.3595 40.2323 58.3595Z" fill="#360040"/>
</svg>
