<svg width="52" height="52" viewBox="0 0 52 52" fill="none" xmlns="http://www.w3.org/2000/svg">
<circle cx="26" cy="26" r="26" fill="#623CEA"/>
<path d="M37.9971 31.4912V32.3481C37.9971 34.7745 35.7978 36.7569 33.1063 36.7569H15.0588C12.3673 36.7569 10.168 34.7745 10.168 32.3481V15.0365C10.168 14.6296 10.5342 14.2998 10.9856 14.2998H29.7595C31.6211 14.2998 33.141 15.67 33.141 17.3483V18.9238C35.8178 18.9408 37.9971 20.9172 37.9971 23.3322V25.211H40.2381C40.6894 25.211 41.0557 25.5409 41.0557 25.9477V30.7542C41.0557 31.1614 40.6894 31.4912 40.2381 31.4912H37.9971ZM36.3623 25.211V23.3322C36.3623 21.7195 34.8956 20.3972 33.1063 20.3972H13.5499C12.7405 20.2859 12.5488 20.2605 11.8027 19.9565V32.3481C11.8027 33.9608 13.2699 35.2835 15.0588 35.2835H33.1063C34.8956 35.2835 36.3623 33.9608 36.3623 32.3481V31.4912H32.0589C31.6076 31.4912 31.2418 31.1614 31.2418 30.7542V25.9477C31.2418 25.5409 31.6076 25.211 32.0589 25.211H36.3623ZM39.4209 26.6844C37.2392 26.6844 35.0579 26.6844 32.8761 26.6844V30.0175C35.0579 30.0175 37.2392 30.0175 39.4209 30.0175V26.6844ZM11.8027 17.3483C11.8027 18.2317 12.6064 18.8991 13.5499 18.9234H31.5067V17.3483C31.5067 16.4837 30.7185 15.7732 29.7595 15.7732H11.8027V17.3483Z" fill="white"/>
</svg>
