<svg width="20" height="20" viewBox="0 0 20 20" fill="none" xmlns="http://www.w3.org/2000/svg">
<path d="M8.45512 5.59491C8.78726 5.92523 9.32238 5.92523 9.65453 5.59491C9.98667 5.2646 9.98667 4.73243 9.65453 4.40212L5.68726 0.456719C5.35512 0.126406 4.82 0.126406 4.48786 0.456719L0.520592 4.40212C0.188449 4.73243 0.188449 5.2646 0.520592 5.59491C0.686663 5.76007 0.908092 5.83347 1.11107 5.83347C1.31404 5.83347 1.53547 5.76007 1.70155 5.59491L4.24798 3.08087V19.0479C4.24798 19.5067 4.61702 19.8921 5.09679 19.8921C5.57655 19.8921 5.9456 19.5251 5.9456 19.0479V3.08087L8.45512 5.59491Z" fill="white"/>
<path d="M19.7268 14.3035C19.4013 13.973 18.8769 13.973 18.5515 14.3035L16.0743 16.8189V0.844573C16.0743 0.385566 15.7127 0 15.2426 0C14.7725 0 14.4108 0.367206 14.4108 0.844573V16.8189L11.9517 14.3035C11.6263 13.973 11.1019 13.973 10.7764 14.3035C10.451 14.634 10.451 15.1665 10.7764 15.4969L14.664 19.4444C14.8267 19.6096 15.0437 19.6831 15.2426 19.6831C15.4415 19.6831 15.6584 19.6096 15.8212 19.4444L19.7087 15.4969C20.0342 15.1665 20.0342 14.634 19.7268 14.3035Z" fill="white"/>
</svg>
