<svg width="1000" height="415" viewBox="0 0 1000 415" fill="none" xmlns="http://www.w3.org/2000/svg">
<path d="M500.616 26.709H500.029V122.901H500.616V26.709Z" fill="#3F3D56"/>
<path d="M571.88 35.7998H533.168V36.3863H571.88V35.7998Z" fill="#3F3D56"/>
<path d="M467.475 35.7998H428.764V36.3863H467.475V35.7998Z" fill="#3F3D56"/>
<path d="M428.885 5.56736L428.645 5.03237C443.574 -1.68347 456.691 -1.67731 467.63 5.04998L467.323 5.54974C456.559 -1.06972 443.627 -1.06356 428.885 5.56736Z" fill="#3F3D56"/>
<path d="M532.116 5.56725L531.875 5.03226C546.805 -1.68343 559.921 -1.67727 570.86 5.04988L570.553 5.54964C559.789 -1.06997 546.858 -1.0641 532.116 5.56725Z" fill="#3F3D56"/>
<path d="M448.121 35.7999C453.142 35.7999 457.212 31.7295 457.212 26.7085C457.212 21.6875 453.142 17.6172 448.121 17.6172C443.1 17.6172 439.029 21.6875 439.029 26.7085C439.029 31.7295 443.1 35.7999 448.121 35.7999Z" fill="#3F3D56"/>
<path d="M552.525 35.7999C557.546 35.7999 561.616 31.7295 561.616 26.7085C561.616 21.6875 557.546 17.6172 552.525 17.6172C547.504 17.6172 543.434 21.6875 543.434 26.7085C543.434 31.7295 547.504 35.7999 552.525 35.7999Z" fill="#3F3D56"/>
<path d="M407.943 111.464C417.337 111.464 424.953 103.848 424.953 94.4539C424.953 85.0598 417.337 77.4443 407.943 77.4443C398.549 77.4443 390.934 85.0598 390.934 94.4539C390.934 103.848 398.549 111.464 407.943 111.464Z" fill="#8B4E96"/>
<path d="M592.701 111.464C602.095 111.464 609.711 103.848 609.711 94.4539C609.711 85.0598 602.095 77.4443 592.701 77.4443C583.307 77.4443 575.691 85.0598 575.691 94.4539C575.691 103.848 583.307 111.464 592.701 111.464Z" fill="#8B4E96"/>
<path d="M503.122 181.75C501.738 181.75 500.299 181.701 498.837 181.604C495.824 181.393 492.829 180.983 489.871 180.376C465.757 175.457 448.094 158.767 447.918 158.599L448.324 158.175C448.498 158.342 466.045 174.917 489.988 179.801C492.921 180.403 495.89 180.809 498.876 181.019C500.475 181.125 502.046 181.175 503.546 181.162C506.675 181.145 509.798 180.884 512.886 180.383C527.05 178.072 540.316 170.603 552.314 158.183L552.735 158.59C540.647 171.103 527.272 178.63 512.98 180.962C509.862 181.468 506.709 181.731 503.55 181.749C503.408 181.75 503.265 181.75 503.122 181.75Z" fill="#3F3D56"/>
<path d="M407.942 111.757C403.998 111.757 400.142 110.587 396.863 108.396C393.583 106.205 391.027 103.09 389.518 99.446C388.009 95.802 387.614 91.7923 388.383 87.9238C389.153 84.0554 391.052 80.502 393.841 77.713C396.63 74.9241 400.183 73.0247 404.052 72.2553C407.92 71.4858 411.93 71.8807 415.574 73.3901C419.218 74.8995 422.332 77.4555 424.524 80.735C426.715 84.0145 427.885 87.8702 427.885 91.8144C427.879 97.1016 425.776 102.17 422.037 105.909C418.298 109.648 413.23 111.751 407.942 111.757ZM407.942 72.4586C404.114 72.4586 400.372 73.5938 397.189 75.7207C394.006 77.8475 391.525 80.8705 390.06 84.4073C388.595 87.9441 388.212 91.8359 388.958 95.5905C389.705 99.3452 391.549 102.794 394.256 105.501C396.963 108.208 400.412 110.051 404.166 110.798C407.921 111.545 411.813 111.162 415.349 109.697C418.886 108.232 421.909 105.751 424.036 102.568C426.163 99.3848 427.298 95.6426 427.298 91.8144C427.292 86.6827 425.251 81.7629 421.623 78.1342C417.994 74.5055 413.074 72.4644 407.942 72.4586Z" fill="#3F3D56"/>
<path d="M592.702 111.757C588.758 111.757 584.902 110.587 581.623 108.396C578.343 106.205 575.787 103.09 574.278 99.446C572.768 95.802 572.373 91.7923 573.143 87.9238C573.912 84.0554 575.812 80.502 578.601 77.713C581.39 74.9241 584.943 73.0247 588.812 72.2553C592.68 71.4858 596.69 71.8807 600.334 73.3901C603.978 74.8995 607.092 77.4555 609.284 80.735C611.475 84.0145 612.644 87.8702 612.644 91.8144C612.638 97.1016 610.535 102.17 606.797 105.909C603.058 109.648 597.989 111.751 592.702 111.757ZM592.702 72.4586C588.874 72.4586 585.132 73.5938 581.949 75.7207C578.766 77.8475 576.285 80.8705 574.82 84.4073C573.355 87.9441 572.971 91.8359 573.718 95.5905C574.465 99.3452 576.309 102.794 579.015 105.501C581.722 108.208 585.171 110.051 588.926 110.798C592.681 111.545 596.572 111.162 600.109 109.697C603.646 108.232 606.669 105.751 608.796 102.568C610.923 99.3848 612.058 95.6426 612.058 91.8144C612.052 86.6827 610.011 81.7629 606.382 78.1342C602.754 74.5055 597.834 72.4644 592.702 72.4586Z" fill="#3F3D56"/>
<path d="M490.938 126.713C492.396 126.713 493.578 125.532 493.578 124.074C493.578 122.616 492.396 121.435 490.938 121.435C489.481 121.435 488.299 122.616 488.299 124.074C488.299 125.532 489.481 126.713 490.938 126.713Z" fill="#3F3D56"/>
<path d="M509.706 126.713C511.164 126.713 512.345 125.532 512.345 124.074C512.345 122.616 511.164 121.435 509.706 121.435C508.248 121.435 507.066 122.616 507.066 124.074C507.066 125.532 508.248 126.713 509.706 126.713Z" fill="#3F3D56"/>
<path d="M450.172 32.8671C451.468 32.8671 452.518 31.8167 452.518 30.521C452.518 29.2252 451.468 28.1748 450.172 28.1748C448.877 28.1748 447.826 29.2252 447.826 30.521C447.826 31.8167 448.877 32.8671 450.172 32.8671Z" fill="#F2F2F2"/>
<path d="M555.457 32.8671C556.753 32.8671 557.804 31.8167 557.804 30.521C557.804 29.2252 556.753 28.1748 555.457 28.1748C554.162 28.1748 553.111 29.2252 553.111 30.521C553.111 31.8167 554.162 32.8671 555.457 32.8671Z" fill="#F2F2F2"/>
<path d="M747.454 98.8969C758.063 99.0255 766.768 90.5289 766.897 79.9193C767.026 69.3096 758.529 60.6046 747.919 60.476C737.31 60.3474 728.605 68.844 728.476 79.4536C728.348 90.0632 736.844 98.7683 747.454 98.8969Z" fill="white"/>
<path d="M748.552 81.657C752.011 81.6989 754.85 78.9284 754.892 75.4688C754.934 72.0091 752.163 69.1706 748.704 69.1287C745.244 69.0867 742.405 71.8573 742.364 75.3169C742.322 78.7765 745.092 81.6151 748.552 81.657Z" fill="#FFB8B8"/>
<path d="M754.193 71.3216C754.193 71.3216 755.862 68.2235 752.277 67.8965C752.277 67.8965 749.252 65.0846 746.106 67.3144C746.106 67.3144 744.406 67.2938 743.452 69.207C743.452 69.207 742.121 68.6835 741.81 70.0376C741.81 70.0376 740.797 72.8602 741.745 75.4231C742.693 77.986 743.015 78.2734 743.015 78.2734C743.015 78.2734 742.366 75.0994 746.285 74.8634C750.203 74.6274 753.824 72.2185 754.112 75.3404C754.401 78.4623 754.776 77.0581 754.776 77.0581C754.776 77.0581 757.929 72.6426 754.193 71.3216Z" fill="#2F2E41"/>
<path d="M761.979 92.636C758.605 96.3826 753.893 98.6521 748.861 98.9546C743.828 99.257 738.878 97.5682 735.079 94.2527L736.783 89.675C737.165 88.8629 737.761 88.1701 738.507 87.671C739.253 87.1719 740.121 86.8853 741.017 86.8419L742.066 86.7903L744.592 84.6648C744.592 84.6648 751.33 84.506 751.231 84.3896L755.281 86.8928L755.278 86.8759L756.88 86.9935C757.776 87.0584 758.636 87.3659 759.37 87.8829C760.104 88.4 760.683 89.1071 761.045 89.9284L761.979 92.636Z" fill="#8B4E96"/>
<path d="M747.45 99.1379C743.603 99.0912 739.856 97.9049 736.684 95.7288C733.511 93.5527 731.055 90.4847 729.625 86.9126C728.196 83.3406 727.858 79.4249 728.655 75.6609C729.451 71.8968 731.345 68.4535 734.099 65.7661C736.852 63.0788 740.34 61.2683 744.123 60.5635C747.905 59.8587 751.811 60.2913 755.347 61.8066C758.884 63.3219 761.891 65.8518 763.99 69.0764C766.088 72.301 767.184 76.0755 767.137 79.9226C767.069 85.0794 764.958 89.9986 761.267 93.6009C757.576 97.2033 752.607 99.1945 747.45 99.1379ZM747.916 60.7171C744.164 60.6716 740.483 61.7397 737.338 63.7863C734.193 65.8329 731.726 68.7661 730.248 72.215C728.77 75.6639 728.349 79.4735 729.036 83.1621C729.723 86.8508 731.489 90.2528 734.11 92.9379C736.731 95.623 740.089 97.4707 743.76 98.2472C747.431 99.0238 751.249 98.6943 754.733 97.3006C758.217 95.9068 761.209 93.5113 763.331 90.417C765.453 87.3227 766.61 83.6686 766.656 79.9167C766.711 74.8873 764.769 70.0413 761.256 66.442C757.743 62.8426 752.945 60.7837 747.916 60.7171Z" fill="#3F3D56"/>
<path d="M795.284 81.6937L770.818 81.3972C770.163 81.3885 769.537 81.1201 769.079 80.6508C768.621 80.1816 768.368 79.5498 768.375 78.8941L768.558 63.8256C768.567 63.17 768.835 62.5445 769.304 62.0865C769.774 61.6285 770.405 61.3753 771.061 61.3825L795.527 61.679C796.182 61.6877 796.808 61.9561 797.266 62.4254C797.724 62.8946 797.977 63.5264 797.97 64.1821L797.787 79.2506C797.778 79.9063 797.51 80.5317 797.041 80.9897C796.571 81.4477 795.94 81.7009 795.284 81.6937Z" fill="#E6E6E6"/>
<path d="M785.587 79.6352L772.562 79.4773C771.948 79.4692 771.362 79.2178 770.933 78.7784C770.504 78.3389 770.267 77.7472 770.274 77.1331L770.413 65.6325C770.421 65.0185 770.673 64.4327 771.112 64.0038C771.552 63.5748 772.144 63.3377 772.758 63.3445L793.784 63.5993C794.398 63.6074 794.984 63.8588 795.413 64.2983C795.841 64.7378 796.079 65.3294 796.072 65.9435L796.029 69.4434C795.993 72.1786 794.873 74.7878 792.916 76.6984C790.958 78.6091 788.323 79.6653 785.587 79.6352Z" fill="white"/>
<path d="M791.609 69.871L774.778 69.667C774.632 69.6652 774.493 69.6057 774.392 69.5015C774.29 69.3973 774.234 69.257 774.236 69.1114C774.237 68.9658 774.297 68.8269 774.401 68.7252C774.505 68.6235 774.646 68.5674 774.791 68.5692L791.622 68.7731C791.768 68.7749 791.907 68.8344 792.008 68.9386C792.11 69.0428 792.166 69.1831 792.164 69.3287C792.163 69.4743 792.103 69.6132 791.999 69.7149C791.895 69.8166 791.754 69.8727 791.609 69.871Z" fill="#58BC82"/>
<path d="M777.385 71.8679L774.752 71.836C774.607 71.8342 774.468 71.7747 774.366 71.6705C774.265 71.5663 774.208 71.426 774.21 71.2804C774.212 71.1348 774.271 70.9959 774.376 70.8942C774.48 70.7925 774.62 70.7363 774.766 70.7381L777.399 70.77C777.544 70.7718 777.683 70.8313 777.785 70.9355C777.886 71.0397 777.943 71.18 777.941 71.3256C777.939 71.4712 777.88 71.6101 777.775 71.7118C777.671 71.8135 777.531 71.8697 777.385 71.8679Z" fill="#58BC82"/>
<path d="M782.022 74.0933L774.726 74.0049C774.581 74.0029 774.442 73.9432 774.34 73.839C774.239 73.7349 774.183 73.5947 774.185 73.4493C774.187 73.3039 774.246 73.1652 774.35 73.0635C774.454 72.9619 774.594 72.9056 774.739 72.907L782.035 72.9955C782.181 72.9972 782.32 73.0567 782.421 73.1609C782.523 73.2651 782.579 73.4055 782.577 73.5511C782.576 73.6966 782.516 73.8356 782.412 73.9373C782.308 74.039 782.167 74.0951 782.022 74.0933Z" fill="#58BC82"/>
<path d="M767.456 84.2661C770.315 84.3008 772.66 82.0117 772.694 79.1534C772.729 76.2951 770.44 73.9499 767.582 73.9153C764.723 73.8806 762.378 76.1697 762.344 79.028C762.309 81.8863 764.598 84.2315 767.456 84.2661Z" fill="#3F3D56"/>
<path d="M1000 414H0V415H1000V414Z" fill="#3F3D56"/>
<path d="M739.128 113.18C738.584 113.18 738.112 113.096 737.712 112.928C737.312 112.76 736.984 112.532 736.728 112.244C736.472 111.948 736.28 111.6 736.152 111.2C736.032 110.8 735.972 110.368 735.972 109.904V104.684H737.136V109.772C737.136 110.604 737.32 111.208 737.688 111.584C738.056 111.96 738.536 112.148 739.128 112.148C739.424 112.148 739.692 112.104 739.932 112.016C740.18 111.92 740.392 111.776 740.568 111.584C740.744 111.392 740.88 111.148 740.976 110.852C741.072 110.548 741.12 110.188 741.12 109.772V104.684H742.284V109.904C742.284 110.368 742.22 110.8 742.092 111.2C741.972 111.6 741.78 111.948 741.516 112.244C741.26 112.532 740.932 112.76 740.532 112.928C740.14 113.096 739.672 113.18 739.128 113.18ZM745.338 107.036C745.474 106.948 745.678 106.856 745.95 106.76C746.23 106.664 746.55 106.616 746.91 106.616C747.358 106.616 747.754 106.696 748.098 106.856C748.45 107.016 748.746 107.24 748.986 107.528C749.226 107.816 749.406 108.16 749.526 108.56C749.654 108.96 749.718 109.4 749.718 109.88C749.718 110.384 749.642 110.84 749.49 111.248C749.346 111.648 749.138 111.988 748.866 112.268C748.594 112.548 748.266 112.764 747.882 112.916C747.498 113.068 747.066 113.144 746.586 113.144C746.066 113.144 745.606 113.108 745.206 113.036C744.806 112.964 744.478 112.892 744.222 112.82V103.88L745.338 103.688V107.036ZM745.338 112.028C745.45 112.06 745.606 112.092 745.806 112.124C746.014 112.148 746.27 112.16 746.574 112.16C747.174 112.16 747.654 111.964 748.014 111.572C748.374 111.172 748.554 110.608 748.554 109.88C748.554 109.56 748.522 109.26 748.458 108.98C748.394 108.7 748.29 108.46 748.146 108.26C748.002 108.052 747.814 107.892 747.582 107.78C747.358 107.66 747.086 107.6 746.766 107.6C746.462 107.6 746.182 107.652 745.926 107.756C745.67 107.86 745.474 107.968 745.338 108.08V112.028ZM753.4 112.196C753.664 112.196 753.896 112.192 754.096 112.184C754.304 112.168 754.476 112.144 754.612 112.112V110.252C754.532 110.212 754.4 110.18 754.216 110.156C754.04 110.124 753.824 110.108 753.568 110.108C753.4 110.108 753.22 110.12 753.028 110.144C752.844 110.168 752.672 110.22 752.512 110.3C752.36 110.372 752.232 110.476 752.128 110.612C752.024 110.74 751.972 110.912 751.972 111.128C751.972 111.528 752.1 111.808 752.356 111.968C752.612 112.12 752.96 112.196 753.4 112.196ZM753.304 106.604C753.752 106.604 754.128 106.664 754.432 106.784C754.744 106.896 754.992 107.06 755.176 107.276C755.368 107.484 755.504 107.736 755.584 108.032C755.664 108.32 755.704 108.64 755.704 108.992V112.892C755.608 112.908 755.472 112.932 755.296 112.964C755.128 112.988 754.936 113.012 754.72 113.036C754.504 113.06 754.268 113.08 754.012 113.096C753.764 113.12 753.516 113.132 753.268 113.132C752.916 113.132 752.592 113.096 752.296 113.024C752 112.952 751.744 112.84 751.528 112.688C751.312 112.528 751.144 112.32 751.024 112.064C750.904 111.808 750.844 111.5 750.844 111.14C750.844 110.796 750.912 110.5 751.048 110.252C751.192 110.004 751.384 109.804 751.624 109.652C751.864 109.5 752.144 109.388 752.464 109.316C752.784 109.244 753.12 109.208 753.472 109.208C753.584 109.208 753.7 109.216 753.82 109.232C753.94 109.24 754.052 109.256 754.156 109.28C754.268 109.296 754.364 109.312 754.444 109.328C754.524 109.344 754.58 109.356 754.612 109.364V109.052C754.612 108.868 754.592 108.688 754.552 108.512C754.512 108.328 754.44 108.168 754.336 108.032C754.232 107.888 754.088 107.776 753.904 107.696C753.728 107.608 753.496 107.564 753.208 107.564C752.84 107.564 752.516 107.592 752.236 107.648C751.964 107.696 751.76 107.748 751.624 107.804L751.492 106.88C751.636 106.816 751.876 106.756 752.212 106.7C752.548 106.636 752.912 106.604 753.304 106.604Z" fill="black"/>
<path d="M228.714 58.2959L228.475 51.6322C225.401 49.9548 221.964 49.0531 218.463 49.0054C223.248 52.9873 222.58 60.5775 225.802 65.9044C226.819 67.5581 228.196 68.9616 229.83 70.011C231.463 71.0604 233.312 71.7286 235.239 71.9663L239.251 74.4705C239.831 71.3901 239.736 68.2206 238.974 65.1804C238.211 62.1401 236.798 59.3014 234.832 56.8597C233.716 55.5009 232.433 54.288 231.014 53.2498C230.026 55.7883 228.714 58.2959 228.714 58.2959Z" fill="#F2F2F2"/>
<path d="M241.578 94.173C252.199 94.5552 261.119 86.2548 261.502 75.6335C261.884 65.0121 253.583 56.092 242.962 55.7097C232.341 55.3275 223.421 63.6279 223.038 74.2492C222.656 84.8706 230.957 93.7907 241.578 94.173Z" fill="white"/>
<path d="M233.582 68.3653C234.469 65.8596 236.361 63.6003 238.893 62.8335C241.424 62.0668 245.04 63.5037 246.852 65.4452C250.168 68.9967 250.584 80.8023 248.087 84.4384C247.618 84.3966 245.997 84.3199 245.522 84.2849L244.93 82.0179L244.85 84.2386C244.093 84.1879 243.329 84.1443 242.56 84.1076C239.981 83.9828 237.55 82.8626 235.779 80.9828C234.008 79.1029 233.035 76.6097 233.065 74.0273C233.092 71.5568 233.233 69.3528 233.582 68.3653Z" fill="#2F2E41"/>
<path d="M241.909 77.075C244.936 77.184 247.478 74.8184 247.587 71.7914C247.696 68.7644 245.33 66.2222 242.303 66.1133C239.276 66.0043 236.734 68.3699 236.625 71.3969C236.516 74.4239 238.882 76.9661 241.909 77.075Z" fill="#9E616A"/>
<path d="M237.548 66.6101L243.973 63.6773C245.242 64.3051 246.32 65.2611 247.096 66.446C247.871 67.631 248.315 69.0018 248.382 70.4162L248.472 72.306L245.853 71.5382L245.65 69.1186L245.122 71.3237L243.913 70.9695L244.059 67.2296L242.705 70.9234L238.385 69.7659L237.548 66.6101Z" fill="#2F2E41"/>
<path d="M256.085 88.1821C252.616 91.8533 247.844 94.0134 242.796 94.196C237.749 94.3787 232.833 92.5692 229.108 89.1583L230.924 84.6149C231.326 83.8108 231.939 83.1313 232.698 82.6494C233.457 82.1674 234.333 81.9011 235.232 81.8791L236.284 81.8524L238.863 79.7844C238.863 79.7844 245.614 79.7863 245.519 79.6674L249.514 82.2709L249.511 82.2538L251.113 82.4099C252.008 82.4963 252.863 82.8247 253.585 83.3601C254.308 83.8954 254.871 84.6173 255.214 85.4483L256.085 88.1821Z" fill="#8B4E96"/>
<path d="M241.569 94.4144C237.718 94.2758 233.994 92.9983 230.869 90.7434C227.743 88.4884 225.357 85.3574 224.011 81.7462C222.666 78.1351 222.421 74.2059 223.308 70.4557C224.195 66.7054 226.175 63.3025 228.996 60.6772C231.817 58.0519 235.354 56.3222 239.158 55.7068C242.963 55.0914 246.864 55.6179 250.369 57.2198C253.874 58.8217 256.826 61.427 258.85 64.7062C260.874 67.9855 261.881 71.7914 261.742 75.6427C261.551 80.8051 259.319 85.6807 255.537 89.1999C251.755 92.719 246.732 94.5944 241.569 94.4144ZM242.953 55.9512C239.197 55.816 235.485 56.7977 232.287 58.772C229.089 60.7463 226.548 63.6247 224.986 67.043C223.424 70.4614 222.91 74.2663 223.511 77.9765C224.111 81.6867 225.798 85.1356 228.358 87.8871C230.918 90.6385 234.237 92.569 237.895 93.4344C241.552 94.2997 245.384 94.061 248.906 92.7486C252.428 91.4361 255.481 89.1087 257.68 86.0608C259.879 83.0129 261.125 79.3814 261.26 75.6254C261.436 70.5903 259.607 65.6911 256.175 62.0028C252.743 58.3145 247.988 56.1381 242.953 55.9512L242.953 55.9512Z" fill="#3F3D56"/>
<path d="M269.804 115.48L245.311 114.599C244.655 114.574 244.035 114.29 243.588 113.81C243.14 113.329 242.902 112.69 242.925 112.034L243.468 96.9485C243.492 96.2921 243.776 95.6722 244.256 95.2248C244.737 94.7773 245.376 94.5389 246.032 94.5618L270.525 95.4432C271.181 95.4676 271.801 95.7513 272.249 96.2322C272.696 96.713 272.935 97.3517 272.912 98.0081L272.369 113.093C272.344 113.75 272.061 114.37 271.58 114.817C271.099 115.264 270.46 115.503 269.804 115.48Z" fill="#E6E6E6"/>
<path d="M260.142 113.187L247.103 112.717C246.488 112.695 245.907 112.429 245.488 111.979C245.069 111.528 244.846 110.93 244.867 110.315L245.282 98.8021C245.305 98.1874 245.57 97.6068 246.021 97.1877C246.471 96.7687 247.069 96.5454 247.684 96.5669L268.733 97.3244C269.348 97.3472 269.929 97.6129 270.348 98.0633C270.767 98.5136 270.99 99.1118 270.969 99.7265L270.842 103.23C270.741 105.968 269.557 108.554 267.551 110.421C265.545 112.288 262.881 113.282 260.142 113.187Z" fill="white"/>
<path d="M266.407 103.553L249.557 102.947C249.411 102.942 249.273 102.879 249.174 102.772C249.075 102.665 249.022 102.523 249.027 102.378C249.032 102.232 249.095 102.094 249.202 101.995C249.309 101.896 249.451 101.843 249.596 101.848L266.446 102.454C266.592 102.46 266.729 102.522 266.829 102.629C266.928 102.736 266.981 102.878 266.976 103.024C266.971 103.169 266.908 103.307 266.801 103.406C266.694 103.506 266.552 103.559 266.407 103.553Z" fill="#8B4E96"/>
<path d="M252.114 105.213L249.479 105.118C249.333 105.113 249.195 105.05 249.096 104.943C248.997 104.836 248.944 104.694 248.949 104.549C248.954 104.403 249.017 104.265 249.124 104.166C249.231 104.066 249.373 104.014 249.518 104.019L252.154 104.114C252.3 104.119 252.437 104.182 252.537 104.289C252.636 104.395 252.689 104.537 252.684 104.683C252.679 104.829 252.616 104.966 252.509 105.066C252.402 105.165 252.26 105.218 252.114 105.213Z" fill="#8B4E96"/>
<path d="M256.703 107.553L249.399 107.29C249.254 107.284 249.117 107.221 249.017 107.114C248.918 107.008 248.866 106.866 248.871 106.72C248.876 106.575 248.939 106.437 249.045 106.338C249.152 106.239 249.293 106.186 249.439 106.191L256.743 106.453C256.888 106.459 257.026 106.522 257.125 106.629C257.224 106.736 257.277 106.877 257.272 107.023C257.266 107.168 257.204 107.306 257.097 107.405C256.991 107.505 256.849 107.558 256.703 107.553Z" fill="#8B4E96"/>
<path d="M242.525 99.3222C245.386 99.4252 247.79 97.189 247.893 94.3275C247.996 91.466 245.759 89.0629 242.898 88.9599C240.036 88.8569 237.633 91.0931 237.53 93.9546C237.427 96.816 239.664 99.2192 242.525 99.3222Z" fill="#3F3D56"/>
<path d="M205.964 107.653C207.18 107.653 207.788 107.237 207.788 106.405C207.788 106.149 207.732 105.933 207.62 105.757C207.516 105.573 207.372 105.417 207.188 105.289C207.004 105.153 206.792 105.037 206.552 104.941C206.32 104.845 206.072 104.749 205.808 104.653C205.504 104.549 205.216 104.433 204.944 104.305C204.672 104.169 204.436 104.013 204.236 103.837C204.036 103.653 203.876 103.437 203.756 103.189C203.644 102.941 203.588 102.641 203.588 102.289C203.588 101.561 203.836 100.993 204.332 100.585C204.828 100.177 205.512 99.9734 206.384 99.9734C206.888 99.9734 207.344 100.029 207.752 100.141C208.168 100.245 208.472 100.361 208.664 100.489L208.292 101.437C208.124 101.333 207.872 101.233 207.536 101.137C207.208 101.033 206.824 100.981 206.384 100.981C206.16 100.981 205.952 101.005 205.76 101.053C205.568 101.101 205.4 101.173 205.256 101.269C205.112 101.365 204.996 101.489 204.908 101.641C204.828 101.785 204.788 101.957 204.788 102.157C204.788 102.381 204.832 102.569 204.92 102.721C205.008 102.873 205.132 103.009 205.292 103.129C205.452 103.241 205.636 103.345 205.844 103.441C206.06 103.537 206.296 103.633 206.552 103.729C206.912 103.873 207.24 104.017 207.536 104.161C207.84 104.305 208.1 104.477 208.316 104.677C208.54 104.877 208.712 105.117 208.832 105.397C208.952 105.669 209.012 106.001 209.012 106.393C209.012 107.121 208.744 107.681 208.208 108.073C207.68 108.465 206.932 108.661 205.964 108.661C205.636 108.661 205.332 108.637 205.052 108.589C204.78 108.549 204.536 108.501 204.32 108.445C204.104 108.381 203.916 108.317 203.756 108.253C203.604 108.181 203.484 108.121 203.396 108.073L203.744 107.113C203.928 107.217 204.208 107.333 204.584 107.461C204.96 107.589 205.42 107.653 205.964 107.653ZM211.391 102.241H213.755V103.177H211.391V106.057C211.391 106.369 211.415 106.629 211.463 106.837C211.511 107.037 211.583 107.197 211.679 107.317C211.775 107.429 211.895 107.509 212.039 107.557C212.183 107.605 212.351 107.629 212.543 107.629C212.879 107.629 213.147 107.593 213.347 107.521C213.555 107.441 213.699 107.385 213.779 107.353L213.995 108.277C213.883 108.333 213.687 108.401 213.407 108.481C213.127 108.569 212.807 108.613 212.447 108.613C212.023 108.613 211.671 108.561 211.391 108.457C211.119 108.345 210.899 108.181 210.731 107.965C210.563 107.749 210.443 107.485 210.371 107.173C210.307 106.853 210.275 106.485 210.275 106.069V100.501L211.391 100.309V102.241ZM214.71 105.373C214.71 104.821 214.79 104.341 214.95 103.933C215.11 103.517 215.322 103.173 215.586 102.901C215.85 102.629 216.154 102.425 216.498 102.289C216.842 102.153 217.194 102.085 217.554 102.085C218.394 102.085 219.038 102.349 219.486 102.877C219.934 103.397 220.158 104.193 220.158 105.265C220.158 105.313 220.158 105.377 220.158 105.457C220.158 105.529 220.154 105.597 220.146 105.661H215.874C215.922 106.309 216.11 106.801 216.438 107.137C216.766 107.473 217.278 107.641 217.974 107.641C218.366 107.641 218.694 107.609 218.958 107.545C219.23 107.473 219.434 107.405 219.57 107.341L219.726 108.277C219.59 108.349 219.35 108.425 219.006 108.505C218.67 108.585 218.286 108.625 217.854 108.625C217.31 108.625 216.838 108.545 216.438 108.385C216.046 108.217 215.722 107.989 215.466 107.701C215.21 107.413 215.018 107.073 214.89 106.681C214.77 106.281 214.71 105.845 214.71 105.373ZM218.994 104.761C219.002 104.257 218.874 103.845 218.61 103.525C218.354 103.197 217.998 103.033 217.542 103.033C217.286 103.033 217.058 103.085 216.858 103.189C216.666 103.285 216.502 103.413 216.366 103.573C216.23 103.733 216.122 103.917 216.042 104.125C215.97 104.333 215.922 104.545 215.898 104.761H218.994ZM226.093 105.373C226.093 104.645 225.913 104.085 225.553 103.693C225.193 103.301 224.713 103.105 224.113 103.105C223.777 103.105 223.513 103.117 223.321 103.141C223.137 103.165 222.989 103.193 222.877 103.225V107.161C223.013 107.273 223.209 107.381 223.465 107.485C223.721 107.589 224.001 107.641 224.305 107.641C224.625 107.641 224.897 107.585 225.121 107.473C225.353 107.353 225.541 107.193 225.685 106.993C225.829 106.785 225.933 106.545 225.997 106.273C226.061 105.993 226.093 105.693 226.093 105.373ZM227.257 105.373C227.257 105.845 227.193 106.281 227.065 106.681C226.945 107.081 226.765 107.425 226.525 107.713C226.285 108.001 225.989 108.225 225.637 108.385C225.293 108.545 224.897 108.625 224.449 108.625C224.089 108.625 223.769 108.577 223.489 108.481C223.217 108.385 223.013 108.293 222.877 108.205V110.701H221.761V102.433C222.025 102.369 222.353 102.301 222.745 102.229C223.145 102.149 223.605 102.109 224.125 102.109C224.605 102.109 225.037 102.185 225.421 102.337C225.805 102.489 226.133 102.705 226.405 102.985C226.677 103.265 226.885 103.609 227.029 104.017C227.181 104.417 227.257 104.869 227.257 105.373ZM228.827 108.481V99.3614L229.943 99.1694V102.361C230.151 102.281 230.371 102.221 230.603 102.181C230.843 102.133 231.079 102.109 231.311 102.109C231.807 102.109 232.219 102.181 232.547 102.325C232.875 102.461 233.135 102.657 233.327 102.913C233.527 103.161 233.667 103.461 233.747 103.813C233.827 104.165 233.867 104.553 233.867 104.977V108.481H232.751V105.217C232.751 104.833 232.723 104.505 232.667 104.233C232.619 103.961 232.535 103.741 232.415 103.573C232.295 103.405 232.135 103.285 231.935 103.213C231.735 103.133 231.487 103.093 231.191 103.093C231.071 103.093 230.947 103.101 230.819 103.117C230.691 103.133 230.567 103.153 230.447 103.177C230.335 103.193 230.231 103.213 230.135 103.237C230.047 103.261 229.983 103.281 229.943 103.297V108.481H228.827Z" fill="black"/>
<path d="M239.052 241.454V254H237.414V248.312H231.024V254H229.386V241.454H231.024V246.962H237.414V241.454H239.052ZM243.235 242.534C242.923 242.534 242.659 242.426 242.443 242.21C242.227 241.994 242.119 241.73 242.119 241.418C242.119 241.106 242.227 240.842 242.443 240.626C242.659 240.41 242.923 240.302 243.235 240.302C243.535 240.302 243.787 240.41 243.991 240.626C244.207 240.842 244.315 241.106 244.315 241.418C244.315 241.73 244.207 241.994 243.991 242.21C243.787 242.426 243.535 242.534 243.235 242.534ZM244.027 244.136V254H242.389V244.136H244.027ZM249.051 251.732L247.035 256.574H245.937L247.251 251.732H249.051ZM258.444 241.454V254H256.806V241.454H258.444ZM266.502 249.032C266.502 248.024 266.706 247.142 267.114 246.386C267.522 245.618 268.08 245.024 268.788 244.604C269.508 244.184 270.306 243.974 271.182 243.974C272.046 243.974 272.796 244.16 273.432 244.532C274.068 244.904 274.542 245.372 274.854 245.936V244.136H276.51V254H274.854V252.164C274.53 252.74 274.044 253.22 273.396 253.604C272.76 253.976 272.016 254.162 271.164 254.162C270.288 254.162 269.496 253.946 268.788 253.514C268.08 253.082 267.522 252.476 267.114 251.696C266.706 250.916 266.502 250.028 266.502 249.032ZM274.854 249.05C274.854 248.306 274.704 247.658 274.404 247.106C274.104 246.554 273.696 246.134 273.18 245.846C272.676 245.546 272.118 245.396 271.506 245.396C270.894 245.396 270.336 245.54 269.832 245.828C269.328 246.116 268.926 246.536 268.626 247.088C268.326 247.64 268.176 248.288 268.176 249.032C268.176 249.788 268.326 250.448 268.626 251.012C268.926 251.564 269.328 251.99 269.832 252.29C270.336 252.578 270.894 252.722 271.506 252.722C272.118 252.722 272.676 252.578 273.18 252.29C273.696 251.99 274.104 251.564 274.404 251.012C274.704 250.448 274.854 249.794 274.854 249.05ZM291.68 243.956C292.448 243.956 293.132 244.118 293.732 244.442C294.332 244.754 294.806 245.228 295.154 245.864C295.502 246.5 295.676 247.274 295.676 248.186V254H294.056V248.42C294.056 247.436 293.81 246.686 293.318 246.17C292.838 245.642 292.184 245.378 291.356 245.378C290.504 245.378 289.826 245.654 289.322 246.206C288.818 246.746 288.566 247.532 288.566 248.564V254H286.946V248.42C286.946 247.436 286.7 246.686 286.208 246.17C285.728 245.642 285.074 245.378 284.246 245.378C283.394 245.378 282.716 245.654 282.212 246.206C281.708 246.746 281.456 247.532 281.456 248.564V254H279.818V244.136H281.456V245.558C281.78 245.042 282.212 244.646 282.752 244.37C283.304 244.094 283.91 243.956 284.57 243.956C285.398 243.956 286.13 244.142 286.766 244.514C287.402 244.886 287.876 245.432 288.188 246.152C288.464 245.456 288.92 244.916 289.556 244.532C290.192 244.148 290.9 243.956 291.68 243.956ZM308.256 245.486H306.186V254H304.548V245.486H303.27V244.136H304.548V243.434C304.548 242.33 304.83 241.526 305.394 241.022C305.97 240.506 306.888 240.248 308.148 240.248V241.616C307.428 241.616 306.918 241.76 306.618 242.048C306.33 242.324 306.186 242.786 306.186 243.434V244.136H308.256V245.486ZM315.008 254.162C314.084 254.162 313.244 253.952 312.488 253.532C311.744 253.112 311.156 252.518 310.724 251.75C310.304 250.97 310.094 250.07 310.094 249.05C310.094 248.042 310.31 247.154 310.742 246.386C311.186 245.606 311.786 245.012 312.542 244.604C313.298 244.184 314.144 243.974 315.08 243.974C316.016 243.974 316.862 244.184 317.618 244.604C318.374 245.012 318.968 245.6 319.4 246.368C319.844 247.136 320.066 248.03 320.066 249.05C320.066 250.07 319.838 250.97 319.382 251.75C318.938 252.518 318.332 253.112 317.564 253.532C316.796 253.952 315.944 254.162 315.008 254.162ZM315.008 252.722C315.596 252.722 316.148 252.584 316.664 252.308C317.18 252.032 317.594 251.618 317.906 251.066C318.23 250.514 318.392 249.842 318.392 249.05C318.392 248.258 318.236 247.586 317.924 247.034C317.612 246.482 317.204 246.074 316.7 245.81C316.196 245.534 315.65 245.396 315.062 245.396C314.462 245.396 313.91 245.534 313.406 245.81C312.914 246.074 312.518 246.482 312.218 247.034C311.918 247.586 311.768 248.258 311.768 249.05C311.768 249.854 311.912 250.532 312.2 251.084C312.5 251.636 312.896 252.05 313.388 252.326C313.88 252.59 314.42 252.722 315.008 252.722ZM324.398 245.738C324.686 245.174 325.094 244.736 325.622 244.424C326.162 244.112 326.816 243.956 327.584 243.956V245.648H327.152C325.316 245.648 324.398 246.644 324.398 248.636V254H322.76V244.136H324.398V245.738ZM332.012 245.486V251.3C332.012 251.78 332.114 252.122 332.318 252.326C332.522 252.518 332.876 252.614 333.38 252.614H334.586V254H333.11C332.198 254 331.514 253.79 331.058 253.37C330.602 252.95 330.374 252.26 330.374 251.3V245.486H329.096V244.136H330.374V241.652H332.012V244.136H334.586V245.486H332.012ZM345.607 244.136L339.667 258.644H337.975L339.919 253.892L335.941 244.136H337.759L340.855 252.128L343.915 244.136H345.607ZM351.808 245.486H349.738V254H348.1V245.486H346.822V244.136H348.1V243.434C348.1 242.33 348.382 241.526 348.946 241.022C349.522 240.506 350.44 240.248 351.7 240.248V241.616C350.98 241.616 350.47 241.76 350.17 242.048C349.882 242.324 349.738 242.786 349.738 243.434V244.136H351.808V245.486ZM355.103 242.534C354.791 242.534 354.527 242.426 354.311 242.21C354.095 241.994 353.987 241.73 353.987 241.418C353.987 241.106 354.095 240.842 354.311 240.626C354.527 240.41 354.791 240.302 355.103 240.302C355.403 240.302 355.655 240.41 355.859 240.626C356.075 240.842 356.183 241.106 356.183 241.418C356.183 241.73 356.075 241.994 355.859 242.21C355.655 242.426 355.403 242.534 355.103 242.534ZM355.895 244.136V254H354.257V244.136H355.895ZM359.479 241.454H361.297L359.569 245.54H358.417L359.479 241.454ZM367.197 254.162C366.441 254.162 365.763 254.036 365.163 253.784C364.563 253.52 364.089 253.16 363.741 252.704C363.393 252.236 363.201 251.702 363.165 251.102H364.857C364.905 251.594 365.133 251.996 365.541 252.308C365.961 252.62 366.507 252.776 367.179 252.776C367.803 252.776 368.295 252.638 368.655 252.362C369.015 252.086 369.195 251.738 369.195 251.318C369.195 250.886 369.003 250.568 368.619 250.364C368.235 250.148 367.641 249.938 366.837 249.734C366.105 249.542 365.505 249.35 365.037 249.158C364.581 248.954 364.185 248.66 363.849 248.276C363.525 247.88 363.363 247.364 363.363 246.728C363.363 246.224 363.513 245.762 363.813 245.342C364.113 244.922 364.539 244.592 365.091 244.352C365.643 244.1 366.273 243.974 366.981 243.974C368.073 243.974 368.955 244.25 369.627 244.802C370.299 245.354 370.659 246.11 370.707 247.07H369.069C369.033 246.554 368.823 246.14 368.439 245.828C368.067 245.516 367.563 245.36 366.927 245.36C366.339 245.36 365.871 245.486 365.523 245.738C365.175 245.99 365.001 246.32 365.001 246.728C365.001 247.052 365.103 247.322 365.307 247.538C365.523 247.742 365.787 247.91 366.099 248.042C366.423 248.162 366.867 248.3 367.431 248.456C368.139 248.648 368.715 248.84 369.159 249.032C369.603 249.212 369.981 249.488 370.293 249.86C370.617 250.232 370.785 250.718 370.797 251.318C370.797 251.858 370.647 252.344 370.347 252.776C370.047 253.208 369.621 253.55 369.069 253.802C368.529 254.042 367.905 254.162 367.197 254.162ZM382.48 254.162C381.724 254.162 381.046 254.036 380.446 253.784C379.846 253.52 379.372 253.16 379.024 252.704C378.676 252.236 378.484 251.702 378.448 251.102H380.14C380.188 251.594 380.416 251.996 380.824 252.308C381.244 252.62 381.79 252.776 382.462 252.776C383.086 252.776 383.578 252.638 383.938 252.362C384.298 252.086 384.478 251.738 384.478 251.318C384.478 250.886 384.286 250.568 383.902 250.364C383.518 250.148 382.924 249.938 382.12 249.734C381.388 249.542 380.788 249.35 380.32 249.158C379.864 248.954 379.468 248.66 379.132 248.276C378.808 247.88 378.646 247.364 378.646 246.728C378.646 246.224 378.796 245.762 379.096 245.342C379.396 244.922 379.822 244.592 380.374 244.352C380.926 244.1 381.556 243.974 382.264 243.974C383.356 243.974 384.238 244.25 384.91 244.802C385.582 245.354 385.942 246.11 385.99 247.07H384.352C384.316 246.554 384.106 246.14 383.722 245.828C383.35 245.516 382.846 245.36 382.21 245.36C381.622 245.36 381.154 245.486 380.806 245.738C380.458 245.99 380.284 246.32 380.284 246.728C380.284 247.052 380.386 247.322 380.59 247.538C380.806 247.742 381.07 247.91 381.382 248.042C381.706 248.162 382.15 248.3 382.714 248.456C383.422 248.648 383.998 248.84 384.442 249.032C384.886 249.212 385.264 249.488 385.576 249.86C385.9 250.232 386.068 250.718 386.08 251.318C386.08 251.858 385.93 252.344 385.63 252.776C385.33 253.208 384.904 253.55 384.352 253.802C383.812 254.042 383.188 254.162 382.48 254.162ZM397.68 244.136V254H396.042V252.542C395.73 253.046 395.292 253.442 394.728 253.73C394.176 254.006 393.564 254.144 392.892 254.144C392.124 254.144 391.434 253.988 390.822 253.676C390.21 253.352 389.724 252.872 389.364 252.236C389.016 251.6 388.842 250.826 388.842 249.914V244.136H390.462V249.698C390.462 250.67 390.708 251.42 391.2 251.948C391.692 252.464 392.364 252.722 393.216 252.722C394.092 252.722 394.782 252.452 395.286 251.912C395.79 251.372 396.042 250.586 396.042 249.554V244.136H397.68ZM402.624 245.954C402.948 245.39 403.428 244.922 404.064 244.55C404.712 244.166 405.462 243.974 406.314 243.974C407.19 243.974 407.982 244.184 408.69 244.604C409.41 245.024 409.974 245.618 410.382 246.386C410.79 247.142 410.994 248.024 410.994 249.032C410.994 250.028 410.79 250.916 410.382 251.696C409.974 252.476 409.41 253.082 408.69 253.514C407.982 253.946 407.19 254.162 406.314 254.162C405.474 254.162 404.73 253.976 404.082 253.604C403.446 253.22 402.96 252.746 402.624 252.182V258.68H400.986V244.136H402.624V245.954ZM409.32 249.032C409.32 248.288 409.17 247.64 408.87 247.088C408.57 246.536 408.162 246.116 407.646 245.828C407.142 245.54 406.584 245.396 405.972 245.396C405.372 245.396 404.814 245.546 404.298 245.846C403.794 246.134 403.386 246.56 403.074 247.124C402.774 247.676 402.624 248.318 402.624 249.05C402.624 249.794 402.774 250.448 403.074 251.012C403.386 251.564 403.794 251.99 404.298 252.29C404.814 252.578 405.372 252.722 405.972 252.722C406.584 252.722 407.142 252.578 407.646 252.29C408.162 251.99 408.57 251.564 408.87 251.012C409.17 250.448 409.32 249.788 409.32 249.032ZM415.328 245.954C415.652 245.39 416.132 244.922 416.768 244.55C417.416 244.166 418.166 243.974 419.018 243.974C419.894 243.974 420.686 244.184 421.394 244.604C422.114 245.024 422.678 245.618 423.086 246.386C423.494 247.142 423.698 248.024 423.698 249.032C423.698 250.028 423.494 250.916 423.086 251.696C422.678 252.476 422.114 253.082 421.394 253.514C420.686 253.946 419.894 254.162 419.018 254.162C418.178 254.162 417.434 253.976 416.786 253.604C416.15 253.22 415.664 252.746 415.328 252.182V258.68H413.69V244.136H415.328V245.954ZM422.024 249.032C422.024 248.288 421.874 247.64 421.574 247.088C421.274 246.536 420.866 246.116 420.35 245.828C419.846 245.54 419.288 245.396 418.676 245.396C418.076 245.396 417.518 245.546 417.002 245.846C416.498 246.134 416.09 246.56 415.778 247.124C415.478 247.676 415.328 248.318 415.328 249.05C415.328 249.794 415.478 250.448 415.778 251.012C416.09 251.564 416.498 251.99 417.002 252.29C417.518 252.578 418.076 252.722 418.676 252.722C419.288 252.722 419.846 252.578 420.35 252.29C420.866 251.99 421.274 251.564 421.574 251.012C421.874 250.448 422.024 249.788 422.024 249.032ZM430.696 254.162C429.772 254.162 428.932 253.952 428.176 253.532C427.432 253.112 426.844 252.518 426.412 251.75C425.992 250.97 425.782 250.07 425.782 249.05C425.782 248.042 425.998 247.154 426.43 246.386C426.874 245.606 427.474 245.012 428.23 244.604C428.986 244.184 429.832 243.974 430.768 243.974C431.704 243.974 432.55 244.184 433.306 244.604C434.062 245.012 434.656 245.6 435.088 246.368C435.532 247.136 435.754 248.03 435.754 249.05C435.754 250.07 435.526 250.97 435.07 251.75C434.626 252.518 434.02 253.112 433.252 253.532C432.484 253.952 431.632 254.162 430.696 254.162ZM430.696 252.722C431.284 252.722 431.836 252.584 432.352 252.308C432.868 252.032 433.282 251.618 433.594 251.066C433.918 250.514 434.08 249.842 434.08 249.05C434.08 248.258 433.924 247.586 433.612 247.034C433.3 246.482 432.892 246.074 432.388 245.81C431.884 245.534 431.338 245.396 430.75 245.396C430.15 245.396 429.598 245.534 429.094 245.81C428.602 246.074 428.206 246.482 427.906 247.034C427.606 247.586 427.456 248.258 427.456 249.05C427.456 249.854 427.6 250.532 427.888 251.084C428.188 251.636 428.584 252.05 429.076 252.326C429.568 252.59 430.108 252.722 430.696 252.722ZM440.086 245.738C440.374 245.174 440.782 244.736 441.31 244.424C441.85 244.112 442.504 243.956 443.272 243.956V245.648H442.84C441.004 245.648 440.086 246.644 440.086 248.636V254H438.448V244.136H440.086V245.738ZM447.7 245.486V251.3C447.7 251.78 447.802 252.122 448.006 252.326C448.21 252.518 448.564 252.614 449.068 252.614H450.274V254H448.798C447.886 254 447.202 253.79 446.746 253.37C446.29 252.95 446.062 252.26 446.062 251.3V245.486H444.784V244.136H446.062V241.652H447.7V244.136H450.274V245.486H447.7ZM459.776 245.972C460.112 245.384 460.604 244.904 461.252 244.532C461.9 244.16 462.638 243.974 463.466 243.974C464.354 243.974 465.152 244.184 465.86 244.604C466.568 245.024 467.126 245.618 467.534 246.386C467.942 247.142 468.146 248.024 468.146 249.032C468.146 250.028 467.942 250.916 467.534 251.696C467.126 252.476 466.562 253.082 465.842 253.514C465.134 253.946 464.342 254.162 463.466 254.162C462.614 254.162 461.864 253.976 461.216 253.604C460.58 253.232 460.1 252.758 459.776 252.182V254H458.138V240.68H459.776V245.972ZM466.472 249.032C466.472 248.288 466.322 247.64 466.022 247.088C465.722 246.536 465.314 246.116 464.798 245.828C464.294 245.54 463.736 245.396 463.124 245.396C462.524 245.396 461.966 245.546 461.45 245.846C460.946 246.134 460.538 246.56 460.226 247.124C459.926 247.676 459.776 248.318 459.776 249.05C459.776 249.794 459.926 250.448 460.226 251.012C460.538 251.564 460.946 251.99 461.45 252.29C461.966 252.578 462.524 252.722 463.124 252.722C463.736 252.722 464.294 252.578 464.798 252.29C465.314 251.99 465.722 251.564 466.022 251.012C466.322 250.448 466.472 249.788 466.472 249.032ZM475.144 254.162C474.22 254.162 473.38 253.952 472.624 253.532C471.88 253.112 471.292 252.518 470.86 251.75C470.44 250.97 470.23 250.07 470.23 249.05C470.23 248.042 470.446 247.154 470.878 246.386C471.322 245.606 471.922 245.012 472.678 244.604C473.434 244.184 474.28 243.974 475.216 243.974C476.152 243.974 476.998 244.184 477.754 244.604C478.51 245.012 479.104 245.6 479.536 246.368C479.98 247.136 480.202 248.03 480.202 249.05C480.202 250.07 479.974 250.97 479.518 251.75C479.074 252.518 478.468 253.112 477.7 253.532C476.932 253.952 476.08 254.162 475.144 254.162ZM475.144 252.722C475.732 252.722 476.284 252.584 476.8 252.308C477.316 252.032 477.73 251.618 478.042 251.066C478.366 250.514 478.528 249.842 478.528 249.05C478.528 248.258 478.372 247.586 478.06 247.034C477.748 246.482 477.34 246.074 476.836 245.81C476.332 245.534 475.786 245.396 475.198 245.396C474.598 245.396 474.046 245.534 473.542 245.81C473.05 246.074 472.654 246.482 472.354 247.034C472.054 247.586 471.904 248.258 471.904 249.05C471.904 249.854 472.048 250.532 472.336 251.084C472.636 251.636 473.032 252.05 473.524 252.326C474.016 252.59 474.556 252.722 475.144 252.722ZM484.894 245.486V251.3C484.894 251.78 484.996 252.122 485.2 252.326C485.404 252.518 485.758 252.614 486.262 252.614H487.468V254H485.992C485.08 254 484.396 253.79 483.94 253.37C483.484 252.95 483.256 252.26 483.256 251.3V245.486H481.978V244.136H483.256V241.652H484.894V244.136H487.468V245.486H484.894ZM490.514 254.108C490.202 254.108 489.938 254 489.722 253.784C489.506 253.568 489.398 253.304 489.398 252.992C489.398 252.68 489.506 252.416 489.722 252.2C489.938 251.984 490.202 251.876 490.514 251.876C490.814 251.876 491.066 251.984 491.27 252.2C491.486 252.416 491.594 252.68 491.594 252.992C491.594 253.304 491.486 253.568 491.27 253.784C491.066 254 490.814 254.108 490.514 254.108ZM515.418 241.454L511.782 254H509.946L507.03 243.902L504.006 254L502.188 254.018L498.678 241.454H500.424L503.16 252.092L506.184 241.454H508.02L510.9 252.056L513.654 241.454H515.418ZM522.647 243.956C523.391 243.956 524.063 244.118 524.663 244.442C525.263 244.754 525.731 245.228 526.067 245.864C526.415 246.5 526.589 247.274 526.589 248.186V254H524.969V248.42C524.969 247.436 524.723 246.686 524.231 246.17C523.739 245.642 523.067 245.378 522.215 245.378C521.351 245.378 520.661 245.648 520.145 246.188C519.641 246.728 519.389 247.514 519.389 248.546V254H517.751V240.68H519.389V245.54C519.713 245.036 520.157 244.646 520.721 244.37C521.297 244.094 521.939 243.956 522.647 243.956ZM529.193 249.032C529.193 248.024 529.397 247.142 529.805 246.386C530.213 245.618 530.771 245.024 531.479 244.604C532.199 244.184 532.997 243.974 533.873 243.974C534.737 243.974 535.487 244.16 536.123 244.532C536.759 244.904 537.233 245.372 537.545 245.936V244.136H539.201V254H537.545V252.164C537.221 252.74 536.735 253.22 536.087 253.604C535.451 253.976 534.707 254.162 533.855 254.162C532.979 254.162 532.187 253.946 531.479 253.514C530.771 253.082 530.213 252.476 529.805 251.696C529.397 250.916 529.193 250.028 529.193 249.032ZM537.545 249.05C537.545 248.306 537.395 247.658 537.095 247.106C536.795 246.554 536.387 246.134 535.871 245.846C535.367 245.546 534.809 245.396 534.197 245.396C533.585 245.396 533.027 245.54 532.523 245.828C532.019 246.116 531.617 246.536 531.317 247.088C531.017 247.64 530.867 248.288 530.867 249.032C530.867 249.788 531.017 250.448 531.317 251.012C531.617 251.564 532.019 251.99 532.523 252.29C533.027 252.578 533.585 252.722 534.197 252.722C534.809 252.722 535.367 252.578 535.871 252.29C536.387 251.99 536.795 251.564 537.095 251.012C537.395 250.448 537.545 249.794 537.545 249.05ZM544.507 245.486V251.3C544.507 251.78 544.609 252.122 544.813 252.326C545.017 252.518 545.371 252.614 545.875 252.614H547.081V254H545.605C544.693 254 544.009 253.79 543.553 253.37C543.097 252.95 542.869 252.26 542.869 251.3V245.486H541.591V244.136H542.869V241.652H544.507V244.136H547.081V245.486H544.507ZM554.332 249.032C554.332 248.024 554.536 247.142 554.944 246.386C555.352 245.618 555.91 245.024 556.618 244.604C557.338 244.184 558.142 243.974 559.03 243.974C559.798 243.974 560.512 244.154 561.172 244.514C561.832 244.862 562.336 245.324 562.684 245.9V240.68H564.34V254H562.684V252.146C562.36 252.734 561.88 253.22 561.244 253.604C560.608 253.976 559.864 254.162 559.012 254.162C558.136 254.162 557.338 253.946 556.618 253.514C555.91 253.082 555.352 252.476 554.944 251.696C554.536 250.916 554.332 250.028 554.332 249.032ZM562.684 249.05C562.684 248.306 562.534 247.658 562.234 247.106C561.934 246.554 561.526 246.134 561.01 245.846C560.506 245.546 559.948 245.396 559.336 245.396C558.724 245.396 558.166 245.54 557.662 245.828C557.158 246.116 556.756 246.536 556.456 247.088C556.156 247.64 556.006 248.288 556.006 249.032C556.006 249.788 556.156 250.448 556.456 251.012C556.756 251.564 557.158 251.99 557.662 252.29C558.166 252.578 558.724 252.722 559.336 252.722C559.948 252.722 560.506 252.578 561.01 252.29C561.526 251.99 561.934 251.564 562.234 251.012C562.534 250.448 562.684 249.794 562.684 249.05ZM571.95 254.162C571.026 254.162 570.186 253.952 569.43 253.532C568.686 253.112 568.098 252.518 567.666 251.75C567.246 250.97 567.036 250.07 567.036 249.05C567.036 248.042 567.252 247.154 567.684 246.386C568.128 245.606 568.728 245.012 569.484 244.604C570.24 244.184 571.086 243.974 572.022 243.974C572.958 243.974 573.804 244.184 574.56 244.604C575.316 245.012 575.91 245.6 576.342 246.368C576.786 247.136 577.008 248.03 577.008 249.05C577.008 250.07 576.78 250.97 576.324 251.75C575.88 252.518 575.274 253.112 574.506 253.532C573.738 253.952 572.886 254.162 571.95 254.162ZM571.95 252.722C572.538 252.722 573.09 252.584 573.606 252.308C574.122 252.032 574.536 251.618 574.848 251.066C575.172 250.514 575.334 249.842 575.334 249.05C575.334 248.258 575.178 247.586 574.866 247.034C574.554 246.482 574.146 246.074 573.642 245.81C573.138 245.534 572.592 245.396 572.004 245.396C571.404 245.396 570.852 245.534 570.348 245.81C569.856 246.074 569.46 246.482 569.16 247.034C568.86 247.586 568.71 248.258 568.71 249.05C568.71 249.854 568.854 250.532 569.142 251.084C569.442 251.636 569.838 252.05 570.33 252.326C570.822 252.59 571.362 252.722 571.95 252.722ZM593.537 244.136L587.597 258.644H585.905L587.849 253.892L583.871 244.136H585.689L588.785 252.128L591.845 244.136H593.537ZM600.025 254.162C599.101 254.162 598.261 253.952 597.505 253.532C596.761 253.112 596.173 252.518 595.741 251.75C595.321 250.97 595.111 250.07 595.111 249.05C595.111 248.042 595.327 247.154 595.759 246.386C596.203 245.606 596.803 245.012 597.559 244.604C598.315 244.184 599.161 243.974 600.097 243.974C601.033 243.974 601.879 244.184 602.635 244.604C603.391 245.012 603.985 245.6 604.417 246.368C604.861 247.136 605.083 248.03 605.083 249.05C605.083 250.07 604.855 250.97 604.399 251.75C603.955 252.518 603.349 253.112 602.581 253.532C601.813 253.952 600.961 254.162 600.025 254.162ZM600.025 252.722C600.613 252.722 601.165 252.584 601.681 252.308C602.197 252.032 602.611 251.618 602.923 251.066C603.247 250.514 603.409 249.842 603.409 249.05C603.409 248.258 603.253 247.586 602.941 247.034C602.629 246.482 602.221 246.074 601.717 245.81C601.213 245.534 600.667 245.396 600.079 245.396C599.479 245.396 598.927 245.534 598.423 245.81C597.931 246.074 597.535 246.482 597.235 247.034C596.935 247.586 596.785 248.258 596.785 249.05C596.785 249.854 596.929 250.532 597.217 251.084C597.517 251.636 597.913 252.05 598.405 252.326C598.897 252.59 599.437 252.722 600.025 252.722ZM616.525 244.136V254H614.887V252.542C614.575 253.046 614.137 253.442 613.573 253.73C613.021 254.006 612.409 254.144 611.737 254.144C610.969 254.144 610.279 253.988 609.667 253.676C609.055 253.352 608.569 252.872 608.209 252.236C607.861 251.6 607.687 250.826 607.687 249.914V244.136H609.307V249.698C609.307 250.67 609.553 251.42 610.045 251.948C610.537 252.464 611.209 252.722 612.061 252.722C612.937 252.722 613.627 252.452 614.131 251.912C614.635 251.372 614.887 250.586 614.887 249.554V244.136H616.525ZM629.975 243.956C631.175 243.956 632.147 244.322 632.891 245.054C633.635 245.774 634.007 246.818 634.007 248.186V254H632.387V248.42C632.387 247.436 632.141 246.686 631.649 246.17C631.157 245.642 630.485 245.378 629.633 245.378C628.769 245.378 628.079 245.648 627.563 246.188C627.059 246.728 626.807 247.514 626.807 248.546V254H625.169V244.136H626.807V245.54C627.131 245.036 627.569 244.646 628.121 244.37C628.685 244.094 629.303 243.956 629.975 243.956ZM646.223 248.69C646.223 249.002 646.205 249.332 646.169 249.68H638.285C638.345 250.652 638.675 251.414 639.275 251.966C639.887 252.506 640.625 252.776 641.489 252.776C642.197 252.776 642.785 252.614 643.253 252.29C643.733 251.954 644.069 251.51 644.261 250.958H646.025C645.761 251.906 645.233 252.68 644.441 253.28C643.649 253.868 642.665 254.162 641.489 254.162C640.553 254.162 639.713 253.952 638.969 253.532C638.237 253.112 637.661 252.518 637.241 251.75C636.821 250.97 636.611 250.07 636.611 249.05C636.611 248.03 636.815 247.136 637.223 246.368C637.631 245.6 638.201 245.012 638.933 244.604C639.677 244.184 640.529 243.974 641.489 243.974C642.425 243.974 643.253 244.178 643.973 244.586C644.693 244.994 645.245 245.558 645.629 246.278C646.025 246.986 646.223 247.79 646.223 248.69ZM644.531 248.348C644.531 247.724 644.393 247.19 644.117 246.746C643.841 246.29 643.463 245.948 642.983 245.72C642.515 245.48 641.993 245.36 641.417 245.36C640.589 245.36 639.881 245.624 639.293 246.152C638.717 246.68 638.387 247.412 638.303 248.348H644.531ZM657.925 248.69C657.925 249.002 657.907 249.332 657.871 249.68H649.987C650.047 250.652 650.377 251.414 650.977 251.966C651.589 252.506 652.327 252.776 653.191 252.776C653.899 252.776 654.487 252.614 654.955 252.29C655.435 251.954 655.771 251.51 655.963 250.958H657.727C657.463 251.906 656.935 252.68 656.143 253.28C655.351 253.868 654.367 254.162 653.191 254.162C652.255 254.162 651.415 253.952 650.671 253.532C649.939 253.112 649.363 252.518 648.943 251.75C648.523 250.97 648.313 250.07 648.313 249.05C648.313 248.03 648.517 247.136 648.925 246.368C649.333 245.6 649.903 245.012 650.635 244.604C651.379 244.184 652.231 243.974 653.191 243.974C654.127 243.974 654.955 244.178 655.675 244.586C656.395 244.994 656.947 245.558 657.331 246.278C657.727 246.986 657.925 247.79 657.925 248.69ZM656.233 248.348C656.233 247.724 656.095 247.19 655.819 246.746C655.543 246.29 655.165 245.948 654.685 245.72C654.217 245.48 653.695 245.36 653.119 245.36C652.291 245.36 651.583 245.624 650.995 246.152C650.419 246.68 650.089 247.412 650.005 248.348H656.233ZM660.015 249.032C660.015 248.024 660.219 247.142 660.627 246.386C661.035 245.618 661.593 245.024 662.301 244.604C663.021 244.184 663.825 243.974 664.713 243.974C665.481 243.974 666.195 244.154 666.855 244.514C667.515 244.862 668.019 245.324 668.367 245.9V240.68H670.023V254H668.367V252.146C668.043 252.734 667.563 253.22 666.927 253.604C666.291 253.976 665.547 254.162 664.695 254.162C663.819 254.162 663.021 253.946 662.301 253.514C661.593 253.082 661.035 252.476 660.627 251.696C660.219 250.916 660.015 250.028 660.015 249.032ZM668.367 249.05C668.367 248.306 668.217 247.658 667.917 247.106C667.617 246.554 667.209 246.134 666.693 245.846C666.189 245.546 665.631 245.396 665.019 245.396C664.407 245.396 663.849 245.54 663.345 245.828C662.841 246.116 662.439 246.536 662.139 247.088C661.839 247.64 661.689 248.288 661.689 249.032C661.689 249.788 661.839 250.448 662.139 251.012C662.439 251.564 662.841 251.99 663.345 252.29C663.849 252.578 664.407 252.722 665.019 252.722C665.631 252.722 666.189 252.578 666.693 252.29C667.209 251.99 667.617 251.564 667.917 251.012C668.217 250.448 668.367 249.794 668.367 249.05ZM683.566 243.956C684.31 243.956 684.982 244.118 685.582 244.442C686.182 244.754 686.65 245.228 686.986 245.864C687.334 246.5 687.508 247.274 687.508 248.186V254H685.888V248.42C685.888 247.436 685.642 246.686 685.15 246.17C684.658 245.642 683.986 245.378 683.134 245.378C682.27 245.378 681.58 245.648 681.064 246.188C680.56 246.728 680.308 247.514 680.308 248.546V254H678.67V240.68H680.308V245.54C680.632 245.036 681.076 244.646 681.64 244.37C682.216 244.094 682.858 243.956 683.566 243.956ZM699.724 248.69C699.724 249.002 699.706 249.332 699.67 249.68H691.786C691.846 250.652 692.176 251.414 692.776 251.966C693.388 252.506 694.126 252.776 694.99 252.776C695.698 252.776 696.286 252.614 696.754 252.29C697.234 251.954 697.57 251.51 697.762 250.958H699.526C699.262 251.906 698.734 252.68 697.942 253.28C697.15 253.868 696.166 254.162 694.99 254.162C694.054 254.162 693.214 253.952 692.47 253.532C691.738 253.112 691.162 252.518 690.742 251.75C690.322 250.97 690.112 250.07 690.112 249.05C690.112 248.03 690.316 247.136 690.724 246.368C691.132 245.6 691.702 245.012 692.434 244.604C693.178 244.184 694.03 243.974 694.99 243.974C695.926 243.974 696.754 244.178 697.474 244.586C698.194 244.994 698.746 245.558 699.13 246.278C699.526 246.986 699.724 247.79 699.724 248.69ZM698.032 248.348C698.032 247.724 697.894 247.19 697.618 246.746C697.342 246.29 696.964 245.948 696.484 245.72C696.016 245.48 695.494 245.36 694.918 245.36C694.09 245.36 693.382 245.624 692.794 246.152C692.218 246.68 691.888 247.412 691.804 248.348H698.032ZM704.064 240.68V254H702.426V240.68H704.064ZM709.034 245.954C709.358 245.39 709.838 244.922 710.474 244.55C711.122 244.166 711.872 243.974 712.724 243.974C713.6 243.974 714.392 244.184 715.1 244.604C715.82 245.024 716.384 245.618 716.792 246.386C717.2 247.142 717.404 248.024 717.404 249.032C717.404 250.028 717.2 250.916 716.792 251.696C716.384 252.476 715.82 253.082 715.1 253.514C714.392 253.946 713.6 254.162 712.724 254.162C711.884 254.162 711.14 253.976 710.492 253.604C709.856 253.22 709.37 252.746 709.034 252.182V258.68H707.396V244.136H709.034V245.954ZM715.73 249.032C715.73 248.288 715.58 247.64 715.28 247.088C714.98 246.536 714.572 246.116 714.056 245.828C713.552 245.54 712.994 245.396 712.382 245.396C711.782 245.396 711.224 245.546 710.708 245.846C710.204 246.134 709.796 246.56 709.484 247.124C709.184 247.676 709.034 248.318 709.034 249.05C709.034 249.794 709.184 250.448 709.484 251.012C709.796 251.564 710.204 251.99 710.708 252.29C711.224 252.578 711.782 252.722 712.382 252.722C712.994 252.722 713.552 252.578 714.056 252.29C714.572 251.99 714.98 251.564 715.28 251.012C715.58 250.448 715.73 249.788 715.73 249.032ZM738.579 244.136L735.501 254H733.809L731.433 246.17L729.057 254H727.365L724.269 244.136H725.943L728.211 252.416L730.659 244.136H732.333L734.727 252.434L736.959 244.136H738.579ZM741.59 242.534C741.278 242.534 741.014 242.426 740.798 242.21C740.582 241.994 740.474 241.73 740.474 241.418C740.474 241.106 740.582 240.842 740.798 240.626C741.014 240.41 741.278 240.302 741.59 240.302C741.89 240.302 742.142 240.41 742.346 240.626C742.562 240.842 742.67 241.106 742.67 241.418C742.67 241.73 742.562 241.994 742.346 242.21C742.142 242.426 741.89 242.534 741.59 242.534ZM742.382 244.136V254H740.744V244.136H742.382ZM747.712 245.486V251.3C747.712 251.78 747.814 252.122 748.018 252.326C748.222 252.518 748.576 252.614 749.08 252.614H750.286V254H748.81C747.898 254 747.214 253.79 746.758 253.37C746.302 252.95 746.074 252.26 746.074 251.3V245.486H744.796V244.136H746.074V241.652H747.712V244.136H750.286V245.486H747.712ZM757.707 243.956C758.451 243.956 759.123 244.118 759.723 244.442C760.323 244.754 760.791 245.228 761.127 245.864C761.475 246.5 761.649 247.274 761.649 248.186V254H760.029V248.42C760.029 247.436 759.783 246.686 759.291 246.17C758.799 245.642 758.127 245.378 757.275 245.378C756.411 245.378 755.721 245.648 755.205 246.188C754.701 246.728 754.449 247.514 754.449 248.546V254H752.811V240.68H754.449V245.54C754.773 245.036 755.217 244.646 755.781 244.37C756.357 244.094 756.999 243.956 757.707 243.956ZM768.068 241.292C769.256 241.292 770.216 241.628 770.948 242.3C771.68 242.972 772.046 243.872 772.046 245C772.046 246.26 771.656 247.196 770.876 247.808C770.096 248.408 769.04 248.708 767.708 248.708L767.654 250.418H766.232L766.16 247.574H766.682C767.87 247.574 768.8 247.394 769.472 247.034C770.144 246.674 770.48 245.996 770.48 245C770.48 244.28 770.264 243.71 769.832 243.29C769.4 242.87 768.818 242.66 768.086 242.66C767.342 242.66 766.754 242.864 766.322 243.272C765.902 243.668 765.692 244.214 765.692 244.91H764.144C764.144 244.19 764.306 243.56 764.63 243.02C764.954 242.468 765.41 242.042 765.998 241.742C766.598 241.442 767.288 241.292 768.068 241.292ZM766.934 254.108C766.622 254.108 766.358 254 766.142 253.784C765.926 253.568 765.818 253.304 765.818 252.992C765.818 252.68 765.926 252.416 766.142 252.2C766.358 251.984 766.622 251.876 766.934 251.876C767.234 251.876 767.486 251.984 767.69 252.2C767.906 252.416 768.014 252.68 768.014 252.992C768.014 253.304 767.906 253.568 767.69 253.784C767.486 254 767.234 254.108 766.934 254.108Z" fill="#323232"/>
<rect x="216.5" y="286.5" width="179" height="41" rx="4.5" stroke="#8B4E96"/>
<path d="M251.46 301.768V303.96H246.884V306.328H250.308V308.456H246.884V313H244.148V301.768H251.46ZM256.962 313.128C256.088 313.128 255.298 312.941 254.594 312.568C253.901 312.195 253.352 311.661 252.946 310.968C252.552 310.275 252.354 309.464 252.354 308.536C252.354 307.619 252.557 306.813 252.962 306.12C253.368 305.416 253.922 304.877 254.626 304.504C255.33 304.131 256.12 303.944 256.994 303.944C257.869 303.944 258.658 304.131 259.362 304.504C260.066 304.877 260.621 305.416 261.026 306.12C261.432 306.813 261.634 307.619 261.634 308.536C261.634 309.453 261.426 310.264 261.01 310.968C260.605 311.661 260.045 312.195 259.33 312.568C258.626 312.941 257.837 313.128 256.962 313.128ZM256.962 310.76C257.485 310.76 257.928 310.568 258.29 310.184C258.664 309.8 258.85 309.251 258.85 308.536C258.85 307.821 258.669 307.272 258.306 306.888C257.954 306.504 257.517 306.312 256.994 306.312C256.461 306.312 256.018 306.504 255.666 306.888C255.314 307.261 255.138 307.811 255.138 308.536C255.138 309.251 255.309 309.8 255.65 310.184C256.002 310.568 256.44 310.76 256.962 310.76ZM265.822 305.56C266.142 305.069 266.542 304.685 267.022 304.408C267.502 304.12 268.035 303.976 268.622 303.976V306.872H267.87C267.187 306.872 266.675 307.021 266.334 307.32C265.992 307.608 265.822 308.12 265.822 308.856V313H263.086V304.072H265.822V305.56ZM274.906 310.68V313H273.514C272.522 313 271.748 312.76 271.194 312.28C270.639 311.789 270.362 310.995 270.362 309.896V306.344H269.274V304.072H270.362V301.896H273.098V304.072H274.89V306.344H273.098V309.928C273.098 310.195 273.162 310.387 273.29 310.504C273.418 310.621 273.631 310.68 273.93 310.68H274.906ZM285.55 304.072L279.95 317.24H277.006L279.054 312.696L275.421 304.072H278.478L280.542 309.656L282.59 304.072H285.55ZM291.019 306.344H289.547V313H286.811V306.344H285.819V304.072H286.811V303.816C286.811 302.717 287.126 301.885 287.755 301.32C288.384 300.744 289.307 300.456 290.523 300.456C290.726 300.456 290.875 300.461 290.971 300.472V302.792C290.448 302.76 290.08 302.835 289.867 303.016C289.654 303.197 289.547 303.523 289.547 303.992V304.072H291.019V306.344ZM293.681 303.144C293.201 303.144 292.806 303.005 292.497 302.728C292.198 302.44 292.049 302.088 292.049 301.672C292.049 301.245 292.198 300.893 292.497 300.616C292.806 300.328 293.201 300.184 293.681 300.184C294.15 300.184 294.534 300.328 294.833 300.616C295.142 300.893 295.297 301.245 295.297 301.672C295.297 302.088 295.142 302.44 294.833 302.728C294.534 303.005 294.15 303.144 293.681 303.144ZM295.041 304.072V313H292.305V304.072H295.041ZM307.406 311.016H303.214L302.542 313H299.678L303.742 301.768H306.91L310.974 313H308.078L307.406 311.016ZM306.702 308.904L305.31 304.792L303.934 308.904H306.702ZM311.667 308.536C311.667 307.608 311.853 306.797 312.227 306.104C312.611 305.411 313.139 304.877 313.811 304.504C314.493 304.131 315.272 303.944 316.147 303.944C317.267 303.944 318.2 304.237 318.947 304.824C319.704 305.411 320.2 306.237 320.435 307.304H317.523C317.277 306.621 316.803 306.28 316.099 306.28C315.597 306.28 315.197 306.477 314.899 306.872C314.6 307.256 314.451 307.811 314.451 308.536C314.451 309.261 314.6 309.821 314.899 310.216C315.197 310.6 315.597 310.792 316.099 310.792C316.803 310.792 317.277 310.451 317.523 309.768H320.435C320.2 310.813 319.704 311.635 318.947 312.232C318.189 312.829 317.256 313.128 316.147 313.128C315.272 313.128 314.493 312.941 313.811 312.568C313.139 312.195 312.611 311.661 312.227 310.968C311.853 310.275 311.667 309.464 311.667 308.536ZM321.354 308.536C321.354 307.608 321.541 306.797 321.914 306.104C322.298 305.411 322.826 304.877 323.498 304.504C324.181 304.131 324.96 303.944 325.834 303.944C326.954 303.944 327.888 304.237 328.634 304.824C329.392 305.411 329.888 306.237 330.122 307.304H327.21C326.965 306.621 326.49 306.28 325.786 306.28C325.285 306.28 324.885 306.477 324.586 306.872C324.288 307.256 324.138 307.811 324.138 308.536C324.138 309.261 324.288 309.821 324.586 310.216C324.885 310.6 325.285 310.792 325.786 310.792C326.49 310.792 326.965 310.451 327.21 309.768H330.122C329.888 310.813 329.392 311.635 328.634 312.232C327.877 312.829 326.944 313.128 325.834 313.128C324.96 313.128 324.181 312.941 323.498 312.568C322.826 312.195 322.298 311.661 321.914 310.968C321.541 310.275 321.354 309.464 321.354 308.536ZM335.65 313.128C334.775 313.128 333.986 312.941 333.282 312.568C332.588 312.195 332.039 311.661 331.634 310.968C331.239 310.275 331.042 309.464 331.042 308.536C331.042 307.619 331.244 306.813 331.65 306.12C332.055 305.416 332.61 304.877 333.314 304.504C334.018 304.131 334.807 303.944 335.682 303.944C336.556 303.944 337.346 304.131 338.05 304.504C338.754 304.877 339.308 305.416 339.714 306.12C340.119 306.813 340.322 307.619 340.322 308.536C340.322 309.453 340.114 310.264 339.698 310.968C339.292 311.661 338.732 312.195 338.018 312.568C337.314 312.941 336.524 313.128 335.65 313.128ZM335.65 310.76C336.172 310.76 336.615 310.568 336.978 310.184C337.351 309.8 337.538 309.251 337.538 308.536C337.538 307.821 337.356 307.272 336.994 306.888C336.642 306.504 336.204 306.312 335.682 306.312C335.148 306.312 334.706 306.504 334.354 306.888C334.002 307.261 333.826 307.811 333.826 308.536C333.826 309.251 333.996 309.8 334.338 310.184C334.69 310.568 335.127 310.76 335.65 310.76ZM350.589 304.072V313H347.853V311.784C347.576 312.179 347.197 312.499 346.717 312.744C346.248 312.979 345.725 313.096 345.149 313.096C344.467 313.096 343.864 312.947 343.341 312.648C342.819 312.339 342.413 311.896 342.125 311.32C341.837 310.744 341.693 310.067 341.693 309.288V304.072H344.413V308.92C344.413 309.517 344.568 309.981 344.877 310.312C345.187 310.643 345.603 310.808 346.125 310.808C346.659 310.808 347.08 310.643 347.389 310.312C347.699 309.981 347.853 309.517 347.853 308.92V304.072H350.589ZM357.995 303.976C359.04 303.976 359.872 304.317 360.491 305C361.12 305.672 361.435 306.6 361.435 307.784V313H358.715V308.152C358.715 307.555 358.56 307.091 358.251 306.76C357.941 306.429 357.525 306.264 357.003 306.264C356.48 306.264 356.064 306.429 355.755 306.76C355.445 307.091 355.291 307.555 355.291 308.152V313H352.555V304.072H355.291V305.256C355.568 304.861 355.941 304.552 356.411 304.328C356.88 304.093 357.408 303.976 357.995 303.976ZM368.312 310.68V313H366.92C365.928 313 365.154 312.76 364.6 312.28C364.045 311.789 363.768 310.995 363.768 309.896V306.344H362.68V304.072H363.768V301.896H366.504V304.072H368.296V306.344H366.504V309.928C366.504 310.195 366.568 310.387 366.696 310.504C366.824 310.621 367.037 310.68 367.336 310.68H368.312Z" fill="#8B4E96"/>
<rect x="313.5" y="349.5" width="179" height="41" rx="4.5" stroke="#8B4E96"/>
<path d="M375.036 368.384C375.036 369.035 374.887 369.632 374.588 370.176C374.29 370.709 373.831 371.141 373.212 371.472C372.594 371.803 371.826 371.968 370.908 371.968H369.212V376H366.476V364.768H370.908C371.804 364.768 372.562 364.923 373.18 365.232C373.799 365.541 374.263 365.968 374.572 366.512C374.882 367.056 375.036 367.68 375.036 368.384ZM370.7 369.792C371.223 369.792 371.612 369.669 371.868 369.424C372.124 369.179 372.252 368.832 372.252 368.384C372.252 367.936 372.124 367.589 371.868 367.344C371.612 367.099 371.223 366.976 370.7 366.976H369.212V369.792H370.7ZM375.917 371.52C375.917 370.603 376.087 369.797 376.429 369.104C376.781 368.411 377.255 367.877 377.853 367.504C378.45 367.131 379.117 366.944 379.853 366.944C380.482 366.944 381.031 367.072 381.501 367.328C381.981 367.584 382.349 367.92 382.605 368.336V367.072H385.341V376H382.605V374.736C382.338 375.152 381.965 375.488 381.485 375.744C381.015 376 380.466 376.128 379.837 376.128C379.111 376.128 378.45 375.941 377.853 375.568C377.255 375.184 376.781 374.645 376.429 373.952C376.087 373.248 375.917 372.437 375.917 371.52ZM382.605 371.536C382.605 370.853 382.413 370.315 382.029 369.92C381.655 369.525 381.197 369.328 380.653 369.328C380.109 369.328 379.645 369.525 379.261 369.92C378.887 370.304 378.701 370.837 378.701 371.52C378.701 372.203 378.887 372.747 379.261 373.152C379.645 373.547 380.109 373.744 380.653 373.744C381.197 373.744 381.655 373.547 382.029 373.152C382.413 372.757 382.605 372.219 382.605 371.536ZM396.44 367.072L390.84 380.24H387.896L389.944 375.696L386.312 367.072H389.368L391.432 372.656L393.48 367.072H396.44ZM408.822 366.976C409.931 366.976 410.811 367.312 411.462 367.984C412.123 368.656 412.454 369.589 412.454 370.784V376H409.734V371.152C409.734 370.576 409.579 370.133 409.27 369.824C408.971 369.504 408.555 369.344 408.022 369.344C407.488 369.344 407.067 369.504 406.758 369.824C406.459 370.133 406.31 370.576 406.31 371.152V376H403.59V371.152C403.59 370.576 403.435 370.133 403.126 369.824C402.827 369.504 402.411 369.344 401.878 369.344C401.344 369.344 400.923 369.504 400.614 369.824C400.315 370.133 400.166 370.576 400.166 371.152V376H397.43V367.072H400.166V368.192C400.443 367.819 400.806 367.525 401.254 367.312C401.702 367.088 402.208 366.976 402.774 366.976C403.446 366.976 404.043 367.12 404.566 367.408C405.099 367.696 405.515 368.107 405.814 368.64C406.123 368.149 406.544 367.749 407.078 367.44C407.611 367.131 408.192 366.976 408.822 366.976ZM422.783 371.392C422.783 371.648 422.767 371.915 422.735 372.192H416.543C416.586 372.747 416.762 373.173 417.071 373.472C417.391 373.76 417.78 373.904 418.239 373.904C418.922 373.904 419.396 373.616 419.663 373.04H422.575C422.426 373.627 422.154 374.155 421.759 374.624C421.375 375.093 420.89 375.461 420.303 375.728C419.716 375.995 419.06 376.128 418.335 376.128C417.46 376.128 416.682 375.941 415.999 375.568C415.316 375.195 414.783 374.661 414.399 373.968C414.015 373.275 413.823 372.464 413.823 371.536C413.823 370.608 414.01 369.797 414.383 369.104C414.767 368.411 415.3 367.877 415.983 367.504C416.666 367.131 417.45 366.944 418.335 366.944C419.199 366.944 419.967 367.125 420.639 367.488C421.311 367.851 421.834 368.368 422.207 369.04C422.591 369.712 422.783 370.496 422.783 371.392ZM419.983 370.672C419.983 370.203 419.823 369.829 419.503 369.552C419.183 369.275 418.783 369.136 418.303 369.136C417.844 369.136 417.455 369.269 417.135 369.536C416.826 369.803 416.634 370.181 416.559 370.672H419.983ZM429.666 366.976C430.712 366.976 431.544 367.317 432.162 368C432.792 368.672 433.106 369.6 433.106 370.784V376H430.386V371.152C430.386 370.555 430.232 370.091 429.922 369.76C429.613 369.429 429.197 369.264 428.674 369.264C428.152 369.264 427.736 369.429 427.426 369.76C427.117 370.091 426.962 370.555 426.962 371.152V376H424.226V367.072H426.962V368.256C427.24 367.861 427.613 367.552 428.082 367.328C428.552 367.093 429.08 366.976 429.666 366.976ZM439.984 373.68V376H438.592C437.6 376 436.826 375.76 436.272 375.28C435.717 374.789 435.44 373.995 435.44 372.896V369.344H434.352V367.072H435.44V364.896H438.176V367.072H439.968V369.344H438.176V372.928C438.176 373.195 438.24 373.387 438.368 373.504C438.496 373.621 438.709 373.68 439.008 373.68H439.984Z" fill="#8B4E96"/>
<rect x="508.5" y="349.5" width="179" height="41" rx="4.5" stroke="#8B4E96"/>
<path d="M540.823 368.32C540.62 367.947 540.327 367.664 539.943 367.472C539.57 367.269 539.127 367.168 538.615 367.168C537.73 367.168 537.02 367.461 536.487 368.048C535.954 368.624 535.687 369.397 535.687 370.368C535.687 371.403 535.964 372.213 536.519 372.8C537.084 373.376 537.858 373.664 538.839 373.664C539.511 373.664 540.076 373.493 540.535 373.152C541.004 372.811 541.346 372.32 541.559 371.68H538.087V369.664H544.039V372.208C543.836 372.891 543.49 373.525 542.999 374.112C542.519 374.699 541.906 375.173 541.159 375.536C540.412 375.899 539.57 376.08 538.631 376.08C537.522 376.08 536.53 375.84 535.655 375.36C534.791 374.869 534.114 374.192 533.623 373.328C533.143 372.464 532.903 371.477 532.903 370.368C532.903 369.259 533.143 368.272 533.623 367.408C534.114 366.533 534.791 365.856 535.655 365.376C536.519 364.885 537.506 364.64 538.615 364.64C539.959 364.64 541.09 364.965 542.007 365.616C542.935 366.267 543.548 367.168 543.847 368.32H540.823ZM553.97 371.392C553.97 371.648 553.955 371.915 553.923 372.192H547.731C547.773 372.747 547.949 373.173 548.259 373.472C548.579 373.76 548.968 373.904 549.427 373.904C550.109 373.904 550.584 373.616 550.851 373.04H553.763C553.613 373.627 553.341 374.155 552.947 374.624C552.563 375.093 552.077 375.461 551.491 375.728C550.904 375.995 550.248 376.128 549.523 376.128C548.648 376.128 547.869 375.941 547.187 375.568C546.504 375.195 545.971 374.661 545.587 373.968C545.203 373.275 545.011 372.464 545.011 371.536C545.011 370.608 545.197 369.797 545.571 369.104C545.955 368.411 546.488 367.877 547.171 367.504C547.853 367.131 548.637 366.944 549.523 366.944C550.387 366.944 551.155 367.125 551.827 367.488C552.499 367.851 553.021 368.368 553.395 369.04C553.779 369.712 553.97 370.496 553.97 371.392ZM551.171 370.672C551.171 370.203 551.011 369.829 550.691 369.552C550.371 369.275 549.971 369.136 549.491 369.136C549.032 369.136 548.643 369.269 548.323 369.536C548.013 369.803 547.821 370.181 547.747 370.672H551.171ZM560.854 366.976C561.899 366.976 562.731 367.317 563.35 368C563.979 368.672 564.294 369.6 564.294 370.784V376H561.574V371.152C561.574 370.555 561.419 370.091 561.11 369.76C560.801 369.429 560.385 369.264 559.862 369.264C559.339 369.264 558.923 369.429 558.614 369.76C558.305 370.091 558.15 370.555 558.15 371.152V376H555.414V367.072H558.15V368.256C558.427 367.861 558.801 367.552 559.27 367.328C559.739 367.093 560.267 366.976 560.854 366.976ZM574.611 371.392C574.611 371.648 574.595 371.915 574.563 372.192H568.371C568.414 372.747 568.59 373.173 568.899 373.472C569.219 373.76 569.608 373.904 570.067 373.904C570.75 373.904 571.224 373.616 571.491 373.04H574.403C574.254 373.627 573.982 374.155 573.587 374.624C573.203 375.093 572.718 375.461 572.131 375.728C571.544 375.995 570.888 376.128 570.163 376.128C569.288 376.128 568.51 375.941 567.827 375.568C567.144 375.195 566.611 374.661 566.227 373.968C565.843 373.275 565.651 372.464 565.651 371.536C565.651 370.608 565.838 369.797 566.211 369.104C566.595 368.411 567.128 367.877 567.811 367.504C568.494 367.131 569.278 366.944 570.163 366.944C571.027 366.944 571.795 367.125 572.467 367.488C573.139 367.851 573.662 368.368 574.035 369.04C574.419 369.712 574.611 370.496 574.611 371.392ZM571.811 370.672C571.811 370.203 571.651 369.829 571.331 369.552C571.011 369.275 570.611 369.136 570.131 369.136C569.672 369.136 569.283 369.269 568.963 369.536C568.654 369.803 568.462 370.181 568.387 370.672H571.811ZM578.791 368.56C579.111 368.069 579.511 367.685 579.991 367.408C580.471 367.12 581.004 366.976 581.591 366.976V369.872H580.839C580.156 369.872 579.644 370.021 579.303 370.32C578.961 370.608 578.791 371.12 578.791 371.856V376H576.055V367.072H578.791V368.56ZM582.354 371.52C582.354 370.603 582.525 369.797 582.866 369.104C583.218 368.411 583.693 367.877 584.29 367.504C584.888 367.131 585.554 366.944 586.29 366.944C586.92 366.944 587.469 367.072 587.938 367.328C588.418 367.584 588.786 367.92 589.042 368.336V367.072H591.778V376H589.042V374.736C588.776 375.152 588.402 375.488 587.922 375.744C587.453 376 586.904 376.128 586.274 376.128C585.549 376.128 584.888 375.941 584.29 375.568C583.693 375.184 583.218 374.645 582.866 373.952C582.525 373.248 582.354 372.437 582.354 371.52ZM589.042 371.536C589.042 370.853 588.85 370.315 588.466 369.92C588.093 369.525 587.634 369.328 587.09 369.328C586.546 369.328 586.082 369.525 585.698 369.92C585.325 370.304 585.138 370.837 585.138 371.52C585.138 372.203 585.325 372.747 585.698 373.152C586.082 373.547 586.546 373.744 587.09 373.744C587.634 373.744 588.093 373.547 588.466 373.152C588.85 372.757 589.042 372.219 589.042 371.536ZM596.494 364.16V376H593.758V364.16H596.494ZM604.603 366.96V369.232H608.267V371.344H604.603V373.808H608.747V376H601.867V364.768H608.747V366.96H604.603ZM615.963 366.976C617.009 366.976 617.841 367.317 618.459 368C619.089 368.672 619.403 369.6 619.403 370.784V376H616.683V371.152C616.683 370.555 616.529 370.091 616.219 369.76C615.91 369.429 615.494 369.264 614.971 369.264C614.449 369.264 614.033 369.429 613.723 369.76C613.414 370.091 613.259 370.555 613.259 371.152V376H610.523V367.072H613.259V368.256C613.537 367.861 613.91 367.552 614.379 367.328C614.849 367.093 615.377 366.976 615.963 366.976ZM620.761 371.552C620.761 370.667 620.942 369.877 621.305 369.184C621.678 368.491 622.174 367.952 622.793 367.568C623.422 367.173 624.105 366.976 624.841 366.976C625.406 366.976 625.913 367.077 626.361 367.28C626.809 367.472 627.171 367.744 627.449 368.096V367.072H630.185V380.256H627.449V374.88C627.139 375.253 626.761 375.552 626.313 375.776C625.875 376 625.374 376.112 624.809 376.112C624.083 376.112 623.411 375.92 622.793 375.536C622.174 375.152 621.678 374.613 621.305 373.92C620.942 373.227 620.761 372.437 620.761 371.552ZM627.449 371.536C627.449 371.056 627.353 370.656 627.161 370.336C626.979 370.005 626.739 369.76 626.441 369.6C626.142 369.429 625.827 369.344 625.497 369.344C625.177 369.344 624.867 369.429 624.569 369.6C624.27 369.76 624.025 370.005 623.833 370.336C623.641 370.667 623.545 371.072 623.545 371.552C623.545 372.032 623.641 372.437 623.833 372.768C624.025 373.088 624.27 373.333 624.569 373.504C624.867 373.664 625.177 373.744 625.497 373.744C625.817 373.744 626.126 373.664 626.425 373.504C626.734 373.333 626.979 373.083 627.161 372.752C627.353 372.421 627.449 372.016 627.449 371.536ZM640.98 367.072V376H638.244V374.784C637.967 375.179 637.588 375.499 637.108 375.744C636.639 375.979 636.116 376.096 635.54 376.096C634.857 376.096 634.255 375.947 633.732 375.648C633.209 375.339 632.804 374.896 632.516 374.32C632.228 373.744 632.084 373.067 632.084 372.288V367.072H634.804V371.92C634.804 372.517 634.959 372.981 635.268 373.312C635.577 373.643 635.993 373.808 636.516 373.808C637.049 373.808 637.471 373.643 637.78 373.312C638.089 372.981 638.244 372.517 638.244 371.92V367.072H640.98ZM644.321 366.144C643.841 366.144 643.446 366.005 643.137 365.728C642.838 365.44 642.689 365.088 642.689 364.672C642.689 364.245 642.838 363.893 643.137 363.616C643.446 363.328 643.841 363.184 644.321 363.184C644.79 363.184 645.174 363.328 645.473 363.616C645.782 363.893 645.937 364.245 645.937 364.672C645.937 365.088 645.782 365.44 645.473 365.728C645.174 366.005 644.79 366.144 644.321 366.144ZM645.681 367.072V376H642.945V367.072H645.681ZM650.4 368.56C650.72 368.069 651.12 367.685 651.6 367.408C652.08 367.12 652.613 366.976 653.2 366.976V369.872H652.448C651.765 369.872 651.253 370.021 650.912 370.32C650.571 370.608 650.4 371.12 650.4 371.856V376H647.664V367.072H650.4V368.56ZM663.628 367.072L658.028 380.24H655.084L657.132 375.696L653.5 367.072H656.556L658.62 372.656L660.668 367.072H663.628Z" fill="#8B4E96"/>
<rect x="410.5" y="286.5" width="179" height="41" rx="4.5" stroke="#8B4E96"/>
<path d="M472.021 305.384C472.021 306.035 471.871 306.632 471.573 307.176C471.274 307.709 470.815 308.141 470.197 308.472C469.578 308.803 468.81 308.968 467.893 308.968H466.197V313H463.461V301.768H467.893C468.789 301.768 469.546 301.923 470.165 302.232C470.783 302.541 471.247 302.968 471.557 303.512C471.866 304.056 472.021 304.68 472.021 305.384ZM467.685 306.792C468.207 306.792 468.597 306.669 468.853 306.424C469.109 306.179 469.237 305.832 469.237 305.384C469.237 304.936 469.109 304.589 468.853 304.344C468.597 304.099 468.207 303.976 467.685 303.976H466.197V306.792H467.685ZM476.181 305.56C476.501 305.069 476.901 304.685 477.381 304.408C477.861 304.12 478.394 303.976 478.981 303.976V306.872H478.229C477.546 306.872 477.034 307.021 476.693 307.32C476.352 307.608 476.181 308.12 476.181 308.856V313H473.445V304.072H476.181V305.56ZM488.705 308.392C488.705 308.648 488.689 308.915 488.657 309.192H482.465C482.508 309.747 482.684 310.173 482.993 310.472C483.313 310.76 483.702 310.904 484.161 310.904C484.844 310.904 485.318 310.616 485.585 310.04H488.497C488.348 310.627 488.076 311.155 487.681 311.624C487.297 312.093 486.812 312.461 486.225 312.728C485.638 312.995 484.982 313.128 484.257 313.128C483.382 313.128 482.604 312.941 481.921 312.568C481.238 312.195 480.705 311.661 480.321 310.968C479.937 310.275 479.745 309.464 479.745 308.536C479.745 307.608 479.932 306.797 480.305 306.104C480.689 305.411 481.222 304.877 481.905 304.504C482.588 304.131 483.372 303.944 484.257 303.944C485.121 303.944 485.889 304.125 486.561 304.488C487.233 304.851 487.756 305.368 488.129 306.04C488.513 306.712 488.705 307.496 488.705 308.392ZM485.905 307.672C485.905 307.203 485.745 306.829 485.425 306.552C485.105 306.275 484.705 306.136 484.225 306.136C483.766 306.136 483.377 306.269 483.057 306.536C482.748 306.803 482.556 307.181 482.481 307.672H485.905ZM501.54 303.976C502.65 303.976 503.53 304.312 504.18 304.984C504.842 305.656 505.172 306.589 505.172 307.784V313H502.452V308.152C502.452 307.576 502.298 307.133 501.988 306.824C501.69 306.504 501.274 306.344 500.74 306.344C500.207 306.344 499.786 306.504 499.476 306.824C499.178 307.133 499.028 307.576 499.028 308.152V313H496.308V308.152C496.308 307.576 496.154 307.133 495.844 306.824C495.546 306.504 495.13 306.344 494.596 306.344C494.063 306.344 493.642 306.504 493.332 306.824C493.034 307.133 492.884 307.576 492.884 308.152V313H490.148V304.072H492.884V305.192C493.162 304.819 493.524 304.525 493.972 304.312C494.42 304.088 494.927 303.976 495.492 303.976C496.164 303.976 496.762 304.12 497.284 304.408C497.818 304.696 498.234 305.107 498.532 305.64C498.842 305.149 499.263 304.749 499.796 304.44C500.33 304.131 500.911 303.976 501.54 303.976ZM508.462 303.144C507.982 303.144 507.587 303.005 507.278 302.728C506.979 302.44 506.83 302.088 506.83 301.672C506.83 301.245 506.979 300.893 507.278 300.616C507.587 300.328 507.982 300.184 508.462 300.184C508.931 300.184 509.315 300.328 509.614 300.616C509.923 300.893 510.078 301.245 510.078 301.672C510.078 302.088 509.923 302.44 509.614 302.728C509.315 303.005 508.931 303.144 508.462 303.144ZM509.822 304.072V313H507.086V304.072H509.822ZM520.621 304.072V313H517.885V311.784C517.607 312.179 517.229 312.499 516.749 312.744C516.279 312.979 515.757 313.096 515.181 313.096C514.498 313.096 513.895 312.947 513.373 312.648C512.85 312.339 512.445 311.896 512.157 311.32C511.869 310.744 511.725 310.067 511.725 309.288V304.072H514.445V308.92C514.445 309.517 514.599 309.981 514.909 310.312C515.218 310.643 515.634 310.808 516.157 310.808C516.69 310.808 517.111 310.643 517.421 310.312C517.73 309.981 517.885 309.517 517.885 308.92V304.072H520.621ZM533.978 303.976C535.087 303.976 535.967 304.312 536.618 304.984C537.279 305.656 537.61 306.589 537.61 307.784V313H534.89V308.152C534.89 307.576 534.735 307.133 534.426 306.824C534.127 306.504 533.711 306.344 533.178 306.344C532.644 306.344 532.223 306.504 531.914 306.824C531.615 307.133 531.466 307.576 531.466 308.152V313H528.746V308.152C528.746 307.576 528.591 307.133 528.282 306.824C527.983 306.504 527.567 306.344 527.034 306.344C526.5 306.344 526.079 306.504 525.77 306.824C525.471 307.133 525.322 307.576 525.322 308.152V313H522.586V304.072H525.322V305.192C525.599 304.819 525.962 304.525 526.41 304.312C526.858 304.088 527.364 303.976 527.93 303.976C528.602 303.976 529.199 304.12 529.722 304.408C530.255 304.696 530.671 305.107 530.97 305.64C531.279 305.149 531.7 304.749 532.234 304.44C532.767 304.131 533.348 303.976 533.978 303.976Z" fill="#8B4E96"/>
<rect x="604.5" y="286.5" width="179" height="41" rx="4.5" stroke="#8B4E96"/>
<path d="M665.856 307.368C665.856 306.259 666.096 305.272 666.576 304.408C667.056 303.533 667.723 302.856 668.576 302.376C669.44 301.885 670.416 301.64 671.504 301.64C672.837 301.64 673.979 301.992 674.928 302.696C675.877 303.4 676.512 304.36 676.832 305.576H673.824C673.6 305.107 673.28 304.749 672.864 304.504C672.459 304.259 671.995 304.136 671.472 304.136C670.629 304.136 669.947 304.429 669.424 305.016C668.901 305.603 668.64 306.387 668.64 307.368C668.64 308.349 668.901 309.133 669.424 309.72C669.947 310.307 670.629 310.6 671.472 310.6C671.995 310.6 672.459 310.477 672.864 310.232C673.28 309.987 673.6 309.629 673.824 309.16H676.832C676.512 310.376 675.877 311.336 674.928 312.04C673.979 312.733 672.837 313.08 671.504 313.08C670.416 313.08 669.44 312.84 668.576 312.36C667.723 311.869 667.056 311.192 666.576 310.328C666.096 309.464 665.856 308.477 665.856 307.368ZM681.244 301.16V313H678.508V301.16H681.244ZM682.682 308.52C682.682 307.603 682.853 306.797 683.194 306.104C683.546 305.411 684.021 304.877 684.618 304.504C685.216 304.131 685.882 303.944 686.618 303.944C687.248 303.944 687.797 304.072 688.266 304.328C688.746 304.584 689.114 304.92 689.37 305.336V304.072H692.106V313H689.37V311.736C689.104 312.152 688.73 312.488 688.25 312.744C687.781 313 687.232 313.128 686.602 313.128C685.877 313.128 685.216 312.941 684.618 312.568C684.021 312.184 683.546 311.645 683.194 310.952C682.853 310.248 682.682 309.437 682.682 308.52ZM689.37 308.536C689.37 307.853 689.178 307.315 688.794 306.92C688.421 306.525 687.962 306.328 687.418 306.328C686.874 306.328 686.41 306.525 686.026 306.92C685.653 307.304 685.466 307.837 685.466 308.52C685.466 309.203 685.653 309.747 686.026 310.152C686.41 310.547 686.874 310.744 687.418 310.744C687.962 310.744 688.421 310.547 688.794 310.152C689.178 309.757 689.37 309.219 689.37 308.536ZM695.462 303.144C694.982 303.144 694.587 303.005 694.278 302.728C693.979 302.44 693.83 302.088 693.83 301.672C693.83 301.245 693.979 300.893 694.278 300.616C694.587 300.328 694.982 300.184 695.462 300.184C695.931 300.184 696.315 300.328 696.614 300.616C696.923 300.893 697.078 301.245 697.078 301.672C697.078 302.088 696.923 302.44 696.614 302.728C696.315 303.005 695.931 303.144 695.462 303.144ZM696.822 304.072V313H694.086V304.072H696.822ZM710.197 303.976C711.306 303.976 712.186 304.312 712.837 304.984C713.498 305.656 713.829 306.589 713.829 307.784V313H711.109V308.152C711.109 307.576 710.954 307.133 710.645 306.824C710.346 306.504 709.93 306.344 709.397 306.344C708.863 306.344 708.442 306.504 708.133 306.824C707.834 307.133 707.685 307.576 707.685 308.152V313H704.965V308.152C704.965 307.576 704.81 307.133 704.501 306.824C704.202 306.504 703.786 306.344 703.253 306.344C702.719 306.344 702.298 306.504 701.989 306.824C701.69 307.133 701.541 307.576 701.541 308.152V313H698.805V304.072H701.541V305.192C701.818 304.819 702.181 304.525 702.629 304.312C703.077 304.088 703.583 303.976 704.149 303.976C704.821 303.976 705.418 304.12 705.941 304.408C706.474 304.696 706.89 305.107 707.189 305.64C707.498 305.149 707.919 304.749 708.453 304.44C708.986 304.131 709.567 303.976 710.197 303.976ZM719.374 313.128C718.595 313.128 717.902 312.995 717.294 312.728C716.686 312.461 716.206 312.099 715.854 311.64C715.502 311.171 715.305 310.648 715.262 310.072H717.966C717.998 310.381 718.142 310.632 718.398 310.824C718.654 311.016 718.969 311.112 719.342 311.112C719.683 311.112 719.945 311.048 720.126 310.92C720.318 310.781 720.414 310.605 720.414 310.392C720.414 310.136 720.281 309.949 720.014 309.832C719.747 309.704 719.315 309.565 718.718 309.416C718.078 309.267 717.545 309.112 717.118 308.952C716.691 308.781 716.323 308.52 716.014 308.168C715.705 307.805 715.55 307.32 715.55 306.712C715.55 306.2 715.689 305.736 715.966 305.32C716.254 304.893 716.67 304.557 717.214 304.312C717.769 304.067 718.425 303.944 719.182 303.944C720.302 303.944 721.182 304.221 721.822 304.776C722.473 305.331 722.846 306.067 722.942 306.984H720.414C720.371 306.675 720.233 306.429 719.998 306.248C719.774 306.067 719.475 305.976 719.102 305.976C718.782 305.976 718.537 306.04 718.366 306.168C718.195 306.285 718.11 306.451 718.11 306.664C718.11 306.92 718.243 307.112 718.51 307.24C718.787 307.368 719.214 307.496 719.79 307.624C720.451 307.795 720.99 307.965 721.406 308.136C721.822 308.296 722.185 308.563 722.494 308.936C722.814 309.299 722.979 309.789 722.99 310.408C722.99 310.931 722.841 311.4 722.542 311.816C722.254 312.221 721.833 312.541 721.278 312.776C720.734 313.011 720.099 313.128 719.374 313.128Z" fill="#8B4E96"/>
</svg>
