<svg width="24" height="25" viewBox="0 0 24 25" fill="none" xmlns="http://www.w3.org/2000/svg">
<path d="M6 12.5918L12 6.5918L18 12.5918L12 18.5918L6 12.5918Z" fill="#8B4E96"/>
<path d="M12 3.5918C13.78 3.5918 15.5201 4.11964 17.0001 5.10857C18.4802 6.0975 19.6337 7.50311 20.3149 9.14765C20.9961 10.7922 21.1743 12.6018 20.8271 14.3476C20.4798 16.0934 19.6226 17.6971 18.364 18.9558C17.1053 20.2144 15.5016 21.0716 13.7558 21.4189C12.01 21.7661 10.2004 21.5879 8.55585 20.9067C6.91132 20.2255 5.50571 19.072 4.51678 17.5919C3.52785 16.1119 3 14.3718 3 12.5918C3.00278 10.2057 3.95189 7.91813 5.63911 6.23091C7.32634 4.54368 9.61391 3.59458 12 3.5918ZM12 2.0918C9.9233 2.0918 7.89323 2.70761 6.16652 3.86137C4.4398 5.01512 3.09399 6.655 2.29927 8.57362C1.50455 10.4922 1.29661 12.6034 1.70176 14.6402C2.1069 16.677 3.10693 18.548 4.57538 20.0164C6.04383 21.4849 7.91476 22.4849 9.95156 22.89C11.9884 23.2952 14.0996 23.0873 16.0182 22.2925C17.9368 21.4978 19.5767 20.152 20.7304 18.4253C21.8842 16.6986 22.5 14.6685 22.5 12.5918C22.5 9.80702 21.3938 7.13631 19.4246 5.16718C17.4555 3.19804 14.7848 2.0918 12 2.0918Z" fill="#8B4E96"/>
</svg>
