<svg width="30" height="30" viewBox="0 0 30 30" fill="none" xmlns="http://www.w3.org/2000/svg">
<circle cx="15" cy="15" r="15" fill="#BA68C8" fill-opacity="0.3"/>
<path d="M23.7326 9.70317C23.1064 9.98067 22.4336 10.1682 21.7264 10.2529C22.4561 9.81627 23.0021 9.12902 23.2624 8.31942C22.5768 8.72667 21.8264 9.01332 21.0439 9.16692C20.5177 8.60507 19.8207 8.23267 19.0611 8.10753C18.3016 7.98239 17.5219 8.11152 16.8433 8.47486C16.1647 8.83821 15.625 9.41545 15.308 10.117C14.991 10.8185 14.9145 11.605 15.0904 12.3544C13.7011 12.2847 12.3421 11.9236 11.1014 11.2946C9.86079 10.6656 8.76626 9.78279 7.88887 8.70342C7.58887 9.22092 7.41638 9.82092 7.41638 10.4599C7.41604 11.0352 7.5577 11.6016 7.82878 12.109C8.09987 12.6163 8.492 13.049 8.97038 13.3684C8.41558 13.3508 7.87303 13.2009 7.38788 12.9312V12.9762C7.38782 13.783 7.6669 14.565 8.17776 15.1894C8.68862 15.8139 9.3998 16.2424 10.1906 16.4022C9.67596 16.5415 9.13638 16.562 8.61263 16.4622C8.83575 17.1564 9.27037 17.7634 9.85565 18.1984C10.4409 18.6333 11.1476 18.8743 11.8766 18.8877C10.639 19.8592 9.11054 20.3862 7.53712 20.3839C7.25841 20.384 6.97993 20.3677 6.70312 20.3352C8.30023 21.3621 10.1594 21.907 12.0581 21.9049C18.4856 21.9049 21.9994 16.5814 21.9994 11.9644C21.9994 11.8144 21.9956 11.6629 21.9889 11.5129C22.6723 11.0187 23.2623 10.4066 23.7311 9.70542L23.7326 9.70317Z" fill="#360040"/>
</svg>
