<svg width="100" height="100" viewBox="0 0 100 100" fill="none" xmlns="http://www.w3.org/2000/svg">
<circle cx="50" cy="50" r="50" fill="#F8F8F8"/>
<path fill-rule="evenodd" clip-rule="evenodd" d="M89 50C89 60.3434 84.8911 70.2632 77.5772 77.5772C70.2632 84.8911 60.3434 89 50 89C39.6566 89 29.7368 84.8911 22.4228 77.5772C15.1089 70.2632 11 60.3434 11 50C11 39.6566 15.1089 29.7368 22.4228 22.4228C29.7368 15.1089 39.6566 11 50 11C60.3434 11 70.2632 15.1089 77.5772 22.4228C84.8911 29.7368 89 39.6566 89 50ZM62.1875 37.8125C62.1875 41.0448 60.9035 44.1448 58.6179 46.4304C56.3323 48.716 53.2323 50 50 50C46.7677 50 43.6677 48.716 41.3821 46.4304C39.0965 44.1448 37.8125 41.0448 37.8125 37.8125C37.8125 34.5802 39.0965 31.4802 41.3821 29.1946C43.6677 26.909 46.7677 25.625 50 25.625C53.2323 25.625 56.3323 26.909 58.6179 29.1946C60.9035 31.4802 62.1875 34.5802 62.1875 37.8125ZM50 59.75C45.4683 59.7458 40.9978 60.7964 36.9423 62.8187C32.8869 64.8409 29.3577 67.7793 26.6341 71.4013C29.5993 74.6465 33.2089 77.2375 37.2322 79.0087C41.2555 80.7798 45.6041 81.6922 50 81.6875C54.3959 81.6922 58.7445 80.7798 62.7678 79.0087C66.7911 77.2375 70.4007 74.6465 73.3659 71.4013C70.6423 67.7793 67.1131 64.8409 63.0577 62.8187C59.0022 60.7964 54.5317 59.7458 50 59.75Z" fill="#ACAFAE"/>
</svg>
