<svg width="26" height="16" viewBox="0 0 26 16" fill="none" xmlns="http://www.w3.org/2000/svg">
<path d="M16.4265 1.71289H9.42505V14.2902H16.4265V1.71289Z" fill="#FF5A00"/>
<path d="M9.89105 8C9.89105 5.44466 11.0925 3.1767 12.936 1.71133C11.5793 0.64466 9.86775 0 8.00088 0C3.57838 0 0 3.57799 0 8C0 12.422 3.57838 16 8.00088 16C9.86775 16 11.5793 15.3553 12.936 14.2887C11.0899 12.844 9.89105 10.5553 9.89105 8Z" fill="#EB001B"/>
<path d="M25.8721 8C25.8721 12.422 22.2937 16 17.8712 16C16.0043 16 14.2928 15.3553 12.936 14.2887C14.8029 12.8207 15.981 10.5553 15.981 8C15.981 5.44466 14.7796 3.1767 12.936 1.71133C14.2902 0.64466 16.0017 0 17.8686 0C22.2937 0 25.8721 3.60129 25.8721 8Z" fill="#F79E1B"/>
</svg>
